<?xml version="1.0" standalone="no"?>
<!DOCTYPE svg PUBLIC "-//W3C//DTD SVG 1.1//EN" "http://www.w3.org/Graphics/SVG/1.1/DTD/svg11.dtd" >
<svg>
<metadata>
Created by FontForge 20110222 at Thu Apr 17 08:17:16 2014
 By Orthosie Webhosting
Copyright (c) The Font Bureau, Inc., 2006. All rights reserved.
</metadata>
<defs>
<font id="FordAntenna-LightItalic" horiz-adv-x="621" >
  <font-face 
    font-family="Ford Antenna Light"
    font-weight="300"
    font-style="italic"
    font-stretch="normal"
    units-per-em="1000"
    panose-1="2 0 5 3 0 0 0 9 0 4"
    ascent="800"
    descent="-200"
    x-height="552"
    cap-height="741"
    bbox="-141 -248 1498.86 1209"
    underline-thickness="50"
    underline-position="-50"
    slope="-12"
    unicode-range="U+0020-FB04"
  />
<missing-glyph horiz-adv-x="500" 
d="M0 0v700h500v-700h-500zM50 650v-600h400v600h-400z" />
    <glyph glyph-name="fi" unicode="fi" horiz-adv-x="596" 
d="M54 483l15 69h104l15 67c22 102 68 157 194 157h51l-14 -67h-36c-84 0 -108 -40 -121 -99l-13 -58h136l-14 -69h-136l-138 -648h-76l138 648h-105zM361 0l117 552h76l-118 -552h-75zM494 625l22 108h76l-22 -108h-76z" />
    <glyph glyph-name="fl" unicode="fl" horiz-adv-x="650" 
d="M54 483l15 69h104l15 67c22 102 68 157 194 157h51l-14 -67h-36c-84 0 -108 -40 -121 -99l-13 -58h136l-14 -69h-136l-138 -648h-76l138 648h-105zM481 -1c-98 0 -111 48 -90 147l135 630h75l-135 -636c-12 -54 -9 -73 47 -73h25l-14 -66c-9 -1 -27 -2 -43 -2z" />
    <glyph glyph-name="f_f" unicode="ff" horiz-adv-x="681" 
d="M325 -165l139 648h-229l-138 -648h-76l138 648h-105l15 69h104l15 67c22 102 68 157 194 157h51l-14 -67h-36c-84 0 -108 -40 -121 -99l-13 -58h229l15 67c22 102 67 157 194 157h56l-13 -67h-42c-84 0 -109 -40 -122 -99l-13 -58h142l-14 -69h-142l-138 -648h-76z" />
    <glyph glyph-name="f_f_i" unicode="ffi" horiz-adv-x="901" 
d="M325 -165l139 648h-229l-138 -648h-76l138 648h-105l15 69h104l15 67c22 102 68 157 194 157h51l-14 -67h-36c-84 0 -108 -40 -121 -99l-13 -58h229l15 67c22 102 67 157 194 157h50l-13 -67h-36c-84 0 -109 -40 -122 -99l-13 -58h136l-14 -69h-136l-138 -648h-76zM665 0
l117 552h76l-117 -552h-76zM798 625l22 108h77l-23 -108h-76z" />
    <glyph glyph-name="f_f_l" unicode="ffl" horiz-adv-x="955" 
d="M325 -165l139 648h-229l-138 -648h-76l138 648h-105l15 69h104l15 67c22 102 68 157 194 157h51l-14 -67h-36c-84 0 -108 -40 -121 -99l-13 -58h229l15 67c22 102 67 157 194 157h50l-13 -67h-36c-84 0 -109 -40 -122 -99l-13 -58h136l-14 -69h-136l-138 -648h-76z
M786 -1c-99 0 -111 48 -90 147l134 630h76l-136 -636c-11 -54 -9 -73 47 -73h25l-14 -66c-8 -1 -27 -2 -42 -2z" />
    <glyph glyph-name="f_j" unicode="fj" horiz-adv-x="596" 
d="M54 483l15 69h104l15 67c22 102 68 157 194 157h51l-14 -67h-36c-84 0 -108 -40 -121 -99l-13 -58h136l-14 -69h-136l-138 -648h-76l138 648h-105zM247 -167l12 63h7c62 0 76 18 90 86l122 570h76l-124 -579c-23 -112 -54 -140 -155 -140h-28zM494 625l22 108h76
l-22 -108h-76z" />
    <glyph glyph-name="f_t" unicode="ft" horiz-adv-x="692" 
d="M54 483l15 69h104l15 67c22 102 68 157 194 157h47l-14 -67h-32c-84 0 -108 -40 -121 -99l-13 -58h221l50 166l61 11l-38 -177h138l-14 -69h-139l-70 -332c-11 -51 -11 -84 66 -84h53l-13 -67c-9 -1 -51 -1 -62 -1c-132 0 -138 62 -119 155l71 329h-219l-138 -648h-76
l138 648h-105z" />
    <glyph glyph-name=".notdef" horiz-adv-x="500" 
d="M0 0v700h500v-700h-500zM50 650v-600h400v600h-400z" />
    <glyph glyph-name="space" unicode=" " horiz-adv-x="235" 
 />
    <glyph glyph-name="Eth" unicode="&#xd0;" horiz-adv-x="739" 
d="M-4 351l14 66h87l69 324h170c268 0 371 -78 371 -257c0 -44 -5 -95 -18 -152c-60 -281 -193 -332 -406 -332h-275l75 351h-87zM101 72h183c185 0 279 50 327 271c10 49 16 92 16 131c0 132 -76 193 -291 193h-106l-54 -250h167l-14 -66h-168z" />
    <glyph glyph-name="eth" unicode="&#xf0;" horiz-adv-x="611" 
d="M334 594l13 68l78 21c-18 25 -38 48 -60 70l71 32c24 -24 47 -50 67 -82l159 43l-13 -70l-116 -30c21 -52 34 -114 34 -190c0 -64 -8 -135 -26 -213c-43 -189 -135 -254 -287 -254c-170 0 -237 82 -237 208c0 35 4 69 12 106c37 172 123 251 271 251
c105 0 158 -24 186 -69c3 50 -8 98 -28 141zM254 58c116 0 180 57 211 194c7 31 10 60 10 85c0 89 -45 145 -161 145c-117 0 -180 -60 -210 -196c-7 -30 -10 -59 -10 -87c0 -87 45 -141 160 -141z" />
    <glyph glyph-name="Lslash" unicode="&#x141;" horiz-adv-x="573" 
d="M-13 304l14 70l97 48l68 319h78l-59 -275l189 94l-16 -71l-188 -94l-69 -323h380l-14 -72h-459l75 352z" />
    <glyph glyph-name="lslash" unicode="&#x142;" horiz-adv-x="353" 
d="M25 388l15 67l112 58l56 263h76l-47 -219l126 65l-15 -68l-125 -65l-75 -351c-11 -55 -8 -73 48 -73h24l-14 -64c-8 -1 -26 -2 -42 -2c-98 0 -111 48 -90 145l64 302z" />
    <glyph glyph-name="Scaron" unicode="&#x160;" horiz-adv-x="683" 
d="M385 785l-112 156h73l90 -107l135 107h77l-178 -156h-85zM300 -10c-146 0 -240 36 -323 97l49 58c77 -56 159 -85 277 -85c106 0 208 29 208 145c0 91 -73 107 -189 143c-120 38 -215 66 -215 191c0 164 129 214 262 214c147 0 225 -39 276 -79l-51 -60
c-45 35 -114 67 -227 67c-95 0 -180 -32 -180 -136c0 -79 70 -100 168 -129c144 -43 236 -73 236 -197c0 -175 -137 -229 -291 -229z" />
    <glyph glyph-name="scaron" unicode="&#x161;" horiz-adv-x="502" 
d="M259 610l-112 156h73l90 -107l135 107h77l-178 -156h-85zM210 -10c-98 0 -183 29 -242 79l49 54c52 -42 124 -67 199 -67c69 0 130 20 130 105c0 55 -61 74 -125 93c-76 23 -160 49 -160 143c0 118 85 168 204 168c103 0 169 -30 210 -60l-48 -59c-33 23 -83 49 -167 49
c-75 0 -122 -27 -122 -90c0 -51 60 -70 123 -89c80 -25 161 -54 161 -148c0 -139 -97 -178 -212 -178z" />
    <glyph glyph-name="Yacute" unicode="&#xdd;" horiz-adv-x="680" 
d="M220 0l63 292l-189 449h82l160 -375l317 375h87l-380 -452l-61 -289h-79zM347 785l184 156h96l-205 -156h-75z" />
    <glyph glyph-name="yacute" unicode="&#xfd;" horiz-adv-x="510" 
d="M22 -167c-19 0 -48 0 -58 1l12 62h43c50 0 61 13 88 59l32 53l-89 544h78l69 -451l258 451h81l-362 -615c-46 -80 -77 -104 -152 -104zM228 610l184 156h96l-205 -156h-75z" />
    <glyph glyph-name="Thorn" unicode="&#xde;" horiz-adv-x="686" 
d="M8 0l158 741h77l-27 -122h191c183 0 251 -67 251 -172c0 -171 -87 -281 -268 -281h-269l-36 -166h-77zM134 236h254c120 0 189 66 189 196c0 77 -52 116 -178 116h-197z" />
    <glyph glyph-name="thorn" unicode="&#xfe;" horiz-adv-x="627" 
d="M-37 -165l200 941h75l-59 -273c37 45 92 62 187 62c154 0 206 -82 206 -199c0 -35 -5 -75 -15 -116c-37 -166 -101 -259 -262 -259c-128 0 -189 29 -206 87l-51 -243h-75zM286 60c114 0 165 63 195 197c7 35 12 67 12 96c0 85 -38 140 -150 140
c-113 0 -173 -37 -208 -200c-8 -36 -13 -69 -13 -97c0 -94 48 -136 164 -136z" />
    <glyph glyph-name="Zcaron" unicode="&#x17d;" horiz-adv-x="645" 
d="M367 785l-112 156h73l90 -107l135 107h77l-178 -156h-85zM-34 0l13 63l569 603h-423l16 75h524l-14 -68l-567 -601h449l-15 -72h-552z" />
    <glyph glyph-name="zcaron" unicode="&#x17e;" horiz-adv-x="482" 
d="M250 610l-112 156h73l90 -107l135 107h77l-178 -156h-85zM-46 0l12 57l399 426h-290l13 69h390l-12 -58l-400 -429h320l-13 -65h-419z" />
    <glyph glyph-name="onehalf" unicode="&#xbd;" horiz-adv-x="940" 
d="M128 287l84 397h-89l12 57h153l-96 -454h-64zM95 0l571 741h69l-570 -741h-70zM483 0l10 48l178 148c97 83 119 98 119 158c0 32 -25 50 -86 50c-33 0 -73 -7 -106 -21l-20 51c39 16 82 26 131 26c102 0 144 -34 144 -97c0 -84 -23 -106 -133 -198l-134 -112h205l-10 -53
h-298z" />
    <glyph glyph-name="onequarter" unicode="&#xbc;" horiz-adv-x="869" 
d="M412 104l10 50l266 300h68l-265 -298h153l40 139h49l-30 -139h77l-11 -52h-77l-22 -104h-59l22 104h-221zM95 0l571 741h69l-570 -741h-70zM128 287l84 397h-89l12 57h153l-96 -454h-64z" />
    <glyph glyph-name="onesuperior" unicode="&#xb9;" horiz-adv-x="332" 
d="M137 287l84 397h-88l12 57h152l-96 -454h-64z" />
    <glyph glyph-name="threequarters" unicode="&#xbe;" horiz-adv-x="966" 
d="M221 285c-79 0 -130 18 -179 50l34 46c43 -28 84 -44 144 -44c64 0 102 36 102 109c0 41 -17 67 -94 67h-61l12 51h78c64 0 95 20 95 82c0 35 -25 51 -87 51c-24 0 -72 -5 -112 -25l-23 48c51 28 112 31 144 31c95 0 142 -32 142 -93c0 -74 -29 -106 -81 -121
c36 -16 49 -49 49 -90c0 -113 -65 -162 -163 -162zM509 104l11 50l265 300h69l-265 -298h153l40 139h48l-29 -139h77l-12 -52h-76l-22 -104h-59l22 104h-222zM193 0l571 741h69l-572 -741h-68z" />
    <glyph glyph-name="threesuperior" unicode="&#xb3;" horiz-adv-x="454" 
d="M235 281c-79 0 -130 18 -178 51l34 45c43 -27 83 -43 143 -43c65 0 102 35 102 108c0 41 -17 66 -94 66h-61l12 53h79c64 0 94 20 94 81c0 35 -26 52 -86 52c-25 0 -73 -5 -113 -26l-23 48c50 28 113 32 145 32c95 0 142 -33 142 -94c0 -73 -30 -105 -82 -121
c37 -16 50 -48 50 -90c0 -113 -65 -162 -164 -162z" />
    <glyph glyph-name="twosuperior" unicode="&#xb2;" horiz-adv-x="454" 
d="M61 287l10 48l178 148c97 83 119 98 119 158c0 32 -25 50 -86 50c-33 0 -73 -7 -106 -21l-20 51c39 16 82 26 131 26c102 0 144 -34 144 -97c0 -84 -23 -106 -133 -198l-134 -112h205l-10 -53h-298z" />
    <glyph glyph-name="brokenbar" unicode="&#xa6;" horiz-adv-x="324" 
d="M121 -165v392h76v-392h-76zM121 384v392h76v-392h-76z" />
    <glyph glyph-name="minus" unicode="&#x2212;" horiz-adv-x="696" 
d="M94 317l16 72h483l-16 -72h-483z" />
    <glyph glyph-name="multiply" unicode="&#xd7;" horiz-adv-x="696" 
d="M140 146l-36 48l192 158l-125 159l56 47l125 -159l193 159l36 -48l-192 -158l125 -159l-56 -47l-125 159z" />
    <glyph glyph-name="exclam" unicode="!" horiz-adv-x="358" 
d="M50 0l23 110h100l-23 -110h-100zM109 204l107 537h84l-123 -537h-68z" />
    <glyph glyph-name="quotedbl" unicode="&#x22;" horiz-adv-x="479" 
d="M123 455l54 286h78l-66 -286h-66zM327 455l54 286h79l-67 -286h-66z" />
    <glyph glyph-name="numbersign" unicode="#" horiz-adv-x="725" 
d="M127 0l47 222h-138l14 69h139l34 157h-140l15 70h139l47 223h74l-48 -223h160l48 223h73l-47 -223h146l-15 -70h-145l-34 -157h145l-15 -69h-143l-48 -222h-74l48 222h-160l-48 -222h-74zM257 288h169l36 164h-170z" />
    <glyph glyph-name="dollar" unicode="$" horiz-adv-x="644" 
d="M192 -94l20 98c-90 10 -158 40 -209 89l45 54c47 -44 104 -71 181 -79l63 294c-90 30 -162 66 -162 168c0 145 103 211 239 212l13 64h71l-14 -68c73 -9 126 -33 160 -61l-45 -58c-31 24 -76 44 -133 51l-55 -259c96 -32 177 -69 177 -176c0 -158 -110 -235 -257 -235h-4
l-20 -94h-70zM468 227c0 63 -43 90 -117 116l-59 -278c104 1 176 53 176 162zM205 537c0 -58 40 -84 101 -106l52 243c-97 -3 -153 -51 -153 -137z" />
    <glyph glyph-name="percent" unicode="%" horiz-adv-x="1069" 
d="M236 284c-122 0 -170 69 -170 167c0 166 86 302 227 302c122 0 170 -72 170 -170c0 -179 -95 -299 -227 -299zM241 346c95 0 153 103 153 234c0 63 -26 109 -104 109c-104 0 -154 -114 -154 -235c0 -62 26 -108 105 -108zM777 -11c-124 0 -171 69 -171 167
c0 165 86 302 227 302c122 0 170 -73 170 -171c0 -178 -95 -298 -226 -298zM780 51c96 0 153 103 153 234c0 63 -26 110 -104 110c-102 0 -153 -115 -153 -236c0 -62 26 -108 104 -108zM227 0l556 741h72l-556 -741h-72z" />
    <glyph glyph-name="ampersand" unicode="&#x26;" horiz-adv-x="788" 
d="M255 -10c-184 0 -251 63 -251 168c0 163 105 229 213 274c-6 33 -9 65 -9 96c0 164 77 225 174 225c102 0 147 -50 147 -127c0 -138 -104 -193 -225 -239c22 -71 57 -140 100 -192c19 -24 37 -43 55 -59c66 65 119 165 167 292l62 -21c-49 -132 -104 -237 -176 -310
c49 -27 93 -28 136 -28h21l-14 -69h-14c-70 0 -128 8 -188 48c-56 -38 -121 -58 -198 -58zM261 54c52 0 97 13 138 37c-19 18 -39 40 -59 66c-48 59 -86 134 -108 211c-82 -39 -152 -90 -152 -203c0 -63 38 -111 181 -111zM281 532c0 -26 2 -54 8 -82c94 36 168 79 168 169
c0 42 -24 67 -77 67c-60 0 -99 -44 -99 -154z" />
    <glyph glyph-name="quotesingle" unicode="'" horiz-adv-x="275" 
d="M123 455l54 287h78l-66 -287h-66z" />
    <glyph glyph-name="parenleft" unicode="(" horiz-adv-x="477" 
d="M210 -184c-61 66 -126 192 -126 359c0 276 183 520 332 613l46 -46c-142 -96 -301 -314 -301 -569c0 -146 57 -264 109 -320z" />
    <glyph glyph-name="parenright" unicode=")" horiz-adv-x="477" 
d="M31 -184l-46 46c142 96 300 314 300 569c0 146 -56 263 -108 320l60 37c61 -66 126 -192 126 -359c0 -277 -183 -520 -332 -613z" />
    <glyph glyph-name="asterisk" unicode="*" horiz-adv-x="575" 
d="M297 266l-60 14l47 185l-182 -64l-19 61l185 52l-147 125l41 48l141 -134l32 190l61 -13l-47 -187l183 66l19 -61l-187 -54l149 -124l-42 -47l-140 133z" />
    <glyph glyph-name="plus" unicode="+" horiz-adv-x="696" 
d="M255 113l44 204h-205l16 72h203l44 203h75l-43 -203h204l-16 -72h-203l-43 -204h-76z" />
    <glyph glyph-name="comma" unicode="," horiz-adv-x="239" 
d="M-18 -119l-13 41c49 22 63 38 72 78h-50l22 111h101l-20 -94c-17 -82 -41 -107 -112 -136z" />
    <glyph glyph-name="hyphen" unicode="-" horiz-adv-x="452" 
d="M31 272l15 71h347l-15 -71h-347z" />
    <glyph glyph-name="period" unicode="." horiz-adv-x="239" 
d="M-9 0l22 111h101l-23 -111h-100z" />
    <glyph glyph-name="slash" unicode="/" horiz-adv-x="494" 
d="M-80 0l573 741h82l-574 -741h-81z" />
    <glyph glyph-name="zero" unicode="0" horiz-adv-x="709" 
d="M307 -11c-185 0 -248 89 -248 234c0 51 7 112 21 177c47 224 134 353 328 353c179 0 242 -98 242 -241c0 -53 -8 -111 -21 -171c-47 -223 -136 -352 -322 -352zM311 59c145 0 202 113 241 293c12 54 20 107 20 155c0 102 -40 174 -168 174c-151 0 -208 -112 -247 -291
c-13 -60 -20 -116 -20 -164c0 -103 41 -167 174 -167z" />
    <glyph glyph-name="one" unicode="1" horiz-adv-x="373" 
d="M99 0l143 669h-142l16 72h216l-158 -741h-75z" />
    <glyph glyph-name="two" unicode="2" horiz-adv-x="569" 
d="M-41 0l13 64l296 250c147 124 202 160 202 271c0 59 -39 98 -152 98c-58 0 -123 -12 -174 -35l-26 64c61 27 130 41 207 41c159 0 222 -58 222 -154c0 -142 -67 -195 -222 -325l-246 -207h363l-13 -67h-470z" />
    <glyph glyph-name="three" unicode="3" horiz-adv-x="590" 
d="M242 -12c-130 0 -205 30 -281 80l46 58c70 -45 133 -70 236 -70c114 0 183 61 183 196c0 75 -38 118 -167 118h-90l14 68h123c114 0 170 37 170 151c0 62 -43 95 -156 95c-40 0 -116 -7 -182 -41l-32 61c79 42 174 49 225 49c154 0 224 -52 224 -149
c0 -126 -58 -187 -128 -202c56 -27 74 -80 74 -149c0 -183 -99 -265 -259 -265z" />
    <glyph glyph-name="four" unicode="4" horiz-adv-x="647" 
d="M14 187l13 62l438 492h87l-436 -488h268l68 245h56l-52 -245h130l-13 -66h-131l-40 -187h-71l39 187h-356z" />
    <glyph glyph-name="five" unicode="5" horiz-adv-x="616" 
d="M259 -11c-130 0 -209 40 -264 79l45 58c56 -39 122 -70 225 -70s206 46 206 221c0 101 -66 141 -173 141c-50 0 -101 -14 -149 -37l-60 19l92 341h415l-14 -69h-345l-59 -214c45 17 94 26 144 26c136 0 227 -48 227 -198c0 -237 -138 -297 -290 -297z" />
    <glyph glyph-name="six" unicode="6" horiz-adv-x="669" 
d="M307 -11c-176 0 -260 76 -260 224c0 35 5 74 14 117c66 311 169 411 470 411h56l-15 -69h-43c-251 0 -321 -86 -366 -234c37 36 108 61 203 61c165 0 225 -80 225 -191c0 -191 -93 -319 -284 -319zM308 55c150 0 207 104 207 239c0 83 -43 139 -174 139
c-113 0 -218 -49 -218 -225c0 -104 65 -153 185 -153z" />
    <glyph glyph-name="seven" unicode="7" horiz-adv-x="514" 
d="M39 0l438 672h-390l14 69h476l-14 -61l-440 -680h-84z" />
    <glyph glyph-name="eight" unicode="8" horiz-adv-x="675" 
d="M290 -13c-189 0 -263 76 -263 183c0 144 69 218 174 241c-55 23 -72 74 -72 132c0 141 89 210 253 210c188 0 248 -68 248 -160c0 -112 -47 -176 -135 -193c64 -25 85 -81 85 -155c0 -178 -119 -258 -290 -258zM297 53c112 0 206 48 206 190c0 80 -56 130 -187 130
c-119 0 -211 -51 -211 -194c0 -79 55 -126 192 -126zM374 434c112 0 180 38 180 149c0 63 -45 105 -171 105c-113 0 -180 -40 -180 -149c0 -63 44 -105 171 -105z" />
    <glyph glyph-name="nine" unicode="9" horiz-adv-x="669" 
d="M81 0l14 67h44c250 0 322 89 368 236c-36 -36 -110 -61 -206 -61c-164 0 -225 81 -225 192c0 190 95 319 285 319c175 0 259 -77 259 -225c0 -35 -4 -74 -13 -117c-66 -311 -169 -411 -471 -411h-55zM327 305c112 0 217 49 217 225c0 104 -64 153 -185 153
c-150 0 -206 -103 -206 -238c0 -83 42 -140 174 -140z" />
    <glyph glyph-name="colon" unicode=":" horiz-adv-x="259" 
d="M1 0l22 109h101l-23 -109h-100zM96 443l21 109h100l-21 -109h-100z" />
    <glyph glyph-name="semicolon" unicode=";" horiz-adv-x="259" 
d="M-8 -119l-14 41c49 22 64 38 72 78h-49l22 109h101l-20 -92c-19 -89 -41 -107 -112 -136zM96 443l21 109h100l-21 -109h-100z" />
    <glyph glyph-name="less" unicode="&#x3c;" horiz-adv-x="696" 
d="M493 91l-399 226l11 58l495 224l-14 -75l-409 -181l331 -180z" />
    <glyph glyph-name="equal" unicode="=" horiz-adv-x="696" 
d="M78 209l14 71h472l-14 -71h-472zM123 425l15 70h471l-14 -70h-472z" />
    <glyph glyph-name="greater" unicode="&#x3e;" horiz-adv-x="696" 
d="M85 92l14 74l408 182l-330 179l15 72l399 -225l-11 -58z" />
    <glyph glyph-name="question" unicode="?" horiz-adv-x="649" 
d="M227 196c25 147 46 192 165 238c112 44 146 65 146 150c0 55 -34 98 -171 98c-50 0 -122 -11 -191 -36l-26 66c77 31 174 41 228 41c182 0 239 -62 239 -154c0 -120 -49 -165 -181 -218c-96 -38 -114 -64 -136 -185h-73zM175 0l21 102h100l-21 -102h-100z" />
    <glyph glyph-name="at" unicode="@" horiz-adv-x="1085" 
d="M527 -165c-312 0 -458 156 -458 457c0 305 154 462 451 462c300 0 454 -157 454 -462c0 -194 -48 -260 -178 -260c-98 0 -144 23 -155 73c-44 -52 -103 -68 -193 -68c-134 0 -184 76 -184 184c0 177 71 335 246 335c117 0 165 -30 187 -73l31 69l49 -3l-78 -367
c-16 -75 18 -104 105 -104c95 0 121 56 121 214c0 273 -131 414 -405 414c-269 0 -402 -141 -402 -414c0 -267 131 -409 409 -409c111 0 207 24 277 58l21 -42c-77 -39 -177 -64 -298 -64zM464 100c96 0 159 36 190 184c7 31 11 60 11 86c0 74 -37 120 -149 120
c-127 0 -180 -118 -180 -260c0 -79 32 -130 128 -130z" />
    <glyph glyph-name="A" unicode="A" horiz-adv-x="703" 
d="M-54 0l445 746h77l127 -746h-77l-29 171h-358l-101 -171h-84zM171 243h308l-69 402z" />
    <glyph glyph-name="B" unicode="B" horiz-adv-x="687" 
d="M8 0l158 741h247c200 0 258 -59 258 -150c0 -120 -51 -194 -138 -207c58 -19 82 -74 82 -142c0 -182 -102 -242 -271 -242h-336zM100 71h257c111 0 179 47 179 170c0 68 -45 107 -163 107h-213zM175 420h256c117 0 158 59 158 153c0 57 -38 96 -178 96h-182z" />
    <glyph glyph-name="C" unicode="C" horiz-adv-x="703" 
d="M346 -11c-214 0 -314 111 -314 289c0 39 4 82 13 128c56 262 211 347 401 347c139 0 218 -48 267 -103l-65 -53c-43 48 -109 81 -204 81c-160 0 -278 -82 -321 -283c-8 -38 -11 -75 -11 -108c0 -139 77 -224 241 -224c88 0 147 21 199 62l49 -58
c-63 -52 -140 -78 -255 -78z" />
    <glyph glyph-name="D" unicode="D" horiz-adv-x="739" 
d="M8 0l158 741h170c268 0 371 -78 371 -257c0 -44 -5 -95 -18 -152c-60 -281 -193 -332 -406 -332h-275zM101 72h183c185 0 279 50 327 271c10 49 16 92 16 131c0 132 -76 193 -291 193h-106z" />
    <glyph glyph-name="E" unicode="E" 
d="M8 0l158 741h473l-16 -75h-394l-54 -244h385l-15 -74h-384l-60 -276h399l-15 -72h-477z" />
    <glyph glyph-name="F" unicode="F" horiz-adv-x="580" 
d="M8 0l158 741h457l-16 -75h-378l-55 -251h369l-15 -74h-369l-73 -341h-78z" />
    <glyph glyph-name="G" unicode="G" horiz-adv-x="761" 
d="M355 -11c-221 0 -323 107 -323 288c0 45 4 86 13 129c53 254 202 347 396 347c161 0 243 -59 280 -105l-65 -54c-30 34 -85 84 -219 84c-153 0 -272 -78 -315 -283c-8 -36 -11 -74 -11 -109c0 -143 78 -227 248 -227c181 0 225 74 261 253l4 20h-235l15 73h315l-18 -88
c-49 -240 -114 -328 -346 -328z" />
    <glyph glyph-name="H" unicode="H" horiz-adv-x="759" 
d="M8 0l158 741h78l-68 -316h429l68 316h79l-158 -741h-79l74 348h-428l-75 -348h-78z" />
    <glyph glyph-name="I" unicode="I" horiz-adv-x="267" 
d="M15 0l158 741h79l-158 -741h-79z" />
    <glyph glyph-name="J" unicode="J" horiz-adv-x="380" 
d="M-49 0l15 72h63c89 0 134 35 154 131l115 538h79l-118 -550c-32 -153 -113 -192 -222 -192c-66 0 -58 0 -86 1z" />
    <glyph glyph-name="K" unicode="K" horiz-adv-x="684" 
d="M485 0l-168 400l-182 -165l-50 -235h-77l158 741h77l-85 -398l433 398h98l-311 -287l189 -454h-82z" />
    <glyph glyph-name="L" unicode="L" horiz-adv-x="567" 
d="M8 0l158 741h78l-143 -669h375l-15 -72h-453z" />
    <glyph glyph-name="M" unicode="M" horiz-adv-x="894" 
d="M8 0l158 741h101l123 -622l388 622h108l-158 -741h-77l134 623l-390 -623h-60l-124 617l-132 -617h-71z" />
    <glyph glyph-name="N" unicode="N" horiz-adv-x="758" 
d="M8 0l158 741h85l293 -611l132 611h74l-158 -741h-71l-304 630l-135 -630h-74z" />
    <glyph glyph-name="O" unicode="O" horiz-adv-x="818" 
d="M368 -12c-220 0 -335 108 -335 297c-1 38 4 79 13 124c56 264 219 344 404 344c221 0 336 -108 336 -296c0 -39 -4 -80 -14 -123c-57 -265 -217 -346 -404 -346zM369 61c164 0 281 78 324 280c8 37 12 73 12 106c0 141 -80 231 -258 231c-165 0 -281 -83 -323 -280
c-8 -36 -11 -72 -11 -107c0 -140 79 -230 256 -230z" />
    <glyph glyph-name="P" unicode="P" horiz-adv-x="686" 
d="M8 0l158 741h268c182 0 249 -67 249 -173c0 -171 -87 -283 -267 -283h-270l-61 -285h-77zM161 358h253c120 0 188 65 188 198c0 75 -51 112 -177 112h-196z" />
    <glyph glyph-name="Q" unicode="Q" horiz-adv-x="818" 
d="M368 -8h-20c-23 -81 -5 -105 90 -105h62l-13 -68c-10 -1 -52 -1 -60 -1c-155 0 -192 49 -156 182c-157 27 -238 126 -238 285c-1 38 4 79 13 124c56 264 218 344 404 344c221 0 336 -108 336 -296c0 -39 -4 -80 -14 -123c-57 -265 -217 -342 -404 -342zM369 61
c164 0 281 78 324 280c8 37 12 73 12 106c0 141 -80 231 -258 231c-165 0 -281 -83 -323 -280c-8 -36 -11 -72 -11 -107c0 -140 79 -230 256 -230z" />
    <glyph glyph-name="R" unicode="R" horiz-adv-x="698" 
d="M466 0l-112 302h-204l-65 -302h-77l158 741h255c189 0 258 -72 258 -173c0 -165 -86 -260 -244 -266l112 -302h-81zM164 374h253c109 0 181 51 181 180c0 75 -58 114 -183 114h-187z" />
    <glyph glyph-name="S" unicode="S" horiz-adv-x="683" 
d="M300 -10c-146 0 -240 36 -323 97l49 58c77 -56 159 -85 277 -85c106 0 208 29 208 145c0 91 -73 107 -189 143c-120 38 -215 66 -215 191c0 164 129 214 262 214c147 0 225 -39 276 -79l-51 -60c-45 35 -114 67 -227 67c-95 0 -180 -32 -180 -136c0 -79 70 -100 168 -129
c144 -43 236 -73 236 -197c0 -175 -137 -229 -291 -229z" />
    <glyph glyph-name="T" unicode="T" horiz-adv-x="668" 
d="M217 0l142 666h-269l16 75h615l-16 -75h-268l-142 -666h-78z" />
    <glyph glyph-name="U" unicode="U" horiz-adv-x="759" 
d="M334 -12c-222 0 -281 95 -281 207c0 31 5 64 12 95l96 451h79l-97 -450c-6 -30 -11 -57 -11 -83c0 -88 49 -147 210 -147c147 0 207 74 235 202l102 478h76l-106 -493c-31 -147 -103 -260 -315 -260z" />
    <glyph glyph-name="V" unicode="V" horiz-adv-x="703" 
d="M234 -5l-127 746h79l106 -641l378 641h85l-445 -746h-76z" />
    <glyph glyph-name="W" unicode="W" horiz-adv-x="1063" 
d="M184 -5l-69 746h79l56 -606l324 606h73l65 -606l315 606h80l-387 -746h-68l-68 622l-332 -622h-68z" />
    <glyph glyph-name="X" unicode="X" horiz-adv-x="689" 
d="M487 0l-152 328l-288 -328h-89l347 392l-161 349h80l136 -295l258 295h89l-317 -358l177 -383h-80z" />
    <glyph glyph-name="Y" unicode="Y" horiz-adv-x="680" 
d="M220 0l63 292l-189 449h82l160 -375l317 375h87l-380 -452l-61 -289h-79z" />
    <glyph glyph-name="Z" unicode="Z" horiz-adv-x="645" 
d="M-34 0l13 63l569 603h-423l16 75h524l-14 -68l-567 -601h449l-15 -72h-552z" />
    <glyph glyph-name="bracketleft" unicode="[" horiz-adv-x="462" 
d="M10 -165l200 941h238l-14 -69h-162l-172 -805h165l-14 -67h-241z" />
    <glyph glyph-name="backslash" unicode="\" horiz-adv-x="494" 
d="M339 0l-257 741h72l257 -741h-72z" />
    <glyph glyph-name="bracketright" unicode="]" horiz-adv-x="462" 
d="M-14 -165l13 67h163l172 805h-164l15 69h240l-200 -941h-239z" />
    <glyph glyph-name="asciicircum" unicode="^" horiz-adv-x="590" 
d="M158 601l178 156h85l112 -156h-74l-89 107l-136 -107h-76z" />
    <glyph glyph-name="underscore" unicode="_" horiz-adv-x="453" 
d="M-141 -121l13 62h527l-12 -62h-528z" />
    <glyph glyph-name="grave" unicode="`" horiz-adv-x="590" 
d="M353 610l-138 156h88l118 -156h-68z" />
    <glyph glyph-name="a" unicode="a" horiz-adv-x="603" 
d="M180 -10c-144 0 -184 58 -185 143c0 182 124 225 358 225h72c4 22 7 43 7 62c0 50 -29 74 -134 74c-51 0 -117 -17 -153 -37l-31 62c42 25 120 46 196 46c205 0 216 -79 182 -237l-42 -194c-12 -57 -11 -68 43 -67l-13 -66c-4 -2 -19 -2 -32 -2c-29 1 -47 6 -58 21
c-7 9 -10 22 -11 40c-40 -47 -105 -70 -199 -70zM197 55c121 0 175 55 205 194l8 40h-66c-195 0 -273 -20 -273 -149c0 -51 28 -85 126 -85z" />
    <glyph glyph-name="b" unicode="b" horiz-adv-x="627" 
d="M295 -9c-128 0 -190 32 -207 85l-34 -79l-56 5l165 774h75l-60 -273c43 47 100 62 188 62c154 0 206 -82 206 -199c0 -35 -5 -75 -15 -116c-37 -166 -101 -259 -262 -259zM286 60c114 0 165 63 195 197c7 35 12 67 12 96c0 85 -38 140 -150 140
c-113 0 -173 -37 -208 -200c-8 -36 -13 -69 -13 -97c0 -94 48 -136 164 -136z" />
    <glyph glyph-name="c" unicode="c" horiz-adv-x="543" 
d="M240 -10c-166 0 -223 84 -223 202c0 36 4 73 12 111c36 173 119 262 286 262c119 0 171 -46 203 -88l-64 -50c-21 28 -53 65 -144 65c-113 0 -176 -59 -206 -202c-6 -30 -10 -62 -10 -91c0 -85 40 -141 151 -141c53 0 94 10 142 46l43 -52c-62 -48 -120 -62 -190 -62z
" />
    <glyph glyph-name="d" unicode="d" horiz-adv-x="627" 
d="M222 -9c-154 0 -206 81 -206 198c0 36 5 76 15 117c37 166 100 259 262 259c126 0 187 -29 204 -86l65 297h76l-165 -773l-59 -5l9 57c-44 -48 -107 -64 -201 -64zM245 60c113 0 173 36 208 200c8 35 12 68 12 96c0 95 -47 137 -163 137c-114 0 -165 -63 -195 -198
c-8 -35 -12 -67 -12 -96c0 -84 37 -139 150 -139z" />
    <glyph glyph-name="e" unicode="e" horiz-adv-x="573" 
d="M239 -11c-172 0 -223 88 -223 200c0 37 5 76 13 114c34 163 112 262 282 262c164 0 205 -69 205 -159c0 -45 -9 -104 -20 -155h-403c-3 -19 -4 -38 -4 -56c0 -80 36 -139 157 -139c70 0 124 14 171 43l32 -58c-63 -40 -129 -52 -210 -52zM304 496
c-113 0 -168 -65 -198 -176h328c5 28 9 50 9 75c0 59 -27 101 -139 101z" />
    <glyph glyph-name="f" unicode="f" horiz-adv-x="377" 
d="M54 483l15 69h104l15 67c22 102 68 157 194 157h57l-14 -67h-42c-84 0 -108 -40 -121 -99l-13 -58h141l-14 -69h-141l-138 -648h-76l138 648h-105z" />
    <glyph glyph-name="g" unicode="g" horiz-adv-x="580" 
d="M271 202c-50 0 -90 6 -121 17c-13 -13 -20 -28 -20 -48c0 -23 8 -39 62 -39c186 0 282 -24 282 -133c0 -141 -102 -179 -285 -178c-168 0 -251 41 -251 136c0 90 57 137 145 152c-17 14 -23 39 -23 61c0 32 15 59 36 80c-27 25 -38 59 -38 101c0 148 81 214 235 214
c22 0 46 -1 68 -4l198 24l-11 -67h-94c31 -25 48 -65 48 -113c0 -138 -80 -203 -231 -203zM198 -116c129 0 197 18 197 107c0 66 -71 76 -217 76c-132 0 -160 -41 -160 -101c0 -55 59 -82 180 -82zM272 268c100 0 155 41 155 136c0 60 -39 90 -138 90
c-101 0 -156 -40 -156 -139c0 -56 33 -87 139 -87z" />
    <glyph glyph-name="h" unicode="h" horiz-adv-x="600" 
d="M-3 0l165 776h76l-59 -271c30 30 78 60 169 60c207 0 196 -110 168 -246l-68 -319h-76l67 311c20 98 39 179 -117 179c-122 0 -161 -78 -182 -174l-67 -316h-76z" />
    <glyph glyph-name="i" unicode="i" horiz-adv-x="238" 
d="M2 0l117 552h75l-116 -552h-76zM135 625l23 108h76l-23 -108h-76z" />
    <glyph glyph-name="j" unicode="j" horiz-adv-x="238" 
d="M-113 -167l14 63h6c63 0 76 18 91 86l121 570h75l-122 -579c-24 -112 -55 -140 -156 -140h-29zM135 625l23 108h76l-23 -108h-76z" />
    <glyph glyph-name="k" unicode="k" horiz-adv-x="522" 
d="M-2 0l165 776h75l-110 -517l306 293h86l-240 -231l144 -321h-79l-121 266l-119 -114l-32 -152h-75z" />
    <glyph glyph-name="l" unicode="l" horiz-adv-x="292" 
d="M123 -1c-99 0 -111 48 -90 147l134 630h76l-136 -636c-12 -54 -9 -73 48 -73h23l-13 -66c-8 -1 -26 -2 -42 -2z" />
    <glyph glyph-name="m" unicode="m" horiz-adv-x="961" 
d="M-3 0l116 548l61 4l-7 -49c32 32 79 62 177 62s150 -18 169 -74c32 41 97 74 199 74c207 0 192 -110 163 -246l-68 -319h-76l67 311c21 98 42 179 -112 179c-122 0 -157 -76 -179 -174l-67 -316h-75l66 311c21 98 42 179 -113 179c-121 0 -157 -78 -178 -174l-67 -316
h-76z" />
    <glyph glyph-name="n" unicode="n" horiz-adv-x="600" 
d="M-3 0l116 548l61 4l-7 -49c32 32 83 62 181 62c207 0 196 -110 168 -246l-68 -319h-76l66 311c20 98 40 179 -116 179c-122 0 -161 -78 -182 -174l-67 -316h-76z" />
    <glyph glyph-name="o" unicode="o" horiz-adv-x="611" 
d="M251 -11c-166 0 -234 81 -234 209c0 32 5 67 12 105c41 190 136 262 290 262c167 0 235 -81 235 -209c0 -32 -5 -68 -12 -106c-40 -189 -137 -261 -291 -261zM254 58c116 0 182 60 212 200c7 31 10 62 10 88c0 90 -45 147 -161 147c-117 0 -181 -62 -211 -203
c-7 -30 -10 -60 -10 -89c0 -88 45 -143 160 -143z" />
    <glyph glyph-name="p" unicode="p" horiz-adv-x="627" 
d="M-37 -165l151 713l60 4l-8 -51c43 48 105 64 200 64c154 0 206 -82 206 -199c0 -35 -5 -75 -15 -116c-37 -166 -101 -259 -262 -259c-128 0 -188 28 -205 86l-52 -242h-75zM286 60c114 0 165 63 195 197c7 35 12 67 12 96c0 85 -38 140 -150 140
c-113 0 -173 -37 -208 -200c-8 -36 -13 -69 -13 -97c0 -94 48 -136 164 -136z" />
    <glyph glyph-name="q" unicode="q" horiz-adv-x="627" 
d="M361 -165l45 212c-43 -43 -99 -56 -184 -56c-154 0 -206 81 -206 198c0 36 5 76 15 117c37 166 100 259 262 259c125 0 185 -27 207 -85l36 81l54 -5l-153 -721h-76zM245 60c113 0 173 36 208 200c8 35 12 68 12 96c0 95 -47 137 -163 137c-114 0 -165 -63 -195 -198
c-8 -35 -12 -67 -12 -96c0 -84 37 -139 150 -139z" />
    <glyph glyph-name="r" unicode="r" horiz-adv-x="340" 
d="M-2 0l116 548l60 4l-10 -66c31 44 91 73 191 73l-15 -73c-132 0 -179 -74 -202 -182l-65 -304h-75z" />
    <glyph glyph-name="s" unicode="s" horiz-adv-x="502" 
d="M210 -10c-98 0 -183 29 -242 79l49 54c52 -42 124 -67 199 -67c69 0 130 20 130 105c0 55 -61 74 -125 93c-76 23 -160 49 -160 143c0 118 85 168 204 168c103 0 169 -30 210 -60l-48 -59c-33 23 -83 49 -167 49c-75 0 -122 -27 -122 -90c0 -51 60 -70 123 -89
c80 -25 161 -54 161 -148c0 -139 -97 -178 -212 -178z" />
    <glyph glyph-name="t" unicode="t" horiz-adv-x="392" 
d="M54 483l15 69h101l50 166l61 11l-38 -177h138l-14 -69h-139l-70 -332c-12 -51 -10 -84 66 -84h54l-14 -67c-8 -1 -51 -1 -62 -1c-132 0 -138 62 -119 155l71 329h-100z" />
    <glyph glyph-name="u" unicode="u" horiz-adv-x="594" 
d="M251 -11c-236 0 -235 114 -205 260l64 303h76l-65 -311c-23 -103 -33 -182 135 -182c122 0 137 62 158 158l71 335h74l-72 -340c-32 -150 -65 -223 -236 -223z" />
    <glyph glyph-name="v" unicode="v" horiz-adv-x="523" 
d="M143 -5l-93 557h77l72 -463l268 463h82l-328 -557h-78z" />
    <glyph glyph-name="w" unicode="w" horiz-adv-x="856" 
d="M125 -5l-71 557h77l56 -438l239 438h78l54 -438l241 438h79l-306 -557h-73l-57 450l-245 -450h-72z" />
    <glyph glyph-name="x" unicode="x" horiz-adv-x="521" 
d="M340 0l-111 234l-206 -234h-85l263 292l-123 260h77l99 -209l184 209h84l-240 -268l135 -284h-77z" />
    <glyph glyph-name="y" unicode="y" horiz-adv-x="510" 
d="M22 -167c-19 0 -48 0 -58 1l12 62h43c50 0 61 13 88 59l32 53l-89 544h78l69 -451l258 451h81l-362 -615c-46 -80 -77 -104 -152 -104z" />
    <glyph glyph-name="z" unicode="z" horiz-adv-x="482" 
d="M-46 0l12 57l399 426h-290l13 69h390l-12 -58l-400 -429h320l-13 -65h-419z" />
    <glyph glyph-name="braceleft" unicode="{" horiz-adv-x="499" 
d="M218 -165c-111 0 -154 30 -154 91c0 82 115 257 115 307c0 32 -28 39 -118 39l14 66c108 0 141 9 141 94c0 46 -7 110 -7 163c0 122 57 181 188 181h91l-14 -69h-61c-100 0 -129 -37 -129 -122c0 -43 7 -107 7 -157c0 -68 -18 -106 -74 -123c31 -12 41 -30 41 -59
c0 -60 -113 -231 -113 -296c0 -33 25 -48 89 -48h68l-14 -67h-70z" />
    <glyph glyph-name="bar" unicode="|" horiz-adv-x="324" 
d="M121 -165v941h76v-941h-76z" />
    <glyph glyph-name="braceright" unicode="}" horiz-adv-x="499" 
d="M-16 -165l13 67h61c99 0 129 39 129 124c0 43 -6 107 -6 157c0 68 18 106 73 123c-30 12 -40 30 -40 59c0 60 112 230 112 295c0 32 -25 47 -89 47h-67l14 69h70c111 0 154 -30 154 -91c0 -82 -116 -257 -116 -306c0 -33 28 -40 118 -40l-13 -66c-109 0 -142 -9 -142 -94
c0 -46 7 -110 7 -163c0 -122 -56 -181 -187 -181h-91z" />
    <glyph glyph-name="asciitilde" unicode="~" horiz-adv-x="590" 
d="M430 424c-66 0 -94 49 -144 49c-30 0 -56 -22 -78 -46l-41 40c34 40 74 69 122 69c66 0 95 -48 144 -48c26 0 47 19 75 50l41 -39c-41 -48 -77 -75 -119 -75z" />
    <glyph glyph-name="Adieresis" unicode="&#xc4;" horiz-adv-x="703" 
d="M-54 0l445 746h77l127 -746h-77l-29 171h-358l-101 -171h-84zM171 243h308l-69 402zM305 785l21 102h70l-21 -102h-70zM501 785l21 102h70l-21 -102h-70z" />
    <glyph glyph-name="Aring" unicode="&#xc5;" horiz-adv-x="703" 
d="M-54 0l424 712c-39 16 -55 49 -55 88c0 89 56 148 135 148c78 0 111 -48 111 -104c0 -71 -36 -118 -87 -135l121 -709h-77l-29 171h-358l-101 -171h-84zM171 243h308l-69 402zM429 747c50 0 86 34 86 93c0 34 -18 63 -67 63c-51 0 -88 -40 -88 -98c0 -33 22 -58 69 -58z
" />
    <glyph glyph-name="Ccedilla" unicode="&#xc7;" horiz-adv-x="703" 
d="M256 -225c-67 0 -108 20 -135 38l31 43c23 -17 53 -33 103 -33c58 0 75 26 75 59c0 34 -37 42 -86 39l-18 16l24 61c-148 29 -218 131 -218 280c0 39 4 82 13 128c56 262 211 347 401 347c139 0 218 -48 267 -103l-65 -53c-43 48 -109 81 -204 81
c-160 0 -278 -82 -321 -283c-8 -38 -11 -75 -11 -108c0 -139 77 -224 241 -224c88 0 147 21 199 62l49 -58c-63 -52 -140 -78 -255 -78c-17 0 -33 1 -49 2l-14 -36c48 2 103 -12 103 -71c0 -71 -45 -109 -130 -109z" />
    <glyph glyph-name="Eacute" unicode="&#xc9;" 
d="M319 785l184 156h96l-205 -156h-75zM8 0l158 741h473l-16 -75h-394l-54 -244h385l-15 -74h-384l-60 -276h399l-15 -72h-477z" />
    <glyph glyph-name="Ntilde" unicode="&#xd1;" horiz-adv-x="758" 
d="M8 0l158 741h85l293 -611l132 611h74l-158 -741h-71l-304 630l-135 -630h-74zM550 788c-66 0 -94 49 -144 49c-30 0 -56 -22 -78 -46l-41 40c34 40 74 69 122 69c66 0 95 -48 144 -48c26 0 47 19 75 50l41 -39c-41 -48 -77 -75 -119 -75z" />
    <glyph glyph-name="Odieresis" unicode="&#xd6;" horiz-adv-x="818" 
d="M363 785l21 102h70l-21 -102h-70zM559 785l21 102h70l-21 -102h-70zM368 -12c-220 0 -335 108 -335 297c-1 38 4 79 13 124c56 264 219 344 404 344c221 0 336 -108 336 -296c0 -39 -4 -80 -14 -123c-57 -265 -217 -346 -404 -346zM369 61c164 0 281 78 324 280
c8 37 12 73 12 106c0 141 -80 231 -258 231c-165 0 -281 -83 -323 -280c-8 -36 -11 -72 -11 -107c0 -140 79 -230 256 -230z" />
    <glyph glyph-name="Udieresis" unicode="&#xdc;" horiz-adv-x="759" 
d="M333 785l21 102h70l-21 -102h-70zM529 785l21 102h70l-21 -102h-70zM334 -12c-222 0 -281 95 -281 207c0 31 5 64 12 95l96 451h79l-97 -450c-6 -30 -11 -57 -11 -83c0 -88 49 -147 210 -147c147 0 207 74 235 202l102 478h76l-106 -493c-31 -147 -103 -260 -315 -260z
" />
    <glyph glyph-name="aacute" unicode="&#xe1;" horiz-adv-x="603" 
d="M180 -10c-144 0 -184 58 -185 143c0 182 124 225 358 225h72c4 22 7 43 7 62c0 50 -29 74 -134 74c-51 0 -117 -17 -153 -37l-31 62c42 25 120 46 196 46c205 0 216 -79 182 -237l-42 -194c-12 -57 -11 -68 43 -67l-13 -66c-4 -2 -19 -2 -32 -2c-29 1 -47 6 -58 21
c-7 9 -10 22 -11 40c-40 -47 -105 -70 -199 -70zM197 55c121 0 175 55 205 194l8 40h-66c-195 0 -273 -20 -273 -149c0 -51 28 -85 126 -85zM275 610l184 156h96l-205 -156h-75z" />
    <glyph glyph-name="agrave" unicode="&#xe0;" horiz-adv-x="603" 
d="M180 -10c-144 0 -184 58 -185 143c0 182 124 225 358 225h72c4 22 7 43 7 62c0 50 -29 74 -134 74c-51 0 -117 -17 -153 -37l-31 62c42 25 120 46 196 46c205 0 216 -79 182 -237l-42 -194c-12 -57 -11 -68 43 -67l-13 -66c-4 -2 -19 -2 -32 -2c-29 1 -47 6 -58 21
c-7 9 -10 22 -11 40c-40 -47 -105 -70 -199 -70zM197 55c121 0 175 55 205 194l8 40h-66c-195 0 -273 -20 -273 -149c0 -51 28 -85 126 -85zM361 610l-138 156h88l118 -156h-68z" />
    <glyph glyph-name="acircumflex" unicode="&#xe2;" horiz-adv-x="603" 
d="M180 -10c-144 0 -184 58 -185 143c0 182 124 225 358 225h72c4 22 7 43 7 62c0 50 -29 74 -134 74c-51 0 -117 -17 -153 -37l-31 62c42 25 120 46 196 46c205 0 216 -79 182 -237l-42 -194c-12 -57 -11 -68 43 -67l-13 -66c-4 -2 -19 -2 -32 -2c-29 1 -47 6 -58 21
c-7 9 -10 22 -11 40c-40 -47 -105 -70 -199 -70zM197 55c121 0 175 55 205 194l8 40h-66c-195 0 -273 -20 -273 -149c0 -51 28 -85 126 -85zM166 610l178 156h85l112 -156h-74l-89 107l-136 -107h-76z" />
    <glyph glyph-name="adieresis" unicode="&#xe4;" horiz-adv-x="603" 
d="M180 -10c-144 0 -184 58 -185 143c0 182 124 225 358 225h72c4 22 7 43 7 62c0 50 -29 74 -134 74c-51 0 -117 -17 -153 -37l-31 62c42 25 120 46 196 46c205 0 216 -79 182 -237l-42 -194c-12 -57 -11 -68 43 -67l-13 -66c-4 -2 -19 -2 -32 -2c-29 1 -47 6 -58 21
c-7 9 -10 22 -11 40c-40 -47 -105 -70 -199 -70zM197 55c121 0 175 55 205 194l8 40h-66c-195 0 -273 -20 -273 -149c0 -51 28 -85 126 -85zM221 610l21 102h70l-21 -102h-70zM417 610l21 102h70l-21 -102h-70z" />
    <glyph glyph-name="atilde" unicode="&#xe3;" horiz-adv-x="603" 
d="M180 -10c-144 0 -184 58 -185 143c0 182 124 225 358 225h72c4 22 7 43 7 62c0 50 -29 74 -134 74c-51 0 -117 -17 -153 -37l-31 62c42 25 120 46 196 46c205 0 216 -79 182 -237l-42 -194c-12 -57 -11 -68 43 -67l-13 -66c-4 -2 -19 -2 -32 -2c-29 1 -47 6 -58 21
c-7 9 -10 22 -11 40c-40 -47 -105 -70 -199 -70zM197 55c121 0 175 55 205 194l8 40h-66c-195 0 -273 -20 -273 -149c0 -51 28 -85 126 -85zM438 613c-66 0 -94 49 -144 49c-30 0 -56 -22 -78 -46l-41 40c34 40 74 69 122 69c66 0 95 -48 144 -48c26 0 47 19 75 50l41 -39
c-41 -48 -77 -75 -119 -75z" />
    <glyph glyph-name="aring" unicode="&#xe5;" horiz-adv-x="603" 
d="M180 -10c-144 0 -184 58 -185 143c0 182 124 225 358 225h72c4 22 7 43 7 62c0 50 -29 74 -134 74c-51 0 -117 -17 -153 -37l-31 62c42 25 120 46 196 46c205 0 216 -79 182 -237l-42 -194c-12 -57 -11 -68 43 -67l-13 -66c-4 -2 -19 -2 -32 -2c-29 1 -47 6 -58 21
c-7 9 -10 22 -11 40c-40 -47 -105 -70 -199 -70zM197 55c121 0 175 55 205 194l8 40h-66c-195 0 -273 -20 -273 -149c0 -51 28 -85 126 -85zM367 602c-81 0 -113 44 -113 98c0 89 56 148 135 148c78 0 111 -48 111 -104c0 -91 -58 -142 -133 -142zM368 647c50 0 86 34 86 93
c0 34 -18 63 -67 63c-51 0 -88 -40 -88 -98c0 -33 22 -58 69 -58z" />
    <glyph glyph-name="ccedilla" unicode="&#xe7;" horiz-adv-x="543" 
d="M178 -225c-67 0 -108 20 -135 38l31 43c23 -17 53 -33 103 -33c58 0 75 26 75 59c0 34 -37 42 -86 39l-18 16l23 59c-113 20 -154 96 -154 196c0 36 4 73 12 111c36 173 119 262 286 262c119 0 171 -46 203 -88l-64 -50c-21 28 -53 65 -144 65c-113 0 -176 -59 -206 -202
c-6 -30 -10 -62 -10 -91c0 -85 40 -141 151 -141c53 0 94 10 142 46l43 -52c-62 -48 -120 -62 -190 -62c-7 0 -14 0 -21 1l-14 -36c48 2 103 -12 103 -71c0 -71 -45 -109 -130 -109z" />
    <glyph glyph-name="eacute" unicode="&#xe9;" horiz-adv-x="573" 
d="M239 -11c-172 0 -223 88 -223 200c0 37 5 76 13 114c34 163 112 262 282 262c164 0 205 -69 205 -159c0 -45 -9 -104 -20 -155h-403c-3 -19 -4 -38 -4 -56c0 -80 36 -139 157 -139c70 0 124 14 171 43l32 -58c-63 -40 -129 -52 -210 -52zM304 496
c-113 0 -168 -65 -198 -176h328c5 28 9 50 9 75c0 59 -27 101 -139 101zM259 610l184 156h96l-205 -156h-75z" />
    <glyph glyph-name="egrave" unicode="&#xe8;" horiz-adv-x="573" 
d="M239 -11c-172 0 -223 88 -223 200c0 37 5 76 13 114c34 163 112 262 282 262c164 0 205 -69 205 -159c0 -45 -9 -104 -20 -155h-403c-3 -19 -4 -38 -4 -56c0 -80 36 -139 157 -139c70 0 124 14 171 43l32 -58c-63 -40 -129 -52 -210 -52zM304 496
c-113 0 -168 -65 -198 -176h328c5 28 9 50 9 75c0 59 -27 101 -139 101zM345 610l-138 156h88l118 -156h-68z" />
    <glyph glyph-name="ecircumflex" unicode="&#xea;" horiz-adv-x="573" 
d="M239 -11c-172 0 -223 88 -223 200c0 37 5 76 13 114c34 163 112 262 282 262c164 0 205 -69 205 -159c0 -45 -9 -104 -20 -155h-403c-3 -19 -4 -38 -4 -56c0 -80 36 -139 157 -139c70 0 124 14 171 43l32 -58c-63 -40 -129 -52 -210 -52zM304 496
c-113 0 -168 -65 -198 -176h328c5 28 9 50 9 75c0 59 -27 101 -139 101zM150 610l178 156h85l112 -156h-74l-89 107l-136 -107h-76z" />
    <glyph glyph-name="edieresis" unicode="&#xeb;" horiz-adv-x="573" 
d="M239 -11c-172 0 -223 88 -223 200c0 37 5 76 13 114c34 163 112 262 282 262c164 0 205 -69 205 -159c0 -45 -9 -104 -20 -155h-403c-3 -19 -4 -38 -4 -56c0 -80 36 -139 157 -139c70 0 124 14 171 43l32 -58c-63 -40 -129 -52 -210 -52zM304 496
c-113 0 -168 -65 -198 -176h328c5 28 9 50 9 75c0 59 -27 101 -139 101zM401 610l21 102h70l-21 -102h-70zM205 610l21 102h70l-21 -102h-70z" />
    <glyph glyph-name="iacute" unicode="&#xed;" horiz-adv-x="238" 
d="M130 610l144 156h94l-165 -156h-73zM2 0l117 552h75l-116 -552h-76z" />
    <glyph glyph-name="igrave" unicode="&#xec;" horiz-adv-x="238" 
d="M128 610l-90 156h89l69 -156h-68zM2 0l117 552h75l-116 -552h-76z" />
    <glyph glyph-name="icircumflex" unicode="&#xee;" horiz-adv-x="238" 
d="M1 610l159 156h84l92 -156h-74l-69 107l-115 -107h-77zM2 0l117 552h75l-116 -552h-76z" />
    <glyph glyph-name="idieresis" unicode="&#xef;" horiz-adv-x="238" 
d="M49 610l21 102h66l-22 -102h-65zM223 610l21 102h66l-21 -102h-66zM2 0l117 552h75l-116 -552h-76z" />
    <glyph glyph-name="ntilde" unicode="&#xf1;" horiz-adv-x="600" 
d="M-3 0l116 548l61 4l-7 -49c32 32 83 62 181 62c207 0 196 -110 168 -246l-68 -319h-76l66 311c20 98 40 179 -116 179c-122 0 -161 -78 -182 -174l-67 -316h-76zM434 613c-66 0 -94 49 -144 49c-30 0 -56 -22 -78 -46l-41 40c34 40 74 69 122 69c66 0 95 -48 144 -48
c26 0 47 19 75 50l41 -39c-41 -48 -77 -75 -119 -75z" />
    <glyph glyph-name="oacute" unicode="&#xf3;" horiz-adv-x="611" 
d="M276 610l184 156h96l-205 -156h-75zM251 -11c-166 0 -234 81 -234 209c0 32 5 67 12 105c41 190 136 262 290 262c167 0 235 -81 235 -209c0 -32 -5 -68 -12 -106c-40 -189 -137 -261 -291 -261zM254 58c116 0 182 60 212 200c7 31 10 62 10 88c0 90 -45 147 -161 147
c-117 0 -181 -62 -211 -203c-7 -30 -10 -60 -10 -89c0 -88 45 -143 160 -143z" />
    <glyph glyph-name="ograve" unicode="&#xf2;" horiz-adv-x="611" 
d="M251 -11c-166 0 -234 81 -234 209c0 32 5 67 12 105c41 190 136 262 290 262c167 0 235 -81 235 -209c0 -32 -5 -68 -12 -106c-40 -189 -137 -261 -291 -261zM254 58c116 0 182 60 212 200c7 31 10 62 10 88c0 90 -45 147 -161 147c-117 0 -181 -62 -211 -203
c-7 -30 -10 -60 -10 -89c0 -88 45 -143 160 -143zM362 610l-138 156h88l118 -156h-68z" />
    <glyph glyph-name="ocircumflex" unicode="&#xf4;" horiz-adv-x="611" 
d="M167 610l178 156h85l112 -156h-74l-89 107l-136 -107h-76zM251 -11c-166 0 -234 81 -234 209c0 32 5 67 12 105c41 190 136 262 290 262c167 0 235 -81 235 -209c0 -32 -5 -68 -12 -106c-40 -189 -137 -261 -291 -261zM254 58c116 0 182 60 212 200c7 31 10 62 10 88
c0 90 -45 147 -161 147c-117 0 -181 -62 -211 -203c-7 -30 -10 -60 -10 -89c0 -88 45 -143 160 -143z" />
    <glyph glyph-name="odieresis" unicode="&#xf6;" horiz-adv-x="611" 
d="M222 610l21 102h70l-21 -102h-70zM418 610l21 102h70l-21 -102h-70zM251 -11c-166 0 -234 81 -234 209c0 32 5 67 12 105c41 190 136 262 290 262c167 0 235 -81 235 -209c0 -32 -5 -68 -12 -106c-40 -189 -137 -261 -291 -261zM254 58c116 0 182 60 212 200
c7 31 10 62 10 88c0 90 -45 147 -161 147c-117 0 -181 -62 -211 -203c-7 -30 -10 -60 -10 -89c0 -88 45 -143 160 -143z" />
    <glyph glyph-name="otilde" unicode="&#xf5;" horiz-adv-x="611" 
d="M251 -11c-166 0 -234 81 -234 209c0 32 5 67 12 105c41 190 136 262 290 262c167 0 235 -81 235 -209c0 -32 -5 -68 -12 -106c-40 -189 -137 -261 -291 -261zM254 58c116 0 182 60 212 200c7 31 10 62 10 88c0 90 -45 147 -161 147c-117 0 -181 -62 -211 -203
c-7 -30 -10 -60 -10 -89c0 -88 45 -143 160 -143zM439 613c-66 0 -94 49 -144 49c-30 0 -56 -22 -78 -46l-41 40c34 40 74 69 122 69c66 0 95 -48 144 -48c26 0 47 19 75 50l41 -39c-41 -48 -77 -75 -119 -75z" />
    <glyph glyph-name="uacute" unicode="&#xfa;" horiz-adv-x="594" 
d="M268 610l184 156h96l-205 -156h-75zM251 -11c-236 0 -235 114 -205 260l64 303h76l-65 -311c-23 -103 -33 -182 135 -182c122 0 137 62 158 158l71 335h74l-72 -340c-32 -150 -65 -223 -236 -223z" />
    <glyph glyph-name="ugrave" unicode="&#xf9;" horiz-adv-x="594" 
d="M251 -11c-236 0 -235 114 -205 260l64 303h76l-65 -311c-23 -103 -33 -182 135 -182c122 0 137 62 158 158l71 335h74l-72 -340c-32 -150 -65 -223 -236 -223zM354 610l-138 156h88l118 -156h-68z" />
    <glyph glyph-name="ucircumflex" unicode="&#xfb;" horiz-adv-x="594" 
d="M159 610l178 156h85l112 -156h-74l-89 107l-136 -107h-76zM251 -11c-236 0 -235 114 -205 260l64 303h76l-65 -311c-23 -103 -33 -182 135 -182c122 0 137 62 158 158l71 335h74l-72 -340c-32 -150 -65 -223 -236 -223z" />
    <glyph glyph-name="udieresis" unicode="&#xfc;" horiz-adv-x="594" 
d="M214 610l21 102h70l-21 -102h-70zM410 610l21 102h70l-21 -102h-70zM251 -11c-236 0 -235 114 -205 260l64 303h76l-65 -311c-23 -103 -33 -182 135 -182c122 0 137 62 158 158l71 335h74l-72 -340c-32 -150 -65 -223 -236 -223z" />
    <glyph glyph-name="dagger" unicode="&#x2020;" horiz-adv-x="541" 
d="M119 -166l136 639h-174l14 71h174l50 232h75l-50 -232h175l-14 -71h-175l-136 -639h-75z" />
    <glyph glyph-name="degree" unicode="&#xb0;" horiz-adv-x="555" 
d="M278 279c-135 0 -189 78 -189 179c0 164 91 295 250 295c136 0 190 -81 190 -183c0 -165 -93 -291 -251 -291zM283 340c118 0 181 98 181 224c0 72 -36 125 -132 125c-116 0 -178 -102 -178 -227c0 -71 36 -122 129 -122z" />
    <glyph glyph-name="cent" unicode="&#xa2;" horiz-adv-x="538" 
d="M166 -94l19 89c-124 16 -168 93 -168 197c0 36 4 73 12 111c35 170 116 258 277 261l14 60h72l-14 -65c75 -13 114 -49 140 -82l-64 -50c-17 22 -41 50 -96 61l-92 -430c43 3 77 13 121 46l43 -52c-57 -44 -111 -59 -173 -61l-17 -85h-74zM94 199c0 -74 30 -126 110 -138
l91 430c-104 -5 -163 -65 -191 -201c-6 -30 -10 -62 -10 -91z" />
    <glyph glyph-name="sterling" unicode="&#xa3;" horiz-adv-x="591" 
d="M337 -8c-83 0 -144 23 -190 51c-37 -29 -92 -44 -177 -43l10 66c127 0 150 41 162 107c9 47 8 113 6 179h-113l13 65h97v44c0 179 65 293 225 293c100 0 165 -26 205 -49l-42 -63c-32 19 -91 40 -166 40c-111 0 -149 -90 -149 -228v-37h213l-13 -65h-198
c2 -63 3 -129 -8 -181c-6 -28 -13 -53 -23 -74c38 -20 88 -37 147 -37c71 0 89 16 104 104l4 23h68l-7 -34c-25 -124 -61 -161 -168 -161z" />
    <glyph glyph-name="section" unicode="&#xa7;" horiz-adv-x="544" 
d="M81 -9c-18 0 -65 1 -71 1l12 64h53c90 0 106 40 120 108l14 68c-110 13 -158 58 -158 127c0 129 99 157 205 159l13 63c20 95 53 168 188 168c19 0 65 0 72 -1l-14 -66h-52c-91 0 -106 -41 -120 -105l-13 -63c112 -12 164 -59 164 -128c0 -133 -105 -158 -210 -158
l-15 -68c-19 -96 -53 -169 -188 -169zM285 280c75 0 144 15 144 101c0 51 -51 80 -166 80c-79 0 -147 -12 -147 -99c0 -51 49 -82 169 -82z" />
    <glyph glyph-name="bullet" unicode="&#x2022;" horiz-adv-x="342" 
d="M69 225l33 158h142l-32 -158h-143z" />
    <glyph glyph-name="paragraph" unicode="&#xb6;" horiz-adv-x="605" 
d="M178 0l63 297c-120 18 -165 78 -165 168c0 186 92 276 270 276h244l-158 -741h-72l61 291h-92h-16l-63 -291h-72zM330 356h105l68 315h-164c-113 0 -185 -57 -185 -198c0 -78 51 -117 176 -117z" />
    <glyph glyph-name="germandbls" unicode="&#xdf;" horiz-adv-x="627" 
d="M-37 -165l152 718c29 136 100 226 253 226c155 0 216 -66 216 -158c0 -123 -61 -192 -146 -215c85 -22 126 -75 126 -160c0 -160 -85 -246 -279 -246h-97l14 69h80c148 0 208 67 208 175c0 76 -55 122 -189 122l13 64c109 0 193 40 193 169c0 60 -40 104 -144 104
c-101 0 -153 -56 -175 -163l-150 -705h-75z" />
    <glyph glyph-name="registered" unicode="&#xae;" horiz-adv-x="832" 
d="M419 -12c-248 0 -370 158 -370 383s122 383 370 383c249 0 372 -158 372 -383s-123 -383 -372 -383zM419 25c229 0 334 142 334 346s-105 346 -334 346s-333 -142 -333 -346s104 -346 333 -346zM561 122l-119 205h-147v-205h-52v493h212c121 0 164 -46 164 -143
c0 -85 -35 -132 -123 -143l122 -207h-57zM295 374h160c74 0 112 23 112 97c0 73 -36 96 -114 96h-158v-193z" />
    <glyph glyph-name="copyright" unicode="&#xa9;" horiz-adv-x="832" 
d="M426 117c-159 0 -246 89 -246 258c0 174 98 256 248 256c68 0 130 -21 174 -62l-37 -39c-35 31 -86 49 -137 49c-121 0 -192 -69 -192 -204s68 -205 192 -205c71 0 112 23 141 50l36 -37c-34 -34 -87 -66 -179 -66zM420 -12c-249 0 -371 158 -371 383s122 383 371 383
c248 0 371 -158 371 -383s-123 -383 -371 -383zM420 25c229 0 333 142 333 346s-104 346 -333 346c-230 0 -333 -142 -333 -346s103 -346 333 -346z" />
    <glyph glyph-name="trademark" unicode="&#x2122;" horiz-adv-x="1085" 
d="M469 288l97 453h67l76 -374l237 374h69l-97 -453h-58l75 347l-221 -347h-42l-71 347l-76 -347h-56zM204 288l85 397h-157l12 56h374l-12 -56h-157l-85 -397h-60z" />
    <glyph glyph-name="acute" unicode="&#xb4;" horiz-adv-x="590" 
d="M267 610l184 156h96l-205 -156h-75z" />
    <glyph glyph-name="dieresis" unicode="&#xa8;" horiz-adv-x="590" 
d="M213 610l21 102h70l-21 -102h-70zM409 610l21 102h70l-21 -102h-70z" />
    <glyph glyph-name="notequal" unicode="&#x2260;" horiz-adv-x="696" 
d="M138 96l77 113h-137l14 70h169l101 147h-239l15 69h267l77 114h66l-78 -114h139l-14 -69h-170l-101 -147h240l-14 -70h-269l-77 -113h-66z" />
    <glyph glyph-name="AE" unicode="&#xc6;" horiz-adv-x="1050" 
d="M-64 0l618 741h514l-16 -75h-391l-54 -245h382l-15 -72h-381l-60 -277h395l-14 -72h-471l36 168h-314l-140 -168h-89zM220 236h273l92 434z" />
    <glyph glyph-name="Oslash" unicode="&#xd8;" horiz-adv-x="818" 
d="M368 -12c-78 0 -143 13 -194 39l-53 -68h-78l79 102c-59 51 -89 127 -89 224c-1 38 4 79 13 124c56 264 218 344 404 344c71 0 132 -12 181 -33l49 63h78l-74 -95c67 -50 102 -129 102 -231c0 -39 -4 -80 -14 -123c-57 -265 -217 -346 -404 -346zM369 59
c165 0 283 78 327 282c8 37 12 74 12 108c0 76 -24 137 -74 178l-416 -538c39 -19 89 -30 151 -30zM109 290c0 -71 20 -129 63 -169l413 535c-37 16 -83 25 -138 25c-166 0 -283 -84 -326 -283c-8 -36 -12 -73 -12 -108z" />
    <glyph glyph-name="infinity" unicode="&#x221e;" horiz-adv-x="858" 
d="M235 186c-113 0 -174 60 -174 158c0 99 63 159 174 159c78 0 136 -55 189 -114c52 59 110 114 187 114c96 0 174 -44 174 -159c0 -114 -79 -158 -174 -158c-79 0 -137 55 -189 114c-53 -59 -111 -114 -187 -114zM237 247c55 0 100 45 147 97c-46 52 -92 98 -147 98
c-73 0 -113 -35 -113 -98c0 -62 39 -97 113 -97zM610 442c-55 0 -101 -45 -148 -97c47 -52 92 -98 148 -98c61 0 112 25 112 97c0 73 -50 98 -112 98z" />
    <glyph glyph-name="plusminus" unicode="&#xb1;" horiz-adv-x="696" 
d="M255 113l44 204h-205l16 72h203l44 203h75l-43 -203h204l-16 -72h-203l-43 -204h-76zM31 17l14 71h483l-14 -71h-483z" />
    <glyph glyph-name="lessequal" unicode="&#x2264;" horiz-adv-x="696" 
d="M496 108l-401 219l11 54l494 218l-14 -71l-410 -177l334 -177zM29 17l13 66h448l-14 -66h-447z" />
    <glyph glyph-name="greaterequal" unicode="&#x2265;" horiz-adv-x="696" 
d="M89 108l13 68l409 177l-334 177l15 69l401 -218l-11 -54zM69 17l13 66h447l-14 -66h-446z" />
    <glyph glyph-name="yen" unicode="&#xa5;" horiz-adv-x="605" 
d="M37 238l11 62h201l5 22l-159 419h79l130 -353l282 353h82l-340 -422l-4 -19h200l-12 -62h-201l-19 -89h199l-11 -63h-202l-18 -86h-75l18 86h-198l12 63h200l19 89h-199z" />
    <glyph glyph-name="mu.001" horiz-adv-x="598" 
d="M-37 -165l151 717h76l-65 -311c-23 -103 -35 -182 136 -182c124 0 136 62 157 158l71 335h74l-72 -340c-32 -150 -67 -223 -236 -223c-102 0 -151 28 -170 67l-47 -221h-75z" />
    <glyph glyph-name="partialdiff" unicode="&#x2202;" horiz-adv-x="611" 
d="M254 -11c-170 0 -237 82 -237 208c0 35 4 69 12 106c37 172 123 251 271 251c105 0 158 -24 186 -69c6 104 -46 195 -121 268l71 32c72 -69 131 -166 131 -329c0 -64 -8 -135 -26 -213c-43 -189 -135 -254 -287 -254zM254 58c116 0 180 57 211 194c7 31 10 60 10 85
c0 89 -45 145 -161 145c-117 0 -180 -60 -210 -196c-7 -30 -10 -59 -10 -87c0 -87 45 -141 160 -141z" />
    <glyph glyph-name="summation" unicode="&#x2211;" horiz-adv-x="636" 
d="M-68 -165l12 64l351 397l-175 380l14 65h516l-16 -75h-422l176 -377l-338 -382h439l-14 -72h-543z" />
    <glyph glyph-name="product" unicode="&#x220f;" horiz-adv-x="702" 
d="M-27 -165l192 906h529l-192 -906h-79l177 833h-373l-177 -833h-77z" />
    <glyph glyph-name="pi.001" horiz-adv-x="832" 
d="M420 -12c-249 0 -371 158 -371 383s122 383 371 383c248 0 371 -158 371 -383s-123 -383 -371 -383zM420 25c229 0 333 142 333 346s-104 346 -333 346c-230 0 -333 -142 -333 -346s103 -346 333 -346zM252 109v507h221c126 0 170 -47 170 -151s-44 -157 -170 -157h-167
v-199h-54zM306 358h169c78 0 112 28 112 105s-33 102 -114 102h-167v-207z" />
    <glyph glyph-name="integral" unicode="&#x222b;" horiz-adv-x="384" 
d="M-131 -166l14 64h52c76 0 105 46 119 104l129 609c23 108 69 172 201 172c14 0 53 0 60 -1l-14 -64h-52c-76 0 -105 -45 -119 -104l-129 -608c-23 -108 -69 -173 -200 -173c-15 0 -54 1 -61 1z" />
    <glyph glyph-name="ordfeminine" unicode="&#xaa;" horiz-adv-x="569" 
d="M218 285c-109 0 -147 48 -147 112c0 155 108 183 292 183h57c4 20 7 38 7 55c0 41 -24 58 -108 58c-42 0 -95 -14 -125 -30l-25 52c33 20 96 38 159 38c167 0 179 -62 151 -192l-34 -158c-10 -47 -5 -53 36 -53l-12 -56c-3 -1 -15 -1 -25 -1c-26 0 -42 6 -51 18
c-7 10 -9 23 -9 40c-38 -45 -97 -66 -166 -66zM235 341c82 0 141 41 167 155l6 31h-53c-153 0 -220 -14 -220 -121c1 -40 26 -65 100 -65zM60 150l12 59h329l-13 -59h-328z" />
    <glyph glyph-name="ordmasculine" unicode="&#xba;" horiz-adv-x="572" 
d="M292 288c-131 0 -190 66 -190 173c1 175 92 292 238 292c133 0 192 -66 192 -174c0 -176 -89 -291 -240 -291zM291 347c112 0 175 89 175 224c0 75 -39 120 -126 120c-106 0 -171 -91 -171 -226c0 -73 37 -118 122 -118zM61 149l12 60h356l-12 -60h-356z" />
    <glyph glyph-name="Omega" unicode="&#x2126;" horiz-adv-x="830" 
d="M461 753c216 0 338 -105 338 -285c0 -194 -122 -316 -281 -351l-9 -48h223l-16 -69h-282l34 150c160 35 249 145 249 306c0 144 -95 222 -262 222c-211 0 -332 -139 -332 -317c0 -128 59 -188 175 -211l-33 -150h-282l15 69h222l11 48c-112 28 -186 94 -186 246
c0 207 141 390 416 390z" />
    <glyph glyph-name="ae" unicode="&#xe6;" horiz-adv-x="950" 
d="M618 -11c-123 0 -180 45 -203 112c-44 -72 -115 -111 -241 -111c-107 0 -179 37 -179 143c0 177 116 225 357 225h73c4 22 7 46 7 62c0 49 -28 74 -134 74c-51 0 -117 -17 -153 -37l-31 62c42 25 118 46 196 46c116 0 168 -26 184 -79c44 51 106 79 196 79
c164 0 205 -69 205 -159c0 -45 -9 -104 -20 -155h-403c-3 -19 -4 -38 -4 -56c0 -80 36 -139 157 -139c70 0 124 14 171 43l32 -58c-63 -40 -129 -52 -210 -52zM197 55c126 0 175 60 205 194l8 40h-66c-189 0 -273 -14 -273 -150c0 -58 38 -84 126 -84zM683 496
c-113 0 -168 -65 -198 -176h328c5 28 9 50 9 75c0 59 -27 101 -139 101z" />
    <glyph glyph-name="oslash" unicode="&#xf8;" horiz-adv-x="611" 
d="M251 -11c-58 0 -104 10 -139 28l-46 -59h-69l72 90c-36 36 -52 87 -52 150c0 32 5 67 12 105c41 190 136 262 290 262c58 0 104 -10 139 -28l46 58h69l-72 -89c36 -36 53 -88 53 -150c0 -32 -5 -68 -12 -106c-40 -189 -137 -261 -291 -261zM254 54c119 0 184 62 215 204
c7 31 11 62 11 89c0 40 -9 74 -30 99l-296 -372c25 -13 58 -20 100 -20zM91 200c0 -39 8 -70 26 -95l295 372c-25 12 -56 19 -96 19c-119 0 -184 -63 -214 -205c-7 -32 -11 -62 -11 -91z" />
    <glyph glyph-name="questiondown" unicode="&#xbf;" horiz-adv-x="649" 
d="M273 -7c-182 0 -240 62 -240 154c0 120 49 166 181 219c97 38 114 63 136 184h74c-26 -147 -47 -191 -166 -237c-112 -45 -146 -65 -146 -150c0 -55 34 -98 172 -98c49 0 121 10 190 36l26 -67c-77 -31 -174 -41 -227 -41zM354 644l21 102h101l-22 -102h-100z" />
    <glyph glyph-name="exclamdown" unicode="&#xa1;" horiz-adv-x="358" 
d="M58 0l123 537h67l-106 -537h-84zM186 631l22 110h100l-22 -110h-100z" />
    <glyph glyph-name="logicalnot" unicode="&#xac;" horiz-adv-x="696" 
d="M593 389l-58 -276h-76l44 204h-409l16 72h483z" />
    <glyph glyph-name="radical" unicode="&#x221a;" horiz-adv-x="662" 
d="M146 -5l-74 413h76l57 -318l395 651h77l-452 -746h-79z" />
    <glyph glyph-name="florin" unicode="&#x192;" horiz-adv-x="530" 
d="M97 382l15 69h113l28 131c18 89 40 159 181 159h47l-14 -71h-29c-89 0 -102 -50 -114 -109l-24 -110h165l-15 -69h-164l-116 -548h-76l116 548h-113z" />
    <glyph glyph-name="approxequal" unicode="&#x2248;" horiz-adv-x="696" 
d="M117 175l-42 40c41 46 97 82 151 82c87 0 125 -59 184 -59c34 0 75 34 106 64l40 -41c-42 -44 -97 -86 -148 -86c-79 0 -111 58 -185 58c-37 0 -78 -28 -106 -58zM165 400l-41 41c40 45 97 82 150 82c88 0 125 -59 184 -59c34 0 76 34 106 64l41 -42
c-42 -44 -98 -86 -149 -86c-79 0 -112 59 -184 59c-37 0 -79 -29 -107 -59z" />
    <glyph glyph-name="Delta" unicode="&#x2206;" horiz-adv-x="703" 
d="M-53 0l445 746h75l127 -746h-647zM70 72h435l-96 573z" />
    <glyph glyph-name="guillemotleft" unicode="&#xab;" horiz-adv-x="677" 
d="M167 0l-92 275l209 277h68l-205 -277l87 -275h-67zM411 0l-93 275l209 277h69l-206 -277l88 -275h-67z" />
    <glyph glyph-name="guillemotright" unicode="&#xbb;" horiz-adv-x="677" 
d="M42 0l206 277l-87 275h66l92 -276l-209 -276h-68zM285 0l205 277l-87 275h67l93 -276l-209 -276h-69z" />
    <glyph glyph-name="ellipsis" unicode="&#x2026;" horiz-adv-x="683" 
d="M-9 0l22 111h101l-23 -111h-100zM212 0l23 111h101l-24 -111h-100zM435 0l23 111h100l-23 -111h-100z" />
    <glyph glyph-name="Agrave" unicode="&#xc0;" horiz-adv-x="703" 
d="M-54 0l445 746h77l127 -746h-77l-29 171h-358l-101 -171h-84zM171 243h308l-69 402zM445 785l-138 156h88l118 -156h-68z" />
    <glyph glyph-name="Atilde" unicode="&#xc3;" horiz-adv-x="703" 
d="M-54 0l445 746h77l127 -746h-77l-29 171h-358l-101 -171h-84zM171 243h308l-69 402zM522 788c-66 0 -94 49 -144 49c-30 0 -56 -22 -78 -46l-41 40c34 40 74 69 122 69c66 0 95 -48 144 -48c26 0 47 19 75 50l41 -39c-41 -48 -77 -75 -119 -75z" />
    <glyph glyph-name="Otilde" unicode="&#xd5;" horiz-adv-x="818" 
d="M368 -12c-220 0 -335 108 -335 297c-1 38 4 79 13 124c56 264 219 344 404 344c221 0 336 -108 336 -296c0 -39 -4 -80 -14 -123c-57 -265 -217 -346 -404 -346zM369 61c164 0 281 78 324 280c8 37 12 73 12 106c0 141 -80 231 -258 231c-165 0 -281 -83 -323 -280
c-8 -36 -11 -72 -11 -107c0 -140 79 -230 256 -230zM580 788c-66 0 -94 49 -144 49c-30 0 -56 -22 -78 -46l-41 40c34 40 74 69 122 69c66 0 95 -48 144 -48c26 0 47 19 75 50l41 -39c-41 -48 -77 -75 -119 -75z" />
    <glyph glyph-name="OE" unicode="&#x152;" horiz-adv-x="1233" 
d="M368 -12c-220 0 -335 108 -335 297c-1 38 4 79 13 124c56 264 220 344 404 344c164 0 264 -60 304 -169l34 157h462l-16 -75h-391l-52 -245h380l-15 -72h-380l-60 -277h395l-15 -72h-466l24 113c-72 -89 -167 -125 -286 -125zM369 61c164 0 281 78 324 280
c8 37 12 73 12 106c0 141 -80 231 -258 231c-165 0 -281 -83 -323 -280c-8 -36 -11 -72 -11 -107c0 -140 79 -230 256 -230z" />
    <glyph glyph-name="oe" unicode="&#x153;" horiz-adv-x="1016" 
d="M683 -11c-124 0 -181 45 -203 113c-50 -80 -125 -113 -229 -113c-166 0 -234 81 -234 209c0 32 5 67 12 105c41 190 136 262 290 262c121 0 187 -43 213 -116c44 74 112 116 223 116c164 0 205 -69 205 -159c0 -45 -9 -104 -20 -155h-403c-3 -19 -4 -38 -4 -56
c0 -80 36 -139 157 -139c70 0 124 14 171 43l32 -58c-63 -40 -129 -52 -210 -52zM254 58c116 0 182 60 212 200c7 31 10 62 10 88c0 90 -45 147 -161 147c-117 0 -181 -62 -211 -203c-7 -30 -10 -60 -10 -89c0 -88 45 -143 160 -143zM748 496c-113 0 -168 -66 -198 -177h328
c5 28 9 51 9 76c0 59 -27 101 -139 101z" />
    <glyph glyph-name="endash" unicode="&#x2013;" horiz-adv-x="681" 
d="M31 272l15 71h576l-14 -71h-577z" />
    <glyph glyph-name="emdash" unicode="&#x2014;" horiz-adv-x="901" 
d="M31 272l15 71h797l-14 -71h-798z" />
    <glyph glyph-name="quotedblleft" unicode="&#x201c;" horiz-adv-x="418" 
d="M99 507l18 86c18 82 37 114 111 148l16 -41c-48 -23 -63 -39 -72 -81h49l-23 -112h-99zM280 507l19 86c17 82 36 114 110 148l16 -41c-48 -23 -63 -39 -72 -81h49l-23 -112h-99z" />
    <glyph glyph-name="quotedblright" unicode="&#x201d;" horiz-adv-x="418" 
d="M118 507l-17 40c49 24 64 39 73 82h-49l24 112h98l-18 -86c-17 -83 -36 -114 -111 -148zM299 507l-17 40c49 24 64 39 73 82h-49l24 112h97l-17 -86c-17 -83 -36 -114 -111 -148z" />
    <glyph glyph-name="quoteleft" unicode="&#x2018;" horiz-adv-x="239" 
d="M99 506l18 88c17 84 37 115 112 150l18 -41c-50 -24 -65 -41 -74 -83h50l-24 -114h-100z" />
    <glyph glyph-name="quoteright" unicode="&#x2019;" horiz-adv-x="239" 
d="M118 503l-17 41c49 24 64 40 73 82h-50l25 115h100l-19 -87c-17 -85 -36 -117 -112 -151z" />
    <glyph glyph-name="divide" unicode="&#xf7;" horiz-adv-x="696" 
d="M246 108l20 93h92l-20 -93h-92zM94 317l16 72h483l-16 -72h-483zM331 505l19 93h91l-19 -93h-91z" />
    <glyph glyph-name="lozenge" unicode="&#x25ca;" horiz-adv-x="628" 
d="M275 0l-228 371l228 370h75l227 -370l-228 -371h-74zM312 62l189 306l-190 311l-188 -308z" />
    <glyph glyph-name="ydieresis" unicode="&#xff;" horiz-adv-x="510" 
d="M22 -167c-19 0 -48 0 -58 1l12 62h43c50 0 61 13 88 59l32 53l-89 544h78l69 -451l258 451h81l-362 -615c-46 -80 -77 -104 -152 -104zM370 610l21 102h70l-21 -102h-70zM174 610l21 102h70l-21 -102h-70z" />
    <glyph glyph-name="Ydieresis" unicode="&#x178;" horiz-adv-x="680" 
d="M220 0l63 292l-189 449h82l160 -375l317 375h87l-380 -452l-61 -289h-79zM293 785l21 102h70l-21 -102h-70zM489 785l21 102h70l-21 -102h-70z" />
    <glyph glyph-name="fraction" unicode="&#x2044;" horiz-adv-x="486" 
d="M-79 0l574 741h70l-573 -741h-71z" />
    <glyph glyph-name="Euro" unicode="&#x20ac;" horiz-adv-x="643" 
d="M51 420l12 62h101c48 153 143 271 295 271c91 0 149 -20 190 -48l-45 -61c-33 21 -75 38 -146 38c-112 0 -181 -87 -219 -200h257l-12 -62h-262c-7 -29 -12 -59 -15 -89h257l-12 -62h-250c-1 -15 -1 -29 -1 -43c0 -104 41 -168 158 -168c32 0 73 2 120 28l34 -58
c-58 -33 -113 -40 -162 -40c-163 0 -224 92 -224 236c0 15 0 30 1 45h-110l13 62h102c3 30 8 60 14 89h-96z" />
    <glyph glyph-name="guilsinglleft" unicode="&#x2039;" horiz-adv-x="423" 
d="M161 0l-92 275l209 277h69l-205 -277l87 -275h-68z" />
    <glyph glyph-name="guilsinglright" unicode="&#x203a;" horiz-adv-x="423" 
d="M35 0l205 277l-86 275h68l92 -276l-209 -276h-70z" />
    <glyph glyph-name="daggerdbl" unicode="&#x2021;" horiz-adv-x="541" 
d="M119 -166l55 258h-174l14 72h174l67 309h-174l14 71h174l50 232h75l-50 -232h175l-14 -71h-175l-67 -309h175l-14 -72h-175l-55 -258h-75z" />
    <glyph glyph-name="periodcentered" unicode="&#xb7;" horiz-adv-x="239" 
d="M49 274l23 113h100l-23 -113h-100z" />
    <glyph glyph-name="quotesinglbase" unicode="&#x201a;" horiz-adv-x="239" 
d="M-13 -107l-16 41c49 24 63 40 73 83h-50l24 114h100l-19 -88c-16 -79 -36 -116 -112 -150z" />
    <glyph glyph-name="quotedblbase" unicode="&#x201e;" horiz-adv-x="418" 
d="M-13 -105l-16 40c49 23 63 39 72 82h-49l23 112h99l-18 -86c-17 -79 -36 -115 -111 -148zM168 -105l-16 40c48 23 63 39 72 82h-49l23 112h99l-18 -86c-17 -79 -36 -115 -111 -148z" />
    <glyph glyph-name="perthousand" unicode="&#x2030;" horiz-adv-x="1506" 
d="M236 284c-122 0 -170 69 -170 167c0 166 86 302 227 302c122 0 170 -72 170 -170c0 -179 -95 -299 -227 -299zM241 346c95 0 153 103 153 234c0 63 -26 109 -104 109c-104 0 -154 -114 -154 -235c0 -62 26 -108 105 -108zM777 -11c-124 0 -171 69 -171 167
c0 165 86 302 227 302c122 0 170 -73 170 -171c0 -178 -95 -298 -226 -298zM780 51c96 0 153 103 153 234c0 63 -26 110 -104 110c-102 0 -153 -115 -153 -236c0 -62 26 -108 104 -108zM1214 -11c-122 0 -170 69 -170 167c0 165 86 302 227 302c122 0 171 -73 171 -171
c0 -178 -96 -298 -228 -298zM1219 51c95 0 153 103 153 234c0 63 -26 110 -104 110c-104 0 -154 -115 -154 -236c0 -62 26 -108 105 -108zM227 0l556 741h72l-556 -741h-72z" />
    <glyph glyph-name="Acircumflex" unicode="&#xc2;" horiz-adv-x="703" 
d="M-54 0l445 746h77l127 -746h-77l-29 171h-358l-101 -171h-84zM171 243h308l-69 402zM250 785l178 156h85l112 -156h-74l-89 107l-136 -107h-76z" />
    <glyph glyph-name="Ecircumflex" unicode="&#xca;" 
d="M210 785l178 156h85l112 -156h-74l-89 107l-136 -107h-76zM8 0l158 741h473l-16 -75h-394l-54 -244h385l-15 -74h-384l-60 -276h399l-15 -72h-477z" />
    <glyph glyph-name="Aacute" unicode="&#xc1;" horiz-adv-x="703" 
d="M-54 0l445 746h77l127 -746h-77l-29 171h-358l-101 -171h-84zM171 243h308l-69 402zM359 785l184 156h96l-205 -156h-75z" />
    <glyph glyph-name="Edieresis" unicode="&#xcb;" 
d="M265 785l21 102h70l-21 -102h-70zM461 785l21 102h70l-21 -102h-70zM8 0l158 741h473l-16 -75h-394l-54 -244h385l-15 -74h-384l-60 -276h399l-15 -72h-477z" />
    <glyph glyph-name="Egrave" unicode="&#xc8;" 
d="M8 0l158 741h473l-16 -75h-394l-54 -244h385l-15 -74h-384l-60 -276h399l-15 -72h-477zM405 785l-138 156h88l118 -156h-68z" />
    <glyph glyph-name="Iacute" unicode="&#xcd;" horiz-adv-x="267" 
d="M184 785l144 157h94l-165 -157h-73zM15 0l158 741h79l-158 -741h-79z" />
    <glyph glyph-name="Icircumflex" unicode="&#xce;" horiz-adv-x="267" 
d="M15 0l158 741h79l-158 -741h-79zM34 785l178 156h85l112 -156h-74l-89 107l-136 -107h-76z" />
    <glyph glyph-name="Idieresis" unicode="&#xcf;" horiz-adv-x="267" 
d="M15 0l158 741h79l-158 -741h-79zM89 785l21 102h70l-21 -102h-70zM285 785l21 102h70l-21 -102h-70z" />
    <glyph glyph-name="Igrave" unicode="&#xcc;" horiz-adv-x="267" 
d="M186 785l-95 157h87l73 -157h-65zM15 0l158 741h79l-158 -741h-79z" />
    <glyph glyph-name="Oacute" unicode="&#xd3;" horiz-adv-x="818" 
d="M414 785l184 156h96l-205 -156h-75zM368 -12c-220 0 -335 108 -335 297c-1 38 4 79 13 124c56 264 219 344 404 344c221 0 336 -108 336 -296c0 -39 -4 -80 -14 -123c-57 -265 -217 -346 -404 -346zM369 61c164 0 281 78 324 280c8 37 12 73 12 106
c0 141 -80 231 -258 231c-165 0 -281 -83 -323 -280c-8 -36 -11 -72 -11 -107c0 -140 79 -230 256 -230z" />
    <glyph glyph-name="Ocircumflex" unicode="&#xd4;" horiz-adv-x="818" 
d="M305 785l178 156h85l112 -156h-74l-89 107l-136 -107h-76zM368 -12c-220 0 -335 108 -335 297c-1 38 4 79 13 124c56 264 219 344 404 344c221 0 336 -108 336 -296c0 -39 -4 -80 -14 -123c-57 -265 -217 -346 -404 -346zM369 61c164 0 281 78 324 280c8 37 12 73 12 106
c0 141 -80 231 -258 231c-165 0 -281 -83 -323 -280c-8 -36 -11 -72 -11 -107c0 -140 79 -230 256 -230z" />
    <glyph glyph-name="apple" unicode="&#xf8ff;" horiz-adv-x="832" 
d="M172 654l-7 8c67 61 155 97 251 97s185 -37 252 -97l-7 -8c-65 59 -151 95 -245 95s-179 -36 -244 -95zM416 -17c-96 0 -185 37 -252 97l7 8c65 -59 151 -95 245 -95s179 36 244 94c0 1 7 -7 7 -7c-67 -61 -155 -97 -251 -97zM706 120c0 0 -3 3 -8 7c55 66 88 151 88 244
s-33 178 -88 244l8 7c56 -67 90 -155 90 -251c0 -95 -34 -183 -90 -251zM126 120c-56 67 -90 155 -90 251c0 95 34 183 90 250c0 0 3 -2 7 -6c-54 -66 -87 -151 -87 -244s33 -178 88 -244c-5 -4 -8 -7 -8 -7zM416 60c-78 0 -148 29 -201 77c0 0 7 8 7 7
c52 -46 120 -74 194 -74s142 28 193 74l7 -8c-53 -47 -123 -76 -200 -76zM610 597c-51 47 -119 75 -194 75c-74 0 -142 -28 -194 -74l-7 7c54 48 124 77 201 77s147 -29 201 -77zM183 170c-45 55 -72 124 -72 201c0 76 27 146 71 200l8 -7c-43 -52 -69 -120 -69 -193
c0 -74 26 -142 69 -194zM649 171l-7 6c43 53 69 120 69 194s-26 141 -70 193l8 7c45 -54 72 -124 72 -200s-27 -146 -72 -200zM416 121c-62 0 -118 23 -161 61l7 8c41 -37 95 -59 154 -59s113 22 153 59l7 -8c-42 -38 -98 -61 -160 -61zM604 211c0 0 -3 2 -8 7
c35 42 55 95 55 153s-20 112 -55 153l8 7c36 -43 57 -99 57 -160s-21 -117 -57 -160zM570 552c-41 37 -95 59 -154 59s-112 -22 -153 -58l-7 7c43 38 99 61 160 61c62 0 118 -23 161 -61zM228 211c-35 43 -57 99 -57 160s21 116 56 160l8 -7c-33 -41 -54 -95 -54 -153
s20 -112 54 -153c-2 -3 -5 -5 -7 -7zM295 516l-7 8c34 30 79 48 128 48s94 -18 128 -49c1 0 -6 -7 -6 -7c-33 29 -76 46 -122 46s-89 -17 -121 -46zM568 243l-8 7c27 33 43 75 43 121s-16 88 -43 121l8 7c28 -35 45 -79 45 -128s-17 -93 -45 -128zM264 243
c-28 35 -45 79 -45 128c0 48 17 93 45 128l8 -7c-27 -33 -43 -75 -43 -121s16 -88 43 -121zM416 170c-49 0 -94 19 -129 49l7 7c33 -29 75 -46 122 -46c46 0 89 17 121 46l7 -8c-34 -30 -79 -48 -128 -48zM540 269l-8 7c20 26 33 59 33 95s-13 69 -34 95l8 7
c23 -28 36 -63 36 -102s-13 -74 -35 -102zM416 209c-39 0 -75 15 -103 38l7 8c26 -22 60 -36 96 -36s70 14 96 36l6 -8c-27 -23 -63 -38 -102 -38zM292 269c-22 28 -35 64 -35 102c0 39 13 74 36 102l7 -7c-20 -26 -33 -59 -33 -95s13 -69 33 -95zM320 487l-7 8
c28 24 64 38 103 38s75 -15 102 -39l-6 -7c-26 23 -59 36 -96 36c-36 0 -70 -14 -96 -36zM416 240c-32 0 -61 11 -83 30l7 8c21 -17 48 -28 76 -28c29 0 55 11 75 28l7 -7c-22 -19 -50 -31 -82 -31zM316 289c-18 23 -28 51 -28 82s10 59 28 81c2 -2 5 -4 7 -7
c-15 -20 -25 -46 -25 -74s10 -54 26 -75zM516 290l-7 7c15 20 25 46 25 74s-10 54 -26 75l8 7c18 -23 28 -51 28 -82s-10 -59 -28 -81zM341 464l-7 7c22 19 51 31 82 31s60 -11 82 -30l-7 -8c-20 17 -46 28 -75 28c-28 0 -54 -10 -75 -28zM358 445c-4 3 -7 7 -8 8
c18 15 41 24 66 24s48 -9 66 -24l-8 -8c-16 14 -36 22 -58 22s-42 -8 -58 -22zM416 265c-25 0 -48 9 -66 24l7 8c16 -14 37 -22 59 -22s42 8 58 22l7 -8c-18 -15 -40 -24 -65 -24zM334 306c-13 18 -21 40 -21 65c0 24 8 47 21 65l8 -7c-12 -16 -19 -36 -19 -58
c0 -21 7 -41 19 -57zM498 306l-8 7c12 16 19 36 19 58s-7 42 -19 58l7 7c14 -18 22 -41 22 -65s-8 -46 -21 -65zM416 285c-20 0 -38 7 -53 19l7 8c13 -10 29 -17 46 -17s32 6 45 17l7 -8c-14 -12 -32 -19 -52 -19zM371 430l-7 8c14 12 33 19 52 19c20 0 38 -7 52 -19
c-4 -4 -7 -8 -7 -8c-12 11 -28 17 -45 17s-33 -6 -45 -17zM349 320c-10 14 -16 32 -16 51s6 37 16 51l8 -7c-9 -13 -14 -28 -14 -44s5 -31 14 -44zM482 319c-2 3 -4 5 -7 7c9 13 14 29 14 45c0 17 -5 32 -14 44c0 0 8 7 7 7c11 -14 17 -32 17 -51s-6 -37 -17 -52zM468 333
l-8 7c6 9 10 20 10 31s-4 22 -10 31l8 7c8 -11 12 -24 12 -38s-4 -27 -12 -38zM416 305c-15 0 -28 5 -40 14l7 7c10 -7 21 -12 33 -12s23 5 32 12l7 -7c-11 -9 -25 -14 -39 -14zM364 333c-8 11 -12 24 -12 38s4 27 12 38c2 -3 5 -5 7 -7c-5 -9 -9 -20 -9 -31s4 -22 9 -31z
M384 416l-7 7c11 9 24 14 39 14c14 0 27 -5 38 -14l-6 -7c-9 8 -20 12 -32 12s-23 -5 -32 -12zM416 324c-10 0 -19 3 -27 9c2 1 6 6 6 6c6 -4 13 -7 21 -7s15 2 21 7c0 0 2 -2 5 -6c-7 -6 -16 -9 -26 -9zM395 403l-5 6c7 6 16 9 26 9s19 -3 26 -9c-3 -3 -5 -6 -5 -6
c-6 4 -13 7 -21 7s-15 -2 -21 -7zM378 346c-4 7 -7 16 -7 25s3 18 7 25c4 -3 6 -5 6 -5c-3 -6 -5 -13 -5 -20s2 -14 5 -20c0 0 -2 -2 -6 -5zM454 346c-4 3 -6 5 -6 5c3 6 5 13 5 20s-2 14 -5 20l6 5c4 -7 7 -16 7 -25s-3 -18 -7 -25z" />
    <glyph glyph-name="Ograve" unicode="&#xd2;" horiz-adv-x="818" 
d="M368 -12c-220 0 -335 108 -335 297c-1 38 4 79 13 124c56 264 219 344 404 344c221 0 336 -108 336 -296c0 -39 -4 -80 -14 -123c-57 -265 -217 -346 -404 -346zM369 61c164 0 281 78 324 280c8 37 12 73 12 106c0 141 -80 231 -258 231c-165 0 -281 -83 -323 -280
c-8 -36 -11 -72 -11 -107c0 -140 79 -230 256 -230zM503 785l-138 156h88l118 -156h-68z" />
    <glyph glyph-name="Uacute" unicode="&#xda;" horiz-adv-x="759" 
d="M387 785l184 156h96l-205 -156h-75zM334 -12c-222 0 -281 95 -281 207c0 31 5 64 12 95l96 451h79l-97 -450c-6 -30 -11 -57 -11 -83c0 -88 49 -147 210 -147c147 0 207 74 235 202l102 478h76l-106 -493c-31 -147 -103 -260 -315 -260z" />
    <glyph glyph-name="Ucircumflex" unicode="&#xdb;" horiz-adv-x="759" 
d="M278 785l178 156h85l112 -156h-74l-89 107l-136 -107h-76zM334 -12c-222 0 -281 95 -281 207c0 31 5 64 12 95l96 451h79l-97 -450c-6 -30 -11 -57 -11 -83c0 -88 49 -147 210 -147c147 0 207 74 235 202l102 478h76l-106 -493c-31 -147 -103 -260 -315 -260z" />
    <glyph glyph-name="Ugrave" unicode="&#xd9;" horiz-adv-x="759" 
d="M334 -12c-222 0 -281 95 -281 207c0 31 5 64 12 95l96 451h79l-97 -450c-6 -30 -11 -57 -11 -83c0 -88 49 -147 210 -147c147 0 207 74 235 202l102 478h76l-106 -493c-31 -147 -103 -260 -315 -260zM473 785l-138 156h88l118 -156h-68z" />
    <glyph glyph-name="dotlessi" unicode="&#x131;" horiz-adv-x="238" 
d="M2 0l117 552h75l-116 -552h-76z" />
    <glyph glyph-name="circumflex" unicode="&#x2c6;" horiz-adv-x="590" 
d="M158 610l178 156h85l112 -156h-74l-89 107l-136 -107h-76z" />
    <glyph glyph-name="tilde" unicode="&#x2dc;" horiz-adv-x="590" 
d="M430 613c-66 0 -94 49 -144 49c-30 0 -56 -22 -78 -46l-41 40c34 40 74 69 122 69c66 0 95 -48 144 -48c26 0 47 19 75 50l41 -39c-41 -48 -77 -75 -119 -75z" />
    <glyph glyph-name="macron" unicode="&#xaf;" horiz-adv-x="590" 
d="M173 610l13 65h345l-13 -65h-345z" />
    <glyph glyph-name="breve" unicode="&#x2d8;" horiz-adv-x="590" 
d="M356 602c-137 0 -161 72 -162 152l61 9c0 -56 12 -98 103 -98c90 0 119 42 142 98l56 -12c-28 -80 -80 -149 -200 -149z" />
    <glyph glyph-name="dotaccent" unicode="&#x2d9;" horiz-adv-x="590" 
d="M307 610l23 107h76l-22 -107h-77z" />
    <glyph glyph-name="ring" unicode="&#x2da;" horiz-adv-x="590" 
d="M359 602c-81 0 -113 44 -113 98c0 89 56 148 135 148c78 0 111 -48 111 -104c0 -91 -58 -142 -133 -142zM360 647c50 0 86 34 86 93c0 34 -18 63 -67 63c-51 0 -88 -40 -88 -98c0 -33 22 -58 69 -58z" />
    <glyph glyph-name="cedilla" unicode="&#xb8;" horiz-adv-x="590" 
d="M201 -225c-67 0 -108 20 -135 38l31 43c23 -17 53 -33 103 -33c58 0 75 26 75 59c0 34 -37 42 -86 39l-18 16l28 70h50l-21 -52c48 2 103 -12 103 -71c0 -71 -45 -109 -130 -109z" />
    <glyph glyph-name="hungarumlaut" unicode="&#x2dd;" horiz-adv-x="590" 
d="M139 610l159 156h91l-181 -156h-69zM366 610l160 156h90l-181 -156h-69z" />
    <glyph glyph-name="ogonek" unicode="&#x2db;" horiz-adv-x="590" 
d="M196 -220c-97 0 -124 33 -124 78c0 75 68 125 118 149h76c-63 -33 -123 -80 -123 -129c0 -25 14 -40 64 -40c25 0 53 7 77 18l23 -52c-29 -14 -73 -24 -111 -24z" />
    <glyph glyph-name="caron" unicode="&#x2c7;" horiz-adv-x="590" 
d="M303 610l-112 156h73l90 -107l135 107h77l-178 -156h-85z" />
    <glyph glyph-name="a.alt" 
d="M222 -9c-154 0 -206 81 -206 198c0 36 5 76 15 117c37 166 100 259 262 259c126 0 177 -25 201 -86l36 82l54 -5l-118 -553l-59 -5l10 57c-44 -48 -101 -64 -195 -64zM245 60c110 0 167 36 202 200c8 35 12 68 12 96c0 95 -45 137 -157 137c-114 0 -165 -63 -195 -198
c-8 -35 -12 -67 -12 -96c0 -84 37 -139 150 -139z" />
    <glyph glyph-name="g.alt" horiz-adv-x="627" 
d="M233 -179c-128 0 -216 29 -261 50l36 65c40 -20 121 -45 225 -45c123 0 145 38 170 144l3 13c-41 -43 -96 -57 -184 -57c-146 0 -206 73 -206 198c0 38 6 80 15 119c39 168 101 257 262 257c130 0 185 -30 207 -85l36 81l54 -5l-107 -503c-34 -159 -65 -232 -250 -232z
M245 60c114 0 173 38 208 200c8 35 12 68 12 96c0 97 -49 137 -163 137c-113 0 -165 -61 -195 -198c-8 -35 -12 -63 -12 -96c0 -86 38 -139 150 -139z" />
    <glyph glyph-name="l.alt" horiz-adv-x="238" 
d="M2 0l165 776h76l-165 -776h-76z" />
    <glyph glyph-name="u.alt" horiz-adv-x="599" 
d="M210 -11c-207 0 -196 107 -167 244l67 319h76l-67 -315c-21 -98 -39 -178 117 -178c121 0 160 77 180 173l68 320h76l-117 -549l-59 -5l7 54c-30 -33 -82 -63 -181 -63z" />
    <glyph glyph-name="aacute.alt" 
d="M281 610l184 156h96l-205 -156h-75zM222 -9c-154 0 -206 81 -206 198c0 36 5 76 15 117c37 166 100 259 262 259c126 0 177 -25 201 -86l36 82l54 -5l-118 -553l-59 -5l10 57c-44 -48 -101 -64 -195 -64zM245 60c110 0 167 36 202 200c8 35 12 68 12 96
c0 95 -45 137 -157 137c-114 0 -165 -63 -195 -198c-8 -35 -12 -67 -12 -96c0 -84 37 -139 150 -139z" />
    <glyph glyph-name="abreve.alt" 
d="M222 -9c-154 0 -206 81 -206 198c0 36 5 76 15 117c37 166 100 259 262 259c126 0 177 -25 201 -86l36 82l54 -5l-118 -553l-59 -5l10 57c-44 -48 -101 -64 -195 -64zM245 60c110 0 167 36 202 200c8 35 12 68 12 96c0 95 -45 137 -157 137c-114 0 -165 -63 -195 -198
c-8 -35 -12 -67 -12 -96c0 -84 37 -139 150 -139zM370 602c-137 0 -161 72 -162 152l61 9c0 -56 12 -98 103 -98c90 0 119 42 142 98l56 -12c-28 -80 -80 -149 -200 -149z" />
    <glyph glyph-name="acircumflex.alt" 
d="M172 610l178 156h85l112 -156h-74l-89 107l-136 -107h-76zM222 -9c-154 0 -206 81 -206 198c0 36 5 76 15 117c37 166 100 259 262 259c126 0 177 -25 201 -86l36 82l54 -5l-118 -553l-59 -5l10 57c-44 -48 -101 -64 -195 -64zM245 60c110 0 167 36 202 200
c8 35 12 68 12 96c0 95 -45 137 -157 137c-114 0 -165 -63 -195 -198c-8 -35 -12 -67 -12 -96c0 -84 37 -139 150 -139z" />
    <glyph glyph-name="adieresis.alt" 
d="M227 610l21 102h70l-21 -102h-70zM423 610l21 102h70l-21 -102h-70zM222 -9c-154 0 -206 81 -206 198c0 36 5 76 15 117c37 166 100 259 262 259c126 0 177 -25 201 -86l36 82l54 -5l-118 -553l-59 -5l10 57c-44 -48 -101 -64 -195 -64zM245 60c110 0 167 36 202 200
c8 35 12 68 12 96c0 95 -45 137 -157 137c-114 0 -165 -63 -195 -198c-8 -35 -12 -67 -12 -96c0 -84 37 -139 150 -139z" />
    <glyph glyph-name="agrave.alt" 
d="M222 -9c-154 0 -206 81 -206 198c0 36 5 76 15 117c37 166 100 259 262 259c126 0 177 -25 201 -86l36 82l54 -5l-118 -553l-59 -5l10 57c-44 -48 -101 -64 -195 -64zM245 60c110 0 167 36 202 200c8 35 12 68 12 96c0 95 -45 137 -157 137c-114 0 -165 -63 -195 -198
c-8 -35 -12 -67 -12 -96c0 -84 37 -139 150 -139zM367 610l-138 156h88l118 -156h-68z" />
    <glyph glyph-name="amacron.alt" 
d="M222 -9c-154 0 -206 81 -206 198c0 36 5 76 15 117c37 166 100 259 262 259c126 0 177 -25 201 -86l36 82l54 -5l-118 -553l-59 -5l10 57c-44 -48 -101 -64 -195 -64zM245 60c110 0 167 36 202 200c8 35 12 68 12 96c0 95 -45 137 -157 137c-114 0 -165 -63 -195 -198
c-8 -35 -12 -67 -12 -96c0 -84 37 -139 150 -139zM187 610l13 65h345l-13 -65h-345z" />
    <glyph glyph-name="aogonek.alt" 
d="M222 -9c-154 0 -206 81 -206 198c0 36 5 76 15 117c37 166 100 259 262 259c126 0 177 -25 201 -86l36 82l54 -5l-118 -553c-63 -33 -112 -81 -112 -125c0 -26 17 -40 56 -40c21 0 43 4 67 15l23 -52c-29 -14 -63 -21 -101 -21c-84 0 -114 33 -114 87
c0 69 65 124 126 156l6 32c-44 -48 -101 -64 -195 -64zM245 60c110 0 167 36 202 200c8 35 12 68 12 96c0 95 -45 137 -157 137c-114 0 -165 -63 -195 -198c-8 -35 -12 -67 -12 -96c0 -84 37 -139 150 -139z" />
    <glyph glyph-name="aring.alt" 
d="M373 602c-81 0 -113 44 -113 98c0 89 56 148 135 148c78 0 111 -48 111 -104c0 -91 -58 -142 -133 -142zM374 647c50 0 86 34 86 93c0 34 -18 63 -67 63c-51 0 -88 -40 -88 -98c0 -33 22 -58 69 -58zM222 -9c-154 0 -206 81 -206 198c0 36 5 76 15 117
c37 166 100 259 262 259c126 0 177 -25 201 -86l36 82l54 -5l-118 -553l-59 -5l10 57c-44 -48 -101 -64 -195 -64zM245 60c110 0 167 36 202 200c8 35 12 68 12 96c0 95 -45 137 -157 137c-114 0 -165 -63 -195 -198c-8 -35 -12 -67 -12 -96c0 -84 37 -139 150 -139z" />
    <glyph glyph-name="atilde.alt" 
d="M222 -9c-154 0 -206 81 -206 198c0 36 5 76 15 117c37 166 100 259 262 259c126 0 177 -25 201 -86l36 82l54 -5l-118 -553l-59 -5l10 57c-44 -48 -101 -64 -195 -64zM245 60c110 0 167 36 202 200c8 35 12 68 12 96c0 95 -45 137 -157 137c-114 0 -165 -63 -195 -198
c-8 -35 -12 -67 -12 -96c0 -84 37 -139 150 -139zM444 613c-66 0 -94 49 -144 49c-30 0 -56 -22 -78 -46l-41 40c34 40 74 69 122 69c66 0 95 -48 144 -48c26 0 47 19 75 50l41 -39c-41 -48 -77 -75 -119 -75z" />
    <glyph glyph-name="gbreve.alt" horiz-adv-x="627" 
d="M233 -179c-128 0 -216 29 -261 50l36 65c40 -20 121 -45 225 -45c123 0 145 38 170 144l3 13c-41 -43 -96 -57 -184 -57c-146 0 -206 73 -206 198c0 38 6 80 15 119c39 168 101 257 262 257c130 0 185 -30 207 -85l36 81l54 -5l-107 -503c-34 -159 -65 -232 -250 -232z
M245 60c114 0 173 38 208 200c8 35 12 68 12 96c0 97 -49 137 -163 137c-113 0 -165 -61 -195 -198c-8 -35 -12 -63 -12 -96c0 -86 38 -139 150 -139zM374 602c-137 0 -161 72 -162 152l61 9c0 -56 12 -98 103 -98c90 0 119 42 142 98l56 -12c-28 -80 -80 -149 -200 -149z
" />
    <glyph glyph-name="gcommaaccent.alt" horiz-adv-x="627" 
d="M319 610l15 68c16 76 36 107 105 135l13 -37c-46 -22 -60 -37 -68 -74h45l-18 -92h-92zM233 -179c-128 0 -216 29 -261 50l36 65c40 -20 121 -45 225 -45c123 0 145 38 170 144l3 13c-41 -43 -96 -57 -184 -57c-146 0 -206 73 -206 198c0 38 6 80 15 119
c39 168 101 257 262 257c130 0 185 -30 207 -85l36 81l54 -5l-107 -503c-34 -159 -65 -232 -250 -232zM245 60c114 0 173 38 208 200c8 35 12 68 12 96c0 97 -49 137 -163 137c-113 0 -165 -61 -195 -198c-8 -35 -12 -63 -12 -96c0 -86 38 -139 150 -139z" />
    <glyph glyph-name="lacute.alt" horiz-adv-x="238" 
d="M175 810l184 156h96l-205 -156h-75zM2 0l165 776h76l-165 -776h-76z" />
    <glyph glyph-name="lcommaaccent.alt" horiz-adv-x="238" 
d="M-41 -248l-13 37c46 22 60 37 68 74h-46l20 98h91l-15 -74c-16 -77 -35 -106 -105 -135zM2 0l165 776h76l-165 -776h-76z" />
    <glyph glyph-name="lslash.alt" horiz-adv-x="278" 
d="M4 386l15 69l112 58l56 263h76l-47 -218l112 58l-14 -71l-113 -58l-103 -487h-76l94 443z" />
    <glyph glyph-name="lcaron.alt" horiz-adv-x="334" 
d="M298 567l-13 37c46 23 59 37 68 74h-43l20 98h89l-15 -74c-17 -76 -37 -103 -106 -135zM2 0l165 776h76l-165 -776h-76z" />
    <glyph glyph-name="uacute.alt" horiz-adv-x="599" 
d="M270 610l184 156h96l-205 -156h-75zM210 -11c-207 0 -196 107 -167 244l67 319h76l-67 -315c-21 -98 -39 -178 117 -178c121 0 160 77 180 173l68 320h76l-117 -549l-59 -5l7 54c-30 -33 -82 -63 -181 -63z" />
    <glyph glyph-name="ucircumflex.alt" horiz-adv-x="599" 
d="M161 610l178 156h85l112 -156h-74l-89 107l-136 -107h-76zM210 -11c-207 0 -196 107 -167 244l67 319h76l-67 -315c-21 -98 -39 -178 117 -178c121 0 160 77 180 173l68 320h76l-117 -549l-59 -5l7 54c-30 -33 -82 -63 -181 -63z" />
    <glyph glyph-name="udieresis.alt" horiz-adv-x="599" 
d="M216 610l21 102h70l-21 -102h-70zM412 610l21 102h70l-21 -102h-70zM210 -11c-207 0 -196 107 -167 244l67 319h76l-67 -315c-21 -98 -39 -178 117 -178c121 0 160 77 180 173l68 320h76l-117 -549l-59 -5l7 54c-30 -33 -82 -63 -181 -63z" />
    <glyph glyph-name="ugrave.alt" horiz-adv-x="599" 
d="M356 610l-138 156h88l118 -156h-68zM210 -11c-207 0 -196 107 -167 244l67 319h76l-67 -315c-21 -98 -39 -178 117 -178c121 0 160 77 180 173l68 320h76l-117 -549l-59 -5l7 54c-30 -33 -82 -63 -181 -63z" />
    <glyph glyph-name="uhungarumlaut.alt" horiz-adv-x="599" 
d="M142 610l159 156h91l-181 -156h-69zM369 610l160 156h90l-181 -156h-69zM210 -11c-207 0 -196 107 -167 244l67 319h76l-67 -315c-21 -98 -39 -178 117 -178c121 0 160 77 180 173l68 320h76l-117 -549l-59 -5l7 54c-30 -33 -82 -63 -181 -63z" />
    <glyph glyph-name="umacron.alt" horiz-adv-x="599" 
d="M176 610l13 65h345l-13 -65h-345zM210 -11c-207 0 -196 107 -167 244l67 319h76l-67 -315c-21 -98 -39 -178 117 -178c121 0 160 77 180 173l68 320h76l-117 -549l-59 -5l7 54c-30 -33 -82 -63 -181 -63z" />
    <glyph glyph-name="uogonek.alt" horiz-adv-x="599" 
d="M210 -11c-207 0 -196 107 -167 244l67 319h76l-67 -315c-21 -98 -39 -178 117 -178c121 0 160 77 180 173l68 320h76l-117 -549c-63 -33 -112 -81 -112 -125c0 -26 17 -40 56 -40c21 0 43 4 67 15l23 -52c-29 -14 -63 -21 -101 -21c-84 0 -114 33 -114 87
c0 68 64 123 125 155l4 30c-30 -33 -82 -63 -181 -63z" />
    <glyph glyph-name="uring.alt" horiz-adv-x="599" 
d="M362 602c-81 0 -113 44 -113 98c0 89 56 148 135 148c78 0 111 -48 111 -104c0 -91 -58 -142 -133 -142zM363 647c50 0 86 34 86 93c0 34 -18 63 -67 63c-51 0 -88 -40 -88 -98c0 -33 22 -58 69 -58zM210 -11c-207 0 -196 107 -167 244l67 319h76l-67 -315
c-21 -98 -39 -178 117 -178c121 0 160 77 180 173l68 320h76l-117 -549l-59 -5l7 54c-30 -33 -82 -63 -181 -63z" />
    <glyph glyph-name="fl.alt" horiz-adv-x="596" 
d="M54 483l15 69h104l15 67c22 102 68 157 194 157h51l-14 -67h-36c-84 0 -108 -40 -121 -99l-13 -58h136l-14 -69h-136l-138 -648h-76l138 648h-105zM361 0l165 776h76l-166 -776h-75z" />
    <glyph glyph-name="f_f_l.alt" horiz-adv-x="901" 
d="M325 -165l139 648h-229l-138 -648h-76l138 648h-105l15 69h104l15 67c22 102 68 157 194 157h51l-14 -67h-36c-84 0 -108 -40 -121 -99l-13 -58h229l15 67c22 102 67 157 194 157h50l-13 -67h-36c-84 0 -109 -40 -122 -99l-13 -58h136l-14 -69h-136l-138 -648h-76zM665 0
l164 776h76l-164 -776h-76z" />
    <glyph glyph-name="commaaccent" unicode="&#xf6c3;" horiz-adv-x="239" 
d="M-41 -248l-13 37c46 22 60 37 68 74h-46l20 98h91l-15 -74c-16 -77 -35 -106 -105 -135z" />
    <glyph glyph-name="commaaccent.2" horiz-adv-x="239" 
d="M126 610l15 68c16 76 36 107 105 135l13 -37c-46 -22 -60 -37 -68 -74h45l-18 -92h-92z" />
    <glyph glyph-name="Abreve" unicode="&#x102;" horiz-adv-x="703" 
d="M-54 0l445 746h77l127 -746h-77l-29 171h-358l-101 -171h-84zM171 243h308l-69 402zM448 777c-137 0 -161 72 -162 152l61 9c0 -56 12 -98 103 -98c90 0 119 42 142 98l56 -12c-28 -80 -80 -149 -200 -149z" />
    <glyph glyph-name="Amacron" unicode="&#x100;" horiz-adv-x="703" 
d="M-54 0l445 746h77l127 -746h-77l-29 171h-358l-101 -171h-84zM171 243h308l-69 402zM265 785l13 65h345l-13 -65h-345z" />
    <glyph glyph-name="Aogonek" unicode="&#x104;" horiz-adv-x="703" 
d="M-54 0l445 746h77l127 -746h-23c-60 -33 -106 -79 -106 -122c0 -26 17 -40 56 -40c21 0 43 4 67 15l23 -52c-29 -14 -63 -21 -101 -21c-84 0 -114 33 -114 87c0 66 59 119 118 151l-26 153h-358l-101 -171h-84zM171 243h308l-69 402z" />
    <glyph glyph-name="Cacute" unicode="&#x106;" horiz-adv-x="703" 
d="M359 785l184 156h96l-205 -156h-75zM346 -11c-214 0 -314 111 -314 289c0 39 4 82 13 128c56 262 211 347 401 347c139 0 218 -48 267 -103l-65 -53c-43 48 -109 81 -204 81c-160 0 -278 -82 -321 -283c-8 -38 -11 -75 -11 -108c0 -139 77 -224 241 -224
c88 0 147 21 199 62l49 -58c-63 -52 -140 -78 -255 -78z" />
    <glyph glyph-name="Ccaron" unicode="&#x10c;" horiz-adv-x="703" 
d="M395 785l-112 156h73l90 -107l135 107h77l-178 -156h-85zM346 -11c-214 0 -314 111 -314 289c0 39 4 82 13 128c56 262 211 347 401 347c139 0 218 -48 267 -103l-65 -53c-43 48 -109 81 -204 81c-160 0 -278 -82 -321 -283c-8 -38 -11 -75 -11 -108
c0 -139 77 -224 241 -224c88 0 147 21 199 62l49 -58c-63 -52 -140 -78 -255 -78z" />
    <glyph glyph-name="Dcaron" unicode="&#x10e;" horiz-adv-x="739" 
d="M411 785l-112 156h73l90 -107l135 107h77l-178 -156h-85zM8 0l158 741h170c268 0 371 -78 371 -257c0 -44 -5 -95 -18 -152c-60 -281 -193 -332 -406 -332h-275zM101 72h183c185 0 279 50 327 271c10 49 16 92 16 131c0 132 -76 193 -291 193h-106z" />
    <glyph glyph-name="Dcroat" unicode="&#x110;" horiz-adv-x="739" 
d="M-4 351l14 66h87l69 324h170c268 0 371 -78 371 -257c0 -44 -5 -95 -18 -152c-60 -281 -193 -332 -406 -332h-275l75 351h-87zM101 72h183c185 0 279 50 327 271c10 49 16 92 16 131c0 132 -76 193 -291 193h-106l-54 -250h167l-14 -66h-168z" />
    <glyph glyph-name="Emacron" unicode="&#x112;" 
d="M8 0l158 741h473l-16 -75h-394l-54 -244h385l-15 -74h-384l-60 -276h399l-15 -72h-477zM225 785l13 65h345l-13 -65h-345z" />
    <glyph glyph-name="Edotaccent" unicode="&#x116;" 
d="M8 0l158 741h473l-16 -75h-394l-54 -244h385l-15 -74h-384l-60 -276h399l-15 -72h-477zM359 785l23 107h76l-22 -107h-77z" />
    <glyph glyph-name="Eogonek" unicode="&#x118;" 
d="M8 0l158 741h473l-16 -75h-394l-54 -244h385l-15 -74h-384l-60 -276h399l-15 -72h-77c-58 -32 -110 -76 -110 -122c0 -25 14 -40 64 -40c25 0 53 7 77 18l23 -52c-29 -14 -73 -24 -111 -24c-97 0 -124 33 -124 78c0 69 56 116 104 142h-323z" />
    <glyph glyph-name="Ecaron" unicode="&#x11a;" 
d="M355 785l-112 156h73l90 -107l135 107h77l-178 -156h-85zM8 0l158 741h473l-16 -75h-394l-54 -244h385l-15 -74h-384l-60 -276h399l-15 -72h-477z" />
    <glyph glyph-name="Gbreve" unicode="&#x11e;" horiz-adv-x="761" 
d="M355 -11c-221 0 -323 107 -323 288c0 45 4 86 13 129c53 254 202 347 396 347c161 0 243 -59 280 -105l-65 -54c-30 34 -85 84 -219 84c-153 0 -272 -78 -315 -283c-8 -36 -11 -74 -11 -109c0 -143 78 -227 248 -227c181 0 225 74 261 253l4 20h-235l15 73h315l-18 -88
c-49 -240 -114 -328 -346 -328zM477 777c-137 0 -161 72 -162 152l61 9c0 -56 12 -98 103 -98c90 0 119 42 142 98l56 -12c-28 -80 -80 -149 -200 -149z" />
    <glyph glyph-name="Gcommaaccent" unicode="&#x122;" horiz-adv-x="761" 
d="M219 -248l-13 37c46 22 60 37 68 74h-46l20 98h91l-15 -74c-16 -77 -35 -106 -105 -135zM355 -11c-221 0 -323 107 -323 288c0 45 4 86 13 129c53 254 202 347 396 347c161 0 243 -59 280 -105l-65 -54c-30 34 -85 84 -219 84c-153 0 -272 -78 -315 -283
c-8 -36 -11 -74 -11 -109c0 -143 78 -227 248 -227c181 0 225 74 261 253l4 20h-235l15 73h315l-18 -88c-49 -240 -114 -328 -346 -328z" />
    <glyph glyph-name="uni0130" horiz-adv-x="267" 
d="M15 0l158 741h79l-158 -741h-79zM183 785l23 107h76l-22 -107h-77z" />
    <glyph glyph-name="Imacron" unicode="&#x12a;" horiz-adv-x="267" 
d="M15 0l158 741h79l-158 -741h-79zM49 785l13 65h345l-13 -65h-345z" />
    <glyph glyph-name="Iogonek" unicode="&#x12e;" horiz-adv-x="267" 
d="M27 -220c-97 0 -124 33 -124 78c0 75 65 125 114 150l156 733h79l-158 -741c-63 -33 -120 -78 -120 -122c0 -25 14 -40 64 -40c21 0 43 4 67 15l23 -52c-29 -14 -63 -21 -101 -21z" />
    <glyph glyph-name="Kcommaaccent" unicode="&#x136;" horiz-adv-x="684" 
d="M485 0l-168 400l-182 -165l-50 -235h-77l158 741h77l-85 -398l433 398h98l-311 -287l189 -454h-82zM181 -248l-13 37c46 22 60 37 68 74h-46l20 98h91l-15 -74c-16 -77 -35 -106 -105 -135z" />
    <glyph glyph-name="Lacute" unicode="&#x139;" horiz-adv-x="567" 
d="M178 785l184 156h96l-205 -156h-75zM8 0l158 741h78l-143 -669h375l-15 -72h-453z" />
    <glyph glyph-name="Lcommaaccent" unicode="&#x13b;" horiz-adv-x="567" 
d="M122 -248l-13 37c46 22 60 37 68 74h-46l20 98h91l-15 -74c-16 -77 -35 -106 -105 -135zM8 0l158 741h78l-143 -669h375l-15 -72h-453z" />
    <glyph glyph-name="Lcaron" unicode="&#x13d;" horiz-adv-x="567" 
d="M330 567l-13 37c45 23 59 37 68 74h-43l20 98h88l-15 -74c-16 -76 -37 -103 -105 -135zM8 0l158 741h78l-143 -669h375l-15 -72h-453z" />
    <glyph glyph-name="Nacute" unicode="&#x143;" horiz-adv-x="758" 
d="M387 785l184 156h96l-205 -156h-75zM8 0l158 741h85l293 -611l132 611h74l-158 -741h-71l-304 630l-135 -630h-74z" />
    <glyph glyph-name="Ncommaaccent" unicode="&#x145;" horiz-adv-x="758" 
d="M217 -248l-13 37c46 22 60 37 68 74h-46l20 98h91l-15 -74c-16 -77 -35 -106 -105 -135zM8 0l158 741h85l293 -611l132 611h74l-158 -741h-71l-304 630l-135 -630h-74z" />
    <glyph glyph-name="Ncaron" unicode="&#x147;" horiz-adv-x="758" 
d="M423 785l-112 156h73l90 -107l135 107h77l-178 -156h-85zM8 0l158 741h85l293 -611l132 611h74l-158 -741h-71l-304 630l-135 -630h-74z" />
    <glyph glyph-name="Omacron" unicode="&#x14c;" horiz-adv-x="818" 
d="M323 785l13 65h345l-13 -65h-345zM368 -12c-220 0 -335 108 -335 297c-1 38 4 79 13 124c56 264 219 344 404 344c221 0 336 -108 336 -296c0 -39 -4 -80 -14 -123c-57 -265 -217 -346 -404 -346zM369 61c164 0 281 78 324 280c8 37 12 73 12 106c0 141 -80 231 -258 231
c-165 0 -281 -83 -323 -280c-8 -36 -11 -72 -11 -107c0 -140 79 -230 256 -230z" />
    <glyph glyph-name="Ohungarumlaut" unicode="&#x150;" horiz-adv-x="818" 
d="M289 785l159 156h91l-181 -156h-69zM516 785l160 156h90l-181 -156h-69zM368 -12c-220 0 -335 108 -335 297c-1 38 4 79 13 124c56 264 219 344 404 344c221 0 336 -108 336 -296c0 -39 -4 -80 -14 -123c-57 -265 -217 -346 -404 -346zM369 61c164 0 281 78 324 280
c8 37 12 73 12 106c0 141 -80 231 -258 231c-165 0 -281 -83 -323 -280c-8 -36 -11 -72 -11 -107c0 -140 79 -230 256 -230z" />
    <glyph glyph-name="Racute" unicode="&#x154;" horiz-adv-x="698" 
d="M466 0l-112 302h-204l-65 -302h-77l158 741h255c189 0 258 -72 258 -173c0 -165 -86 -260 -244 -266l112 -302h-81zM164 374h253c109 0 181 51 181 180c0 75 -58 114 -183 114h-187zM357 785l184 156h96l-205 -156h-75z" />
    <glyph glyph-name="Rcommaaccent" unicode="&#x156;" horiz-adv-x="698" 
d="M466 0l-112 302h-204l-65 -302h-77l158 741h255c189 0 258 -72 258 -173c0 -165 -86 -260 -244 -266l112 -302h-81zM164 374h253c109 0 181 51 181 180c0 75 -58 114 -183 114h-187zM188 -248l-13 37c46 22 60 37 68 74h-46l20 98h91l-15 -74c-16 -77 -35 -106 -105 -135
z" />
    <glyph glyph-name="Rcaron" unicode="&#x158;" horiz-adv-x="698" 
d="M466 0l-112 302h-204l-65 -302h-77l158 741h255c189 0 258 -72 258 -173c0 -165 -86 -260 -244 -266l112 -302h-81zM164 374h253c109 0 181 51 181 180c0 75 -58 114 -183 114h-187zM393 785l-112 156h73l90 -107l135 107h77l-178 -156h-85z" />
    <glyph glyph-name="Sacute" unicode="&#x15a;" horiz-adv-x="683" 
d="M349 785l184 156h96l-205 -156h-75zM300 -10c-146 0 -240 36 -323 97l49 58c77 -56 159 -85 277 -85c106 0 208 29 208 145c0 91 -73 107 -189 143c-120 38 -215 66 -215 191c0 164 129 214 262 214c147 0 225 -39 276 -79l-51 -60c-45 35 -114 67 -227 67
c-95 0 -180 -32 -180 -136c0 -79 70 -100 168 -129c144 -43 236 -73 236 -197c0 -175 -137 -229 -291 -229z" />
    <glyph glyph-name="Scedilla" unicode="&#x15e;" horiz-adv-x="683" 
d="M246 -225c-67 0 -108 20 -135 38l31 43c23 -17 53 -33 103 -33c58 0 75 26 75 59c0 34 -37 42 -86 39l-18 16l22 55c-112 9 -191 43 -261 95l49 58c77 -56 159 -85 277 -85c106 0 208 29 208 145c0 91 -73 107 -189 143c-120 38 -215 66 -215 191c0 164 129 214 262 214
c147 0 225 -39 276 -79l-51 -60c-45 35 -114 67 -227 67c-95 0 -180 -32 -180 -136c0 -79 70 -100 168 -129c144 -43 236 -73 236 -197c0 -175 -137 -229 -291 -229h-13l-14 -35c48 2 103 -12 103 -71c0 -71 -45 -109 -130 -109z" />
    <glyph glyph-name="Scommaaccent" unicode="&#x218;" horiz-adv-x="683" 
d="M180 -248l-13 37c46 22 60 37 68 74h-46l20 98h91l-15 -74c-16 -77 -35 -106 -105 -135zM300 -10c-146 0 -240 36 -323 97l49 58c77 -56 159 -85 277 -85c106 0 208 29 208 145c0 91 -73 107 -189 143c-120 38 -215 66 -215 191c0 164 129 214 262 214
c147 0 225 -39 276 -79l-51 -60c-45 35 -114 67 -227 67c-95 0 -180 -32 -180 -136c0 -79 70 -100 168 -129c144 -43 236 -73 236 -197c0 -175 -137 -229 -291 -229z" />
    <glyph glyph-name="Tcommaaccent" unicode="&#x162;" horiz-adv-x="668" 
d="M173 -248l-13 37c46 22 60 37 68 74h-46l20 98h91l-15 -74c-16 -77 -35 -106 -105 -135zM217 0l142 666h-269l16 75h615l-16 -75h-268l-142 -666h-78z" />
    <glyph glyph-name="Tcaron" unicode="&#x164;" horiz-adv-x="668" 
d="M378 785l-112 156h73l90 -107l135 107h77l-178 -156h-85zM217 0l142 666h-269l16 75h615l-16 -75h-268l-142 -666h-78z" />
    <glyph glyph-name="Umacron" unicode="&#x16a;" horiz-adv-x="759" 
d="M334 -12c-222 0 -281 95 -281 207c0 31 5 64 12 95l96 451h79l-97 -450c-6 -30 -11 -57 -11 -83c0 -88 49 -147 210 -147c147 0 207 74 235 202l102 478h76l-106 -493c-31 -147 -103 -260 -315 -260zM293 785l13 65h345l-13 -65h-345z" />
    <glyph glyph-name="Uring" unicode="&#x16e;" horiz-adv-x="759" 
d="M479 777c-81 0 -113 44 -113 98c0 89 56 148 135 148c78 0 111 -48 111 -104c0 -91 -58 -142 -133 -142zM480 822c50 0 86 34 86 93c0 34 -18 63 -67 63c-51 0 -88 -40 -88 -98c0 -33 22 -58 69 -58zM334 -12c-222 0 -281 95 -281 207c0 31 5 64 12 95l96 451h79
l-97 -450c-6 -30 -11 -57 -11 -83c0 -88 49 -147 210 -147c147 0 207 74 235 202l102 478h76l-106 -493c-31 -147 -103 -260 -315 -260z" />
    <glyph glyph-name="Uhungarumlaut" unicode="&#x170;" horiz-adv-x="759" 
d="M334 -12c-222 0 -281 95 -281 207c0 31 5 64 12 95l96 451h79l-97 -450c-6 -30 -11 -57 -11 -83c0 -88 49 -147 210 -147c147 0 207 74 235 202l102 478h76l-106 -493c-31 -147 -103 -260 -315 -260zM259 785l159 156h91l-181 -156h-69zM486 785l160 156h90l-181 -156
h-69z" />
    <glyph glyph-name="Uogonek" unicode="&#x172;" horiz-adv-x="759" 
d="M399 -220c-94 0 -122 33 -122 78c0 64 52 106 98 132c-13 -2 -28 -2 -42 -2c-221 0 -280 91 -280 204c0 31 5 65 12 98l96 451h79l-97 -451c-7 -32 -11 -61 -11 -88c0 -87 48 -144 207 -144c157 0 210 75 238 204l102 479h76l-106 -494c-23 -112 -64 -195 -177 -243
c-76 -31 -135 -80 -135 -133c0 -22 13 -42 72 -42c27 0 55 6 79 17l18 -41c-27 -15 -71 -25 -107 -25z" />
    <glyph glyph-name="Zacute" unicode="&#x179;" horiz-adv-x="645" 
d="M331 785l184 156h96l-205 -156h-75zM-34 0l13 63l569 603h-423l16 75h524l-14 -68l-567 -601h449l-15 -72h-552z" />
    <glyph glyph-name="Zdotaccent" unicode="&#x17b;" horiz-adv-x="645" 
d="M-34 0l13 63l569 603h-423l16 75h524l-14 -68l-567 -601h449l-15 -72h-552zM371 785l23 107h76l-22 -107h-77z" />
    <glyph glyph-name="abreve" unicode="&#x103;" horiz-adv-x="603" 
d="M180 -10c-144 0 -184 58 -185 143c0 182 124 225 358 225h72c4 22 7 43 7 62c0 50 -29 74 -134 74c-51 0 -117 -17 -153 -37l-31 62c42 25 120 46 196 46c205 0 216 -79 182 -237l-42 -194c-12 -57 -11 -68 43 -67l-13 -66c-4 -2 -19 -2 -32 -2c-29 1 -47 6 -58 21
c-7 9 -10 22 -11 40c-40 -47 -105 -70 -199 -70zM197 55c121 0 175 55 205 194l8 40h-66c-195 0 -273 -20 -273 -149c0 -51 28 -85 126 -85zM364 602c-137 0 -161 72 -162 152l61 9c0 -56 12 -98 103 -98c90 0 119 42 142 98l56 -12c-28 -80 -80 -149 -200 -149z" />
    <glyph glyph-name="amacron" unicode="&#x101;" horiz-adv-x="603" 
d="M180 -10c-144 0 -184 58 -185 143c0 182 124 225 358 225h72c4 22 7 43 7 62c0 50 -29 74 -134 74c-51 0 -117 -17 -153 -37l-31 62c42 25 120 46 196 46c205 0 216 -79 182 -237l-42 -194c-12 -57 -11 -68 43 -67l-13 -66c-4 -2 -19 -2 -32 -2c-29 1 -47 6 -58 21
c-7 9 -10 22 -11 40c-40 -47 -105 -70 -199 -70zM197 55c121 0 175 55 205 194l8 40h-66c-195 0 -273 -20 -273 -149c0 -51 28 -85 126 -85zM181 610l13 65h345l-13 -65h-345z" />
    <glyph glyph-name="aogonek" unicode="&#x105;" horiz-adv-x="603" 
d="M180 -10c-144 0 -184 58 -185 143c0 182 124 225 358 225h72c4 22 7 43 7 62c0 50 -29 74 -134 74c-51 0 -117 -17 -153 -37l-31 62c42 25 120 46 196 46c205 0 216 -79 182 -237l-42 -194c-12 -57 -11 -68 43 -67l-13 -66c-1 0 -1 -1 -1 -1c-63 -32 -119 -78 -119 -122
c0 -25 14 -40 64 -40c21 0 43 4 67 15l23 -52c-29 -14 -63 -21 -101 -21c-97 0 -124 33 -124 78c0 73 62 126 111 152c-4 2 -7 6 -10 10c-7 9 -10 22 -11 40c-40 -47 -105 -70 -199 -70zM197 55c121 0 175 55 205 194l8 40h-66c-195 0 -273 -20 -273 -149
c0 -51 28 -85 126 -85z" />
    <glyph glyph-name="cacute" unicode="&#x107;" horiz-adv-x="543" 
d="M244 610l184 156h96l-205 -156h-75zM240 -10c-166 0 -223 84 -223 202c0 36 4 73 12 111c36 173 119 262 286 262c119 0 171 -46 203 -88l-64 -50c-21 28 -53 65 -144 65c-113 0 -176 -59 -206 -202c-6 -30 -10 -62 -10 -91c0 -85 40 -141 151 -141c53 0 94 10 142 46
l43 -52c-62 -48 -120 -62 -190 -62z" />
    <glyph glyph-name="ccaron" unicode="&#x10d;" horiz-adv-x="543" 
d="M280 610l-112 156h73l90 -107l135 107h77l-178 -156h-85zM240 -10c-166 0 -223 84 -223 202c0 36 4 73 12 111c36 173 119 262 286 262c119 0 171 -46 203 -88l-64 -50c-21 28 -53 65 -144 65c-113 0 -176 -59 -206 -202c-6 -30 -10 -62 -10 -91c0 -85 40 -141 151 -141
c53 0 94 10 142 46l43 -52c-62 -48 -120 -62 -190 -62z" />
    <glyph glyph-name="dcaron" unicode="&#x10f;" horiz-adv-x="729" 
d="M694 567l-14 37c46 23 60 37 68 74h-43l21 98h87l-14 -74c-17 -76 -37 -103 -105 -135zM222 -9c-154 0 -206 81 -206 198c0 36 5 76 15 117c37 166 100 259 262 259c126 0 187 -29 204 -86l65 297h76l-165 -773l-59 -5l9 57c-44 -48 -107 -64 -201 -64zM245 60
c113 0 173 36 208 200c8 35 12 68 12 96c0 95 -47 137 -163 137c-114 0 -165 -63 -195 -198c-8 -35 -12 -67 -12 -96c0 -84 37 -139 150 -139z" />
    <glyph glyph-name="dcroat" unicode="&#x111;" horiz-adv-x="627" 
d="M383 627l13 65h147l19 84h76l-18 -84h94l-14 -65h-94l-133 -624l-59 -5l9 57c-44 -48 -107 -64 -201 -64c-154 0 -206 81 -206 198c0 36 5 76 15 117c37 166 100 259 262 259c126 0 187 -29 204 -86l32 148h-146zM245 60c113 0 173 36 208 200c8 35 12 68 12 96
c0 95 -47 137 -163 137c-114 0 -165 -63 -195 -198c-8 -35 -12 -67 -12 -96c0 -84 37 -139 150 -139z" />
    <glyph glyph-name="emacron" unicode="&#x113;" horiz-adv-x="573" 
d="M239 -11c-172 0 -223 88 -223 200c0 37 5 76 13 114c34 163 112 262 282 262c164 0 205 -69 205 -159c0 -45 -9 -104 -20 -155h-403c-3 -19 -4 -38 -4 -56c0 -80 36 -139 157 -139c70 0 124 14 171 43l32 -58c-63 -40 -129 -52 -210 -52zM304 496
c-113 0 -168 -65 -198 -176h328c5 28 9 50 9 75c0 59 -27 101 -139 101zM165 610l13 65h345l-13 -65h-345z" />
    <glyph glyph-name="edotaccent" unicode="&#x117;" horiz-adv-x="573" 
d="M239 -11c-172 0 -223 88 -223 200c0 37 5 76 13 114c34 163 112 262 282 262c164 0 205 -69 205 -159c0 -45 -9 -104 -20 -155h-403c-3 -19 -4 -38 -4 -56c0 -80 36 -139 157 -139c70 0 124 14 171 43l32 -58c-63 -40 -129 -52 -210 -52zM304 496
c-113 0 -168 -65 -198 -176h328c5 28 9 50 9 75c0 59 -27 101 -139 101zM299 610l23 107h76l-22 -107h-77z" />
    <glyph glyph-name="eogonek" unicode="&#x119;" horiz-adv-x="573" 
d="M239 -11c-172 0 -223 88 -223 200c0 37 5 76 13 114c34 163 112 262 282 262c164 0 205 -69 205 -159c0 -45 -9 -104 -20 -155h-403c-3 -19 -4 -38 -4 -56c0 -80 36 -139 157 -139c70 0 124 14 171 43l32 -58c-31 -20 -63 -33 -97 -41c-58 -32 -110 -76 -110 -122
c0 -25 14 -40 64 -40c25 0 53 7 77 18l23 -52c-29 -14 -73 -24 -111 -24c-97 0 -124 33 -124 78c0 60 43 104 85 131h-17zM304 496c-113 0 -168 -65 -197 -176h327c5 28 9 50 9 75c0 59 -27 101 -139 101z" />
    <glyph glyph-name="ecaron" unicode="&#x11b;" horiz-adv-x="573" 
d="M239 -11c-172 0 -223 88 -223 200c0 37 5 76 13 114c34 163 112 262 282 262c164 0 205 -69 205 -159c0 -45 -9 -104 -20 -155h-403c-3 -19 -4 -38 -4 -56c0 -80 36 -139 157 -139c70 0 124 14 171 43l32 -58c-63 -40 -129 -52 -210 -52zM304 496
c-113 0 -168 -65 -198 -176h328c5 28 9 50 9 75c0 59 -27 101 -139 101zM295 610l-112 156h73l90 -107l135 107h77l-178 -156h-85z" />
    <glyph glyph-name="gbreve" unicode="&#x11f;" horiz-adv-x="580" 
d="M271 202c-50 0 -90 6 -121 17c-13 -13 -20 -28 -20 -48c0 -23 8 -39 62 -39c186 0 282 -24 282 -133c0 -141 -102 -179 -285 -178c-168 0 -251 41 -251 136c0 90 57 137 145 152c-17 14 -23 39 -23 61c0 32 15 59 36 80c-27 25 -38 59 -38 101c0 148 81 214 235 214
c22 0 46 -1 68 -4l198 24l-11 -67h-94c31 -25 48 -65 48 -113c0 -138 -80 -203 -231 -203zM198 -116c129 0 197 18 197 107c0 66 -71 76 -217 76c-132 0 -160 -41 -160 -101c0 -55 59 -82 180 -82zM272 268c100 0 155 41 155 136c0 60 -39 90 -138 90
c-101 0 -156 -40 -156 -139c0 -56 33 -87 139 -87zM351 602c-137 0 -161 72 -162 152l61 9c0 -56 12 -98 103 -98c90 0 119 42 142 98l56 -12c-28 -80 -80 -149 -200 -149z" />
    <glyph glyph-name="gcommaaccent" unicode="&#x123;" horiz-adv-x="580" 
d="M271 202c-50 0 -90 6 -121 17c-13 -13 -20 -28 -20 -48c0 -23 8 -39 62 -39c186 0 282 -24 282 -133c0 -141 -102 -179 -285 -178c-168 0 -251 41 -251 136c0 90 57 137 145 152c-17 14 -23 39 -23 61c0 32 15 59 36 80c-27 25 -38 59 -38 101c0 148 81 214 235 214
c22 0 46 -1 68 -4l198 24l-11 -67h-94c31 -25 48 -65 48 -113c0 -138 -80 -203 -231 -203zM198 -116c129 0 197 18 197 107c0 66 -71 76 -217 76c-132 0 -160 -41 -160 -101c0 -55 59 -82 180 -82zM272 268c100 0 155 41 155 136c0 60 -39 90 -138 90
c-101 0 -156 -40 -156 -139c0 -56 33 -87 139 -87zM288 610l15 68c16 76 36 107 105 135l13 -37c-46 -22 -60 -37 -68 -74h45l-18 -92h-92z" />
    <glyph glyph-name="imacron" unicode="&#x12b;" horiz-adv-x="238" 
d="M2 0l117 552h75l-116 -552h-76zM-2 610l13 65h345l-13 -65h-345z" />
    <glyph glyph-name="iogonek" unicode="&#x12f;" horiz-adv-x="238" 
d="M11 -220c-97 0 -124 33 -124 78c0 76 68 127 117 152l115 542h75l-116 -552c-63 -33 -120 -78 -120 -122c0 -25 14 -40 64 -40c25 0 47 6 64 14l23 -52c-24 -12 -60 -20 -98 -20zM135 625l23 108h76l-23 -108h-76z" />
    <glyph glyph-name="kcommaaccent" unicode="&#x137;" horiz-adv-x="522" 
d="M-2 0l165 776h75l-110 -517l306 293h86l-240 -231l144 -321h-79l-121 266l-119 -114l-32 -152h-75zM99 -248l-13 37c46 22 60 37 68 74h-46l20 98h91l-15 -74c-16 -77 -35 -106 -105 -135z" />
    <glyph glyph-name="lacute" unicode="&#x13a;" horiz-adv-x="292" 
d="M123 -1c-99 0 -111 48 -90 147l134 630h76l-136 -636c-12 -54 -9 -73 48 -73h23l-13 -66c-8 -1 -26 -2 -42 -2zM176 811l184 156h96l-205 -156h-75z" />
    <glyph glyph-name="lcommaaccent" unicode="&#x13c;" horiz-adv-x="292" 
d="M123 -1c-99 0 -111 48 -90 147l134 630h76l-136 -636c-12 -54 -9 -73 48 -73h23l-13 -66c-8 -1 -26 -2 -42 -2zM-15 -248l-13 37c46 22 60 37 68 74h-46l20 98h91l-15 -74c-16 -77 -35 -106 -105 -135z" />
    <glyph glyph-name="lcaron" unicode="&#x13e;" horiz-adv-x="339" 
d="M123 -1c-99 0 -111 48 -90 147l134 630h76l-136 -636c-12 -54 -9 -73 48 -73h23l-13 -66c-8 -1 -26 -2 -42 -2zM303 567l-13 37c45 23 59 37 68 74h-43l20 98h88l-15 -74c-16 -76 -37 -103 -105 -135z" />
    <glyph glyph-name="nacute" unicode="&#x144;" horiz-adv-x="600" 
d="M271 610l184 156h96l-205 -156h-75zM-30 0l116 548l61 4l-7 -49c32 32 83 62 181 62c207 0 196 -110 168 -246l-68 -319h-76l66 311c20 98 40 179 -116 179c-122 0 -161 -78 -182 -174l-67 -316h-76z" />
    <glyph glyph-name="ncommaaccent" unicode="&#x146;" horiz-adv-x="600" 
d="M138 -248l-13 37c46 22 60 37 68 74h-46l20 98h91l-15 -74c-16 -77 -35 -106 -105 -135zM-3 0l116 548l61 4l-7 -49c32 32 83 62 181 62c207 0 196 -110 168 -246l-68 -319h-76l66 311c20 98 40 179 -116 179c-122 0 -161 -78 -182 -174l-67 -316h-76z" />
    <glyph glyph-name="ncaron" unicode="&#x148;" horiz-adv-x="600" 
d="M307 610l-112 156h73l90 -107l135 107h77l-178 -156h-85zM-3 0l116 548l61 4l-7 -49c32 32 83 62 181 62c207 0 196 -110 168 -246l-68 -319h-76l66 311c20 98 40 179 -116 179c-122 0 -161 -78 -182 -174l-67 -316h-76z" />
    <glyph glyph-name="omacron" unicode="&#x14d;" horiz-adv-x="611" 
d="M182 610l13 65h345l-13 -65h-345zM251 -11c-166 0 -234 81 -234 209c0 32 5 67 12 105c41 190 136 262 290 262c167 0 235 -81 235 -209c0 -32 -5 -68 -12 -106c-40 -189 -137 -261 -291 -261zM254 58c116 0 182 60 212 200c7 31 10 62 10 88c0 90 -45 147 -161 147
c-117 0 -181 -62 -211 -203c-7 -30 -10 -60 -10 -89c0 -88 45 -143 160 -143z" />
    <glyph glyph-name="ohungarumlaut" unicode="&#x151;" horiz-adv-x="611" 
d="M148 610l159 156h91l-181 -156h-69zM375 610l160 156h90l-181 -156h-69zM251 -11c-166 0 -234 81 -234 209c0 32 5 67 12 105c41 190 136 262 290 262c167 0 235 -81 235 -209c0 -32 -5 -68 -12 -106c-40 -189 -137 -261 -291 -261zM254 58c116 0 182 60 212 200
c7 31 10 62 10 88c0 90 -45 147 -161 147c-117 0 -181 -62 -211 -203c-7 -30 -10 -60 -10 -89c0 -88 45 -143 160 -143z" />
    <glyph glyph-name="racute" unicode="&#x155;" horiz-adv-x="340" 
d="M152 610l184 156h96l-205 -156h-75zM-2 0l116 548l60 4l-10 -66c31 44 91 73 191 73l-15 -73c-132 0 -179 -74 -202 -182l-65 -304h-75z" />
    <glyph glyph-name="rcommaaccent" unicode="&#x157;" horiz-adv-x="340" 
d="M-47 -248l-13 37c46 22 60 37 68 74h-46l20 98h91l-15 -74c-16 -77 -35 -106 -105 -135zM-2 0l116 548l60 4l-10 -66c31 44 91 73 191 73l-15 -73c-132 0 -179 -74 -202 -182l-65 -304h-75z" />
    <glyph glyph-name="rcaron" unicode="&#x159;" horiz-adv-x="331" 
d="M174 610l-112 156h73l90 -107l135 107h77l-178 -156h-85zM-2 0l116 548l60 4l-10 -66c31 44 91 73 191 73l-15 -73c-132 0 -179 -74 -202 -182l-65 -304h-75z" />
    <glyph glyph-name="sacute" unicode="&#x15b;" horiz-adv-x="502" 
d="M223 610l184 156h96l-205 -156h-75zM210 -10c-98 0 -183 29 -242 79l49 54c52 -42 124 -67 199 -67c69 0 130 20 130 105c0 55 -61 74 -125 93c-76 23 -160 49 -160 143c0 118 85 168 204 168c103 0 169 -30 210 -60l-48 -59c-33 23 -83 49 -167 49
c-75 0 -122 -27 -122 -90c0 -51 60 -70 123 -89c80 -25 161 -54 161 -148c0 -139 -97 -178 -212 -178z" />
    <glyph glyph-name="scedilla" unicode="&#x15f;" horiz-adv-x="502" 
d="M157 -225c-67 0 -108 20 -135 38l31 43c23 -17 53 -33 103 -33c58 0 75 26 75 59c0 34 -37 42 -86 39l-18 16l23 57c-73 9 -136 35 -182 75l49 54c52 -42 124 -67 199 -67c69 0 130 20 130 105c0 55 -61 74 -125 93c-76 23 -160 49 -160 143c0 118 85 168 204 168
c103 0 169 -30 210 -60l-48 -59c-33 23 -83 49 -167 49c-75 0 -122 -27 -122 -90c0 -51 60 -70 123 -89c80 -25 161 -54 161 -148c0 -139 -97 -178 -212 -178h-12l-14 -35c48 2 103 -12 103 -71c0 -71 -45 -109 -130 -109z" />
    <glyph glyph-name="scommaaccent" unicode="&#x219;" horiz-adv-x="502" 
d="M89 -248l-13 37c46 22 60 37 68 74h-46l20 98h91l-15 -74c-16 -77 -35 -106 -105 -135zM210 -10c-98 0 -183 29 -242 79l49 54c52 -42 124 -67 199 -67c69 0 130 20 130 105c0 55 -61 74 -125 93c-76 23 -160 49 -160 143c0 118 85 168 204 168c103 0 169 -30 210 -60
l-48 -59c-33 23 -83 49 -167 49c-75 0 -122 -27 -122 -90c0 -51 60 -70 123 -89c80 -25 161 -54 161 -148c0 -139 -97 -178 -212 -178z" />
    <glyph glyph-name="tcommaaccent" unicode="&#x163;" horiz-adv-x="392" 
d="M54 483l15 69h101l50 166l61 11l-38 -177h138l-14 -69h-139l-70 -332c-12 -51 -10 -84 66 -84h54l-14 -67c-8 -1 -51 -1 -62 -1c-132 0 -138 62 -119 155l71 329h-100zM19 -248l-13 37c46 22 60 37 68 74h-46l20 98h91l-15 -74c-16 -77 -35 -106 -105 -135z" />
    <glyph glyph-name="tcaron" unicode="&#x165;" horiz-adv-x="392" 
d="M54 483l15 69h101l50 166l61 11l-38 -177h138l-14 -69h-139l-70 -332c-12 -51 -10 -84 66 -84h54l-14 -67c-8 -1 -51 -1 -62 -1c-132 0 -138 62 -119 155l71 329h-100zM368 652l-12 36c44 21 57 36 66 73h-42l20 95h85l-15 -72c-15 -75 -36 -101 -102 -132z" />
    <glyph glyph-name="umacron" unicode="&#x16b;" horiz-adv-x="594" 
d="M251 -11c-236 0 -235 114 -205 260l64 303h76l-65 -311c-23 -103 -33 -182 135 -182c122 0 137 62 158 158l71 335h74l-72 -340c-32 -150 -65 -223 -236 -223zM174 610l13 65h345l-13 -65h-345z" />
    <glyph glyph-name="uring" unicode="&#x16f;" horiz-adv-x="594" 
d="M360 602c-81 0 -113 44 -113 98c0 89 56 148 135 148c78 0 111 -48 111 -104c0 -91 -58 -142 -133 -142zM361 647c50 0 86 34 86 93c0 34 -18 63 -67 63c-51 0 -88 -40 -88 -98c0 -33 22 -58 69 -58zM251 -11c-236 0 -235 114 -205 260l64 303h76l-65 -311
c-23 -103 -33 -182 135 -182c122 0 137 62 158 158l71 335h74l-72 -340c-32 -150 -65 -223 -236 -223z" />
    <glyph glyph-name="uhungarumlaut" unicode="&#x171;" horiz-adv-x="594" 
d="M251 -11c-236 0 -235 114 -205 260l64 303h76l-65 -311c-23 -103 -33 -182 135 -182c122 0 137 62 158 158l71 335h74l-72 -340c-32 -150 -65 -223 -236 -223zM140 610l159 156h91l-181 -156h-69zM367 610l160 156h90l-181 -156h-69z" />
    <glyph glyph-name="uogonek" unicode="&#x173;" horiz-adv-x="594" 
d="M300 -220c-94 0 -122 33 -122 78c0 64 52 106 98 132c-8 -1 -19 -1 -28 -1c-236 0 -232 114 -202 259l64 303h76l-65 -311c-23 -104 -33 -184 133 -184c124 0 139 63 160 160l71 335h74l-72 -341c-22 -105 -45 -168 -116 -203c-74 -36 -133 -83 -133 -136
c0 -22 14 -42 73 -42c26 0 54 6 78 17l18 -41c-27 -15 -70 -25 -107 -25z" />
    <glyph glyph-name="zacute" unicode="&#x17a;" horiz-adv-x="482" 
d="M214 610l184 156h96l-205 -156h-75zM-46 0l12 57l399 426h-290l13 69h390l-12 -58l-400 -429h320l-13 -65h-419z" />
    <glyph glyph-name="zdotaccent" unicode="&#x17c;" horiz-adv-x="482" 
d="M-46 0l12 57l399 426h-290l13 69h390l-12 -58l-400 -429h320l-13 -65h-419zM254 610l23 107h76l-22 -107h-77z" />
    <glyph glyph-name="space.lftab" horiz-adv-x="375" 
 />
    <glyph glyph-name="comma.lftab" horiz-adv-x="375" 
d="M51 -118l-13 40c49 22 63 38 72 78h-50l24 108h100l-20 -91c-17 -81 -41 -106 -113 -135z" />
    <glyph glyph-name="period.lftab" horiz-adv-x="375" 
d="M60 0l24 108h100l-24 -108h-100z" />
    <glyph glyph-name="minus.lftab" horiz-adv-x="750" 
d="M121 317l16 72h483l-16 -72h-483z" />
    <glyph glyph-name="multiply.lftab" horiz-adv-x="750" 
d="M167 146l-36 48l192 158l-125 159l56 47l125 -159l193 159l36 -48l-192 -158l125 -159l-56 -47l-125 159z" />
    <glyph glyph-name="quotedbl.lftab" horiz-adv-x="750" 
d="M258 455l54 286h78l-66 -286h-66zM462 455l54 286h79l-67 -286h-66z" />
    <glyph glyph-name="numbersign.lftab" horiz-adv-x="750" 
d="M139 0l47 222h-138l14 69h139l34 157h-140l15 70h139l47 223h74l-48 -223h160l48 223h73l-47 -223h146l-15 -70h-145l-34 -157h145l-15 -69h-143l-48 -222h-74l48 222h-160l-48 -222h-74zM269 288h169l36 164h-170z" />
    <glyph glyph-name="dollar.lftab" horiz-adv-x="750" 
d="M245 -94l20 98c-90 10 -158 40 -209 89l45 54c47 -44 104 -71 181 -79l63 294c-90 30 -162 66 -162 168c0 145 103 211 239 212l13 64h71l-14 -68c73 -9 126 -33 160 -61l-45 -58c-31 24 -76 44 -133 51l-55 -259c96 -32 177 -69 177 -176c0 -158 -110 -235 -257 -235h-4
l-20 -94h-70zM521 227c0 63 -43 90 -117 116l-59 -278c104 1 176 53 176 162zM258 537c0 -58 40 -84 101 -106l52 243c-97 -3 -153 -51 -153 -137z" />
    <glyph glyph-name="percent.lftab" horiz-adv-x="1160" 
d="M278 284c-129 0 -174 71 -162 186c11 155 82 281 216 281c131 0 175 -74 164 -189c-11 -176 -96 -278 -218 -278zM280 341c88 0 144 87 149 225c5 76 -19 125 -98 125c-99 0 -144 -109 -148 -227c-5 -76 19 -123 97 -123zM825 -10c-129 0 -174 72 -162 186
c11 155 82 282 217 282c130 0 174 -74 163 -190c-11 -176 -95 -278 -218 -278zM827 47c88 0 144 89 149 225c5 77 -19 126 -98 126c-99 0 -144 -110 -148 -227c-5 -76 19 -124 97 -124zM282 0l539 741h70l-538 -741h-71z" />
    <glyph glyph-name="quotesingle.lftab" horiz-adv-x="750" 
d="M360 455l54 287h78l-66 -287h-66z" />
    <glyph glyph-name="plus.lftab" horiz-adv-x="750" 
d="M282 113l44 204h-205l16 72h203l44 203h75l-43 -203h204l-16 -72h-203l-43 -204h-76z" />
    <glyph glyph-name="zero.lftab" horiz-adv-x="750" 
d="M327 -11c-185 0 -248 89 -248 234c0 51 7 112 21 177c47 224 134 353 328 353c179 0 242 -98 242 -241c0 -53 -8 -111 -21 -171c-47 -223 -136 -352 -322 -352zM331 59c145 0 202 113 241 293c12 54 20 107 20 155c0 102 -40 174 -168 174c-151 0 -208 -112 -247 -291
c-13 -60 -20 -116 -20 -164c0 -103 41 -167 174 -167z" />
    <glyph glyph-name="one.lftab" horiz-adv-x="750" 
d="M101 0l14 64h190l128 608h-188l15 69h264l-145 -677h176l-14 -64h-440z" />
    <glyph glyph-name="two.lftab" horiz-adv-x="750" 
d="M49 0l13 64l296 250c147 124 202 160 202 271c0 59 -39 98 -152 98c-58 0 -123 -12 -174 -35l-26 64c61 27 130 41 207 41c159 0 222 -58 222 -154c0 -142 -67 -195 -222 -325l-246 -207h363l-13 -67h-470z" />
    <glyph glyph-name="three.lftab" horiz-adv-x="750" 
d="M322 -12c-130 0 -205 30 -281 80l46 58c70 -45 133 -70 236 -70c114 0 183 61 183 196c0 75 -38 118 -167 118h-90l14 68h123c114 0 170 37 170 151c0 62 -43 95 -156 95c-40 0 -116 -7 -182 -41l-32 61c79 42 174 49 225 49c154 0 224 -52 224 -149
c0 -126 -58 -187 -128 -202c56 -27 74 -80 74 -149c0 -183 -99 -265 -259 -265z" />
    <glyph glyph-name="four.lftab" horiz-adv-x="750" 
d="M65 187l13 62l438 492h87l-436 -488h268l68 245h56l-52 -245h130l-13 -66h-131l-40 -187h-71l39 187h-356z" />
    <glyph glyph-name="five.lftab" horiz-adv-x="750" 
d="M326 -11c-130 0 -209 40 -264 79l45 58c56 -39 122 -70 225 -70s206 46 206 221c0 101 -66 141 -173 141c-50 0 -101 -14 -149 -37l-60 19l92 341h415l-14 -69h-345l-59 -214c45 17 94 26 144 26c136 0 227 -48 227 -198c0 -237 -138 -297 -290 -297z" />
    <glyph glyph-name="six.lftab" horiz-adv-x="750" 
d="M347 -11c-176 0 -260 76 -260 224c0 35 5 74 14 117c66 311 169 411 470 411h56l-15 -69h-43c-251 0 -321 -86 -366 -234c37 36 108 61 203 61c165 0 225 -80 225 -191c0 -191 -93 -319 -284 -319zM348 55c150 0 207 104 207 239c0 83 -43 139 -174 139
c-113 0 -218 -49 -218 -225c0 -104 65 -153 185 -153z" />
    <glyph glyph-name="seven.lftab" horiz-adv-x="750" 
d="M157 0l438 672h-390l14 69h476l-14 -61l-440 -680h-84z" />
    <glyph glyph-name="eight.lftab" horiz-adv-x="750" 
d="M327 -13c-189 0 -263 76 -263 183c0 144 69 218 174 241c-55 23 -72 74 -72 132c0 141 89 210 253 210c188 0 248 -68 248 -160c0 -112 -47 -176 -135 -193c64 -25 85 -81 85 -155c0 -178 -119 -258 -290 -258zM334 53c112 0 206 48 206 190c0 80 -56 130 -187 130
c-119 0 -211 -51 -211 -194c0 -79 55 -126 192 -126zM411 434c112 0 180 38 180 149c0 63 -45 105 -171 105c-113 0 -180 -40 -180 -149c0 -63 44 -105 171 -105z" />
    <glyph glyph-name="nine.lftab" horiz-adv-x="750" 
d="M121 0l14 67h44c250 0 322 89 368 236c-36 -36 -110 -61 -206 -61c-164 0 -225 81 -225 192c0 190 95 319 285 319c175 0 259 -77 259 -225c0 -35 -4 -74 -13 -117c-66 -311 -169 -411 -471 -411h-55zM367 305c112 0 217 49 217 225c0 104 -64 153 -185 153
c-150 0 -206 -103 -206 -238c0 -83 42 -140 174 -140z" />
    <glyph glyph-name="less.lftab" horiz-adv-x="750" 
d="M520 91l-399 226l11 58l495 224l-14 -75l-409 -181l331 -180z" />
    <glyph glyph-name="equal.lftab" horiz-adv-x="750" 
d="M105 209l14 71h472l-14 -71h-472zM150 425l15 70h471l-14 -70h-472z" />
    <glyph glyph-name="greater.lftab" horiz-adv-x="750" 
d="M112 92l14 74l408 182l-330 179l15 72l399 -225l-11 -58z" />
    <glyph glyph-name="degree.lftab" horiz-adv-x="750" 
d="M375 279c-135 0 -189 78 -189 179c0 164 91 295 250 295c136 0 190 -81 190 -183c0 -165 -93 -291 -251 -291zM380 340c118 0 181 98 181 224c0 72 -36 125 -132 125c-116 0 -178 -102 -178 -227c0 -71 36 -122 129 -122z" />
    <glyph glyph-name="cent.lftab" horiz-adv-x="750" 
d="M272 -94l19 89c-124 16 -168 93 -168 197c0 36 4 73 12 111c35 170 116 258 277 261l14 60h72l-14 -65c75 -13 114 -49 140 -82l-64 -50c-17 22 -41 50 -96 61l-92 -430c43 3 77 13 121 46l43 -52c-57 -44 -111 -59 -173 -61l-17 -85h-74zM200 199
c0 -74 30 -126 110 -138l91 430c-104 -5 -163 -65 -191 -201c-6 -30 -10 -62 -10 -91z" />
    <glyph glyph-name="sterling.lftab" horiz-adv-x="750" 
d="M416 -8c-83 0 -144 23 -190 51c-37 -29 -92 -44 -177 -43l10 66c127 0 150 41 162 107c9 47 8 113 6 179h-113l13 65h97v44c0 179 65 293 225 293c100 0 165 -26 205 -49l-42 -63c-32 19 -91 40 -166 40c-111 0 -149 -90 -149 -228v-37h213l-13 -65h-198
c2 -63 3 -129 -8 -181c-6 -28 -13 -53 -23 -74c38 -20 88 -37 147 -37c71 0 89 16 104 104l4 23h68l-7 -34c-25 -124 -61 -161 -168 -161z" />
    <glyph glyph-name="yen.lftab" horiz-adv-x="750" 
d="M109 238l11 62h201l5 22l-159 419h79l130 -353l282 353h82l-340 -422l-4 -19h200l-12 -62h-201l-19 -89h199l-11 -63h-202l-18 -86h-75l18 86h-198l12 63h200l19 89h-199z" />
    <glyph glyph-name="ordfeminine.lftab" horiz-adv-x="750" 
d="M308 285c-109 0 -147 48 -147 112c0 155 108 183 292 183h57c4 20 7 38 7 55c0 41 -24 58 -108 58c-42 0 -95 -14 -125 -30l-25 52c33 20 96 38 159 38c167 0 179 -62 151 -192l-34 -158c-10 -47 -5 -53 36 -53l-12 -56c-3 -1 -15 -1 -25 -1c-26 0 -42 6 -51 18
c-7 10 -9 23 -9 40c-38 -45 -97 -66 -166 -66zM325 341c82 0 141 41 167 155l6 31h-53c-153 0 -220 -14 -220 -121c1 -40 26 -65 100 -65zM150 150l12 59h329l-13 -59h-328z" />
    <glyph glyph-name="ordmasculine.lftab" horiz-adv-x="750" 
d="M381 288c-131 0 -190 66 -190 173c1 175 92 292 238 292c133 0 192 -66 192 -174c0 -176 -89 -291 -240 -291zM380 347c112 0 175 89 175 224c0 75 -39 120 -126 120c-106 0 -171 -91 -171 -226c0 -73 37 -118 122 -118zM150 149l12 60h356l-12 -60h-356z" />
    <glyph glyph-name="florin.lftab" horiz-adv-x="750" 
d="M207 382l15 69h113l28 131c18 89 40 159 181 159h47l-14 -71h-29c-89 0 -102 -50 -114 -109l-24 -110h165l-15 -69h-164l-116 -548h-76l116 548h-113z" />
    <glyph glyph-name="divide.lftab" horiz-adv-x="750" 
d="M273 108l20 93h92l-20 -93h-92zM121 317l16 72h483l-16 -72h-483zM358 505l19 93h91l-19 -93h-91z" />
    <glyph glyph-name="fraction.lftab" horiz-adv-x="750" 
d="M53 0l574 741h70l-573 -741h-71z" />
    <glyph glyph-name="Euro.lftab" horiz-adv-x="750" 
d="M104 420l12 62h101c48 153 143 271 295 271c91 0 149 -20 190 -48l-45 -61c-33 21 -75 38 -146 38c-112 0 -181 -87 -219 -200h257l-12 -62h-262c-7 -29 -12 -59 -15 -89h257l-12 -62h-250c-1 -15 -1 -29 -1 -43c0 -104 41 -168 158 -168c32 0 73 2 120 28l34 -58
c-58 -33 -113 -40 -162 -40c-163 0 -224 92 -224 236c0 15 0 30 1 45h-110l13 62h102c3 30 8 60 14 89h-96z" />
    <glyph glyph-name="perthousand.lftab" horiz-adv-x="1640" 
d="M304 284c-129 0 -173 71 -162 186c11 155 82 281 217 281c130 0 175 -74 163 -189c-11 -176 -95 -278 -218 -278zM306 341c89 0 144 87 149 225c6 76 -18 125 -98 125c-99 0 -143 -109 -148 -227c-5 -76 19 -123 97 -123zM852 -10c-130 0 -174 72 -163 186
c11 155 82 282 217 282c130 0 175 -74 164 -190c-12 -176 -96 -278 -218 -278zM853 47c89 0 144 89 149 225c6 77 -18 126 -98 126c-99 0 -143 -110 -148 -227c-5 -76 19 -124 97 -124zM1279 -10c-130 0 -173 72 -162 186c11 155 82 282 217 282c130 0 175 -74 163 -190
c-11 -176 -95 -278 -218 -278zM1281 47c89 0 144 89 149 225c5 77 -18 126 -98 126c-100 0 -143 -110 -149 -227c-5 -76 19 -124 98 -124zM309 0l538 741h70l-538 -741h-70z" />
    <glyph glyph-name="zero.superior" unicode="&#x2070;" horiz-adv-x="493" 
d="M247 281c-116 0 -157 61 -157 151c0 32 4 66 12 101c29 138 84 216 207 216c117 0 158 -62 158 -152c0 -30 -5 -65 -13 -101c-28 -139 -82 -215 -207 -215zM249 335c90 0 120 62 142 169c7 32 12 63 12 91c0 58 -23 97 -98 97c-89 0 -118 -61 -140 -167
c-6 -33 -10 -64 -10 -89c0 -61 21 -101 94 -101z" />
    <glyph glyph-name="one.superior" horiz-adv-x="332" 
d="M137 287l84 397h-88l12 57h152l-96 -454h-64z" />
    <glyph glyph-name="two.superior" horiz-adv-x="454" 
d="M61 287l10 48l178 148c97 83 119 98 119 158c0 32 -25 50 -86 50c-33 0 -73 -7 -106 -21l-20 51c39 16 82 26 131 26c102 0 144 -34 144 -97c0 -84 -23 -106 -133 -198l-134 -112h205l-10 -53h-298z" />
    <glyph glyph-name="three.superior" horiz-adv-x="454" 
d="M235 281c-79 0 -130 18 -178 51l34 45c43 -27 83 -43 143 -43c65 0 102 35 102 108c0 41 -17 66 -94 66h-61l12 53h79c64 0 94 20 94 81c0 35 -26 52 -86 52c-25 0 -73 -5 -113 -26l-23 48c50 28 113 32 145 32c95 0 142 -33 142 -94c0 -73 -30 -105 -82 -121
c37 -16 50 -48 50 -90c0 -113 -65 -162 -164 -162z" />
    <glyph glyph-name="four.superior" unicode="&#x2074;" horiz-adv-x="467" 
d="M54 391l10 49l266 301h69l-266 -298h154l39 139h49l-29 -139h76l-10 -52h-77l-22 -104h-59l22 104h-222z" />
    <glyph glyph-name="five.superior" unicode="&#x2075;" horiz-adv-x="448" 
d="M228 282c-92 0 -144 25 -178 48l34 46c36 -24 77 -41 144 -41c50 0 123 11 123 123c0 61 -40 81 -107 81c-29 0 -57 -5 -87 -18l-46 14l55 206h275l-11 -54h-219l-31 -110c28 10 55 14 82 14c90 0 153 -28 153 -126c0 -162 -106 -183 -187 -183z" />
    <glyph glyph-name="six.superior" unicode="&#x2076;" horiz-adv-x="473" 
d="M250 281c-108 0 -167 49 -167 145c0 21 2 45 7 71c41 190 115 244 276 244h58l-11 -54h-50c-131 0 -163 -46 -196 -127c31 29 75 39 121 39c100 0 146 -44 146 -112c0 -119 -63 -206 -184 -206zM251 333c85 0 120 64 120 143c0 44 -25 72 -101 72
c-82 0 -125 -38 -125 -125c0 -60 37 -90 106 -90z" />
    <glyph glyph-name="seven.superior" unicode="&#x2077;" horiz-adv-x="388" 
d="M83 287l259 399h-234l12 55h307l-8 -40l-267 -414h-69z" />
    <glyph glyph-name="eight.superior" unicode="&#x2078;" horiz-adv-x="499" 
d="M253 279c-122 0 -174 47 -174 116c0 83 43 126 109 144c-36 16 -47 44 -47 79c0 89 59 131 160 131c127 0 170 -43 170 -104c0 -67 -32 -104 -88 -115c42 -18 57 -50 57 -94c0 -110 -76 -157 -187 -157zM258 330c66 0 119 25 119 105c0 45 -33 73 -115 73
c-66 0 -119 -27 -119 -106c0 -45 34 -72 115 -72zM309 557c60 0 98 19 98 81c0 35 -26 60 -106 60c-60 0 -99 -21 -99 -83c0 -35 26 -58 107 -58z" />
    <glyph glyph-name="nine.superior" unicode="&#x2079;" horiz-adv-x="473" 
d="M113 287l12 54h47c131 0 163 44 196 125c-30 -27 -75 -38 -121 -38c-98 0 -147 45 -147 111c0 121 63 209 185 209c108 0 167 -49 167 -145c0 -21 -2 -46 -8 -72c-41 -190 -114 -244 -275 -244h-56zM265 478c82 0 125 37 125 124c0 61 -37 91 -106 91
c-85 0 -120 -64 -120 -143c0 -44 25 -72 101 -72z" />
    <glyph glyph-name="zero.inferior" unicode="&#x2080;" horiz-adv-x="493" 
d="M188 -5c-116 0 -157 61 -157 151c0 32 4 66 12 101c29 138 84 216 207 216c117 0 158 -62 158 -152c0 -30 -5 -65 -13 -101c-28 -139 -82 -215 -207 -215zM190 49c90 0 120 62 142 169c7 32 12 63 12 91c0 58 -23 97 -98 97c-89 0 -118 -61 -140 -167
c-6 -33 -10 -64 -10 -89c0 -61 21 -101 94 -101z" />
    <glyph glyph-name="one.inferior" unicode="&#x2081;" horiz-adv-x="332" 
d="M78 1l84 397h-88l12 57h152l-96 -454h-64z" />
    <glyph glyph-name="two.inferior" unicode="&#x2082;" horiz-adv-x="454" 
d="M2 1l10 48l178 148c97 83 119 98 119 158c0 32 -25 50 -86 50c-33 0 -73 -7 -106 -21l-20 51c39 16 82 26 131 26c102 0 144 -34 144 -97c0 -84 -23 -106 -133 -198l-134 -112h205l-10 -53h-298z" />
    <glyph glyph-name="three.inferior" unicode="&#x2083;" horiz-adv-x="454" 
d="M176 -5c-79 0 -130 18 -178 51l34 45c43 -27 83 -43 143 -43c65 0 102 35 102 108c0 41 -17 66 -94 66h-61l12 53h79c64 0 94 20 94 81c0 35 -26 52 -86 52c-25 0 -73 -5 -113 -26l-23 48c50 28 113 32 145 32c95 0 142 -33 142 -94c0 -73 -30 -105 -82 -121
c37 -16 50 -48 50 -90c0 -113 -65 -162 -164 -162z" />
    <glyph glyph-name="four.inferior" unicode="&#x2084;" horiz-adv-x="467" 
d="M-5 105l10 49l266 301h69l-266 -298h154l39 139h49l-29 -139h76l-10 -52h-77l-22 -104h-59l22 104h-222z" />
    <glyph glyph-name="five.inferior" unicode="&#x2085;" horiz-adv-x="448" 
d="M169 -4c-92 0 -144 25 -178 48l34 46c36 -24 77 -41 144 -41c50 0 123 11 123 123c0 61 -40 81 -107 81c-29 0 -57 -5 -87 -18l-46 14l55 206h275l-11 -54h-219l-31 -110c28 10 55 14 82 14c90 0 153 -28 153 -126c0 -162 -106 -183 -187 -183z" />
    <glyph glyph-name="six.inferior" unicode="&#x2086;" horiz-adv-x="473" 
d="M191 -5c-108 0 -167 49 -167 145c0 21 2 45 7 71c41 190 115 244 276 244h58l-11 -54h-50c-131 0 -163 -46 -196 -127c31 29 75 39 121 39c100 0 146 -44 146 -112c0 -119 -63 -206 -184 -206zM192 47c85 0 120 64 120 143c0 44 -25 72 -101 72c-82 0 -125 -38 -125 -125
c0 -60 37 -90 106 -90z" />
    <glyph glyph-name="seven.inferior" unicode="&#x2087;" horiz-adv-x="388" 
d="M24 1l259 399h-234l12 55h307l-8 -40l-267 -414h-69z" />
    <glyph glyph-name="eight.inferior" unicode="&#x2088;" horiz-adv-x="499" 
d="M194 -7c-122 0 -174 47 -174 116c0 83 43 126 109 144c-36 16 -47 44 -47 79c0 89 59 131 160 131c127 0 170 -43 170 -104c0 -67 -32 -104 -88 -115c42 -18 57 -50 57 -94c0 -110 -76 -157 -187 -157zM199 44c66 0 119 25 119 105c0 45 -33 73 -115 73
c-66 0 -119 -27 -119 -106c0 -45 34 -72 115 -72zM250 271c60 0 98 19 98 81c0 35 -26 60 -106 60c-60 0 -99 -21 -99 -83c0 -35 26 -58 107 -58z" />
    <glyph glyph-name="nine.inferior" unicode="&#x2089;" horiz-adv-x="473" 
d="M54 1l12 54h47c131 0 163 44 196 125c-30 -27 -75 -38 -121 -38c-98 0 -147 45 -147 111c0 121 63 209 185 209c108 0 167 -49 167 -145c0 -21 -2 -46 -8 -72c-41 -190 -114 -244 -275 -244h-56zM206 192c82 0 125 37 125 124c0 61 -37 91 -106 91
c-85 0 -120 -64 -120 -143c0 -44 25 -72 101 -72z" />
    <glyph glyph-name="zero.numerator" horiz-adv-x="433" 
d="M217 281c-116 0 -157 61 -157 151c0 32 4 66 12 101c29 138 84 216 207 216c117 0 158 -62 158 -152c0 -30 -5 -65 -13 -101c-28 -139 -82 -215 -207 -215zM219 335c90 0 120 62 142 169c7 32 12 63 12 91c0 58 -23 97 -98 97c-89 0 -118 -61 -140 -167
c-6 -33 -10 -64 -10 -89c0 -61 21 -101 94 -101z" />
    <glyph glyph-name="one.numerator" horiz-adv-x="272" 
d="M107 287l84 397h-88l12 57h152l-96 -454h-64z" />
    <glyph glyph-name="two.numerator" horiz-adv-x="394" 
d="M31 287l10 48l178 148c97 83 119 98 119 158c0 32 -25 50 -86 50c-33 0 -73 -7 -106 -21l-20 51c39 16 82 26 131 26c102 0 144 -34 144 -97c0 -84 -23 -106 -133 -198l-134 -112h205l-10 -53h-298z" />
    <glyph glyph-name="three.numerator" horiz-adv-x="394" 
d="M205 281c-79 0 -130 18 -178 51l34 45c43 -27 83 -43 143 -43c65 0 102 35 102 108c0 41 -17 66 -94 66h-61l12 53h79c64 0 94 20 94 81c0 35 -26 52 -86 52c-25 0 -73 -5 -113 -26l-23 48c50 28 113 32 145 32c95 0 142 -33 142 -94c0 -73 -30 -105 -82 -121
c37 -16 50 -48 50 -90c0 -113 -65 -162 -164 -162z" />
    <glyph glyph-name="four.numerator" horiz-adv-x="407" 
d="M24 391l10 49l266 301h69l-266 -298h154l39 139h49l-29 -139h76l-10 -52h-77l-22 -104h-59l22 104h-222z" />
    <glyph glyph-name="five.numerator" horiz-adv-x="388" 
d="M198 282c-92 0 -144 25 -178 48l34 46c36 -24 77 -41 144 -41c50 0 123 11 123 123c0 61 -40 81 -107 81c-29 0 -57 -5 -87 -18l-46 14l55 206h275l-11 -54h-219l-31 -110c28 10 55 14 82 14c90 0 153 -28 153 -126c0 -162 -106 -183 -187 -183z" />
    <glyph glyph-name="six.numerator" horiz-adv-x="413" 
d="M220 281c-108 0 -167 49 -167 145c0 21 2 45 7 71c41 190 115 244 276 244h58l-11 -54h-50c-131 0 -163 -46 -196 -127c31 29 75 39 121 39c100 0 146 -44 146 -112c0 -119 -63 -206 -184 -206zM221 333c85 0 120 64 120 143c0 44 -25 72 -101 72
c-82 0 -125 -38 -125 -125c0 -60 37 -90 106 -90z" />
    <glyph glyph-name="seven.numerator" horiz-adv-x="328" 
d="M53 287l259 399h-234l12 55h307l-8 -40l-267 -414h-69z" />
    <glyph glyph-name="eight.numerator" horiz-adv-x="439" 
d="M223 279c-122 0 -174 47 -174 116c0 83 43 126 109 144c-36 16 -47 44 -47 79c0 89 59 131 160 131c127 0 170 -43 170 -104c0 -67 -32 -104 -88 -115c42 -18 57 -50 57 -94c0 -110 -76 -157 -187 -157zM228 330c66 0 119 25 119 105c0 45 -33 73 -115 73
c-66 0 -119 -27 -119 -106c0 -45 34 -72 115 -72zM279 557c60 0 98 19 98 81c0 35 -26 60 -106 60c-60 0 -99 -21 -99 -83c0 -35 26 -58 107 -58z" />
    <glyph glyph-name="nine.numerator" horiz-adv-x="413" 
d="M83 287l12 54h47c131 0 163 44 196 125c-30 -27 -75 -38 -121 -38c-98 0 -147 45 -147 111c0 121 63 209 185 209c108 0 167 -49 167 -145c0 -21 -2 -46 -8 -72c-41 -190 -114 -244 -275 -244h-56zM235 478c82 0 125 37 125 124c0 61 -37 91 -106 91
c-85 0 -120 -64 -120 -143c0 -44 25 -72 101 -72z" />
    <glyph glyph-name="zero.denominator" horiz-adv-x="433" 
d="M158 -5c-116 0 -157 61 -157 151c0 32 4 66 12 101c29 138 84 216 207 216c117 0 158 -62 158 -152c0 -30 -5 -65 -13 -101c-28 -139 -82 -215 -207 -215zM160 49c90 0 120 62 142 169c7 32 12 63 12 91c0 58 -23 97 -98 97c-89 0 -118 -61 -140 -167
c-6 -33 -10 -64 -10 -89c0 -61 21 -101 94 -101z" />
    <glyph glyph-name="one.denominator" horiz-adv-x="272" 
d="M48 1l84 397h-88l12 57h152l-96 -454h-64z" />
    <glyph glyph-name="two.denominator" horiz-adv-x="394" 
d="M-28 1l10 48l178 148c97 83 119 98 119 158c0 32 -25 50 -86 50c-33 0 -73 -7 -106 -21l-20 51c39 16 82 26 131 26c102 0 144 -34 144 -97c0 -84 -23 -106 -133 -198l-134 -112h205l-10 -53h-298z" />
    <glyph glyph-name="three.denominator" horiz-adv-x="394" 
d="M146 -5c-79 0 -130 18 -178 51l34 45c43 -27 83 -43 143 -43c65 0 102 35 102 108c0 41 -17 66 -94 66h-61l12 53h79c64 0 94 20 94 81c0 35 -26 52 -86 52c-25 0 -73 -5 -113 -26l-23 48c50 28 113 32 145 32c95 0 142 -33 142 -94c0 -73 -30 -105 -82 -121
c37 -16 50 -48 50 -90c0 -113 -65 -162 -164 -162z" />
    <glyph glyph-name="four.denominator" horiz-adv-x="407" 
d="M-35 105l10 49l266 301h69l-266 -298h154l39 139h49l-29 -139h76l-10 -52h-77l-22 -104h-59l22 104h-222z" />
    <glyph glyph-name="five.denominator" horiz-adv-x="388" 
d="M139 -4c-92 0 -144 25 -178 48l34 46c36 -24 77 -41 144 -41c50 0 123 11 123 123c0 61 -40 81 -107 81c-29 0 -57 -5 -87 -18l-46 14l55 206h275l-11 -54h-219l-31 -110c28 10 55 14 82 14c90 0 153 -28 153 -126c0 -162 -106 -183 -187 -183z" />
    <glyph glyph-name="six.denominator" horiz-adv-x="413" 
d="M161 -5c-108 0 -167 49 -167 145c0 21 2 45 7 71c41 190 115 244 276 244h58l-11 -54h-50c-131 0 -163 -46 -196 -127c31 29 75 39 121 39c100 0 146 -44 146 -112c0 -119 -63 -206 -184 -206zM162 47c85 0 120 64 120 143c0 44 -25 72 -101 72c-82 0 -125 -38 -125 -125
c0 -60 37 -90 106 -90z" />
    <glyph glyph-name="seven.denominator" horiz-adv-x="328" 
d="M-6 1l259 399h-234l12 55h307l-8 -40l-267 -414h-69z" />
    <glyph glyph-name="eight.denominator" horiz-adv-x="439" 
d="M164 -7c-122 0 -174 47 -174 116c0 83 43 126 109 144c-36 16 -47 44 -47 79c0 89 59 131 160 131c127 0 170 -43 170 -104c0 -67 -32 -104 -88 -115c42 -18 57 -50 57 -94c0 -110 -76 -157 -187 -157zM169 44c66 0 119 25 119 105c0 45 -33 73 -115 73
c-66 0 -119 -27 -119 -106c0 -45 34 -72 115 -72zM220 271c60 0 98 19 98 81c0 35 -26 60 -106 60c-60 0 -99 -21 -99 -83c0 -35 26 -58 107 -58z" />
    <glyph glyph-name="nine.denominator" horiz-adv-x="413" 
d="M24 1l12 54h47c131 0 163 44 196 125c-30 -27 -75 -38 -121 -38c-98 0 -147 45 -147 111c0 121 63 209 185 209c108 0 167 -49 167 -145c0 -21 -2 -46 -8 -72c-41 -190 -114 -244 -275 -244h-56zM176 192c82 0 125 37 125 124c0 61 -37 91 -106 91
c-85 0 -120 -64 -120 -143c0 -44 25 -72 101 -72z" />
    <glyph glyph-name="uni00A0" unicode="&#xa0;" horiz-adv-x="235" 
 />
    <glyph glyph-name="registered.superior" horiz-adv-x="644" 
d="M344 200c-174 0 -269 113 -269 276c0 164 95 278 269 278c172 0 268 -114 268 -278c0 -163 -96 -276 -268 -276zM344 232c155 0 235 101 235 244c0 145 -80 246 -235 246c-158 0 -237 -101 -237 -246c0 -143 79 -244 237 -244zM429 302l-81 139h-85v-139h-45v352h142
c85 0 123 -33 123 -105c0 -62 -29 -97 -89 -106l84 -141h-49zM263 479h96c49 0 78 16 78 68c0 53 -28 68 -79 68h-95v-136z" />
    <glyph glyph-name="AEacute" unicode="&#x1fc;" horiz-adv-x="1050" 
d="M522 785l184 156h96l-205 -156h-75zM-64 0l618 741h514l-16 -75h-391l-54 -245h382l-15 -72h-381l-60 -277h395l-14 -72h-471l36 168h-314l-140 -168h-89zM220 236h273l92 434z" />
    <glyph glyph-name="Aringacute" unicode="&#x1fa;" horiz-adv-x="703" 
d="M348 975l165 138h94l-183 -138h-76zM-54 0l424 712c-39 16 -55 49 -55 88c0 89 56 148 135 148c78 0 111 -48 111 -104c0 -71 -36 -118 -87 -135l121 -709h-77l-29 171h-358l-101 -171h-84zM171 243h308l-69 402zM429 747c50 0 86 34 86 93c0 34 -18 63 -67 63
c-51 0 -88 -40 -88 -98c0 -33 22 -58 69 -58z" />
    <glyph glyph-name="Ccircumflex" unicode="&#x108;" horiz-adv-x="703" 
d="M257 785l178 156h85l112 -156h-74l-89 107l-136 -107h-76zM346 -11c-214 0 -314 111 -314 289c0 39 4 82 13 128c56 262 211 347 401 347c139 0 218 -48 267 -103l-65 -53c-43 48 -109 81 -204 81c-160 0 -278 -82 -321 -283c-8 -38 -11 -75 -11 -108
c0 -139 77 -224 241 -224c88 0 147 21 199 62l49 -58c-63 -52 -140 -78 -255 -78z" />
    <glyph glyph-name="Cdotaccent" unicode="&#x10a;" horiz-adv-x="703" 
d="M346 -11c-214 0 -314 111 -314 289c0 39 4 82 13 128c56 262 211 347 401 347c139 0 218 -48 267 -103l-65 -53c-43 48 -109 81 -204 81c-160 0 -278 -82 -321 -283c-8 -38 -11 -75 -11 -108c0 -139 77 -224 241 -224c88 0 147 21 199 62l49 -58
c-63 -52 -140 -78 -255 -78zM407 785l23 107h76l-22 -107h-77z" />
    <glyph glyph-name="Ebreve" unicode="&#x114;" 
d="M8 0l158 741h473l-16 -75h-394l-54 -244h385l-15 -74h-384l-60 -276h399l-15 -72h-477zM414 777c-137 0 -161 72 -162 152l61 9c0 -56 12 -98 103 -98c90 0 119 42 142 98l56 -12c-28 -80 -80 -149 -200 -149z" />
    <glyph glyph-name="Eng" unicode="&#x14a;" horiz-adv-x="758" 
d="M8 0l158 741h85l293 -618l132 618h74l-154 -726c-32 -151 -113 -190 -223 -190c-33 0 -73 0 -84 1l15 68h63c82 0 127 32 150 116l-300 626l-134 -636h-75z" />
    <glyph glyph-name="Gcircumflex" unicode="&#x11c;" horiz-adv-x="761" 
d="M266 785l178 156h85l112 -156h-74l-89 107l-136 -107h-76zM355 -11c-221 0 -323 107 -323 288c0 45 4 86 13 129c53 254 202 347 396 347c161 0 243 -59 280 -105l-65 -54c-30 34 -85 84 -219 84c-153 0 -272 -78 -315 -283c-8 -36 -11 -74 -11 -109
c0 -143 78 -227 248 -227c181 0 225 74 261 253l4 20h-235l15 73h315l-18 -88c-49 -240 -114 -328 -346 -328z" />
    <glyph glyph-name="Gdotaccent" unicode="&#x120;" horiz-adv-x="761" 
d="M355 -11c-221 0 -323 107 -323 288c0 45 4 86 13 129c53 254 202 347 396 347c161 0 243 -59 280 -105l-65 -54c-30 34 -85 84 -219 84c-153 0 -272 -78 -315 -283c-8 -36 -11 -74 -11 -109c0 -143 78 -227 248 -227c181 0 225 74 261 253l4 20h-235l15 73h315l-18 -88
c-49 -240 -114 -328 -346 -328zM409 785l23 107h76l-22 -107h-77z" />
    <glyph glyph-name="Hbar" unicode="&#x126;" horiz-adv-x="759" 
d="M48 547l14 62h76l28 132h78l-28 -132h429l28 132h79l-28 -132h73l-12 -62h-75l-116 -547h-79l74 348h-428l-75 -348h-78l116 547h-76zM176 425h429l26 122h-429z" />
    <glyph glyph-name="Hcircumflex" unicode="&#x124;" horiz-adv-x="759" 
d="M271 785l178 156h85l112 -156h-74l-89 107l-136 -107h-76zM8 0l158 741h78l-68 -316h429l68 316h79l-158 -741h-79l74 348h-428l-75 -348h-78z" />
    <glyph glyph-name="Ibreve" unicode="&#x12c;" horiz-adv-x="267" 
d="M15 0l158 741h79l-158 -741h-79zM223 777c-137 0 -161 72 -162 152l61 9c0 -56 12 -98 103 -98c90 0 119 42 142 98l56 -12c-28 -80 -80 -149 -200 -149z" />
    <glyph glyph-name="Itilde" unicode="&#x128;" horiz-adv-x="267" 
d="M15 0l158 741h79l-158 -741h-79zM302 788c-66 0 -94 49 -144 49c-30 0 -56 -22 -78 -46l-41 40c34 40 74 69 122 69c66 0 95 -48 144 -48c26 0 47 19 75 50l41 -39c-41 -48 -77 -75 -119 -75z" />
    <glyph glyph-name="Idotaccent" unicode="&#x130;" horiz-adv-x="267" 
d="M15 0l158 741h79l-158 -741h-79zM182 785l23 107h76l-22 -107h-77z" />
    <glyph glyph-name="IJ" unicode="&#x132;" horiz-adv-x="646" 
d="M15 0l158 741h79l-158 -741h-79zM217 0l15 72h63c89 0 134 35 154 131l115 538h79l-118 -550c-32 -153 -113 -192 -222 -192c-66 0 -58 0 -86 1z" />
    <glyph glyph-name="Jcircumflex" unicode="&#x134;" horiz-adv-x="380" 
d="M155 785l178 156h85l112 -156h-74l-89 107l-136 -107h-76zM-49 0l15 72h63c89 0 134 35 154 131l115 538h79l-118 -550c-32 -153 -113 -192 -222 -192c-66 0 -58 0 -86 1z" />
    <glyph glyph-name="Ldot" unicode="&#x13f;" horiz-adv-x="605" 
d="M8 0l158 741h78l-143 -669h375l-15 -72h-453zM365 322l23 113h100l-23 -113h-100z" />
    <glyph glyph-name="Obreve" unicode="&#x14e;" horiz-adv-x="818" 
d="M368 -12c-220 0 -335 108 -335 297c-1 38 4 79 13 124c56 264 219 344 404 344c221 0 336 -108 336 -296c0 -39 -4 -80 -14 -123c-57 -265 -217 -346 -404 -346zM369 61c164 0 281 78 324 280c8 37 12 73 12 106c0 141 -80 231 -258 231c-165 0 -281 -83 -323 -280
c-8 -36 -11 -72 -11 -107c0 -140 79 -230 256 -230zM484 780c-137 0 -161 72 -162 152l61 9c0 -56 12 -98 103 -98c90 0 119 42 142 98l56 -12c-28 -80 -80 -149 -200 -149z" />
    <glyph glyph-name="Oslashacute" unicode="&#x1fe;" horiz-adv-x="818" 
d="M368 -12c-78 0 -143 13 -194 39l-53 -68h-78l79 102c-59 51 -89 127 -89 224c-1 38 4 79 13 124c56 264 218 344 404 344c71 0 132 -12 181 -33l49 63h78l-74 -95c67 -50 102 -129 102 -231c0 -39 -4 -80 -14 -123c-57 -265 -217 -346 -404 -346zM369 59
c165 0 283 78 327 282c8 37 12 74 12 108c0 76 -24 137 -74 178l-416 -538c39 -19 89 -30 151 -30zM109 290c0 -71 20 -129 63 -169l413 535c-37 16 -83 25 -138 25c-166 0 -283 -84 -326 -283c-8 -36 -12 -73 -12 -108zM417 785l184 156h96l-205 -156h-75z" />
    <glyph glyph-name="Scircumflex" unicode="&#x15c;" horiz-adv-x="683" 
d="M212 785l178 156h85l112 -156h-74l-89 107l-136 -107h-76zM300 -10c-146 0 -240 36 -323 97l49 58c77 -56 159 -85 277 -85c106 0 208 29 208 145c0 91 -73 107 -189 143c-120 38 -215 66 -215 191c0 164 129 214 262 214c147 0 225 -39 276 -79l-51 -60
c-45 35 -114 67 -227 67c-95 0 -180 -32 -180 -136c0 -79 70 -100 168 -129c144 -43 236 -73 236 -197c0 -175 -137 -229 -291 -229z" />
    <glyph glyph-name="Tbar" unicode="&#x166;" horiz-adv-x="668" 
d="M148 332l13 65h141l57 269h-269l16 75h615l-16 -75h-268l-57 -269h146l-13 -65h-147l-71 -332h-78l71 332h-140z" />
    <glyph glyph-name="Ubreve" unicode="&#x16c;" horiz-adv-x="759" 
d="M334 -12c-222 0 -281 95 -281 207c0 31 5 64 12 95l96 451h79l-97 -450c-6 -30 -11 -57 -11 -83c0 -88 49 -147 210 -147c147 0 207 74 235 202l102 478h76l-106 -493c-31 -147 -103 -260 -315 -260zM471 777c-137 0 -161 72 -162 152l61 9c0 -56 12 -98 103 -98
c90 0 119 42 142 98l56 -12c-28 -80 -80 -149 -200 -149z" />
    <glyph glyph-name="Utilde" unicode="&#x168;" horiz-adv-x="759" 
d="M334 -12c-222 0 -281 95 -281 207c0 31 5 64 12 95l96 451h79l-97 -450c-6 -30 -11 -57 -11 -83c0 -88 49 -147 210 -147c147 0 207 74 235 202l102 478h76l-106 -493c-31 -147 -103 -260 -315 -260zM543 788c-66 0 -94 49 -144 49c-30 0 -56 -22 -78 -46l-41 40
c34 40 74 69 122 69c66 0 95 -48 144 -48c26 0 47 19 75 50l41 -39c-41 -48 -77 -75 -119 -75z" />
    <glyph glyph-name="Wacute" unicode="&#x1e82;" horiz-adv-x="1063" 
d="M535 785l184 156h96l-205 -156h-75zM184 -5l-69 746h79l56 -606l324 606h73l65 -606l315 606h80l-387 -746h-68l-68 622l-332 -622h-68z" />
    <glyph glyph-name="Wcircumflex" unicode="&#x174;" horiz-adv-x="1063" 
d="M431 785l178 156h85l112 -156h-74l-89 107l-136 -107h-76zM184 -5l-69 746h79l56 -606l324 606h73l65 -606l315 606h80l-387 -746h-68l-68 622l-332 -622h-68z" />
    <glyph glyph-name="Wdieresis" unicode="&#x1e84;" horiz-adv-x="1063" 
d="M486 785l21 102h70l-21 -102h-70zM682 785l21 102h70l-21 -102h-70zM184 -5l-69 746h79l56 -606l324 606h73l65 -606l315 606h80l-387 -746h-68l-68 622l-332 -622h-68z" />
    <glyph glyph-name="Wgrave" unicode="&#x1e80;" horiz-adv-x="1063" 
d="M184 -5l-69 746h79l56 -606l324 606h73l65 -606l315 606h80l-387 -746h-68l-68 622l-332 -622h-68zM627 785l-138 156h88l118 -156h-68z" />
    <glyph glyph-name="Ycircumflex" unicode="&#x176;" horiz-adv-x="680" 
d="M220 0l63 292l-189 449h82l160 -375l317 375h87l-380 -452l-61 -289h-79zM226 785l178 156h85l112 -156h-74l-89 107l-136 -107h-76z" />
    <glyph glyph-name="Ygrave" unicode="&#x1ef2;" horiz-adv-x="680" 
d="M220 0l63 292l-189 449h82l160 -375l317 375h87l-380 -452l-61 -289h-79zM412 785l-138 156h88l118 -156h-68z" />
    <glyph glyph-name="aeacute" unicode="&#x1fd;" horiz-adv-x="950" 
d="M618 -11c-123 0 -180 45 -203 112c-44 -72 -115 -111 -241 -111c-107 0 -179 37 -179 143c0 177 116 225 357 225h73c4 22 7 46 7 62c0 49 -28 74 -134 74c-51 0 -117 -17 -153 -37l-31 62c42 25 118 46 196 46c116 0 168 -26 184 -79c44 51 106 79 196 79
c164 0 205 -69 205 -159c0 -45 -9 -104 -20 -155h-403c-3 -19 -4 -38 -4 -56c0 -80 36 -139 157 -139c70 0 124 14 171 43l32 -58c-63 -40 -129 -52 -210 -52zM197 55c126 0 175 60 205 194l8 40h-66c-189 0 -273 -14 -273 -150c0 -58 38 -84 126 -84zM683 496
c-113 0 -168 -65 -198 -176h328c5 28 9 50 9 75c0 59 -27 101 -139 101zM416 610l184 156h96l-205 -156h-75z" />
    <glyph glyph-name="aringacute" unicode="&#x1fb;" horiz-adv-x="603" 
d="M180 -10c-144 0 -184 58 -185 143c0 182 124 225 358 225h72c4 22 7 43 7 62c0 50 -29 74 -134 74c-51 0 -117 -17 -153 -37l-31 62c42 25 120 46 196 46c205 0 216 -79 182 -237l-42 -194c-12 -57 -11 -68 43 -67l-13 -66c-4 -2 -19 -2 -32 -2c-29 1 -47 6 -58 21
c-7 9 -10 22 -11 40c-40 -47 -105 -70 -199 -70zM197 55c121 0 175 55 205 194l8 40h-66c-195 0 -273 -20 -273 -149c0 -51 28 -85 126 -85zM375 602c-81 0 -113 44 -113 98c0 89 56 148 135 148c78 0 111 -48 111 -104c0 -91 -58 -142 -133 -142zM376 647c50 0 86 34 86 93
c0 34 -18 63 -67 63c-51 0 -88 -40 -88 -98c0 -33 22 -58 69 -58zM333 883l165 138h94l-184 -138h-75z" />
    <glyph glyph-name="ccircumflex" unicode="&#x109;" horiz-adv-x="543" 
d="M144 610l178 156h85l112 -156h-74l-89 107l-136 -107h-76zM240 -10c-166 0 -223 84 -223 202c0 36 4 73 12 111c36 173 119 262 286 262c119 0 171 -46 203 -88l-64 -50c-21 28 -53 65 -144 65c-113 0 -176 -59 -206 -202c-6 -30 -10 -62 -10 -91c0 -85 40 -141 151 -141
c53 0 94 10 142 46l43 -52c-62 -48 -120 -62 -190 -62z" />
    <glyph glyph-name="cdotaccent" unicode="&#x10b;" horiz-adv-x="543" 
d="M240 -10c-166 0 -223 84 -223 202c0 36 4 73 12 111c36 173 119 262 286 262c119 0 171 -46 203 -88l-64 -50c-21 28 -53 65 -144 65c-113 0 -176 -59 -206 -202c-6 -30 -10 -62 -10 -91c0 -85 40 -141 151 -141c53 0 94 10 142 46l43 -52c-62 -48 -120 -62 -190 -62z
M286 610l23 107h76l-22 -107h-77z" />
    <glyph glyph-name="ebreve" unicode="&#x115;" horiz-adv-x="573" 
d="M239 -11c-172 0 -223 88 -223 200c0 37 5 76 13 114c34 163 112 262 282 262c164 0 205 -69 205 -159c0 -45 -9 -104 -20 -155h-403c-3 -19 -4 -38 -4 -56c0 -80 36 -139 157 -139c70 0 124 14 171 43l32 -58c-63 -40 -129 -52 -210 -52zM304 496
c-113 0 -168 -65 -198 -176h328c5 28 9 50 9 75c0 59 -27 101 -139 101zM329 602c-137 0 -161 72 -162 152l61 9c0 -56 12 -98 103 -98c90 0 119 42 142 98l56 -12c-28 -80 -80 -149 -200 -149z" />
    <glyph glyph-name="eng" unicode="&#x14b;" horiz-adv-x="600" 
d="M-3 0l116 547l61 4l-8 -71c31 43 84 84 182 84c207 0 196 -109 168 -246l-74 -347c-24 -110 -55 -138 -156 -138h-28l13 61h6c63 0 76 18 91 85l71 332c20 100 39 182 -117 182c-122 0 -161 -80 -182 -177l-67 -316h-76z" />
    <glyph glyph-name="gcircumflex" unicode="&#x11d;" horiz-adv-x="580" 
d="M271 202c-50 0 -90 6 -121 17c-13 -13 -20 -28 -20 -48c0 -23 8 -39 62 -39c186 0 282 -24 282 -133c0 -141 -102 -179 -285 -178c-168 0 -251 41 -251 136c0 90 57 137 145 152c-17 14 -23 39 -23 61c0 32 15 59 36 80c-27 25 -38 59 -38 101c0 148 81 214 235 214
c22 0 46 -1 68 -4l198 24l-11 -67h-94c31 -25 48 -65 48 -113c0 -138 -80 -203 -231 -203zM198 -116c129 0 197 18 197 107c0 66 -71 76 -217 76c-132 0 -160 -41 -160 -101c0 -55 59 -82 180 -82zM272 268c100 0 155 41 155 136c0 60 -39 90 -138 90
c-101 0 -156 -40 -156 -139c0 -56 33 -87 139 -87zM135 619l178 156h85l112 -156h-74l-89 107l-136 -107h-76z" />
    <glyph glyph-name="gdotaccent" unicode="&#x121;" horiz-adv-x="580" 
d="M271 202c-50 0 -90 6 -121 17c-13 -13 -20 -28 -20 -48c0 -23 8 -39 62 -39c186 0 282 -24 282 -133c0 -141 -102 -179 -285 -178c-168 0 -251 41 -251 136c0 90 57 137 145 152c-17 14 -23 39 -23 61c0 32 15 59 36 80c-27 25 -38 59 -38 101c0 148 81 214 235 214
c22 0 46 -1 68 -4l198 24l-11 -67h-94c31 -25 48 -65 48 -113c0 -138 -80 -203 -231 -203zM198 -116c129 0 197 18 197 107c0 66 -71 76 -217 76c-132 0 -160 -41 -160 -101c0 -55 59 -82 180 -82zM272 268c100 0 155 41 155 136c0 60 -39 90 -138 90
c-101 0 -156 -40 -156 -139c0 -56 33 -87 139 -87zM282 610l23 107h76l-22 -107h-77z" />
    <glyph glyph-name="hbar" unicode="&#x127;" horiz-adv-x="600" 
d="M-3 0l134 631h-78l11 55h79l19 90h76l-20 -90h162l-11 -55h-163l-27 -126c30 30 78 60 169 60c207 0 196 -110 168 -246l-68 -319h-76l67 311c20 98 39 179 -117 179c-122 0 -161 -78 -182 -174l-67 -316h-76z" />
    <glyph glyph-name="hcircumflex" unicode="&#x125;" horiz-adv-x="600" 
d="M13 791l178 156h85l112 -156h-74l-89 107l-136 -107h-76zM-3 0l165 776h76l-59 -271c30 30 78 60 169 60c207 0 196 -110 168 -246l-68 -319h-76l67 311c20 98 39 179 -117 179c-122 0 -161 -78 -182 -174l-67 -316h-76z" />
    <glyph glyph-name="ibreve" unicode="&#x12d;" horiz-adv-x="238" 
d="M2 0l117 552h75l-116 -552h-76zM179 602c-137 0 -161 72 -162 152l61 9c0 -56 12 -98 103 -98c90 0 119 42 142 98l56 -12c-28 -80 -80 -149 -200 -149z" />
    <glyph glyph-name="ij" unicode="&#x133;" horiz-adv-x="476" 
d="M2 0l117 552h75l-116 -552h-76zM135 625l23 108h76l-23 -108h-76zM124 -167l14 63h6c63 0 76 18 91 86l121 570h75l-122 -579c-24 -112 -55 -140 -156 -140h-29zM372 625l23 108h76l-23 -108h-76z" />
    <glyph glyph-name="itilde" unicode="&#x129;" horiz-adv-x="238" 
d="M2 0l117 552h75l-116 -552h-76zM250 613c-66 0 -94 49 -144 49c-30 0 -56 -22 -78 -46l-41 40c34 40 74 69 122 69c66 0 95 -48 144 -48c26 0 47 19 75 50l41 -39c-41 -48 -77 -75 -119 -75z" />
    <glyph glyph-name="jcircumflex" unicode="&#x135;" horiz-adv-x="238" 
d="M-112 -167l12 61h7c63 0 76 18 91 85l121 572h75l-123 -580c-23 -110 -55 -138 -156 -138h-27zM-22 610l178 156h85l112 -156h-74l-89 107l-136 -107h-76z" />
    <glyph glyph-name="kgreenlandic" unicode="&#x138;" horiz-adv-x="522" 
d="M-2 0l117 552h75l-62 -293l306 293h86l-240 -231l144 -321h-79l-121 266l-119 -114l-32 -152h-75z" />
    <glyph glyph-name="ldot" unicode="&#x140;" horiz-adv-x="490" 
d="M123 -1c-99 0 -111 48 -90 147l134 630h76l-136 -636c-12 -54 -9 -73 48 -73h23l-13 -66c-8 -1 -26 -2 -42 -2zM295 274l23 113h100l-23 -113h-100z" />
    <glyph glyph-name="napostrophe" unicode="&#x149;" horiz-adv-x="817" 
d="M93 503l-17 41c49 24 64 40 73 82h-50l25 115h100l-19 -87c-17 -85 -36 -117 -112 -151zM194 0l116 548l61 4l-7 -49c32 32 83 62 181 62c207 0 196 -110 168 -246l-68 -319h-76l66 311c20 98 40 179 -116 179c-122 0 -161 -78 -182 -174l-67 -316h-76z" />
    <glyph glyph-name="obreve" unicode="&#x14f;" horiz-adv-x="611" 
d="M251 -11c-166 0 -234 81 -234 209c0 32 5 67 12 105c41 190 136 262 290 262c167 0 235 -81 235 -209c0 -32 -5 -68 -12 -106c-40 -189 -137 -261 -291 -261zM254 58c116 0 182 60 212 200c7 31 10 62 10 88c0 90 -45 147 -161 147c-117 0 -181 -62 -211 -203
c-7 -30 -10 -60 -10 -89c0 -88 45 -143 160 -143zM350 602c-137 0 -161 72 -162 152l61 9c0 -56 12 -98 103 -98c90 0 119 42 142 98l56 -12c-28 -80 -80 -149 -200 -149z" />
    <glyph glyph-name="oslashacute" unicode="&#x1ff;" horiz-adv-x="611" 
d="M251 -11c-58 0 -104 10 -139 28l-46 -59h-69l72 90c-36 36 -52 87 -52 150c0 32 5 67 12 105c41 190 136 262 290 262c58 0 104 -10 139 -28l46 58h69l-72 -89c36 -36 53 -88 53 -150c0 -32 -5 -68 -12 -106c-40 -189 -137 -261 -291 -261zM254 54c119 0 184 62 215 204
c7 31 11 62 11 89c0 40 -9 74 -30 99l-296 -372c25 -13 58 -20 100 -20zM91 200c0 -39 8 -70 26 -95l295 372c-25 12 -56 19 -96 19c-119 0 -184 -63 -214 -205c-7 -32 -11 -62 -11 -91zM276 610l184 156h96l-205 -156h-75z" />
    <glyph glyph-name="scircumflex" unicode="&#x15d;" horiz-adv-x="502" 
d="M97 610l178 156h85l112 -156h-74l-89 107l-136 -107h-76zM210 -10c-98 0 -183 29 -242 79l49 54c52 -42 124 -67 199 -67c69 0 130 20 130 105c0 55 -61 74 -125 93c-76 23 -160 49 -160 143c0 118 85 168 204 168c103 0 169 -30 210 -60l-48 -59c-33 23 -83 49 -167 49
c-75 0 -122 -27 -122 -90c0 -51 60 -70 123 -89c80 -25 161 -54 161 -148c0 -139 -97 -178 -212 -178z" />
    <glyph glyph-name="tbar" unicode="&#x167;" horiz-adv-x="401" 
d="M54 483l15 69h101l50 166l61 11l-38 -177h138l-14 -69h-139l-33 -156h139l-14 -62h-138l-24 -114c-12 -51 -10 -84 66 -84h54l-14 -67c-8 -1 -51 -1 -62 -1c-132 0 -138 62 -119 155l24 111h-100l14 62h99l34 156h-100z" />
    <glyph glyph-name="ubreve" unicode="&#x16d;" horiz-adv-x="594" 
d="M251 -11c-236 0 -235 114 -205 260l64 303h76l-65 -311c-23 -103 -33 -182 135 -182c122 0 137 62 158 158l71 335h74l-72 -340c-32 -150 -65 -223 -236 -223zM350 602c-137 0 -161 72 -162 152l61 9c0 -56 12 -98 103 -98c90 0 119 42 142 98l56 -12
c-28 -80 -80 -149 -200 -149z" />
    <glyph glyph-name="utilde" unicode="&#x169;" horiz-adv-x="594" 
d="M251 -11c-236 0 -235 114 -205 260l64 303h76l-65 -311c-23 -103 -33 -182 135 -182c122 0 137 62 158 158l71 335h74l-72 -340c-32 -150 -65 -223 -236 -223zM420 613c-66 0 -94 49 -144 49c-30 0 -56 -22 -78 -46l-41 40c34 40 74 69 122 69c66 0 95 -48 144 -48
c26 0 47 19 75 50l41 -39c-41 -48 -77 -75 -119 -75z" />
    <glyph glyph-name="wacute" unicode="&#x1e83;" horiz-adv-x="856" 
d="M386 610l184 156h96l-205 -156h-75zM125 -5l-71 557h77l56 -438l239 438h78l54 -438l241 438h79l-306 -557h-73l-57 450l-245 -450h-72z" />
    <glyph glyph-name="wcircumflex" unicode="&#x175;" horiz-adv-x="856" 
d="M290 610l178 156h85l112 -156h-74l-89 107l-136 -107h-76zM125 -5l-71 557h77l56 -438l239 438h78l54 -438l241 438h79l-306 -557h-73l-57 450l-245 -450h-72z" />
    <glyph glyph-name="wdieresis" unicode="&#x1e85;" horiz-adv-x="856" 
d="M343 610l21 102h70l-21 -102h-70zM539 610l21 102h70l-21 -102h-70zM125 -5l-71 557h77l56 -438l239 438h78l54 -438l241 438h79l-306 -557h-73l-57 450l-245 -450h-72z" />
    <glyph glyph-name="wgrave" unicode="&#x1e81;" horiz-adv-x="856" 
d="M125 -5l-71 557h77l56 -438l239 438h78l54 -438l241 438h79l-306 -557h-73l-57 450l-245 -450h-72zM495 610l-138 156h88l118 -156h-68z" />
    <glyph glyph-name="ycircumflex" unicode="&#x177;" horiz-adv-x="510" 
d="M22 -167c-19 0 -48 0 -58 1l12 62h43c50 0 61 13 88 59l32 53l-89 544h78l69 -451l258 451h81l-362 -615c-46 -80 -77 -104 -152 -104zM113 610l178 156h85l112 -156h-74l-89 107l-136 -107h-76z" />
    <glyph glyph-name="ygrave" unicode="&#x1ef3;" horiz-adv-x="510" 
d="M22 -167c-19 0 -48 0 -58 1l12 62h43c50 0 61 13 88 59l32 53l-89 544h78l69 -451l258 451h81l-362 -615c-46 -80 -77 -104 -152 -104zM309 610l-138 156h88l118 -156h-68z" />
    <glyph glyph-name="afii10017" unicode="&#x410;" horiz-adv-x="703" 
d="M-54 0l445 746h77l127 -746h-77l-29 171h-358l-101 -171h-84zM171 243h308l-69 402z" />
    <glyph glyph-name="afii10018" unicode="&#x411;" horiz-adv-x="693" 
d="M8 0l157 741h472l-15 -75h-397l-50 -234h211c161 0 243 -57 231 -196c-12 -160 -108 -236 -283 -236h-326zM98 70h238c108 0 190 34 200 155c11 110 -45 140 -161 140h-214z" />
    <glyph glyph-name="afii10019" unicode="&#x412;" horiz-adv-x="687" 
d="M8 0l158 741h247c200 0 258 -59 258 -150c0 -120 -51 -194 -138 -207c58 -19 82 -74 82 -142c0 -182 -102 -242 -271 -242h-336zM100 71h257c111 0 179 47 179 170c0 68 -45 107 -163 107h-213zM175 420h256c117 0 158 59 158 153c0 57 -38 96 -178 96h-182z" />
    <glyph glyph-name="afii10020" unicode="&#x413;" horiz-adv-x="570" 
d="M8 0l157 741h450l-16 -75h-371l-141 -666h-79z" />
    <glyph glyph-name="afii10021" unicode="&#x414;" horiz-adv-x="853" 
d="M-48 -166l50 238h24c57 0 69 19 80 73l127 596h580l-143 -669h88l-50 -238h-79l35 166h-600l-34 -166h-78zM147 71h444l128 597h-424l-112 -525c-7 -31 -12 -57 -36 -72z" />
    <glyph glyph-name="afii10022" unicode="&#x415;" 
d="M8 0l158 741h473l-16 -75h-394l-54 -244h385l-15 -74h-384l-60 -276h399l-15 -72h-477z" />
    <glyph glyph-name="afii10024" unicode="&#x416;" horiz-adv-x="1141" 
d="M462 0l79 370h-129l-356 -370h-95l402 416l-201 325h82l184 -297h129l63 297h75l-63 -297h111l309 297h94l-350 -337l224 -404h-86l-202 370h-116l-78 -370h-76z" />
    <glyph glyph-name="afii10025" unicode="&#x417;" horiz-adv-x="646" 
d="M262 -12c-115 0 -221 19 -296 68l46 62c68 -45 161 -60 256 -60c155 0 232 39 243 162c8 97 -6 144 -205 144h-157l16 73h153c160 0 232 35 240 133c9 90 -38 113 -176 113c-80 0 -171 -17 -239 -52l-30 60c79 41 190 62 283 62c162 0 255 -35 244 -170
c-7 -93 -58 -154 -165 -174c100 -20 124 -77 115 -177c-12 -176 -121 -244 -328 -244z" />
    <glyph glyph-name="afii10026" unicode="&#x418;" horiz-adv-x="760" 
d="M8 0l158 741h76l-129 -605l566 605h87l-158 -741h-75l133 624l-585 -624h-73z" />
    <glyph glyph-name="afii10027" unicode="&#x419;" horiz-adv-x="760" 
d="M8 0l158 741h76l-129 -605l566 605h87l-158 -741h-75l133 624l-585 -624h-73zM475 777c-137 0 -161 72 -162 152l61 9c0 -56 12 -98 103 -98c90 0 119 42 142 98l56 -12c-28 -80 -80 -149 -200 -149z" />
    <glyph glyph-name="afii10028" unicode="&#x41a;" horiz-adv-x="668" 
d="M481 0l-202 370h-115l-79 -370h-77l158 741h77l-63 -297h109l310 297h94l-350 -337l223 -404h-85z" />
    <glyph glyph-name="afii10029" unicode="&#x41b;" horiz-adv-x="770" 
d="M75 154l125 587h561l-157 -741h-79l142 668h-405l-113 -531c-22 -105 -62 -138 -157 -138c-11 0 -28 1 -31 2l14 71h7c64 0 79 18 93 82z" />
    <glyph glyph-name="afii10030" unicode="&#x41c;" horiz-adv-x="894" 
d="M8 0l158 741h101l123 -622l388 622h108l-158 -741h-77l134 623l-390 -623h-60l-124 617l-132 -617h-71z" />
    <glyph glyph-name="afii10031" unicode="&#x41d;" horiz-adv-x="759" 
d="M8 0l158 741h78l-68 -316h429l68 316h79l-158 -741h-79l74 348h-428l-75 -348h-78z" />
    <glyph glyph-name="afii10032" unicode="&#x41e;" horiz-adv-x="818" 
d="M368 -12c-220 0 -335 108 -335 297c-1 38 4 79 13 124c56 264 219 344 404 344c221 0 336 -108 336 -296c0 -39 -4 -80 -14 -123c-57 -265 -217 -346 -404 -346zM369 61c164 0 281 78 324 280c8 37 12 73 12 106c0 141 -80 231 -258 231c-165 0 -281 -83 -323 -280
c-8 -36 -11 -72 -11 -107c0 -140 79 -230 256 -230z" />
    <glyph glyph-name="afii10033" unicode="&#x41f;" horiz-adv-x="755" 
d="M8 0l157 741h581l-157 -741h-79l142 668h-425l-142 -668h-77z" />
    <glyph glyph-name="afii10034" unicode="&#x420;" horiz-adv-x="686" 
d="M8 0l158 741h268c182 0 249 -67 249 -173c0 -171 -87 -283 -267 -283h-270l-61 -285h-77zM161 358h253c120 0 188 65 188 198c0 75 -51 112 -177 112h-196z" />
    <glyph glyph-name="afii10035" unicode="&#x421;" horiz-adv-x="703" 
d="M346 -11c-214 0 -314 111 -314 289c0 39 4 82 13 128c56 262 211 347 401 347c139 0 218 -48 267 -103l-65 -53c-43 48 -109 81 -204 81c-160 0 -278 -82 -321 -283c-8 -38 -11 -75 -11 -108c0 -139 77 -224 241 -224c88 0 147 21 199 62l49 -58
c-63 -52 -140 -78 -255 -78z" />
    <glyph glyph-name="afii10036" unicode="&#x422;" horiz-adv-x="668" 
d="M217 0l142 666h-269l16 75h615l-16 -75h-268l-142 -666h-78z" />
    <glyph glyph-name="afii10037" unicode="&#x423;" horiz-adv-x="676" 
d="M123 -1c-13 0 -48 0 -59 1l15 70h48c46 0 66 16 97 60l45 62l-173 549h77l148 -485l338 485h85l-449 -630c-58 -82 -87 -112 -172 -112z" />
    <glyph glyph-name="afii10038" unicode="&#x424;" horiz-adv-x="875" 
d="M324 0l12 57c-178 15 -301 93 -301 264c0 212 156 362 434 366l12 54h79l-12 -56c182 -16 303 -98 303 -267c0 -215 -156 -362 -437 -364l-11 -54h-79zM771 413c0 122 -84 185 -239 197l-102 -483c229 6 341 123 341 286zM115 329c0 -123 83 -187 236 -200l102 482
c-237 -8 -338 -134 -338 -282z" />
    <glyph glyph-name="afii10039" unicode="&#x425;" horiz-adv-x="689" 
d="M487 0l-152 328l-288 -328h-89l347 392l-161 349h80l136 -295l258 295h89l-317 -358l177 -383h-80z" />
    <glyph glyph-name="afii10040" unicode="&#x426;" horiz-adv-x="804" 
d="M580 -166l35 166h-590l158 741h79l-144 -670h425l144 670h77l-143 -669h87l-49 -238h-79z" />
    <glyph glyph-name="afii10041" unicode="&#x427;" horiz-adv-x="709" 
d="M465 0l70 332c-31 -49 -93 -100 -239 -100c-171 0 -227 62 -227 156c0 27 4 54 10 81l58 272h78l-55 -262c-5 -24 -9 -46 -9 -67c0 -66 39 -104 173 -104c170 0 223 79 245 185l53 248h78l-157 -741h-78z" />
    <glyph glyph-name="afii10042" unicode="&#x428;" horiz-adv-x="1153" 
d="M8 0l157 741h79l-143 -670h373l142 670h79l-142 -670h372l142 670h78l-157 -741h-980z" />
    <glyph glyph-name="afii10043" unicode="&#x429;" horiz-adv-x="1192" 
d="M968 -166l35 166h-989l158 741h78l-143 -670h373l143 670h79l-144 -670h373l143 670h78l-143 -669h87l-50 -238h-78z" />
    <glyph glyph-name="afii10044" unicode="&#x42a;" horiz-adv-x="728" 
d="M47 0l142 667h-87l15 74h164l-63 -296h222c157 0 236 -56 229 -196c-7 -167 -108 -249 -285 -249h-337zM139 70h248c110 0 195 36 201 168c7 106 -48 136 -160 136h-225z" />
    <glyph glyph-name="afii10045" unicode="&#x42b;" horiz-adv-x="884" 
d="M653 0l157 741h78l-157 -741h-78zM8 0l157 741h77l-63 -296h222c157 0 236 -56 229 -196c-7 -169 -108 -249 -285 -249h-337zM100 70h248c110 0 195 36 201 167c7 107 -48 137 -160 137h-225z" />
    <glyph glyph-name="afii10046" unicode="&#x42c;" horiz-adv-x="689" 
d="M8 0l157 741h77l-63 -296h222c157 0 236 -56 229 -196c-7 -169 -108 -249 -285 -249h-337zM100 70h248c110 0 195 36 201 167c7 107 -48 137 -160 137h-225z" />
    <glyph glyph-name="afii10047" unicode="&#x42d;" horiz-adv-x="703" 
d="M356 753c214 0 314 -111 314 -289c0 -39 -4 -82 -13 -128c-55 -260 -212 -347 -401 -347c-139 0 -218 48 -267 103l65 53c43 -48 109 -81 204 -81c154 0 269 76 316 262h-458l16 74h455c2 19 3 37 3 55c0 139 -77 225 -240 225c-89 0 -148 -22 -200 -63l-49 58
c63 52 140 78 255 78z" />
    <glyph glyph-name="afii10048" unicode="&#x42e;" horiz-adv-x="1075" 
d="M628 -12c-218 0 -335 109 -335 297c0 19 1 39 3 60h-136l-73 -345h-79l157 741h79l-69 -322h134c58 255 219 334 401 334c219 0 337 -108 337 -296c0 -39 -4 -80 -14 -123c-58 -265 -218 -346 -405 -346zM629 58c165 0 282 79 325 283c8 37 12 73 12 108
c0 142 -80 232 -259 232c-164 0 -280 -83 -322 -283c-8 -36 -12 -73 -12 -108c0 -141 79 -232 256 -232z" />
    <glyph glyph-name="afii10049" unicode="&#x42f;" horiz-adv-x="699" 
d="M-10 0l242 306c-106 16 -158 76 -149 198c13 157 109 237 290 237h332l-157 -741h-77l65 301h-222l-235 -301h-89zM612 669h-247c-109 0 -190 -36 -201 -156c-10 -112 43 -140 152 -140h233z" />
    <glyph glyph-name="afii10055" unicode="&#x406;" horiz-adv-x="267" 
d="M15 0l158 741h79l-158 -741h-79z" />
    <glyph glyph-name="afii10051" unicode="&#x402;" horiz-adv-x="819" 
d="M480 -167l12 61h7c62 0 76 18 90 85l65 304c21 100 40 181 -116 181c-121 0 -162 -79 -182 -177l-61 -287h-79l142 670h-268l16 71h615l-16 -71h-268l-42 -191c29 29 77 60 169 60c208 0 197 -110 168 -245l-69 -323c-23 -110 -54 -138 -155 -138h-28z" />
    <glyph glyph-name="afii10099" unicode="&#x452;" horiz-adv-x="600" 
d="M-3 0l132 624h-76l13 63h77l19 89h76l-19 -89h169l-14 -63h-169l-27 -124c34 33 78 59 169 59c207 0 197 -109 168 -246l-73 -340c-23 -112 -55 -140 -156 -140h-28l13 63h6c63 0 78 19 92 86l69 324c21 98 39 179 -117 179c-122 0 -161 -78 -182 -174l-66 -311h-76z" />
    <glyph glyph-name="afii10052" unicode="&#x403;" horiz-adv-x="570" 
d="M273 785l184 156h96l-205 -156h-75zM8 0l157 741h450l-16 -75h-371l-141 -666h-79z" />
    <glyph glyph-name="afii10100" unicode="&#x453;" horiz-adv-x="498" 
d="M225 610l184 156h96l-205 -156h-75zM1 0l117 552h383l-14 -68h-308l-102 -484h-76z" />
    <glyph glyph-name="afii10103" unicode="&#x456;" horiz-adv-x="238" 
d="M2 0l117 552h75l-116 -552h-76zM135 625l23 108h76l-23 -108h-76z" />
    <glyph glyph-name="afii10098" unicode="&#x491;" horiz-adv-x="484" 
d="M-2 0l116 552h312l35 165h72l-50 -235h-308l-102 -482h-75z" />
    <glyph glyph-name="afii10057" unicode="&#x408;" horiz-adv-x="380" 
d="M-49 0l15 72h63c89 0 134 35 154 131l115 538h79l-118 -550c-32 -153 -113 -192 -222 -192c-66 0 -58 0 -86 1z" />
    <glyph glyph-name="afii10053" unicode="&#x404;" horiz-adv-x="703" 
d="M346 -11c-214 0 -314 111 -314 289c0 39 4 82 13 128c56 262 211 347 401 347c139 0 218 -48 267 -103l-65 -53c-43 48 -109 81 -204 81c-155 0 -270 -76 -316 -262h458l-16 -74h-456c-2 -19 -2 -38 -2 -55c0 -139 77 -224 241 -224c88 0 147 21 199 62l49 -58
c-63 -52 -140 -78 -255 -78z" />
    <glyph glyph-name="afii10101" unicode="&#x454;" horiz-adv-x="543" 
d="M239 -10c-170 0 -222 83 -222 202c0 35 4 72 12 111c37 173 114 261 286 261c121 0 171 -46 203 -88l-60 -43c-21 28 -53 67 -144 67c-114 0 -172 -55 -205 -187h327l-17 -69h-322c-2 -17 -3 -33 -3 -48c0 -86 35 -144 150 -144c54 0 94 10 145 48l39 -48
c-60 -47 -116 -62 -189 -62z" />
    <glyph glyph-name="afii10056" unicode="&#x407;" horiz-adv-x="267" 
d="M15 0l158 741h79l-158 -741h-79zM89 785l21 102h70l-21 -102h-70zM285 785l21 102h70l-21 -102h-70z" />
    <glyph glyph-name="afii10104" unicode="&#x457;" horiz-adv-x="238" 
d="M49 610l21 100h66l-22 -100h-65zM223 610l21 100h66l-21 -100h-66zM2 0l117 552h75l-116 -552h-76z" />
    <glyph glyph-name="afii10058" unicode="&#x409;" horiz-adv-x="1174" 
d="M510 0l142 668h-390l-113 -531c-22 -105 -62 -138 -157 -138c-11 0 -28 1 -31 2l14 71h7c64 0 79 18 93 82l125 587h544l-63 -297h205c160 0 240 -58 228 -201c-12 -164 -109 -243 -284 -243h-320zM601 70h231c109 0 191 34 201 161c10 110 -44 143 -160 143h-207z" />
    <glyph glyph-name="afii10106" unicode="&#x459;" horiz-adv-x="970" 
d="M409 0l103 484h-293l-75 -347c-22 -105 -60 -138 -154 -138c-11 0 -28 1 -31 2l13 66h7c64 0 80 18 94 82l85 403h443l-37 -176h145c113 0 198 -38 198 -153c0 -136 -76 -223 -223 -223h-275zM498 64h183c83 0 148 41 148 152c0 81 -63 97 -134 97h-144z" />
    <glyph glyph-name="afii10059" unicode="&#x40a;" horiz-adv-x="1168" 
d="M8 0l158 741h79l-68 -316h414l66 316h78l-64 -296h208c161 0 240 -59 229 -202c-12 -164 -110 -243 -285 -243h-323l75 348h-414l-74 -348h-79zM592 70h234c108 0 190 34 201 161c10 110 -44 143 -160 143h-210z" />
    <glyph glyph-name="afii10107" unicode="&#x45a;" horiz-adv-x="921" 
d="M363 0l54 252h-290l-54 -252h-76l117 552h75l-48 -231h290l48 231h76l-38 -176h142c114 0 199 -38 199 -153c0 -136 -77 -223 -223 -223h-272zM452 64h180c83 0 147 41 147 152c0 81 -63 97 -133 97h-142z" />
    <glyph glyph-name="afii10105" unicode="&#x458;" horiz-adv-x="238" 
d="M-113 -167l14 63h6c63 0 76 18 91 86l121 570h75l-122 -579c-24 -112 -55 -140 -156 -140h-29zM135 625l23 108h76l-23 -108h-76z" />
    <glyph glyph-name="afii10054" unicode="&#x405;" horiz-adv-x="683" 
d="M300 -10c-146 0 -240 36 -323 97l49 58c77 -56 159 -85 277 -85c106 0 208 29 208 145c0 91 -73 107 -189 143c-120 38 -215 66 -215 191c0 164 129 214 262 214c147 0 225 -39 276 -79l-51 -60c-45 35 -114 67 -227 67c-95 0 -180 -32 -180 -136c0 -79 70 -100 168 -129
c144 -43 236 -73 236 -197c0 -175 -137 -229 -291 -229z" />
    <glyph glyph-name="afii10060" unicode="&#x40b;" horiz-adv-x="819" 
d="M216 0l142 670h-268l16 71h615l-16 -71h-268l-42 -191c29 29 77 60 169 60c208 0 197 -110 168 -245l-62 -294h-76l60 283c21 100 40 181 -116 181c-121 0 -162 -79 -182 -177l-61 -287h-79z" />
    <glyph glyph-name="afii10108" unicode="&#x45b;" horiz-adv-x="600" 
d="M53 624l13 63h77l19 89h76l-20 -89h170l-14 -63h-169l-27 -124c30 30 78 60 169 60c207 0 196 -110 168 -246l-67 -314h-76l66 306c20 98 39 179 -117 179c-122 0 -161 -78 -182 -174l-66 -311h-76l132 624h-76z" />
    <glyph glyph-name="afii10061" unicode="&#x40c;" horiz-adv-x="690" 
d="M481 0l-202 370h-115l-79 -370h-77l158 741h77l-63 -297h109l310 297h94l-350 -337l223 -404h-85zM349 785l184 156h96l-205 -156h-75z" />
    <glyph glyph-name="afii10109" unicode="&#x45c;" horiz-adv-x="530" 
d="M189 552l-46 -216h74l221 216h90l-256 -254l154 -298h-81l-137 269h-79l-57 -269h-75l117 552h75zM254 610l184 156h96l-205 -156h-75z" />
    <glyph glyph-name="afii10102" unicode="&#x455;" horiz-adv-x="502" 
d="M210 -10c-98 0 -183 29 -242 79l49 54c52 -42 124 -67 199 -67c69 0 130 20 130 105c0 55 -61 74 -125 93c-76 23 -160 49 -160 143c0 118 85 168 204 168c103 0 169 -30 210 -60l-48 -59c-33 23 -83 49 -167 49c-75 0 -122 -27 -122 -90c0 -51 60 -70 123 -89
c80 -25 161 -54 161 -148c0 -139 -97 -178 -212 -178z" />
    <glyph glyph-name="afii10062" unicode="&#x40e;" horiz-adv-x="690" 
d="M130 -1c-13 0 -48 0 -59 1l15 70h48c46 0 66 16 97 60l45 62l-173 549h77l148 -485l338 485h85l-449 -630c-58 -82 -87 -112 -172 -112zM428 777c-137 0 -161 72 -162 152l61 9c0 -56 12 -98 103 -98c90 0 119 42 142 98l56 -12c-28 -80 -80 -149 -200 -149z" />
    <glyph glyph-name="afii10110" unicode="&#x45e;" horiz-adv-x="510" 
d="M22 -167c-19 0 -48 0 -58 1l12 62h43c50 0 61 13 88 59l32 53l-89 544h78l69 -451l258 451h81l-362 -615c-46 -80 -77 -104 -152 -104zM328 602c-137 0 -161 72 -162 152l61 9c0 -56 12 -98 103 -98c90 0 119 42 142 98l56 -12c-28 -80 -80 -149 -200 -149z" />
    <glyph glyph-name="afii10145" unicode="&#x40f;" horiz-adv-x="754" 
d="M227 -166l35 166h-254l158 741h79l-144 -670h425l144 670h77l-158 -741h-249l-35 -166h-78z" />
    <glyph glyph-name="afii10193" unicode="&#x45f;" horiz-adv-x="603" 
d="M152 -166l35 166h-190l118 552h75l-103 -486h300l103 486h75l-118 -552h-188l-35 -166h-72z" />
    <glyph glyph-name="afii61352" unicode="&#x2116;" horiz-adv-x="1283" 
d="M994 288c-131 0 -190 66 -190 173c1 175 92 292 238 292c133 0 192 -66 192 -174c0 -176 -89 -291 -240 -291zM993 347c112 0 175 89 175 224c0 75 -39 120 -126 120c-106 0 -171 -91 -171 -226c0 -73 37 -118 122 -118zM763 149l12 60h356l-12 -60h-356zM8 0l158 741h85
l293 -611l132 611h74l-158 -741h-71l-304 630l-135 -630h-74z" />
    <glyph glyph-name="afii10023" unicode="&#x401;" 
d="M265 785l21 102h70l-21 -102h-70zM461 785l21 102h70l-21 -102h-70zM8 0l158 741h473l-16 -75h-394l-54 -244h385l-15 -74h-384l-60 -276h399l-15 -72h-477z" />
    <glyph glyph-name="afii10071" unicode="&#x451;" horiz-adv-x="573" 
d="M239 -11c-172 0 -223 88 -223 200c0 37 5 76 13 114c34 163 112 262 282 262c164 0 205 -69 205 -159c0 -45 -9 -104 -20 -155h-403c-3 -19 -4 -38 -4 -56c0 -80 36 -139 157 -139c70 0 124 14 171 43l32 -58c-63 -40 -129 -52 -210 -52zM304 496
c-113 0 -168 -65 -198 -176h328c5 28 9 50 9 75c0 59 -27 101 -139 101zM409 610l21 102h70l-21 -102h-70zM213 610l21 102h70l-21 -102h-70z" />
    <glyph glyph-name="afii10097" unicode="&#x44f;" horiz-adv-x="589" 
d="M-27 0l173 215c-66 15 -103 55 -103 130c0 139 86 207 211 207h297l-116 -552h-75l44 207h-181h-6l-161 -207h-83zM234 272h184l45 215h-212c-72 0 -131 -35 -131 -134c0 -60 42 -81 114 -81z" />
    <glyph glyph-name="afii10065" unicode="&#x430;" horiz-adv-x="603" 
d="M180 -10c-144 0 -184 58 -185 143c0 182 124 225 358 225h72c4 22 7 43 7 62c0 50 -29 74 -134 74c-51 0 -117 -17 -153 -37l-31 62c42 25 120 46 196 46c205 0 216 -79 182 -237l-42 -194c-12 -57 -11 -68 43 -67l-13 -66c-4 -2 -19 -2 -32 -2c-29 1 -47 6 -58 21
c-7 9 -10 22 -11 40c-40 -47 -105 -70 -199 -70zM197 55c121 0 175 55 205 194l8 40h-66c-195 0 -273 -20 -273 -149c0 -51 28 -85 126 -85z" />
    <glyph glyph-name="afii10066" unicode="&#x431;" horiz-adv-x="612" 
d="M251 -11c-164 0 -234 77 -234 207c0 71 25 165 37 217c72 324 223 363 387 363h76l-13 -67h-70c-111 0 -239 -13 -294 -255c46 72 105 98 203 98c152 0 211 -81 211 -199c0 -23 -3 -54 -9 -86c-34 -184 -116 -278 -294 -278zM254 58c125 0 186 67 213 204c5 28 8 54 8 78
c0 94 -46 145 -160 145c-127 0 -182 -72 -212 -204c-6 -27 -9 -54 -9 -78c0 -94 47 -145 160 -145z" />
    <glyph glyph-name="afii10067" unicode="&#x432;" horiz-adv-x="574" 
d="M-3 0l117 552h223c130 0 190 -39 190 -121c0 -76 -36 -122 -108 -141c48 -13 72 -51 72 -103c0 -148 -95 -187 -229 -187h-265zM83 65h196c79 0 139 18 139 113c0 55 -34 73 -115 73h-181zM137 320h173c102 0 141 29 141 99c0 47 -36 66 -122 66h-157z" />
    <glyph glyph-name="afii10068" unicode="&#x433;" horiz-adv-x="469" 
d="M-3 0l117 552h383l-14 -68h-308l-102 -484h-76z" />
    <glyph glyph-name="afii10069" unicode="&#x434;" horiz-adv-x="627" 
d="M-108 -166l48 233h24c57 0 67 19 79 74l88 411h450l-102 -485h87l-50 -233h-72l35 166h-482l-34 -166h-71zM82 64h321l89 420h-300l-75 -348c-7 -33 -14 -56 -35 -72z" />
    <glyph glyph-name="afii10070" unicode="&#x435;" horiz-adv-x="573" 
d="M239 -11c-172 0 -223 88 -223 200c0 37 5 76 13 114c34 163 112 262 282 262c164 0 205 -69 205 -159c0 -45 -9 -104 -20 -155h-403c-3 -19 -4 -38 -4 -56c0 -80 36 -139 157 -139c70 0 124 14 171 43l32 -58c-63 -40 -129 -52 -210 -52zM304 496
c-113 0 -168 -65 -198 -176h328c5 28 9 50 9 75c0 59 -27 101 -139 101z" />
    <glyph glyph-name="afii10072" unicode="&#x436;" horiz-adv-x="830" 
d="M492 552l-45 -215h82l219 215h89l-256 -254l154 -298h-81l-136 268h-86l-56 -268h-74l57 268h-84l-251 -268h-93l294 310l-149 242h82l132 -215h84l46 215h72z" />
    <glyph glyph-name="afii10073" unicode="&#x437;" horiz-adv-x="553" 
d="M205 -12c-95 0 -173 13 -229 51l42 58c51 -32 112 -45 190 -45c125 0 187 32 187 136c0 58 -27 75 -159 75h-117l16 69h113c139 0 182 27 182 105c0 54 -43 62 -127 62c-75 0 -139 -15 -189 -40l-27 57c62 33 152 48 229 48c130 0 193 -27 193 -111
c0 -77 -35 -129 -113 -148c59 -15 77 -53 77 -108c0 -163 -95 -209 -268 -209z" />
    <glyph glyph-name="afii10074" unicode="&#x438;" horiz-adv-x="605" 
d="M-3 0l117 552h72l-91 -431l394 431h78l-117 -552h-72l92 437l-403 -437h-70z" />
    <glyph glyph-name="afii10075" unicode="&#x439;" horiz-adv-x="605" 
d="M-3 0l117 552h72l-91 -431l394 431h78l-117 -552h-72l92 437l-403 -437h-70zM350 602c-137 0 -161 72 -162 152l61 9c0 -56 12 -98 103 -98c90 0 119 42 142 98l56 -12c-28 -80 -80 -149 -200 -149z" />
    <glyph glyph-name="afii10076" unicode="&#x43a;" horiz-adv-x="530" 
d="M189 552l-46 -216h74l221 216h90l-256 -254l154 -298h-81l-137 269h-79l-57 -269h-75l117 552h75z" />
    <glyph glyph-name="afii10077" unicode="&#x43b;" horiz-adv-x="648" 
d="M73 149l85 403h451l-117 -552h-75l102 484h-300l-75 -347c-22 -105 -60 -138 -154 -138c-11 0 -28 1 -31 2l13 66h7c64 0 80 18 94 82z" />
    <glyph glyph-name="afii10078" unicode="&#x43c;" horiz-adv-x="726" 
d="M-3 0l117 552h91l97 -448l288 448h98l-117 -552h-75l89 425l-272 -425h-63l-92 425l-90 -425h-71z" />
    <glyph glyph-name="afii10079" unicode="&#x43d;" horiz-adv-x="604" 
d="M-3 0l117 552h75l-48 -232h300l49 232h76l-117 -552h-76l55 251h-301l-54 -251h-76z" />
    <glyph glyph-name="afii10080" unicode="&#x43e;" horiz-adv-x="611" 
d="M251 -11c-166 0 -234 81 -234 209c0 32 5 67 12 105c41 190 136 262 290 262c167 0 235 -81 235 -209c0 -32 -5 -68 -12 -106c-40 -189 -137 -261 -291 -261zM254 58c116 0 182 60 212 200c7 31 10 62 10 88c0 90 -45 147 -161 147c-117 0 -181 -62 -211 -203
c-7 -30 -10 -60 -10 -89c0 -88 45 -143 160 -143z" />
    <glyph glyph-name="afii10081" unicode="&#x43f;" horiz-adv-x="602" 
d="M-3 0l117 552h450l-116 -552h-76l103 484h-299l-103 -484h-76z" />
    <glyph glyph-name="afii10082" unicode="&#x440;" horiz-adv-x="627" 
d="M-37 -165l151 713l60 4l-8 -51c43 48 105 64 200 64c154 0 206 -82 206 -199c0 -35 -5 -75 -15 -116c-37 -166 -101 -259 -262 -259c-128 0 -188 28 -205 86l-52 -242h-75zM286 60c114 0 165 63 195 197c7 35 12 67 12 96c0 85 -38 140 -150 140
c-113 0 -173 -37 -208 -200c-8 -36 -13 -69 -13 -97c0 -94 48 -136 164 -136z" />
    <glyph glyph-name="afii10083" unicode="&#x441;" horiz-adv-x="543" 
d="M240 -10c-166 0 -223 84 -223 202c0 36 4 73 12 111c36 173 119 262 286 262c119 0 171 -46 203 -88l-64 -50c-21 28 -53 65 -144 65c-113 0 -176 -59 -206 -202c-6 -30 -10 -62 -10 -91c0 -85 40 -141 151 -141c53 0 94 10 142 46l43 -52c-62 -48 -120 -62 -190 -62z
" />
    <glyph glyph-name="afii10084" unicode="&#x442;" horiz-adv-x="498" 
d="M129 0l103 483h-199l14 69h474l-14 -69h-199l-103 -483h-76z" />
    <glyph glyph-name="afii10085" unicode="&#x443;" horiz-adv-x="510" 
d="M22 -167c-19 0 -48 0 -58 1l12 62h43c50 0 61 13 88 59l32 53l-89 544h78l69 -451l258 451h81l-362 -615c-46 -80 -77 -104 -152 -104z" />
    <glyph glyph-name="afii10086" unicode="&#x444;" horiz-adv-x="1028" 
d="M363 -165l41 189c4 22 12 54 12 54c-38 -59 -90 -87 -195 -87c-153 0 -205 81 -205 197c0 37 6 77 15 118c38 167 100 259 262 259c125 0 188 -29 204 -86l65 297h76l-52 -242c-5 -23 -14 -59 -14 -59c37 62 89 89 196 89c152 0 204 -81 204 -198c0 -35 -5 -75 -14 -117
c-37 -166 -101 -258 -263 -258c-127 0 -187 28 -204 86l-52 -242h-76zM686 60c114 0 165 63 196 197c8 35 12 68 12 97c0 83 -38 139 -150 139c-114 0 -173 -37 -209 -200c-8 -37 -12 -69 -12 -98c0 -93 49 -135 163 -135zM245 60c113 0 173 36 208 199c8 36 12 71 12 98
c2 94 -48 136 -163 136c-114 0 -165 -62 -195 -198c-7 -35 -12 -68 -12 -97c0 -83 38 -138 150 -138z" />
    <glyph glyph-name="afii10087" unicode="&#x445;" horiz-adv-x="521" 
d="M340 0l-111 234l-206 -234h-85l263 292l-123 260h77l99 -209l184 209h84l-240 -268l135 -284h-77z" />
    <glyph glyph-name="afii10088" unicode="&#x446;" horiz-adv-x="611" 
d="M427 -166l35 166h-465l118 552h75l-103 -486h300l103 486h75l-102 -485h86l-50 -233h-72z" />
    <glyph glyph-name="afii10089" unicode="&#x447;" horiz-adv-x="587" 
d="M356 0l49 231c-32 -49 -82 -91 -199 -91c-178 0 -189 92 -161 228l38 184h76l-35 -170c-21 -99 -25 -167 111 -167c142 0 183 77 205 182l32 155h76l-117 -552h-75z" />
    <glyph glyph-name="afii10090" unicode="&#x448;" horiz-adv-x="968" 
d="M-3 0l117 552h75l-103 -486h299l103 486h76l-104 -486h292l103 486h74l-116 -552h-816z" />
    <glyph glyph-name="afii10091" unicode="&#x449;" horiz-adv-x="977" 
d="M793 -166l35 166h-831l118 552h75l-102 -486h298l103 486h76l-103 -486h291l103 486h75l-103 -485h87l-49 -233h-73z" />
    <glyph glyph-name="afii10092" unicode="&#x44a;" horiz-adv-x="595" 
d="M219 552l-38 -175h153c113 0 198 -39 198 -155c0 -135 -77 -222 -223 -222h-282l103 483h-88l15 69h162zM115 64h191c83 0 148 41 148 152c0 81 -64 97 -134 97h-151z" />
    <glyph glyph-name="afii10093" unicode="&#x44b;" horiz-adv-x="766" 
d="M-3 0l117 552h75l-37 -175h151c114 0 199 -39 199 -155c0 -135 -76 -222 -223 -222h-282zM85 64h191c82 0 148 41 148 152c0 81 -63 97 -134 97h-151zM535 0l117 552h76l-117 -552h-76z" />
    <glyph glyph-name="afii10094" unicode="&#x44c;" horiz-adv-x="565" 
d="M-3 0l117 552h75l-37 -175h151c114 0 199 -39 199 -155c0 -135 -76 -222 -223 -222h-282zM85 64h191c82 0 148 41 148 152c0 81 -63 97 -134 97h-151z" />
    <glyph glyph-name="afii10095" unicode="&#x44d;" horiz-adv-x="543" 
d="M264 564c171 0 223 -83 223 -202c0 -36 -5 -72 -13 -111c-36 -173 -114 -261 -286 -261c-121 0 -170 46 -202 88l59 43c21 -28 54 -67 144 -67c114 0 173 56 205 190h-327l17 70h323c2 15 3 30 3 44c0 86 -36 144 -150 144c-54 0 -94 -10 -145 -48l-40 48
c61 47 117 62 189 62z" />
    <glyph glyph-name="afii10096" unicode="&#x44e;" horiz-adv-x="809" 
d="M449 -11c-166 0 -234 81 -234 209c0 17 1 34 3 53h-91l-54 -251h-76l117 552h75l-48 -232h90c43 177 136 245 286 245c167 0 235 -81 235 -209c0 -32 -5 -68 -12 -106c-40 -189 -137 -261 -291 -261zM452 58c116 0 182 60 212 200c7 31 10 62 10 88
c0 90 -45 147 -161 147c-117 0 -181 -62 -211 -203c-7 -30 -10 -60 -10 -89c0 -88 45 -143 160 -143z" />
    <glyph glyph-name="afii10050" unicode="&#x490;" horiz-adv-x="570" 
d="M8 0l157 741h372l35 166h78l-51 -241h-371l-141 -666h-79z" />
    <glyph glyph-name="tonos" unicode="&#x384;" horiz-adv-x="590" 
d="M238 610l97 155h74l-111 -155h-60z" />
    <glyph glyph-name="dieresistonos" unicode="&#x385;" horiz-adv-x="590" 
d="M122 610l22 100h58l-22 -100h-58zM376 610l21 100h59l-22 -100h-58zM227 610l90 155h68l-107 -155h-51z" />
    <glyph glyph-name="Alphatonos" unicode="&#x386;" horiz-adv-x="729" 
d="M77 587l97 155h74l-111 -155h-60zM-29 0l445 746h77l127 -746h-77l-29 171h-358l-101 -171h-84zM196 243h308l-69 402z" />
    <glyph glyph-name="Epsilontonos" unicode="&#x388;" horiz-adv-x="805" 
d="M76 587l97 155h74l-111 -155h-60zM191 0l158 741h473l-16 -75h-394l-54 -244h385l-15 -74h-384l-60 -276h399l-15 -72h-477z" />
    <glyph glyph-name="Etatonos" unicode="&#x389;" horiz-adv-x="943" 
d="M76 587l97 155h74l-111 -155h-60zM191 0l158 741h78l-68 -316h429l68 316h79l-158 -741h-79l74 348h-428l-75 -348h-78z" />
    <glyph glyph-name="Iotatonos" unicode="&#x38a;" horiz-adv-x="445" 
d="M76 587l97 155h74l-111 -155h-60zM192 0l158 741h79l-158 -741h-79z" />
    <glyph glyph-name="Omicrontonos" unicode="&#x38c;" horiz-adv-x="984" 
d="M76 587l97 155h74l-111 -155h-60zM531 -12c-220 0 -335 108 -335 297c-1 38 4 79 13 124c56 264 219 344 404 344c221 0 336 -108 336 -296c0 -39 -4 -80 -14 -123c-57 -265 -217 -346 -404 -346zM532 61c164 0 281 78 324 280c8 37 12 73 12 106c0 141 -80 231 -258 231
c-165 0 -281 -83 -323 -280c-8 -36 -11 -72 -11 -107c0 -140 79 -230 256 -230z" />
    <glyph glyph-name="Upsilontonos" unicode="&#x38e;" horiz-adv-x="918" 
d="M76 587l97 155h74l-111 -155h-60zM457 0l63 292l-189 449h82l160 -375l317 375h87l-380 -452l-61 -289h-79z" />
    <glyph glyph-name="Omegatonos" unicode="&#x38f;" horiz-adv-x="990" 
d="M621 753c216 0 338 -105 338 -285c0 -194 -122 -316 -281 -351l-9 -48h223l-16 -69h-282l34 150c160 35 249 145 249 306c0 144 -95 222 -262 222c-211 0 -332 -139 -332 -317c0 -128 59 -188 175 -211l-33 -150h-282l15 69h222l11 48c-112 28 -186 94 -186 246
c0 207 141 390 416 390zM76 587l97 155h74l-111 -155h-60z" />
    <glyph glyph-name="Alpha" unicode="&#x391;" horiz-adv-x="703" 
d="M-54 0l445 746h77l127 -746h-77l-29 171h-358l-101 -171h-84zM171 243h308l-69 402z" />
    <glyph glyph-name="Beta" unicode="&#x392;" horiz-adv-x="687" 
d="M8 0l158 741h247c200 0 258 -59 258 -150c0 -120 -51 -194 -138 -207c58 -19 82 -74 82 -142c0 -182 -102 -242 -271 -242h-336zM100 71h257c111 0 179 47 179 170c0 68 -45 107 -163 107h-213zM175 420h256c117 0 158 59 158 153c0 57 -38 96 -178 96h-182z" />
    <glyph glyph-name="Gamma" unicode="&#x393;" horiz-adv-x="570" 
d="M8 0l157 741h450l-16 -75h-371l-141 -666h-79z" />
    <glyph glyph-name="uni0394" unicode="&#x394;" horiz-adv-x="703" 
d="M-53 0l445 746h75l127 -746h-647zM70 72h435l-96 573z" />
    <glyph glyph-name="Epsilon" unicode="&#x395;" 
d="M8 0l158 741h473l-16 -75h-394l-54 -244h385l-15 -74h-384l-60 -276h399l-15 -72h-477z" />
    <glyph glyph-name="Zeta" unicode="&#x396;" horiz-adv-x="645" 
d="M-34 0l13 63l569 603h-423l16 75h524l-14 -68l-567 -601h449l-15 -72h-552z" />
    <glyph glyph-name="Eta" unicode="&#x397;" horiz-adv-x="759" 
d="M8 0l158 741h78l-68 -316h429l68 316h79l-158 -741h-79l74 348h-428l-75 -348h-78z" />
    <glyph glyph-name="Theta" unicode="&#x398;" horiz-adv-x="818" 
d="M260 336l15 69h277l-15 -69h-277zM368 -12c-220 0 -335 108 -335 297c-1 38 4 79 13 124c56 264 219 344 404 344c221 0 336 -108 336 -296c0 -39 -4 -80 -14 -123c-57 -265 -217 -346 -404 -346zM369 61c164 0 281 78 324 280c8 37 12 73 12 106c0 141 -80 231 -258 231
c-165 0 -281 -83 -323 -280c-8 -36 -11 -72 -11 -107c0 -140 79 -230 256 -230z" />
    <glyph glyph-name="Iota" unicode="&#x399;" horiz-adv-x="267" 
d="M15 0l158 741h79l-158 -741h-79z" />
    <glyph glyph-name="Kappa" unicode="&#x39a;" horiz-adv-x="684" 
d="M485 0l-168 400l-182 -165l-50 -235h-77l158 741h77l-85 -398l433 398h98l-311 -287l189 -454h-82z" />
    <glyph glyph-name="Lambda" unicode="&#x39b;" horiz-adv-x="703" 
d="M234 -5l-127 746h79l106 -641l378 641h85l-445 -746h-76z" />
    <glyph glyph-name="Mu" unicode="&#x39c;" horiz-adv-x="894" 
d="M8 0l158 741h101l123 -622l388 622h108l-158 -741h-77l134 623l-390 -623h-60l-124 617l-132 -617h-71z" />
    <glyph glyph-name="Nu" unicode="&#x39d;" horiz-adv-x="758" 
d="M8 0l158 741h85l293 -611l132 611h74l-158 -741h-71l-304 630l-135 -630h-74z" />
    <glyph glyph-name="Xi" unicode="&#x39e;" horiz-adv-x="646" 
d="M129 666l15 75h532l-16 -75h-531zM129 352l15 74h397l-15 -74h-397zM-24 0l15 72h551l-15 -72h-551z" />
    <glyph glyph-name="Omicron" unicode="&#x39f;" horiz-adv-x="818" 
d="M368 -12c-220 0 -335 108 -335 297c-1 38 4 79 13 124c56 264 219 344 404 344c221 0 336 -108 336 -296c0 -39 -4 -80 -14 -123c-57 -265 -217 -346 -404 -346zM369 61c164 0 281 78 324 280c8 37 12 73 12 106c0 141 -80 231 -258 231c-165 0 -281 -83 -323 -280
c-8 -36 -11 -72 -11 -107c0 -140 79 -230 256 -230z" />
    <glyph glyph-name="Pi" unicode="&#x3a0;" horiz-adv-x="702" 
d="M8 0l157 741h529l-157 -741h-79l142 668h-373l-142 -668h-77z" />
    <glyph glyph-name="Rho" unicode="&#x3a1;" horiz-adv-x="686" 
d="M8 0l158 741h268c182 0 249 -67 249 -173c0 -171 -87 -283 -267 -283h-270l-61 -285h-77zM161 358h253c120 0 188 65 188 198c0 75 -51 112 -177 112h-196z" />
    <glyph glyph-name="Sigma" unicode="&#x3a3;" horiz-adv-x="643" 
d="M-29 0l13 60l331 315l-191 301l14 65h515l-15 -75h-417l187 -297l-311 -298h432l-16 -71h-542z" />
    <glyph glyph-name="Tau" unicode="&#x3a4;" horiz-adv-x="668" 
d="M217 0l142 666h-269l16 75h615l-16 -75h-268l-142 -666h-78z" />
    <glyph glyph-name="Upsilon" unicode="&#x3a5;" horiz-adv-x="680" 
d="M220 0l63 292l-189 449h82l160 -375l317 375h87l-380 -452l-61 -289h-79z" />
    <glyph glyph-name="Phi" unicode="&#x3a6;" horiz-adv-x="875" 
d="M324 0l12 57c-178 15 -301 93 -301 264c0 212 156 362 434 366l12 54h79l-12 -56c182 -16 303 -98 303 -267c0 -215 -156 -362 -437 -364l-11 -54h-79zM771 413c0 122 -84 185 -239 197l-102 -483c229 6 341 123 341 286zM115 329c0 -123 83 -187 236 -200l102 482
c-237 -8 -338 -134 -338 -282z" />
    <glyph glyph-name="Chi" unicode="&#x3a7;" horiz-adv-x="689" 
d="M487 0l-152 328l-288 -328h-89l347 392l-161 349h80l136 -295l258 295h89l-317 -358l177 -383h-80z" />
    <glyph glyph-name="Psi" unicode="&#x3a8;" horiz-adv-x="684" 
d="M232 0l58 276c-217 9 -223 98 -194 236l49 229h75l-47 -227c-19 -89 -40 -160 132 -168l84 395h78l-84 -394c169 10 186 82 205 170l47 224h75l-48 -226c-30 -139 -77 -229 -294 -239l-58 -276h-78z" />
    <glyph glyph-name="uni03A9" unicode="&#x3a9;" horiz-adv-x="830" 
d="M461 753c216 0 338 -105 338 -285c0 -194 -122 -316 -281 -351l-9 -48h223l-16 -69h-282l34 150c160 35 249 145 249 306c0 144 -95 222 -262 222c-211 0 -332 -139 -332 -317c0 -128 59 -188 175 -211l-33 -150h-282l15 69h222l11 48c-112 28 -186 94 -186 246
c0 207 141 390 416 390z" />
    <glyph glyph-name="Iotadieresis" unicode="&#x3aa;" horiz-adv-x="267" 
d="M15 0l158 741h79l-158 -741h-79zM89 785l21 102h70l-21 -102h-70zM285 785l21 102h70l-21 -102h-70z" />
    <glyph glyph-name="Upsilondieresis" unicode="&#x3ab;" horiz-adv-x="680" 
d="M220 0l63 292l-189 449h82l160 -375l317 375h87l-380 -452l-61 -289h-79zM287 785l21 102h70l-21 -102h-70zM483 785l21 102h70l-21 -102h-70z" />
    <glyph glyph-name="alphatonos" unicode="&#x3ac;" horiz-adv-x="631" 
d="M324 610l97 155h74l-111 -155h-60zM584 556l-90 -422c-12 -57 -11 -68 43 -67l-13 -66c-4 -2 -19 -2 -32 -2c-29 1 -47 6 -58 21c-7 9 -10 22 -11 40c-49 -54 -107 -69 -201 -69c-154 0 -206 81 -206 198c0 36 5 76 15 117c37 166 100 259 262 259c126 0 177 -25 201 -86
l36 82zM245 60c110 0 167 36 202 200c8 35 12 68 12 96c0 95 -45 137 -157 137c-114 0 -165 -63 -195 -198c-8 -35 -12 -67 -12 -96c0 -84 37 -139 150 -139z" />
    <glyph glyph-name="epsilontonos" unicode="&#x3ad;" horiz-adv-x="478" 
d="M261 610l97 155h74l-111 -155h-60zM177 -12c-135 0 -187 41 -177 156c5 86 57 138 137 156c-53 16 -67 51 -63 113c7 104 90 152 201 152c83 0 143 -16 189 -54l-45 -52c-39 27 -83 39 -145 39c-78 0 -120 -27 -126 -87c-6 -55 11 -81 108 -81h72l-15 -69h-71
c-119 0 -159 -33 -166 -105c-7 -76 18 -101 111 -101c55 0 104 11 165 44l33 -53c-74 -44 -139 -58 -208 -58z" />
    <glyph glyph-name="etatonos" unicode="&#x3ae;" horiz-adv-x="600" 
d="M306 610l97 155h74l-111 -155h-60zM-3 0l116 548l61 4l-8 -61c32 38 84 74 182 74c207 0 196 -110 168 -246l-103 -485h-75l101 477c20 98 39 179 -117 179c-122 0 -161 -78 -182 -174l-67 -316h-76z" />
    <glyph glyph-name="iotatonos" unicode="&#x3af;" horiz-adv-x="238" 
d="M138 610l97 155h74l-111 -155h-60zM2 0l117 552h75l-116 -552h-76z" />
    <glyph glyph-name="upsilontonos" unicode="&#x3cd;" horiz-adv-x="594" 
d="M312 610l97 155h74l-111 -155h-60zM251 -11c-236 0 -235 114 -205 260l64 303h76l-65 -311c-23 -103 -33 -182 135 -182c122 0 137 62 158 158l71 335h74l-72 -340c-32 -150 -65 -223 -236 -223z" />
    <glyph glyph-name="alpha" unicode="&#x3b1;" horiz-adv-x="631" 
d="M584 556l-90 -422c-12 -57 -11 -68 43 -67l-13 -66c-4 -2 -19 -2 -32 -2c-29 1 -47 6 -58 21c-7 9 -10 22 -11 40c-49 -54 -107 -69 -201 -69c-154 0 -206 81 -206 198c0 36 5 76 15 117c37 166 100 259 262 259c126 0 177 -25 201 -86l36 82zM245 60
c110 0 167 36 202 200c8 35 12 68 12 96c0 95 -45 137 -157 137c-114 0 -165 -63 -195 -198c-8 -35 -12 -67 -12 -96c0 -84 37 -139 150 -139z" />
    <glyph glyph-name="beta" unicode="&#x3b2;" horiz-adv-x="627" 
d="M-37 -165l152 718c29 136 100 226 253 226c155 0 216 -66 216 -158c0 -123 -61 -192 -146 -215c85 -22 126 -75 126 -160c0 -160 -85 -246 -279 -246h-97l14 69h80c148 0 208 67 208 175c0 76 -55 122 -189 122l13 64c109 0 193 40 193 169c0 60 -40 104 -144 104
c-101 0 -153 -56 -175 -163l-150 -705h-75z" />
    <glyph glyph-name="gamma" unicode="&#x3b3;" horiz-adv-x="523" 
d="M107 -166l35 166l-91 552h76l73 -463l267 463h82l-326 -553l-34 -165h-82z" />
    <glyph glyph-name="delta" unicode="&#x3b4;" horiz-adv-x="613" 
d="M253 -11c-173 0 -236 80 -236 206c0 44 7 90 18 134c37 150 131 211 266 211c26 0 56 -3 75 -9l-196 190l12 55h370l-15 -69h-264l215 -212c39 -39 54 -92 54 -156c0 -35 -6 -80 -18 -124c-45 -158 -134 -226 -281 -226zM255 58c113 0 173 53 206 179c8 31 13 64 13 93
c0 90 -41 145 -160 145c-116 0 -177 -47 -208 -175c-8 -32 -12 -69 -12 -99c0 -88 42 -143 161 -143z" />
    <glyph glyph-name="epsilon" unicode="&#x3b5;" horiz-adv-x="478" 
d="M177 -12c-135 0 -187 41 -177 156c5 86 57 138 137 156c-53 16 -67 51 -63 113c7 104 90 152 201 152c83 0 143 -16 189 -54l-45 -52c-39 27 -83 39 -145 39c-78 0 -120 -27 -126 -87c-6 -55 11 -81 108 -81h72l-15 -69h-71c-119 0 -159 -33 -166 -105
c-7 -76 18 -101 111 -101c55 0 104 11 165 44l33 -53c-74 -44 -139 -58 -208 -58z" />
    <glyph glyph-name="zeta" unicode="&#x3b6;" horiz-adv-x="463" 
d="M234 69c80 -9 128 -30 128 -99c0 -72 -49 -118 -134 -118c-67 0 -108 20 -134 37l31 42c23 -16 53 -33 102 -33c58 0 76 28 76 56c0 32 -24 42 -87 48c-141 13 -191 78 -191 180c0 147 87 304 391 525h-282l13 69h390l-11 -55c-378 -268 -424 -421 -424 -525
c0 -77 34 -117 132 -127z" />
    <glyph glyph-name="eta" unicode="&#x3b7;" horiz-adv-x="600" 
d="M-3 0l116 548l61 4l-8 -61c32 38 84 74 182 74c207 0 196 -110 168 -246l-103 -485h-75l101 477c20 98 39 179 -117 179c-122 0 -161 -78 -182 -174l-67 -316h-76z" />
    <glyph glyph-name="theta" unicode="&#x3b8;" horiz-adv-x="681" 
d="M289 -11c-184 0 -248 89 -248 233c0 52 8 113 22 178c47 229 131 363 332 363c178 0 240 -100 240 -242c0 -58 -10 -120 -22 -179c-48 -223 -137 -353 -324 -353zM294 59c144 0 202 114 241 291h-404c-7 -45 -11 -88 -11 -125c0 -102 41 -166 174 -166zM389 691
c-147 0 -205 -106 -244 -275h403c6 33 9 67 9 100c0 102 -39 175 -168 175z" />
    <glyph glyph-name="iota" unicode="&#x3b9;" horiz-adv-x="238" 
d="M2 0l117 552h75l-116 -552h-76z" />
    <glyph glyph-name="kappa" unicode="&#x3ba;" horiz-adv-x="528" 
d="M-3 0l117 552h75l-62 -293l306 293h86l-240 -231l144 -321h-79l-121 266l-119 -114l-32 -152h-75z" />
    <glyph glyph-name="lambda" unicode="&#x3bb;" horiz-adv-x="520" 
d="M206 777c86 0 121 -34 135 -112l100 -665h-77l-66 481l-284 -481h-81l344 569l-13 84c-8 43 -25 59 -76 59h-43l13 63c10 1 40 2 48 2z" />
    <glyph glyph-name="uni03BC" unicode="&#x3bc;" horiz-adv-x="597" 
d="M210 -11c-65 0 -109 11 -137 29l-39 -183h-75l151 717h76l-67 -315c-21 -98 -39 -178 117 -178c121 0 160 77 180 173l68 320h76l-117 -549l-59 -5l7 54c-30 -33 -82 -63 -181 -63z" />
    <glyph glyph-name="nu" unicode="&#x3bd;" horiz-adv-x="523" 
d="M143 -5l-93 557h77l72 -463l268 463h82l-328 -557h-78z" />
    <glyph glyph-name="xi" unicode="&#x3be;" horiz-adv-x="473" 
d="M228 -148c-67 0 -108 20 -134 37l31 42c23 -16 53 -33 102 -33c58 0 76 28 76 56c0 32 -24 42 -87 48c-145 13 -194 70 -194 172c0 144 86 228 216 251c-57 15 -90 46 -90 113c0 80 50 142 121 169h-135l14 69h396l-15 -69h-112c-104 0 -194 -48 -194 -157
c0 -59 30 -91 149 -98l-13 -64c-14 0 -37 -1 -50 -2c-151 -12 -211 -85 -211 -198c0 -75 36 -108 136 -120c79 -9 128 -30 128 -98c0 -72 -49 -118 -134 -118z" />
    <glyph glyph-name="omicron" unicode="&#x3bf;" horiz-adv-x="611" 
d="M251 -11c-166 0 -234 81 -234 209c0 32 5 67 12 105c41 190 136 262 290 262c167 0 235 -81 235 -209c0 -32 -5 -68 -12 -106c-40 -189 -137 -261 -291 -261zM254 58c116 0 182 60 212 200c7 31 10 62 10 88c0 90 -45 147 -161 147c-117 0 -181 -62 -211 -203
c-7 -30 -10 -60 -10 -89c0 -88 45 -143 160 -143z" />
    <glyph glyph-name="rho" unicode="&#x3c1;" horiz-adv-x="627" 
d="M-37 -165l99 468c40 190 132 262 288 262c158 0 222 -82 222 -199c0 -35 -5 -75 -15 -116c-37 -166 -101 -259 -262 -259c-128 0 -185 32 -202 100l-55 -256h-75zM286 60c114 0 165 63 195 197c8 35 13 67 13 96c0 85 -39 140 -151 140c-113 0 -175 -48 -208 -200
c-8 -36 -13 -69 -13 -97c0 -94 48 -136 164 -136z" />
    <glyph glyph-name="sigma1" unicode="&#x3c2;" horiz-adv-x="525" 
d="M251 -148c-66 0 -108 20 -135 37l31 42c24 -16 54 -33 103 -33c58 0 75 28 75 56c0 32 -24 37 -87 39c-170 4 -221 83 -221 199c0 35 4 72 12 111c37 173 116 262 286 262c121 0 171 -46 203 -88l-64 -50c-21 28 -52 65 -144 65c-114 0 -176 -58 -206 -202
c-6 -31 -9 -62 -9 -92c0 -86 38 -134 149 -136c88 -2 140 -24 140 -92c0 -72 -47 -118 -133 -118z" />
    <glyph glyph-name="sigma" unicode="&#x3c3;" horiz-adv-x="611" 
d="M251 -11c-166 0 -234 81 -234 209c0 32 5 67 12 105c41 190 136 262 290 262c49 0 89 -7 122 -20h192l-9 -62h-104c23 -34 34 -77 34 -127c0 -32 -5 -68 -12 -106c-40 -189 -137 -261 -291 -261zM254 58c116 0 182 60 212 200c7 31 10 62 10 88c0 90 -45 147 -161 147
c-117 0 -181 -62 -211 -203c-7 -30 -10 -60 -10 -89c0 -88 45 -143 160 -143z" />
    <glyph glyph-name="tau" unicode="&#x3c4;" horiz-adv-x="498" 
d="M129 0l103 483h-199l14 69h474l-14 -69h-199l-103 -483h-76z" />
    <glyph glyph-name="upsilon" unicode="&#x3c5;" horiz-adv-x="594" 
d="M251 -11c-236 0 -235 114 -205 260l64 303h76l-65 -311c-23 -103 -33 -182 135 -182c122 0 137 62 158 158l71 335h74l-72 -340c-32 -150 -65 -223 -236 -223z" />
    <glyph glyph-name="phi" unicode="&#x3c6;" horiz-adv-x="661" 
d="M176 -165l33 157c-133 12 -192 86 -192 204c0 52 9 100 21 143c21 81 57 137 101 172l42 -63c-28 -23 -52 -66 -70 -129c-10 -34 -17 -75 -17 -119c0 -84 40 -132 130 -141l107 505h52c152 -2 221 -82 221 -205c0 -105 -37 -213 -70 -260c-62 -89 -144 -110 -243 -110h-4
l-32 -154h-79zM526 351c0 83 -44 133 -132 141l-92 -434c69 0 118 19 158 67c37 45 66 136 66 226z" />
    <glyph glyph-name="chi" unicode="&#x3c7;" horiz-adv-x="521" 
d="M340 0l-111 234l-206 -234h-85l263 292l-123 260h77l99 -209l184 209h84l-240 -268l135 -284h-77z" />
    <glyph glyph-name="psi" unicode="&#x3c8;" horiz-adv-x="711" 
d="M204 -165l33 154c-228 5 -220 101 -191 242l69 321h76l-69 -325c-19 -92 -48 -166 130 -168l105 493h78l-105 -493c172 3 182 72 201 166l70 327h75l-70 -329c-32 -147 -59 -233 -291 -234l-33 -154h-78z" />
    <glyph glyph-name="omega" unicode="&#x3c9;" horiz-adv-x="858" 
d="M501 519l-57 -275c-7 -33 -12 -61 -12 -85c0 -82 49 -100 111 -100c107 0 162 72 162 253c0 61 -10 127 -45 214l69 32c38 -93 51 -168 51 -239c0 -234 -94 -330 -234 -330c-110 0 -161 50 -162 141c-40 -96 -105 -141 -204 -141c-104 0 -164 48 -164 165
c0 101 35 229 185 405l56 -39c-141 -174 -165 -279 -165 -357c0 -77 36 -104 106 -104c73 0 139 31 171 185l58 275h74z" />
    <glyph glyph-name="iotadieresis" unicode="&#x3ca;" horiz-adv-x="238" 
d="M49 610l21 100h66l-22 -100h-65zM223 610l21 100h66l-21 -100h-66zM2 0l117 552h75l-116 -552h-76z" />
    <glyph glyph-name="iotadieresistonos" unicode="&#x390;" horiz-adv-x="238" 
d="M15 610l22 100h58l-22 -100h-58zM269 610l21 100h59l-22 -100h-58zM120 610l90 155h68l-107 -155h-51zM2 0l117 552h75l-116 -552h-76z" />
    <glyph glyph-name="upsilondieresis" unicode="&#x3cb;" horiz-adv-x="594" 
d="M209 610l21 102h70l-21 -102h-70zM405 610l21 102h70l-21 -102h-70zM251 -11c-236 0 -235 114 -205 260l64 303h76l-65 -311c-23 -103 -33 -182 135 -182c122 0 137 62 158 158l71 335h74l-72 -340c-32 -150 -65 -223 -236 -223z" />
    <glyph glyph-name="upsilondieresistonos" unicode="&#x3b0;" horiz-adv-x="594" 
d="M190 610l22 100h58l-22 -100h-58zM444 610l21 100h59l-22 -100h-58zM295 610l90 155h68l-107 -155h-51zM251 -11c-236 0 -235 114 -205 260l64 303h76l-65 -311c-23 -103 -33 -182 135 -182c122 0 137 62 158 158l71 335h74l-72 -340c-32 -150 -65 -223 -236 -223z" />
    <glyph glyph-name="omegatonos" unicode="&#x3ce;" horiz-adv-x="858" 
d="M448 610l97 155h74l-111 -155h-60zM501 519l-57 -275c-7 -33 -12 -61 -12 -85c0 -82 49 -100 111 -100c107 0 162 72 162 253c0 61 -10 127 -45 214l69 32c38 -93 51 -168 51 -239c0 -234 -94 -330 -234 -330c-110 0 -161 50 -162 141c-40 -96 -105 -141 -204 -141
c-104 0 -164 48 -164 165c0 101 35 229 185 405l56 -39c-141 -174 -165 -279 -165 -357c0 -77 36 -104 106 -104c73 0 139 31 171 185l58 275h74z" />
    <glyph glyph-name="omicrontonos" unicode="&#x3cc;" horiz-adv-x="611" 
d="M295 610l97 155h74l-111 -155h-60zM251 -11c-166 0 -234 81 -234 209c0 32 5 67 12 105c41 190 136 262 290 262c167 0 235 -81 235 -209c0 -32 -5 -68 -12 -106c-40 -189 -137 -261 -291 -261zM254 58c116 0 182 60 212 200c7 31 10 62 10 88c0 90 -45 147 -161 147
c-117 0 -181 -62 -211 -203c-7 -30 -10 -60 -10 -89c0 -88 45 -143 160 -143z" />
    <glyph glyph-name="longs" unicode="&#x17f;" horiz-adv-x="384" 
d="M53 0l130 611c23 108 69 172 201 172c14 0 53 0 60 -1l-14 -64h-52c-78 0 -106 -46 -120 -106l-130 -612h-75z" />
    <glyph glyph-name="litre" unicode="&#x2113;" horiz-adv-x="535" 
d="M239 330l-37 -174c-3 -18 -6 -32 -6 -51c0 -32 15 -49 57 -49c60 0 93 33 115 55l26 -41c-32 -29 -82 -80 -172 -80c-69 0 -106 24 -106 92c0 17 3 41 9 67l23 108l-80 -64l-25 43l121 97l48 227c26 122 74 182 164 182c63 0 93 -39 93 -99c0 -106 -78 -188 -182 -274z
M255 407l17 13c94 76 143 143 143 218c0 30 -13 50 -40 50c-39 0 -66 -26 -87 -128c0 0 -15 -71 -33 -153z" />
    <glyph glyph-name="aringacute.alt" horiz-adv-x="634" 
d="M341 883l165 138h95l-184 -138h-76zM383 602c-81 0 -113 44 -113 98c0 89 56 148 135 148c78 0 111 -48 111 -104c0 -91 -58 -142 -133 -142zM384 647c50 0 86 34 86 93c0 34 -18 63 -67 63c-51 0 -88 -40 -88 -98c0 -33 22 -58 69 -58zM222 -9c-154 0 -206 81 -206 198
c0 36 5 76 15 117c37 166 100 259 262 259c126 0 177 -25 201 -86l36 82l54 -5l-118 -553l-59 -5l10 57c-44 -48 -101 -64 -195 -64zM245 60c110 0 167 36 202 200c8 35 12 68 12 96c0 95 -45 137 -157 137c-114 0 -165 -63 -195 -198c-8 -35 -12 -67 -12 -96
c0 -84 37 -139 150 -139z" />
    <glyph glyph-name="gcircumflex.alt" horiz-adv-x="639" 
d="M186 610l178 156h85l112 -156h-74l-89 107l-136 -107h-76zM233 -179c-128 0 -216 29 -261 50l36 65c40 -20 121 -45 225 -45c123 0 145 38 170 144l3 13c-41 -43 -96 -57 -184 -57c-146 0 -206 73 -206 198c0 38 6 80 15 119c39 168 101 257 262 257
c130 0 185 -30 207 -85l36 81l54 -5l-107 -503c-34 -159 -65 -232 -250 -232zM245 60c114 0 173 38 208 200c8 35 12 68 12 96c0 97 -49 137 -163 137c-113 0 -165 -61 -195 -198c-8 -35 -12 -63 -12 -96c0 -86 38 -139 150 -139z" />
    <glyph glyph-name="gdotaccent.alt" horiz-adv-x="639" 
d="M233 -179c-128 0 -216 29 -261 50l36 65c40 -20 121 -45 225 -45c123 0 145 38 170 144l3 13c-41 -43 -96 -57 -184 -57c-146 0 -206 73 -206 198c0 38 6 80 15 119c39 168 101 257 262 257c130 0 185 -30 207 -85l36 81l54 -5l-107 -503c-34 -159 -65 -232 -250 -232z
M245 60c114 0 173 38 208 200c8 35 12 68 12 96c0 97 -49 137 -163 137c-113 0 -165 -61 -195 -198c-8 -35 -12 -63 -12 -96c0 -86 38 -139 150 -139zM332 610l23 107h76l-22 -107h-77z" />
    <glyph glyph-name="ldot.alt" horiz-adv-x="488" 
d="M2 0l165 776h76l-165 -776h-76zM291 274l23 113h100l-23 -113h-100z" />
    <glyph glyph-name="ubreve.alt" horiz-adv-x="611" 
d="M210 -11c-207 0 -196 107 -167 244l67 319h76l-67 -315c-21 -98 -39 -178 117 -178c121 0 160 77 180 173l68 320h76l-117 -549l-59 -5l7 54c-30 -33 -82 -63 -181 -63zM364 602c-137 0 -161 72 -162 152l61 9c0 -56 12 -98 103 -98c90 0 119 42 142 98l56 -12
c-28 -80 -80 -149 -200 -149z" />
    <glyph glyph-name="utilde.alt" horiz-adv-x="611" 
d="M210 -11c-207 0 -196 107 -167 244l67 319h76l-67 -315c-21 -98 -39 -178 117 -178c121 0 160 77 180 173l68 320h76l-117 -549l-59 -5l7 54c-30 -33 -82 -63 -181 -63zM442 613c-66 0 -94 49 -144 49c-30 0 -56 -22 -78 -46l-41 40c34 40 74 69 122 69
c66 0 95 -48 144 -48c26 0 47 19 75 50l41 -39c-41 -48 -77 -75 -119 -75z" />
    <glyph glyph-name="estimated" unicode="&#x212e;" horiz-adv-x="656" 
d="M594 289h-441c0 -97 0 -143 21 -178c29 -48 84 -78 158 -78c92 0 164 39 205 94h12l26 -31c-55 -68 -147 -108 -247 -108c-196 0 -298 128 -298 305c0 170 105 301 291 301c187 0 273 -159 273 -268v-37zM153 328h308c-5 153 2 227 -154 227c-138 0 -160 -56 -154 -227z
" />
    <glyph glyph-name="uni1EA0" unicode="&#x1ea0;" horiz-adv-x="703" 
d="M-54 0l445 746h77l127 -746h-77l-29 171h-358l-101 -171h-84zM171 243h308l-69 402zM201 -175l23 107h76l-22 -107h-77z" />
    <glyph glyph-name="uni1EA1" unicode="&#x1ea1;" horiz-adv-x="603" 
d="M180 -10c-144 0 -184 58 -185 143c0 182 124 225 358 225h72c4 22 7 43 7 62c0 50 -29 74 -134 74c-51 0 -117 -17 -153 -37l-31 62c42 25 120 46 196 46c205 0 216 -79 182 -237l-42 -194c-12 -57 -11 -68 43 -67l-13 -66c-4 -2 -19 -2 -32 -2c-29 1 -47 6 -58 21
c-7 9 -10 22 -11 40c-40 -47 -105 -70 -199 -70zM197 55c121 0 175 55 205 194l8 40h-66c-195 0 -273 -20 -273 -149c0 -51 28 -85 126 -85zM153 -175l23 107h76l-22 -107h-77z" />
    <glyph glyph-name="uni1EA2" unicode="&#x1ea2;" horiz-adv-x="703" 
d="M-54 0l445 746h77l127 -746h-77l-29 171h-358l-101 -171h-84zM171 243h308l-69 402zM459 771h-55c12 66 19 87 74 108c44 19 54 27 55 50c2 21 -7 34 -57 34c-30 -1 -61 -7 -91 -20l-18 47c34 16 81 23 115 23c81 0 111 -26 108 -78c-2 -48 -23 -70 -83 -94
c-32 -13 -40 -18 -48 -70z" />
    <glyph glyph-name="uni1EA3" unicode="&#x1ea3;" horiz-adv-x="603" 
d="M180 -10c-144 0 -184 58 -185 143c0 182 124 225 358 225h72c4 22 7 43 7 62c0 50 -29 74 -134 74c-51 0 -117 -17 -153 -37l-31 62c42 25 120 46 196 46c205 0 216 -79 182 -237l-42 -194c-12 -57 -11 -68 43 -67l-13 -66c-4 -2 -19 -2 -32 -2c-29 1 -47 6 -58 21
c-7 9 -10 22 -11 40c-40 -47 -105 -70 -199 -70zM197 55c121 0 175 55 205 194l8 40h-66c-195 0 -273 -20 -273 -149c0 -51 28 -85 126 -85zM353 598h-55c12 66 19 87 74 108c44 19 54 27 55 50c2 21 -7 34 -57 34c-30 -1 -61 -7 -91 -20l-18 47c34 16 81 23 115 23
c81 0 111 -26 108 -78c-2 -48 -23 -70 -83 -94c-32 -13 -40 -18 -48 -70z" />
    <glyph glyph-name="uni1EA4" unicode="&#x1ea4;" horiz-adv-x="703" 
d="M-54 0l445 746h77l127 -746h-77l-29 171h-358l-101 -171h-84zM171 243h308l-69 402zM250 785l179 155h84l112 -155h-74l-89 108l-136 -108h-76zM160 865l183 156h96l-205 -156h-74z" />
    <glyph glyph-name="uni1EA5" unicode="&#x1ea5;" horiz-adv-x="603" 
d="M180 -10c-144 0 -184 58 -185 143c0 182 124 225 358 225h72c4 22 7 43 7 62c0 50 -29 74 -134 74c-51 0 -117 -17 -153 -37l-31 62c42 25 120 46 196 46c205 0 216 -79 182 -237l-42 -194c-12 -57 -11 -68 43 -67l-13 -66c-4 -2 -19 -2 -32 -2c-29 1 -47 6 -58 21
c-7 9 -10 22 -11 40c-40 -47 -105 -70 -199 -70zM197 55c121 0 175 55 205 194l8 40h-66c-195 0 -273 -20 -273 -149c0 -51 28 -85 126 -85zM165 610l179 155h84l112 -155h-74l-89 108l-136 -108h-76zM75 690l183 156h96l-205 -156h-74z" />
    <glyph glyph-name="uni1EA6" unicode="&#x1ea6;" horiz-adv-x="703" 
d="M-54 0l445 746h77l127 -746h-77l-29 171h-358l-101 -171h-84zM171 243h308l-69 402zM250 785l179 155h84l112 -155h-74l-89 108l-135 -108h-77zM685 865l-138 156h89l116 -156h-67z" />
    <glyph glyph-name="uni1EA7" unicode="&#x1ea7;" horiz-adv-x="603" 
d="M180 -10c-144 0 -184 58 -185 143c0 182 124 225 358 225h72c4 22 7 43 7 62c0 50 -29 74 -134 74c-51 0 -117 -17 -153 -37l-31 62c42 25 120 46 196 46c205 0 216 -79 182 -237l-42 -194c-12 -57 -11 -68 43 -67l-13 -66c-4 -2 -19 -2 -32 -2c-29 1 -47 6 -58 21
c-7 9 -10 22 -11 40c-40 -47 -105 -70 -199 -70zM197 55c121 0 175 55 205 194l8 40h-66c-195 0 -273 -20 -273 -149c0 -51 28 -85 126 -85zM166 610l179 155h84l112 -155h-74l-89 108l-135 -108h-77zM601 690l-138 156h89l116 -156h-67z" />
    <glyph glyph-name="uni1EA8" unicode="&#x1ea8;" horiz-adv-x="703" 
d="M-54 0l445 746h77l127 -746h-77l-29 171h-358l-101 -171h-84zM171 243h308l-69 402zM249 785l179 155h85l112 -155h-75l-89 108l-135 -108h-77zM501 967h-55c12 66 20 87 74 108c45 20 54 28 56 50c1 21 -7 35 -58 35c-30 -1 -60 -7 -91 -21l-18 47c34 16 81 23 115 23
c82 0 111 -26 108 -77c-1 -48 -23 -71 -83 -95c-32 -12 -40 -18 -48 -70z" />
    <glyph glyph-name="uni1EA9" unicode="&#x1ea9;" horiz-adv-x="603" 
d="M180 -10c-144 0 -184 58 -185 143c0 182 124 225 358 225h72c4 22 7 43 7 62c0 50 -29 74 -134 74c-51 0 -117 -17 -153 -37l-31 62c42 25 120 46 196 46c205 0 216 -79 182 -237l-42 -194c-12 -57 -11 -68 43 -67l-13 -66c-4 -2 -19 -2 -32 -2c-29 1 -47 6 -58 21
c-7 9 -10 22 -11 40c-40 -47 -105 -70 -199 -70zM197 55c121 0 175 55 205 194l8 40h-66c-195 0 -273 -20 -273 -149c0 -51 28 -85 126 -85zM165 610l179 155h85l112 -155h-75l-89 108l-135 -108h-77zM417 792h-55c12 66 20 87 74 108c45 20 54 28 56 50c1 21 -7 35 -58 35
c-30 -1 -60 -7 -91 -21l-18 47c34 16 81 23 115 23c82 0 111 -26 108 -77c-1 -48 -23 -71 -83 -95c-32 -12 -40 -18 -48 -70z" />
    <glyph glyph-name="uni1EAA" unicode="&#x1eaa;" horiz-adv-x="703" 
d="M-54 0l445 746h77l127 -746h-77l-29 171h-358l-101 -171h-84zM171 243h308l-69 402zM249 785l179 155h85l112 -155h-74l-89 108l-136 -108h-77zM552 971c-65 0 -94 49 -143 49c-32 0 -57 -22 -79 -45l-41 38c34 38 75 68 121 68c67 0 96 -49 144 -49c26 0 49 20 76 51
l41 -38c-41 -47 -78 -74 -119 -74z" />
    <glyph glyph-name="uni1EAB" unicode="&#x1eab;" horiz-adv-x="603" 
d="M180 -10c-144 0 -184 58 -185 143c0 182 124 225 358 225h72c4 22 7 43 7 62c0 50 -29 74 -134 74c-51 0 -117 -17 -153 -37l-31 62c42 25 120 46 196 46c205 0 216 -79 182 -237l-42 -194c-12 -57 -11 -68 43 -67l-13 -66c-4 -2 -19 -2 -32 -2c-29 1 -47 6 -58 21
c-7 9 -10 22 -11 40c-40 -47 -105 -70 -199 -70zM197 55c121 0 175 55 205 194l8 40h-66c-195 0 -273 -20 -273 -149c0 -51 28 -85 126 -85zM164 610l179 155h85l112 -155h-74l-89 108l-136 -108h-77zM467 796c-65 0 -94 49 -143 49c-32 0 -57 -22 -79 -45l-41 38
c34 38 75 68 121 68c67 0 96 -49 144 -49c26 0 49 20 76 51l41 -38c-41 -47 -78 -74 -119 -74z" />
    <glyph glyph-name="uni1EAC" unicode="&#x1eac;" horiz-adv-x="703" 
d="M-54 0l445 746h77l127 -746h-77l-29 171h-358l-101 -171h-84zM171 243h308l-69 402zM250 785l178 156h85l112 -156h-74l-89 107l-136 -107h-76zM201 -175l23 107h76l-22 -107h-77z" />
    <glyph glyph-name="uni1EAD" unicode="&#x1ead;" horiz-adv-x="603" 
d="M180 -10c-144 0 -184 58 -185 143c0 182 124 225 358 225h72c4 22 7 43 7 62c0 50 -29 74 -134 74c-51 0 -117 -17 -153 -37l-31 62c42 25 120 46 196 46c205 0 216 -79 182 -237l-42 -194c-12 -57 -11 -68 43 -67l-13 -66c-4 -2 -19 -2 -32 -2c-29 1 -47 6 -58 21
c-7 9 -10 22 -11 40c-40 -47 -105 -70 -199 -70zM197 55c121 0 175 55 205 194l8 40h-66c-195 0 -273 -20 -273 -149c0 -51 28 -85 126 -85zM166 610l178 156h85l112 -156h-74l-89 107l-136 -107h-76zM153 -175l23 107h76l-22 -107h-77z" />
    <glyph glyph-name="uni1EAE" unicode="&#x1eae;" horiz-adv-x="703" 
d="M-54 0l445 746h77l127 -746h-77l-29 171h-358l-101 -171h-84zM171 243h308l-69 402zM433 965l183 155h97l-205 -155h-75zM448 777c-137 0 -162 71 -162 149l60 9c1 -55 12 -98 104 -98c89 0 119 43 141 98l56 -12c-28 -77 -79 -146 -199 -146z" />
    <glyph glyph-name="uni1EAF" unicode="&#x1eaf;" horiz-adv-x="603" 
d="M180 -10c-144 0 -184 58 -185 143c0 182 124 225 358 225h72c4 22 7 43 7 62c0 50 -29 74 -134 74c-51 0 -117 -17 -153 -37l-31 62c42 25 120 46 196 46c205 0 216 -79 182 -237l-42 -194c-12 -57 -11 -68 43 -67l-13 -66c-4 -2 -19 -2 -32 -2c-29 1 -47 6 -58 21
c-7 9 -10 22 -11 40c-40 -47 -105 -70 -199 -70zM197 55c121 0 175 55 205 194l8 40h-66c-195 0 -273 -20 -273 -149c0 -51 28 -85 126 -85zM355 602c-137 0 -162 71 -162 149l60 9c1 -55 12 -98 104 -98c89 0 119 43 141 98l56 -12c-28 -77 -79 -146 -199 -146zM340 790
l183 155h97l-205 -155h-75z" />
    <glyph glyph-name="uni1EB0" unicode="&#x1eb0;" horiz-adv-x="703" 
d="M-54 0l445 746h77l127 -746h-77l-29 171h-358l-101 -171h-84zM171 243h308l-69 402zM453 965l-138 155h89l116 -155h-67zM448 777c-137 0 -162 71 -162 149l60 9c1 -55 12 -98 104 -98c89 0 119 43 141 98l56 -12c-28 -77 -79 -146 -199 -146z" />
    <glyph glyph-name="uni1EB1" unicode="&#x1eb1;" horiz-adv-x="603" 
d="M180 -10c-144 0 -184 58 -185 143c0 182 124 225 358 225h72c4 22 7 43 7 62c0 50 -29 74 -134 74c-51 0 -117 -17 -153 -37l-31 62c42 25 120 46 196 46c205 0 216 -79 182 -237l-42 -194c-12 -57 -11 -68 43 -67l-13 -66c-4 -2 -19 -2 -32 -2c-29 1 -47 6 -58 21
c-7 9 -10 22 -11 40c-40 -47 -105 -70 -199 -70zM197 55c121 0 175 55 205 194l8 40h-66c-195 0 -273 -20 -273 -149c0 -51 28 -85 126 -85zM355 602c-137 0 -162 71 -162 149l60 9c1 -55 12 -98 104 -98c89 0 119 43 141 98l56 -12c-28 -77 -79 -146 -199 -146zM360 790
l-138 155h89l116 -155h-67z" />
    <glyph glyph-name="uni1EB2" unicode="&#x1eb2;" horiz-adv-x="703" 
d="M-54 0l445 746h77l127 -746h-77l-29 171h-358l-101 -171h-84zM171 243h308l-69 402zM448 777c-137 0 -162 71 -162 149l60 9c1 -55 12 -98 105 -98c88 0 118 43 140 98l56 -12c-28 -77 -78 -146 -199 -146zM495 947h-54c11 66 19 87 73 108c45 20 54 28 56 50
c2 21 -7 34 -58 34c-30 0 -60 -6 -91 -19l-18 46c35 16 81 24 115 24c82 0 112 -27 109 -79c-2 -47 -24 -70 -83 -93c-33 -13 -41 -19 -49 -71z" />
    <glyph glyph-name="uni1EB3" unicode="&#x1eb3;" horiz-adv-x="603" 
d="M180 -10c-144 0 -184 58 -185 143c0 182 124 225 358 225h72c4 22 7 43 7 62c0 50 -29 74 -134 74c-51 0 -117 -17 -153 -37l-31 62c42 25 120 46 196 46c205 0 216 -79 182 -237l-42 -194c-12 -57 -11 -68 43 -67l-13 -66c-4 -2 -19 -2 -32 -2c-29 1 -47 6 -58 21
c-7 9 -10 22 -11 40c-40 -47 -105 -70 -199 -70zM197 55c121 0 175 55 205 194l8 40h-66c-195 0 -273 -20 -273 -149c0 -51 28 -85 126 -85zM355 602c-137 0 -162 71 -162 149l60 9c1 -55 12 -98 105 -98c88 0 118 43 140 98l56 -12c-28 -77 -78 -146 -199 -146zM402 772
h-54c11 66 19 87 73 108c45 20 54 28 56 50c2 21 -7 34 -58 34c-30 0 -60 -6 -91 -19l-18 46c35 16 81 24 115 24c82 0 112 -27 109 -79c-2 -47 -24 -70 -83 -93c-33 -13 -41 -19 -49 -71z" />
    <glyph glyph-name="uni1EB4" unicode="&#x1eb4;" horiz-adv-x="703" 
d="M-54 0l445 746h77l127 -746h-77l-29 171h-358l-101 -171h-84zM171 243h308l-69 402zM549 983c-65 0 -94 48 -143 48c-32 0 -57 -22 -79 -45l-41 39c34 37 74 67 121 67c66 0 96 -48 144 -48c26 0 49 19 75 51l42 -38c-41 -48 -78 -74 -119 -74zM449 777
c-138 0 -162 71 -162 149l60 9c1 -55 12 -98 104 -98c88 0 118 43 140 98l57 -12c-28 -77 -79 -146 -199 -146z" />
    <glyph glyph-name="uni1EB5" unicode="&#x1eb5;" horiz-adv-x="603" 
d="M180 -10c-144 0 -184 58 -185 143c0 182 124 225 358 225h72c4 22 7 43 7 62c0 50 -29 74 -134 74c-51 0 -117 -17 -153 -37l-31 62c42 25 120 46 196 46c205 0 216 -79 182 -237l-42 -194c-12 -57 -11 -68 43 -67l-13 -66c-4 -2 -19 -2 -32 -2c-29 1 -47 6 -58 21
c-7 9 -10 22 -11 40c-40 -47 -105 -70 -199 -70zM197 55c121 0 175 55 205 194l8 40h-66c-195 0 -273 -20 -273 -149c0 -51 28 -85 126 -85zM356 602c-138 0 -162 71 -162 149l60 9c1 -55 12 -98 104 -98c88 0 118 43 140 98l57 -12c-28 -77 -79 -146 -199 -146zM456 808
c-65 0 -94 48 -143 48c-32 0 -57 -22 -79 -45l-41 39c34 37 74 67 121 67c66 0 96 -48 144 -48c26 0 49 19 75 51l42 -38c-41 -48 -78 -74 -119 -74z" />
    <glyph glyph-name="uni1EB6" unicode="&#x1eb6;" horiz-adv-x="703" 
d="M-54 0l445 746h77l127 -746h-77l-29 171h-358l-101 -171h-84zM171 243h308l-69 402zM201 -175l23 107h76l-22 -107h-77zM448 777c-137 0 -161 72 -162 152l61 9c0 -56 12 -98 103 -98c90 0 119 42 142 98l56 -12c-28 -80 -80 -149 -200 -149z" />
    </font>
</defs>
</svg>
