<?xml version="1.0" standalone="no"?>
<!DOCTYPE svg PUBLIC "-//W3C//DTD SVG 1.1//EN" "http://www.w3.org/Graphics/SVG/1.1/DTD/svg11.dtd" >
<svg>
<metadata>
Created by FontForge 20110222 at Thu Apr 17 08:05:11 2014
 By Orthosie Webhosting
Copyright (c) The Font Bureau, Inc., 2006. All rights reserved.
</metadata>
<defs>
<font id="FordAntenna-SemiboldItalic" horiz-adv-x="626" >
  <font-face 
    font-family="Ford Antenna Semibold"
    font-weight="400"
    font-style="italic"
    font-stretch="normal"
    units-per-em="1000"
    panose-1="2 0 5 3 0 0 0 9 0 4"
    ascent="800"
    descent="-200"
    x-height="563"
    cap-height="741"
    bbox="-146 -312 1607 1252"
    underline-thickness="50"
    underline-position="-50"
    slope="12"
    unicode-range="U+0020-FB02"
  />
<missing-glyph horiz-adv-x="500" 
d="M0 0v700h500v-700h-500zM50 650v-600h400v600h-400z" />
    <glyph glyph-name="fi" unicode="fi" horiz-adv-x="674" 
d="M42 443l26 120h106l11 52c26 123 81 177 231 177c26 0 51 -1 62 -2l-23 -114h-36c-71 0 -90 -27 -100 -75l-8 -38h119l-24 -120h-121l-129 -608h-137l129 608h-106zM388 0l119 563h137l-120 -563h-136zM520 620l28 135h137l-28 -135h-137z" />
    <glyph glyph-name="fl" unicode="fl" horiz-adv-x="724" 
d="M42 443l26 120h106l11 52c26 123 81 177 231 177c23 0 47 -1 62 -2l-23 -114h-36c-71 0 -90 -27 -100 -75l-8 -38h119l-24 -120h-121l-129 -608h-137l129 608h-106zM536 -2c-109 0 -137 55 -110 183l127 595h136l-127 -597c-10 -47 -5 -62 44 -62h21l-25 -115
c-12 -2 -39 -4 -66 -4z" />
    <glyph glyph-name="f_f" unicode="ff" horiz-adv-x="759" 
d="M352 -165l129 608h-196l-129 -608h-137l129 608h-106l26 120h106l11 52c26 123 81 177 231 177c40 0 47 -1 62 -2l-23 -114h-36c-71 0 -90 -27 -100 -75l-8 -38h196l11 52c27 123 82 177 232 177c38 0 59 -1 75 -2l-24 -114h-49c-70 0 -90 -27 -101 -75l-8 -38h133
l-25 -120h-134l-128 -608h-137z" />
    <glyph glyph-name="f_f_i" unicode="ffi" horiz-adv-x="1008" 
d="M352 -165l129 608h-196l-129 -608h-137l129 608h-106l26 120h106l11 52c26 123 81 177 231 177c40 0 47 -1 62 -2l-23 -114h-36c-71 0 -90 -27 -100 -75l-8 -38h196l11 52c27 123 82 177 232 177c22 0 47 -1 62 -2l-25 -114h-35c-70 0 -90 -27 -101 -75l-8 -38h121
l-26 -120h-121l-128 -608h-137zM721 0l120 563h136l-120 -563h-136zM852 620l28 135h139l-29 -135h-138z" />
    <glyph glyph-name="f_f_l" unicode="ffl" horiz-adv-x="1057" 
d="M352 -165l129 608h-196l-129 -608h-137l129 608h-106l26 120h106l11 52c26 123 81 177 231 177c40 0 47 -1 62 -2l-23 -114h-36c-71 0 -90 -27 -100 -75l-8 -38h196l11 52c27 123 82 177 232 177c14 0 47 -1 62 -2l-25 -114h-35c-70 0 -90 -27 -101 -75l-8 -38h121
l-26 -120h-121l-128 -608h-137zM869 -2c-109 0 -137 55 -111 183l128 595h136l-127 -597c-10 -47 -5 -62 44 -62h20l-24 -115c-11 -2 -40 -4 -66 -4z" />
    <glyph glyph-name="f_j" unicode="fj" horiz-adv-x="674" 
d="M42 443l26 120h106l11 52c26 123 81 177 231 177c23 0 47 -1 62 -2l-23 -114h-36c-71 0 -90 -27 -100 -75l-8 -38h119l-24 -120h-121l-129 -608h-137l129 608h-106zM285 -169l22 107h10c52 0 60 15 74 76l116 549h137l-120 -564c-30 -144 -71 -168 -187 -168h-52z
M520 620l28 135h137l-28 -135h-137z" />
    <glyph glyph-name="f_t" unicode="ft" horiz-adv-x="766" 
d="M42 443l26 120h106l11 52c26 123 81 177 231 177c25 0 51 -1 65 -2l-23 -114h-39c-71 0 -90 -27 -100 -75l-8 -38h189l55 144l110 22l-35 -166h132l-26 -120h-132l-53 -254c-11 -46 -10 -72 60 -72h55l-25 -117c-18 -2 -56 -2 -80 -2c-153 0 -173 68 -148 187l55 258
h-183l-129 -608h-137l129 608h-106z" />
    <glyph glyph-name=".notdef" horiz-adv-x="500" 
d="M0 0v700h500v-700h-500zM50 650v-600h400v600h-400z" />
    <glyph glyph-name="space" unicode=" " horiz-adv-x="220" 
 />
    <glyph glyph-name="Eth" unicode="&#xd0;" horiz-adv-x="765" 
d="M-11 319l25 115h77l66 307h184c285 0 399 -78 399 -264c0 -44 -5 -92 -18 -148c-61 -287 -201 -329 -416 -329h-308l68 319h-77zM168 128h141c167 0 231 40 270 219c9 41 14 77 14 109c0 105 -61 154 -253 154h-68l-38 -176h145l-25 -115h-145z" />
    <glyph glyph-name="eth" unicode="&#xf0;" horiz-adv-x="635" 
d="M318 569l21 104l58 12c-12 21 -26 42 -42 64l140 46c18 -23 34 -49 48 -79l155 33l-20 -105l-101 -21c14 -53 23 -113 23 -177c0 -69 -8 -138 -24 -206c-48 -190 -140 -251 -301 -251c-195 0 -267 91 -267 221c0 35 4 69 11 102c35 152 115 236 269 236
c93 0 137 -14 167 -48c0 33 -5 64 -15 94zM275 109c97 0 139 45 162 143c5 24 8 46 8 66c0 64 -32 107 -125 107c-99 0 -141 -47 -163 -144c-6 -24 -9 -47 -9 -68c0 -62 33 -104 127 -104z" />
    <glyph glyph-name="Lslash" unicode="&#x141;" horiz-adv-x="602" 
d="M-21 268l25 119l87 43l66 311h143l-50 -232l162 80l-26 -119l-162 -80l-56 -263h364l-26 -127h-507l66 311z" />
    <glyph glyph-name="lslash" unicode="&#x142;" horiz-adv-x="392" 
d="M17 339l25 116l101 52l58 269h137l-40 -189l107 55l-25 -116l-107 -56l-63 -293c-11 -48 -5 -62 44 -62h20l-24 -113c-11 -2 -40 -4 -65 -4c-110 0 -138 55 -111 181l45 212z" />
    <glyph glyph-name="Scaron" unicode="&#x160;" horiz-adv-x="712" 
d="M370 782l-112 177h126l75 -90l113 90h130l-188 -177h-144zM324 -11c-170 0 -283 49 -361 108l92 102c69 -54 160 -88 276 -88c96 0 161 20 161 97c0 67 -53 76 -168 108c-131 37 -230 69 -230 204c0 180 135 233 288 233c172 0 262 -48 311 -86l-93 -108
c-42 33 -116 67 -223 67c-85 0 -138 -21 -138 -93c0 -57 59 -74 149 -96c138 -35 250 -69 250 -200c0 -180 -127 -248 -314 -248z" />
    <glyph glyph-name="scaron" unicode="&#x161;" horiz-adv-x="541" 
d="M252 618l-112 177h126l75 -90l113 90h130l-188 -177h-144zM227 -10c-111 0 -207 36 -269 89l86 95c50 -39 127 -69 196 -69c57 0 94 7 94 60c0 39 -53 51 -111 66c-78 20 -173 47 -173 151c0 142 98 194 241 194c106 0 185 -31 234 -65l-86 -105c-35 22 -84 48 -161 48
c-60 0 -87 -13 -87 -54c0 -36 44 -48 106 -64c86 -24 175 -50 175 -155c0 -146 -102 -191 -245 -191z" />
    <glyph glyph-name="Yacute" unicode="&#xdd;" horiz-adv-x="725" 
d="M211 0l59 274l-182 467h149l129 -333l270 333h157l-382 -470l-57 -271h-143zM350 782l181 177h170l-224 -177h-127z" />
    <glyph glyph-name="yacute" unicode="&#xfd;" horiz-adv-x="551" 
d="M35 -170c-29 0 -57 1 -72 2l21 106h43c60 0 67 9 87 46l19 33l-88 546h144l50 -369l205 369h144l-353 -605c-57 -100 -94 -128 -200 -128zM231 618l181 177h170l-224 -177h-127z" />
    <glyph glyph-name="Thorn" unicode="&#xde;" horiz-adv-x="727" 
d="M-2 0l159 741h139l-23 -104h154c213 0 279 -82 279 -189c0 -179 -85 -307 -302 -307h-236l-30 -141h-140zM193 261h208c100 0 157 47 157 157c0 62 -41 94 -150 94h-161z" />
    <glyph glyph-name="thorn" unicode="&#xfe;" horiz-adv-x="653" 
d="M-48 -165l201 941h135l-53 -249c26 26 71 49 166 49c158 0 209 -89 209 -204c0 -36 -5 -76 -14 -116c-35 -162 -104 -265 -272 -265c-122 0 -169 24 -189 62l-46 -218h-137zM304 110c96 0 130 56 153 157c6 28 10 53 10 77c0 62 -28 105 -118 105
c-92 0 -138 -34 -164 -155c-7 -28 -10 -54 -10 -77c0 -70 36 -107 129 -107z" />
    <glyph glyph-name="Zcaron" unicode="&#x17d;" horiz-adv-x="665" 
d="M347 782l-112 177h126l75 -90l113 90h130l-188 -177h-144zM-44 0l24 109l502 500h-378l27 132h565l-24 -119l-497 -495h400l-26 -127h-593z" />
    <glyph glyph-name="zcaron" unicode="&#x17e;" horiz-adv-x="511" 
d="M238 618l-112 177h126l75 -90l113 90h130l-188 -177h-144zM-56 0l20 95l348 348h-256l25 120h439l-20 -96l-349 -354h285l-24 -113h-468z" />
    <glyph glyph-name="onehalf" unicode="&#xbd;" horiz-adv-x="1056" 
d="M105 262l82 385h-85l20 94h196l-102 -479h-111zM118 0l572 741h119l-570 -741h-121zM557 0l15 77l184 138c100 76 116 90 116 138c0 29 -24 42 -78 42c-32 0 -82 -9 -116 -22l-31 84c44 18 99 31 157 31c117 0 180 -43 180 -115c0 -95 -37 -129 -138 -204l-106 -81h186
l-17 -88h-352z" />
    <glyph glyph-name="onequarter" unicode="&#xbc;" horiz-adv-x="994" 
d="M487 93l17 79l276 308h117l-272 -303h115l44 121h81l-26 -121h76l-18 -84h-76l-19 -93h-101l20 93h-234zM118 0l572 741h119l-570 -741h-121zM105 262l82 385h-85l20 94h196l-102 -479h-111z" />
    <glyph glyph-name="onesuperior" unicode="&#xb9;" horiz-adv-x="368" 
d="M123 262l82 385h-85l20 94h196l-102 -479h-111z" />
    <glyph glyph-name="threequarters" unicode="&#xbe;" horiz-adv-x="1125" 
d="M244 256c-96 0 -162 23 -212 59l59 76c43 -30 90 -48 150 -48c52 0 85 24 85 82c0 34 -19 53 -83 53h-76l18 86h93c51 0 76 11 76 58c0 27 -21 39 -75 39c-30 0 -84 -6 -119 -24l-37 80c51 29 131 34 177 34c108 0 167 -36 167 -103c0 -80 -33 -112 -81 -128
c32 -14 48 -45 48 -94c0 -125 -82 -170 -190 -170zM619 93l17 79l275 308h118l-272 -303h114l45 121h81l-26 -121h76l-19 -84h-75l-19 -93h-101l19 93h-233zM249 0l572 741h120l-572 -741h-120z" />
    <glyph glyph-name="threesuperior" unicode="&#xb3;" horiz-adv-x="499" 
d="M251 254c-95 0 -162 23 -212 59l60 76c43 -29 89 -49 149 -49c53 0 85 25 85 83c0 34 -19 50 -83 50h-76l19 90h93c51 0 76 10 76 57c0 27 -22 40 -76 40c-30 0 -83 -7 -119 -25l-38 80c52 29 133 34 178 34c109 0 168 -37 168 -103c0 -80 -34 -112 -82 -128
c32 -15 48 -45 48 -94c0 -126 -81 -170 -190 -170z" />
    <glyph glyph-name="twosuperior" unicode="&#xb2;" horiz-adv-x="499" 
d="M46 262l16 76l183 138c100 76 117 89 117 139c0 28 -24 40 -78 40c-32 0 -82 -7 -115 -21l-32 84c45 19 98 30 156 30c123 0 180 -38 180 -113c0 -95 -33 -125 -141 -205l-107 -81h191l-18 -87h-352z" />
    <glyph glyph-name="brokenbar" unicode="&#xa6;" horiz-adv-x="365" 
d="M113 -165v392h138v-392h-138zM113 384v392h138v-392h-138z" />
    <glyph glyph-name="minus" unicode="&#x2212;" horiz-adv-x="716" 
d="M79 290l27 126h523l-26 -126h-524z" />
    <glyph glyph-name="multiply" unicode="&#xd7;" horiz-adv-x="716" 
d="M151 115l-64 86l184 151l-120 152l102 85l120 -151l183 151l64 -86l-183 -151l119 -151l-101 -86l-119 152z" />
    <glyph glyph-name="exclam" unicode="!" horiz-adv-x="391" 
d="M36 0l33 162h163l-34 -162h-162zM103 227l97 514h150l-124 -514h-123z" />
    <glyph glyph-name="quotedbl" unicode="&#x22;" horiz-adv-x="553" 
d="M107 411l61 330h142l-79 -330h-124zM342 411l60 330h143l-80 -330h-123z" />
    <glyph glyph-name="numbersign" unicode="#" horiz-adv-x="760" 
d="M114 0l39 188h-130l25 121h131l22 103h-131l26 123h130l43 206h131l-43 -206h113l44 206h131l-44 -206h137l-25 -123h-136l-22 -103h136l-26 -121h-135l-41 -188h-131l41 188h-114l-40 -188h-131zM298 302h134l25 118h-134z" />
    <glyph glyph-name="dollar" unicode="$" horiz-adv-x="661" 
d="M171 -94l21 101c-93 13 -163 44 -213 88l79 96c62 -49 130 -80 243 -80c97 0 144 37 144 115c0 56 -44 72 -138 97c-106 27 -204 64 -204 188c0 158 108 223 245 230l15 70h126l-16 -76c80 -11 132 -36 162 -61l-79 -102c-39 28 -106 54 -193 54c-89 0 -125 -37 -125 -99
c0 -59 52 -72 143 -98c104 -29 198 -62 198 -187c0 -153 -104 -235 -262 -242l-20 -94h-126z" />
    <glyph glyph-name="percent" unicode="%" horiz-adv-x="1173" 
d="M256 268c-136 0 -200 73 -200 183c0 191 117 302 254 302c135 0 198 -77 198 -188c0 -186 -113 -297 -252 -297zM265 373c77 0 120 86 120 187c0 50 -21 85 -83 85c-75 0 -122 -79 -122 -188c0 -50 22 -84 85 -84zM866 -11c-138 0 -200 73 -200 184
c0 190 115 302 254 302c135 0 198 -77 198 -188c0 -186 -114 -298 -252 -298zM875 94c77 0 120 88 120 187c0 51 -22 86 -83 86c-75 0 -122 -79 -122 -188c0 -51 22 -85 85 -85zM244 0l565 741h127l-565 -741h-127z" />
    <glyph glyph-name="ampersand" unicode="&#x26;" horiz-adv-x="833" 
d="M281 -10c-197 0 -284 63 -284 181c0 162 101 227 207 263c-6 29 -9 58 -9 86c0 175 104 233 212 233c124 0 181 -61 181 -154c0 -145 -96 -203 -214 -242c19 -38 42 -74 66 -102c20 -24 39 -44 57 -60c52 57 97 139 138 246l109 -36c-43 -113 -90 -204 -148 -272
c37 -13 70 -13 99 -13h22l-24 -120h-14c-77 0 -136 8 -194 40c-58 -33 -125 -50 -204 -50zM294 101c33 0 64 5 92 16c-20 20 -42 45 -64 73c-32 39 -61 87 -83 137c-59 -27 -104 -65 -104 -140c0 -46 30 -86 159 -86zM326 529c0 -23 3 -47 9 -71c81 24 130 62 130 125
c0 37 -23 55 -62 55c-48 0 -77 -31 -77 -109z" />
    <glyph glyph-name="quotesingle" unicode="'" horiz-adv-x="320" 
d="M107 411l61 331h142l-79 -331h-124z" />
    <glyph glyph-name="parenleft" unicode="(" horiz-adv-x="510" 
d="M194 -190c-57 66 -120 193 -120 361c0 273 180 530 330 627l85 -74c-140 -108 -275 -321 -275 -558c0 -132 50 -245 91 -298z" />
    <glyph glyph-name="parenright" unicode=")" horiz-adv-x="510" 
d="M79 -190l-85 73c141 108 275 321 275 558c0 132 -50 245 -91 298l111 59c57 -67 121 -193 121 -362c0 -273 -180 -530 -331 -626z" />
    <glyph glyph-name="asterisk" unicode="*" horiz-adv-x="601" 
d="M324 238l-105 23l48 164l-162 -63l-33 107l169 41l-137 108l73 83l122 -124l24 171l105 -22l-49 -167l164 65l34 -106l-171 -43l139 -107l-73 -82l-124 123z" />
    <glyph glyph-name="plus" unicode="+" horiz-adv-x="716" 
d="M233 97l41 193h-195l27 126h194l41 192h135l-40 -192h193l-26 -126h-194l-40 -193h-136z" />
    <glyph glyph-name="comma" unicode="," horiz-adv-x="280" 
d="M-15 -148l-19 68c70 28 83 41 92 80h-78l35 165h161l-28 -138c-23 -113 -54 -138 -163 -175z" />
    <glyph glyph-name="hyphen" unicode="-" horiz-adv-x="432" 
d="M19 261l27 125h347l-27 -125h-347z" />
    <glyph glyph-name="period" unicode="." horiz-adv-x="280" 
d="M-20 0l35 165h161l-34 -165h-162z" />
    <glyph glyph-name="slash" unicode="/" horiz-adv-x="554" 
d="M-82 0l573 741h146l-573 -741h-146z" />
    <glyph glyph-name="zero" unicode="0" horiz-adv-x="742" 
d="M324 -11c-197 0 -276 93 -276 254c0 47 6 100 19 159c51 244 161 351 355 351c193 0 272 -99 272 -260c0 -48 -7 -100 -19 -156c-52 -243 -163 -348 -351 -348zM334 111c115 0 166 81 200 243c11 47 17 91 17 130c0 88 -35 142 -141 142c-118 0 -167 -78 -202 -240
c-11 -50 -17 -96 -17 -135c0 -89 35 -140 143 -140z" />
    <glyph glyph-name="one" unicode="1" horiz-adv-x="405" 
d="M84 0l131 615h-130l27 126h264l-158 -741h-134z" />
    <glyph glyph-name="two" unicode="2" horiz-adv-x="611" 
d="M-44 0l23 110l287 218c148 113 185 138 185 224c0 46 -30 79 -131 79c-51 0 -127 -13 -177 -34l-43 111c67 28 149 45 237 45c179 0 254 -63 254 -173c0 -148 -59 -194 -219 -315l-197 -149h324l-23 -116h-520z" />
    <glyph glyph-name="three" unicode="3" horiz-adv-x="625" 
d="M264 -12c-148 0 -238 36 -315 90l84 101c67 -46 137 -74 233 -74c85 0 144 36 144 143c0 61 -34 90 -136 90h-111l23 118h141c83 0 128 21 128 108c0 46 -32 70 -128 70c-46 0 -126 -11 -182 -38l-54 106c78 42 191 51 261 51c166 0 246 -55 246 -157
c0 -126 -50 -179 -124 -199c47 -20 71 -71 71 -146c0 -193 -114 -263 -281 -263z" />
    <glyph glyph-name="four" unicode="4" horiz-adv-x="672" 
d="M-6 160l23 105l429 476h154l-424 -468h203l75 218h96l-46 -218h118l-23 -113h-119l-34 -160h-126l34 160h-360z" />
    <glyph glyph-name="five" unicode="5" horiz-adv-x="643" 
d="M282 -11c-141 0 -244 44 -300 89l82 101c63 -47 141 -74 231 -74c79 0 153 33 153 161c0 85 -56 112 -144 112c-41 0 -82 -10 -123 -29l-108 35l96 357h462l-26 -119h-337l-42 -152c39 17 83 23 131 23c133 0 233 -37 233 -208c0 -239 -135 -296 -308 -296z" />
    <glyph glyph-name="six" unicode="6" horiz-adv-x="699" 
d="M324 -11c-201 0 -287 93 -287 245c0 35 5 74 14 117c65 304 181 390 472 390h106l-25 -119h-87c-225 0 -272 -75 -303 -172c34 34 104 54 192 54c169 0 229 -79 229 -190c0 -201 -107 -325 -311 -325zM328 104c128 0 169 75 169 182c0 62 -35 104 -148 104
c-93 0 -174 -31 -174 -166c0 -78 50 -120 153 -120z" />
    <glyph glyph-name="seven" unicode="7" horiz-adv-x="555" 
d="M33 0l400 622h-365l25 119h519l-22 -102l-406 -639h-151z" />
    <glyph glyph-name="eight" unicode="8" horiz-adv-x="708" 
d="M307 -16c-218 0 -292 89 -292 192c0 122 57 198 169 230c-55 26 -68 79 -68 131c0 128 81 216 276 216c222 0 283 -75 283 -169s-36 -168 -126 -188c64 -28 79 -81 79 -149c0 -162 -107 -263 -321 -263zM321 98c99 0 167 41 167 145c0 61 -43 100 -161 100
c-103 0 -170 -42 -170 -148c0 -60 42 -97 164 -97zM389 450c99 0 148 29 148 112c0 48 -34 79 -143 79c-100 0 -147 -30 -147 -111c0 -48 34 -80 142 -80z" />
    <glyph glyph-name="nine" unicode="9" horiz-adv-x="699" 
d="M71 0l24 116h87c225 0 273 75 305 175c-33 -35 -104 -54 -193 -54c-169 0 -230 81 -230 191c0 201 109 325 312 325c201 0 286 -92 286 -245c0 -36 -4 -75 -13 -116c-65 -306 -182 -392 -472 -392h-106zM350 346c93 0 175 32 175 166c0 78 -50 121 -153 121
c-128 0 -169 -75 -169 -182c0 -63 34 -105 147 -105z" />
    <glyph glyph-name="colon" unicode=":" horiz-adv-x="300" 
d="M-10 0l34 160h162l-34 -160h-162zM77 403l33 160h161l-32 -160h-162z" />
    <glyph glyph-name="semicolon" unicode=";" horiz-adv-x="300" 
d="M-5 -148l-20 68c70 28 84 41 92 80h-77l34 160h162l-28 -133c-25 -116 -54 -138 -163 -175zM77 403l33 160h161l-32 -160h-162z" />
    <glyph glyph-name="less" unicode="&#x3c;" horiz-adv-x="716" 
d="M504 69l-408 229l19 97l506 227l-26 -129l-346 -149l282 -147z" />
    <glyph glyph-name="equal" unicode="=" horiz-adv-x="716" 
d="M61 172l25 125h512l-25 -125h-512zM111 409l26 124h511l-26 -124h-511z" />
    <glyph glyph-name="greater" unicode="&#x3e;" horiz-adv-x="716" 
d="M85 70l26 129l347 148l-282 148l26 127l410 -228l-20 -97z" />
    <glyph glyph-name="question" unicode="?" horiz-adv-x="685" 
d="M220 210c22 149 47 195 175 236c97 31 124 44 124 109c0 41 -28 73 -146 73c-56 0 -124 -11 -190 -34l-45 115c80 34 194 44 260 44c189 0 266 -59 266 -165c0 -130 -51 -184 -183 -229c-100 -34 -112 -53 -128 -149h-133zM162 0l30 145h163l-31 -145h-162z" />
    <glyph glyph-name="at" unicode="@" horiz-adv-x="1069" 
d="M528 -165c-309 0 -474 128 -474 457c0 333 183 462 459 462c282 0 462 -129 462 -462c0 -202 -54 -262 -194 -262c-96 0 -149 23 -164 68c-43 -44 -95 -61 -190 -61c-138 0 -189 80 -189 184c0 172 70 335 250 335c110 0 151 -22 178 -56l37 49l81 -7l-72 -335
c-17 -79 5 -106 87 -106c85 0 99 47 99 191c0 281 -140 388 -385 388c-235 0 -382 -107 -382 -388c0 -274 141 -383 396 -383c99 0 199 23 266 56l33 -66c-79 -40 -182 -64 -298 -64zM464 143c75 0 126 32 147 140c5 22 8 44 8 65c0 59 -28 96 -118 96
c-95 0 -136 -93 -136 -204c0 -58 23 -97 99 -97z" />
    <glyph glyph-name="A" unicode="A" horiz-adv-x="748" 
d="M-62 0l444 746h140l125 -746h-142l-21 132h-318l-76 -132h-152zM236 256h229l-49 308z" />
    <glyph glyph-name="B" unicode="B" horiz-adv-x="724" 
d="M-2 0l159 741h271c216 0 283 -58 283 -154c0 -122 -52 -189 -134 -206c58 -19 80 -70 80 -137c0 -192 -111 -244 -306 -244h-353zM164 122h217c84 0 132 31 132 117c0 50 -34 74 -129 74h-178zM232 440h205c92 0 123 40 123 109c0 42 -29 68 -138 68h-152z" />
    <glyph glyph-name="C" unicode="C" horiz-adv-x="733" 
d="M363 -11c-238 0 -337 114 -337 290c0 40 4 83 14 129c57 269 222 345 406 345c171 0 251 -57 298 -113l-118 -95c-37 45 -95 75 -183 75c-135 0 -226 -67 -261 -230c-7 -33 -10 -64 -10 -92c0 -109 59 -179 204 -179c79 0 133 23 182 62l84 -103
c-70 -60 -152 -89 -279 -89z" />
    <glyph glyph-name="D" unicode="D" horiz-adv-x="765" 
d="M-2 0l159 741h184c285 0 399 -78 399 -264c0 -44 -5 -92 -18 -148c-61 -287 -201 -329 -416 -329h-308zM168 128h141c167 0 231 40 270 219c9 41 14 77 14 109c0 105 -61 154 -240 154h-81z" />
    <glyph glyph-name="E" unicode="E" horiz-adv-x="662" 
d="M-1 0l158 741h527l-28 -132h-384l-37 -165h375l-27 -129h-374l-41 -188h388l-26 -127h-531z" />
    <glyph glyph-name="F" unicode="F" horiz-adv-x="619" 
d="M-1 0l158 741h504l-28 -132h-361l-39 -179h351l-27 -130h-351l-64 -300h-143z" />
    <glyph glyph-name="G" unicode="G" horiz-adv-x="781" 
d="M370 -11c-242 0 -344 109 -344 289c0 50 6 91 14 130c48 240 192 345 405 345c164 0 262 -57 306 -115l-118 -96c-31 36 -78 78 -197 78c-141 0 -224 -78 -256 -230c-6 -29 -10 -63 -10 -93c0 -116 60 -185 209 -185c136 0 177 46 204 175l3 16h-205l25 123h347l-25 -121
c-49 -242 -132 -316 -358 -316z" />
    <glyph glyph-name="H" unicode="H" horiz-adv-x="792" 
d="M-1 0l158 741h143l-63 -291h352l63 291h142l-158 -741h-142l67 314h-352l-67 -314h-143z" />
    <glyph glyph-name="I" unicode="I" horiz-adv-x="317" 
d="M9 0l158 741h142l-158 -741h-142z" />
    <glyph glyph-name="J" unicode="J" horiz-adv-x="421" 
d="M-54 0l26 127h72c82 0 116 28 133 103l109 511h142l-113 -532c-38 -179 -142 -211 -254 -211c-93 0 -83 0 -115 2z" />
    <glyph glyph-name="K" unicode="K" horiz-adv-x="726" 
d="M469 0l-142 350l-142 -135l-46 -215h-140l158 741h140l-71 -332l344 332h171l-302 -290l180 -451h-150z" />
    <glyph glyph-name="L" unicode="L" horiz-adv-x="590" 
d="M-1 0l158 741h143l-132 -614h352l-26 -127h-495z" />
    <glyph glyph-name="M" unicode="M" horiz-adv-x="942" 
d="M-1 0l158 741h186l92 -524l317 524h192l-158 -741h-139l113 527l-323 -527h-102l-96 525l-112 -525h-128z" />
    <glyph glyph-name="N" unicode="N" horiz-adv-x="791" 
d="M-1 0l158 741h154l237 -507l109 507h137l-158 -741h-131l-255 537l-115 -537h-136z" />
    <glyph glyph-name="O" unicode="O" horiz-adv-x="836" 
d="M383 -12c-223 0 -356 104 -356 302c0 37 4 77 13 122c58 274 235 341 415 341c221 0 354 -102 354 -299c0 -37 -4 -77 -13 -120c-60 -276 -235 -346 -413 -346zM385 117c146 0 232 71 266 228c7 32 11 61 11 90c0 110 -61 185 -214 185c-146 0 -232 -72 -265 -227
c-7 -31 -10 -61 -10 -90c0 -110 60 -186 212 -186z" />
    <glyph glyph-name="P" unicode="P" horiz-adv-x="727" 
d="M-2 0l159 741h292c213 0 279 -82 279 -189c0 -179 -85 -313 -301 -313h-237l-52 -239h-140zM215 366h207c101 0 158 46 158 160c0 58 -42 89 -149 89h-161z" />
    <glyph glyph-name="Q" unicode="Q" horiz-adv-x="836" 
d="M383 -5h-4c-15 -58 0 -71 76 -71h72l-24 -117c-19 -2 -55 -2 -72 -2c-179 0 -219 57 -181 203c-144 33 -223 126 -223 282c-1 37 4 77 13 122c58 274 234 341 415 341c226 0 354 -105 354 -299c0 -37 -4 -77 -14 -120c-59 -276 -234 -339 -412 -339zM385 117
c146 0 232 71 266 228c7 32 11 61 11 90c0 110 -61 185 -214 185c-146 0 -232 -72 -265 -227c-7 -31 -10 -61 -10 -90c0 -110 60 -186 212 -186z" />
    <glyph glyph-name="R" unicode="R" horiz-adv-x="739" 
d="M452 0l-91 258h-167l-56 -258h-140l159 741h278c225 0 289 -84 289 -185c0 -148 -60 -265 -220 -292l93 -264h-145zM220 384h205c98 0 151 42 151 142c0 63 -50 89 -153 89h-153z" />
    <glyph glyph-name="S" unicode="S" horiz-adv-x="712" 
d="M324 -11c-170 0 -283 49 -361 108l92 102c69 -54 160 -88 276 -88c96 0 161 20 161 97c0 67 -53 76 -168 108c-131 37 -230 69 -230 204c0 180 135 233 288 233c172 0 262 -48 311 -86l-93 -108c-42 33 -116 67 -223 67c-85 0 -138 -21 -138 -93c0 -57 59 -74 149 -96
c138 -35 250 -69 250 -200c0 -180 -127 -248 -314 -248z" />
    <glyph glyph-name="T" unicode="T" horiz-adv-x="682" 
d="M192 0l130 609h-253l28 132h647l-28 -132h-252l-130 -609h-142z" />
    <glyph glyph-name="U" unicode="U" horiz-adv-x="788" 
d="M348 -14c-243 0 -302 105 -302 219c0 32 5 67 12 99l94 437h142l-91 -430c-6 -29 -11 -55 -11 -79c0 -71 40 -116 171 -116c127 0 171 54 195 171l97 454h139l-104 -482c-31 -142 -93 -273 -342 -273z" />
    <glyph glyph-name="V" unicode="V" horiz-adv-x="748" 
d="M225 -5l-124 746h145l85 -556l323 556h154l-444 -746h-139z" />
    <glyph glyph-name="W" unicode="W" horiz-adv-x="1063" 
d="M165 -5l-60 746h147l34 -490l257 490h137l48 -490l244 490h145l-377 -746h-125l-51 528l-275 -528h-124z" />
    <glyph glyph-name="X" unicode="X" horiz-adv-x="743" 
d="M482 0l-131 283l-243 -283h-161l350 399l-158 342h148l113 -246l209 246h160l-316 -360l177 -381h-148z" />
    <glyph glyph-name="Y" unicode="Y" horiz-adv-x="725" 
d="M211 0l59 274l-182 467h149l129 -333l270 333h157l-382 -470l-57 -271h-143z" />
    <glyph glyph-name="Z" unicode="Z" horiz-adv-x="665" 
d="M-44 0l24 109l502 500h-378l27 132h565l-24 -119l-497 -495h400l-26 -127h-593z" />
    <glyph glyph-name="bracketleft" unicode="[" horiz-adv-x="503" 
d="M-1 -165l201 941h299l-24 -120h-162l-151 -704h165l-25 -117h-303z" />
    <glyph glyph-name="backslash" unicode="\" horiz-adv-x="554" 
d="M340 0l-256 741h131l256 -741h-131z" />
    <glyph glyph-name="bracketright" unicode="]" horiz-adv-x="503" 
d="M-26 -165l24 117h164l151 704h-162l25 120h300l-200 -941h-302z" />
    <glyph glyph-name="asciicircum" unicode="^" horiz-adv-x="590" 
d="M126 563l188 177h143l113 -177h-127l-74 91l-114 -91h-129z" />
    <glyph glyph-name="underscore" unicode="_" horiz-adv-x="453" 
d="M-146 -149l21 105h528l-22 -105h-527z" />
    <glyph glyph-name="grave" unicode="`" horiz-adv-x="590" 
d="M325 618l-148 177h159l106 -177h-117z" />
    <glyph glyph-name="a" unicode="a" 
d="M189 -10c-160 0 -204 64 -204 159c0 173 133 216 348 216h73c2 13 4 25 4 36c0 35 -23 52 -116 52c-45 0 -111 -15 -147 -34l-51 106c46 28 130 51 224 51c230 0 243 -84 210 -242l-35 -162c-9 -44 -11 -57 40 -56l-25 -114c-8 -3 -28 -4 -58 -4c-49 0 -72 11 -80 53
c-35 -39 -97 -61 -183 -61zM227 104c93 0 129 31 151 134l5 25h-70c-135 0 -191 -14 -191 -99c0 -37 22 -60 105 -60z" />
    <glyph glyph-name="b" unicode="b" horiz-adv-x="653" 
d="M324 -9c-122 0 -181 27 -201 65l-37 -62l-98 11l165 771h135l-54 -249c38 34 88 49 167 49c158 0 209 -89 209 -204c0 -36 -5 -76 -14 -116c-35 -162 -104 -265 -272 -265zM304 110c96 0 130 56 153 157c6 28 10 53 10 77c0 62 -28 105 -118 105
c-92 0 -138 -34 -164 -155c-7 -28 -10 -54 -10 -77c0 -70 36 -107 129 -107z" />
    <glyph glyph-name="c" unicode="c" horiz-adv-x="561" 
d="M260 -10c-191 0 -251 94 -251 215c0 36 4 71 11 107c33 162 117 264 309 264c126 0 186 -43 226 -95l-114 -90c-19 26 -45 57 -124 57c-89 0 -138 -47 -160 -158c-5 -23 -8 -48 -8 -71c0 -66 30 -110 122 -110c44 0 78 7 125 43l74 -88c-67 -55 -134 -74 -210 -74z" />
    <glyph glyph-name="d" unicode="d" horiz-adv-x="653" 
d="M216 -9c-158 0 -209 88 -209 204c0 36 6 76 15 117c35 161 102 264 271 264c117 0 165 -26 186 -64l58 264h137l-164 -770l-106 -11l2 49c-39 -36 -96 -53 -190 -53zM268 111c92 0 138 34 164 155c7 28 9 54 9 77c0 71 -35 107 -129 107c-95 0 -130 -56 -152 -157
c-6 -27 -9 -54 -9 -77c0 -62 26 -105 117 -105z" />
    <glyph glyph-name="e" unicode="e" horiz-adv-x="593" 
d="M257 -11c-192 0 -249 96 -249 214c0 37 5 73 12 109c33 164 121 264 306 264c178 0 223 -84 223 -174c0 -50 -11 -116 -24 -174h-386v-12c0 -65 31 -112 134 -112c64 0 123 15 165 41l54 -98c-72 -48 -152 -58 -235 -58zM310 458c-85 0 -127 -45 -151 -123h257
c3 15 5 27 5 44c0 46 -22 79 -111 79z" />
    <glyph glyph-name="f" unicode="f" horiz-adv-x="425" 
d="M42 443l26 120h106l11 52c26 123 81 177 231 177c40 0 61 -1 75 -2l-23 -114h-49c-71 0 -90 -27 -100 -75l-8 -38h132l-25 -120h-133l-129 -608h-137l129 608h-106z" />
    <glyph glyph-name="g" unicode="g" horiz-adv-x="625" 
d="M294 206c-42 0 -78 3 -109 10c-5 -9 -8 -19 -8 -31c0 -20 8 -32 51 -32c218 -4 291 -36 291 -141c0 -157 -105 -192 -309 -191c-201 0 -283 39 -283 138c0 94 67 138 149 150c-16 17 -22 41 -22 66c0 34 17 62 40 84c-31 26 -44 62 -44 105c0 151 85 212 263 212
c16 0 34 -1 52 -2l248 45l-18 -110h-87c25 -25 42 -65 42 -108c0 -135 -84 -195 -256 -195zM233 -81c102 -1 142 14 142 75c0 44 -48 57 -177 57c-98 0 -124 -23 -124 -71c0 -37 39 -61 159 -61zM295 304c79 0 119 31 119 97c0 41 -29 65 -111 65c-79 0 -118 -29 -118 -98
c0 -38 25 -64 110 -64z" />
    <glyph glyph-name="h" unicode="h" horiz-adv-x="633" 
d="M-14 0l166 776h136l-53 -248c30 26 78 48 150 48c209 0 205 -113 176 -253l-69 -323h-136l65 308c16 76 29 136 -93 136c-95 0 -122 -54 -137 -125l-67 -319h-138z" />
    <glyph glyph-name="i" unicode="i" horiz-adv-x="279" 
d="M-8 0l121 563h135l-119 -563h-137zM124 620l29 135h137l-28 -135h-138z" />
    <glyph glyph-name="j" unicode="j" horiz-adv-x="279" 
d="M-112 -169l23 107h11c51 0 60 15 73 76l118 549h135l-119 -564c-30 -144 -71 -168 -188 -168h-53zM124 620l29 135h137l-28 -135h-138z" />
    <glyph glyph-name="k" unicode="k" horiz-adv-x="569" 
d="M-13 0l166 776h135l-95 -447l237 234h152l-233 -229l132 -334h-142l-95 231l-91 -90l-30 -141h-136z" />
    <glyph glyph-name="l" unicode="l" horiz-adv-x="329" 
d="M141 -2c-109 0 -137 55 -110 183l126 595h137l-127 -597c-10 -47 -6 -62 44 -62h20l-24 -115c-11 -2 -39 -4 -66 -4z" />
    <glyph glyph-name="m" unicode="m" horiz-adv-x="984" 
d="M-14 0l118 555l109 8l-1 -42c35 30 82 55 168 55s145 -11 169 -62c33 35 96 62 190 62c209 0 200 -113 171 -253l-70 -323h-136l66 308c16 76 31 136 -88 136c-95 0 -117 -54 -133 -125l-67 -319h-136l65 308c16 76 32 136 -88 136c-94 0 -117 -54 -132 -125l-67 -319
h-138z" />
    <glyph glyph-name="n" unicode="n" horiz-adv-x="633" 
d="M-14 0l118 555l109 8l-1 -42c35 30 88 55 173 55c209 0 205 -113 176 -253l-69 -323h-136l65 308c16 76 29 136 -93 136c-95 0 -122 -54 -137 -125l-67 -319h-138z" />
    <glyph glyph-name="o" unicode="o" horiz-adv-x="634" 
d="M267 -11c-184 0 -258 88 -258 222c0 32 4 65 11 101c41 190 145 264 310 264c185 0 259 -87 259 -220c0 -31 -5 -65 -12 -102c-40 -190 -143 -265 -310 -265zM275 109c97 0 142 51 164 156c6 25 9 50 9 71c0 67 -32 113 -126 113c-98 0 -143 -53 -165 -159
c-6 -24 -9 -48 -9 -71c0 -66 33 -110 127 -110z" />
    <glyph glyph-name="p" unicode="p" horiz-adv-x="653" 
d="M-48 -165l153 720l108 8l-1 -45c39 38 94 58 189 58c158 0 209 -89 209 -204c0 -36 -5 -76 -14 -116c-35 -162 -104 -265 -272 -265c-122 0 -168 24 -188 62l-47 -218h-137zM304 110c96 0 130 56 153 157c6 28 10 53 10 77c0 62 -28 105 -118 105
c-92 0 -138 -34 -164 -155c-7 -28 -10 -54 -10 -77c0 -70 36 -107 129 -107z" />
    <glyph glyph-name="q" unicode="q" horiz-adv-x="653" 
d="M337 -165l41 198c-37 -30 -85 -42 -162 -42c-158 0 -209 88 -209 204c0 36 6 76 15 117c35 161 102 264 271 264c117 0 173 -19 201 -66l40 57l94 -8l-153 -724h-138zM268 111c92 0 138 34 164 155c7 28 9 54 9 77c0 71 -35 107 -129 107c-95 0 -130 -56 -152 -157
c-6 -27 -9 -54 -9 -77c0 -62 26 -105 117 -105z" />
    <glyph glyph-name="r" unicode="r" horiz-adv-x="373" 
d="M-13 0l118 555l109 8l-2 -55c29 39 93 62 181 62l-28 -133c-125 -1 -159 -52 -179 -144l-62 -293h-137z" />
    <glyph glyph-name="s" unicode="s" horiz-adv-x="541" 
d="M227 -10c-111 0 -207 36 -269 89l86 95c50 -39 127 -69 196 -69c57 0 94 7 94 60c0 39 -53 51 -111 66c-78 20 -173 47 -173 151c0 142 98 194 241 194c106 0 185 -31 234 -65l-86 -105c-35 22 -84 48 -161 48c-60 0 -87 -13 -87 -54c0 -36 44 -48 106 -64
c86 -24 175 -50 175 -155c0 -146 -102 -191 -245 -191z" />
    <glyph glyph-name="t" unicode="t" horiz-adv-x="434" 
d="M42 443l26 120h101l54 144l111 22l-36 -166h131l-24 -120h-133l-54 -254c-10 -46 -8 -72 61 -72h55l-24 -117c-19 -2 -58 -2 -81 -2c-153 0 -172 68 -148 187l56 258h-95z" />
    <glyph glyph-name="u" unicode="u" 
d="M263 -11c-234 0 -260 105 -221 288l61 286h137l-63 -297c-19 -87 -29 -154 98 -154c96 0 109 50 127 133l68 318h134l-69 -324c-39 -185 -92 -250 -272 -250z" />
    <glyph glyph-name="v" unicode="v" horiz-adv-x="576" 
d="M139 -6l-93 569h141l56 -396l222 396h146l-334 -569h-138z" />
    <glyph glyph-name="w" unicode="w" horiz-adv-x="889" 
d="M113 -6l-59 569h141l33 -353l188 353h140l42 -353l179 353h141l-300 -569h-128l-45 383l-204 -383h-128z" />
    <glyph glyph-name="x" unicode="x" horiz-adv-x="565" 
d="M329 0l-88 193l-164 -193h-151l266 300l-119 263h142l76 -167l140 167h150l-242 -274l132 -289h-142z" />
    <glyph glyph-name="y" unicode="y" horiz-adv-x="551" 
d="M35 -170c-29 0 -57 1 -72 2l21 106h43c60 0 67 9 87 46l19 33l-88 546h144l50 -369l205 369h144l-353 -605c-57 -100 -94 -128 -200 -128z" />
    <glyph glyph-name="z" unicode="z" horiz-adv-x="511" 
d="M-56 0l20 95l348 348h-256l25 120h439l-20 -96l-349 -354h285l-24 -113h-468z" />
    <glyph glyph-name="braceleft" unicode="{" horiz-adv-x="540" 
d="M242 -165c-129 0 -182 34 -182 101c0 80 106 231 106 278c0 30 -30 34 -120 34l24 114c112 0 140 7 140 80c0 40 -8 100 -8 150c0 124 70 184 194 184h143l-24 -120h-82c-72 0 -96 -22 -96 -83c0 -35 7 -91 7 -139c0 -59 -13 -109 -85 -128c37 -13 49 -35 49 -64
c0 -61 -98 -205 -98 -255c0 -26 20 -35 68 -35h86l-25 -117h-97z" />
    <glyph glyph-name="bar" unicode="|" horiz-adv-x="365" 
d="M113 -165v941h138v-941h-138z" />
    <glyph glyph-name="braceright" unicode="}" horiz-adv-x="540" 
d="M-26 -165l24 117h82c71 0 97 25 97 87c0 34 -7 90 -7 139c0 58 13 108 84 128c-36 12 -49 34 -49 63c0 62 99 202 99 252c0 25 -21 35 -70 35h-85l25 120h97c130 0 183 -34 183 -101c0 -80 -106 -230 -106 -277c0 -31 29 -35 119 -35l-23 -114c-112 0 -141 -7 -141 -79
c0 -41 9 -100 9 -151c0 -124 -71 -184 -194 -184h-144z" />
    <glyph glyph-name="asciitilde" unicode="~" horiz-adv-x="590" 
d="M445 384c-75 0 -115 53 -165 53c-28 0 -54 -21 -78 -48l-68 67c47 57 98 89 151 89c75 0 115 -53 165 -53c26 0 50 19 76 49l69 -65c-51 -61 -100 -92 -150 -92z" />
    <glyph glyph-name="Adieresis" unicode="&#xc4;" horiz-adv-x="748" 
d="M-62 0l444 746h140l125 -746h-142l-21 132h-318l-76 -132h-152zM236 256h229l-49 308zM291 782l27 129h124l-27 -129h-124zM506 782l27 129h124l-27 -129h-124z" />
    <glyph glyph-name="Aring" unicode="&#xc5;" horiz-adv-x="748" 
d="M-62 0l418 703c-27 20 -39 52 -39 87c0 102 62 169 154 169c90 0 129 -54 129 -118c0 -66 -28 -115 -70 -141l117 -700h-142l-21 132h-318l-76 -132h-152zM236 256h229l-49 308zM450 748c47 0 78 32 78 85c0 30 -16 56 -61 56c-47 0 -78 -37 -78 -89c0 -29 18 -52 61 -52
z" />
    <glyph glyph-name="Ccedilla" unicode="&#xc7;" horiz-adv-x="733" 
d="M265 -244c-72 0 -121 21 -151 41l48 67c26 -18 57 -33 101 -33c40 0 61 12 61 47c0 32 -43 36 -83 33l-23 19l29 70c-155 32 -221 135 -221 279c0 40 4 83 14 129c57 269 222 345 406 345c171 0 251 -57 298 -113l-118 -95c-37 45 -95 75 -183 75
c-135 0 -226 -67 -261 -230c-7 -33 -10 -64 -10 -92c0 -109 59 -179 204 -179c79 0 133 23 182 62l84 -103c-70 -60 -152 -89 -279 -89c-15 0 -29 1 -42 1l-13 -33c52 -2 108 -14 108 -77c0 -103 -77 -124 -151 -124z" />
    <glyph glyph-name="Eacute" unicode="&#xc9;" horiz-adv-x="662" 
d="M319 782l181 177h170l-224 -177h-127zM-1 0l158 741h527l-28 -132h-384l-37 -165h375l-27 -129h-374l-41 -188h388l-26 -127h-531z" />
    <glyph glyph-name="Ntilde" unicode="&#xd1;" horiz-adv-x="791" 
d="M-1 0l158 741h154l237 -507l109 507h137l-158 -741h-131l-255 537l-115 -537h-136zM579 783c-75 0 -115 53 -165 53c-28 0 -54 -21 -78 -48l-68 67c47 57 98 89 151 89c75 0 115 -53 165 -53c26 0 50 19 76 49l69 -65c-51 -61 -100 -92 -150 -92z" />
    <glyph glyph-name="Odieresis" unicode="&#xd6;" horiz-adv-x="836" 
d="M335 782l27 129h124l-27 -129h-124zM550 782l27 129h124l-27 -129h-124zM383 -12c-223 0 -356 104 -356 302c0 37 4 77 13 122c58 274 235 341 415 341c221 0 354 -102 354 -299c0 -37 -4 -77 -13 -120c-60 -276 -235 -346 -413 -346zM385 117c146 0 232 71 266 228
c7 32 11 61 11 90c0 110 -61 185 -214 185c-146 0 -232 -72 -265 -227c-7 -31 -10 -61 -10 -90c0 -110 60 -186 212 -186z" />
    <glyph glyph-name="Udieresis" unicode="&#xdc;" horiz-adv-x="788" 
d="M311 782l27 129h124l-27 -129h-124zM526 782l27 129h124l-27 -129h-124zM348 -14c-243 0 -302 105 -302 219c0 32 5 67 12 99l94 437h142l-91 -430c-6 -29 -11 -55 -11 -79c0 -71 40 -116 171 -116c127 0 171 54 195 171l97 454h139l-104 -482
c-31 -142 -93 -273 -342 -273z" />
    <glyph glyph-name="aacute" unicode="&#xe1;" 
d="M189 -10c-160 0 -204 64 -204 159c0 173 133 216 348 216h73c2 13 4 25 4 36c0 35 -23 52 -116 52c-45 0 -111 -15 -147 -34l-51 106c46 28 130 51 224 51c230 0 243 -84 210 -242l-35 -162c-9 -44 -11 -57 40 -56l-25 -114c-8 -3 -28 -4 -58 -4c-49 0 -72 11 -80 53
c-35 -39 -97 -61 -183 -61zM227 104c93 0 129 31 151 134l5 25h-70c-135 0 -191 -14 -191 -99c0 -37 22 -60 105 -60zM267 618l181 177h170l-224 -177h-127z" />
    <glyph glyph-name="agrave" unicode="&#xe0;" 
d="M189 -10c-160 0 -204 64 -204 159c0 173 133 216 348 216h73c2 13 4 25 4 36c0 35 -23 52 -116 52c-45 0 -111 -15 -147 -34l-51 106c46 28 130 51 224 51c230 0 243 -84 210 -242l-35 -162c-9 -44 -11 -57 40 -56l-25 -114c-8 -3 -28 -4 -58 -4c-49 0 -72 11 -80 53
c-35 -39 -97 -61 -183 -61zM227 104c93 0 129 31 151 134l5 25h-70c-135 0 -191 -14 -191 -99c0 -37 22 -60 105 -60zM343 618l-148 177h159l106 -177h-117z" />
    <glyph glyph-name="acircumflex" unicode="&#xe2;" 
d="M189 -10c-160 0 -204 64 -204 159c0 173 133 216 348 216h73c2 13 4 25 4 36c0 35 -23 52 -116 52c-45 0 -111 -15 -147 -34l-51 106c46 28 130 51 224 51c230 0 243 -84 210 -242l-35 -162c-9 -44 -11 -57 40 -56l-25 -114c-8 -3 -28 -4 -58 -4c-49 0 -72 11 -80 53
c-35 -39 -97 -61 -183 -61zM144 618l188 177h143l113 -177h-127l-74 91l-114 -91h-129zM227 104c93 0 129 31 151 134l5 25h-70c-135 0 -191 -14 -191 -99c0 -37 22 -60 105 -60z" />
    <glyph glyph-name="adieresis" unicode="&#xe4;" 
d="M189 -10c-160 0 -204 64 -204 159c0 173 133 216 348 216h73c2 13 4 25 4 36c0 35 -23 52 -116 52c-45 0 -111 -15 -147 -34l-51 106c46 28 130 51 224 51c230 0 243 -84 210 -242l-35 -162c-9 -44 -11 -57 40 -56l-25 -114c-8 -3 -28 -4 -58 -4c-49 0 -72 11 -80 53
c-35 -39 -97 -61 -183 -61zM227 104c93 0 129 31 151 134l5 25h-70c-135 0 -191 -14 -191 -99c0 -37 22 -60 105 -60zM197 618l27 129h124l-27 -129h-124zM412 618l27 129h124l-27 -129h-124z" />
    <glyph glyph-name="atilde" unicode="&#xe3;" 
d="M189 -10c-160 0 -204 64 -204 159c0 173 133 216 348 216h73c2 13 4 25 4 36c0 35 -23 52 -116 52c-45 0 -111 -15 -147 -34l-51 106c46 28 130 51 224 51c230 0 243 -84 210 -242l-35 -162c-9 -44 -11 -57 40 -56l-25 -114c-8 -3 -28 -4 -58 -4c-49 0 -72 11 -80 53
c-35 -39 -97 -61 -183 -61zM463 619c-75 0 -115 53 -165 53c-28 0 -54 -21 -78 -48l-68 67c47 57 98 89 151 89c75 0 115 -53 165 -53c26 0 50 19 76 49l69 -65c-51 -61 -100 -92 -150 -92zM227 104c93 0 129 31 151 134l5 25h-70c-135 0 -191 -14 -191 -99
c0 -37 22 -60 105 -60z" />
    <glyph glyph-name="aring" unicode="&#xe5;" 
d="M189 -10c-160 0 -204 64 -204 159c0 173 133 216 348 216h73c2 13 4 25 4 36c0 35 -23 52 -116 52c-45 0 -111 -15 -147 -34l-51 106c46 28 130 51 224 51c230 0 243 -84 210 -242l-35 -162c-9 -44 -11 -57 40 -56l-25 -114c-8 -3 -28 -4 -58 -4c-49 0 -72 11 -80 53
c-35 -39 -97 -61 -183 -61zM380 608c-91 0 -129 51 -129 113c0 102 62 169 154 169c90 0 129 -55 129 -118c0 -103 -65 -164 -154 -164zM227 104c93 0 129 31 151 134l5 25h-70c-135 0 -191 -14 -191 -99c0 -37 22 -60 105 -60zM384 678c47 0 78 32 78 86
c0 30 -16 56 -61 56c-47 0 -78 -37 -78 -90c0 -29 18 -52 61 -52z" />
    <glyph glyph-name="ccedilla" unicode="&#xe7;" horiz-adv-x="561" 
d="M181 -244c-73 0 -121 21 -152 41l48 67c27 -18 57 -33 102 -33c39 0 61 12 61 47c0 32 -43 36 -83 33l-23 19l28 71c-114 27 -153 106 -153 204c0 36 4 71 11 107c33 162 117 264 309 264c126 0 186 -43 226 -95l-114 -90c-19 26 -45 57 -124 57
c-89 0 -138 -47 -160 -158c-5 -23 -8 -48 -8 -71c0 -66 30 -110 122 -110c44 0 78 7 125 43l74 -88c-67 -55 -134 -74 -210 -74c-8 0 -16 0 -23 1l-14 -34c52 -2 109 -14 109 -77c0 -103 -78 -124 -151 -124z" />
    <glyph glyph-name="eacute" unicode="&#xe9;" horiz-adv-x="593" 
d="M257 -11c-192 0 -249 96 -249 214c0 37 5 73 12 109c33 164 121 264 306 264c178 0 223 -84 223 -174c0 -50 -11 -116 -24 -174h-386v-12c0 -65 31 -112 134 -112c64 0 123 15 165 41l54 -98c-72 -48 -152 -58 -235 -58zM250 618l181 177h170l-224 -177h-127zM310 458
c-85 0 -127 -45 -151 -123h257c3 15 5 27 5 44c0 46 -22 79 -111 79z" />
    <glyph glyph-name="egrave" unicode="&#xe8;" horiz-adv-x="593" 
d="M257 -11c-192 0 -249 96 -249 214c0 37 5 73 12 109c33 164 121 264 306 264c178 0 223 -84 223 -174c0 -50 -11 -116 -24 -174h-386v-12c0 -65 31 -112 134 -112c64 0 123 15 165 41l54 -98c-72 -48 -152 -58 -235 -58zM310 458c-85 0 -127 -45 -151 -123h257
c3 15 5 27 5 44c0 46 -22 79 -111 79zM326 618l-148 177h159l106 -177h-117z" />
    <glyph glyph-name="ecircumflex" unicode="&#xea;" horiz-adv-x="593" 
d="M257 -11c-192 0 -249 96 -249 214c0 37 5 73 12 109c33 164 121 264 306 264c178 0 223 -84 223 -174c0 -50 -11 -116 -24 -174h-386v-12c0 -65 31 -112 134 -112c64 0 123 15 165 41l54 -98c-72 -48 -152 -58 -235 -58zM127 618l188 177h143l113 -177h-127l-74 91
l-114 -91h-129zM310 458c-85 0 -127 -45 -151 -123h257c3 15 5 27 5 44c0 46 -22 79 -111 79z" />
    <glyph glyph-name="edieresis" unicode="&#xeb;" horiz-adv-x="593" 
d="M257 -11c-192 0 -249 96 -249 214c0 37 5 73 12 109c33 164 121 264 306 264c178 0 223 -84 223 -174c0 -50 -11 -116 -24 -174h-386v-12c0 -65 31 -112 134 -112c64 0 123 15 165 41l54 -98c-72 -48 -152 -58 -235 -58zM310 458c-85 0 -127 -45 -151 -123h257
c3 15 5 27 5 44c0 46 -22 79 -111 79zM395 618l27 129h124l-27 -129h-124zM180 618l27 129h124l-27 -129h-124z" />
    <glyph glyph-name="iacute" unicode="&#xed;" horiz-adv-x="279" 
d="M124 618l150 177h168l-192 -177h-126zM-8 0l121 563h135l-119 -563h-137z" />
    <glyph glyph-name="igrave" unicode="&#xec;" horiz-adv-x="279" 
d="M128 618l-108 177h160l65 -177h-117zM-8 0l121 563h135l-119 -563h-137z" />
    <glyph glyph-name="icircumflex" unicode="&#xee;" horiz-adv-x="279" 
d="M-11 618l169 177h142l93 -177h-126l-55 91l-93 -91h-130zM-8 0l121 563h135l-119 -563h-137z" />
    <glyph glyph-name="idieresis" unicode="&#xef;" horiz-adv-x="279" 
d="M39 618l27 129h114l-27 -129h-114zM231 618l27 129h114l-27 -129h-114zM-8 0l121 563h135l-119 -563h-137z" />
    <glyph glyph-name="ntilde" unicode="&#xf1;" horiz-adv-x="633" 
d="M-14 0l118 555l109 8l-1 -42c35 30 88 55 173 55c209 0 205 -113 176 -253l-69 -323h-136l65 308c16 76 29 136 -93 136c-95 0 -122 -54 -137 -125l-67 -319h-138zM465 619c-75 0 -115 53 -165 53c-28 0 -54 -21 -78 -48l-68 67c47 57 98 89 151 89c75 0 115 -53 165 -53
c26 0 50 19 76 49l69 -65c-51 -61 -100 -92 -150 -92z" />
    <glyph glyph-name="oacute" unicode="&#xf3;" horiz-adv-x="634" 
d="M270 618l181 177h170l-224 -177h-127zM267 -11c-184 0 -258 88 -258 222c0 32 4 65 11 101c41 190 145 264 310 264c185 0 259 -87 259 -220c0 -31 -5 -65 -12 -102c-40 -190 -143 -265 -310 -265zM275 109c97 0 142 51 164 156c6 25 9 50 9 71c0 67 -32 113 -126 113
c-98 0 -143 -53 -165 -159c-6 -24 -9 -48 -9 -71c0 -66 33 -110 127 -110z" />
    <glyph glyph-name="ograve" unicode="&#xf2;" horiz-adv-x="634" 
d="M267 -11c-184 0 -258 88 -258 222c0 32 4 65 11 101c41 190 145 264 310 264c185 0 259 -87 259 -220c0 -31 -5 -65 -12 -102c-40 -190 -143 -265 -310 -265zM275 109c97 0 142 51 164 156c6 25 9 50 9 71c0 67 -32 113 -126 113c-98 0 -143 -53 -165 -159
c-6 -24 -9 -48 -9 -71c0 -66 33 -110 127 -110zM346 618l-148 177h159l106 -177h-117z" />
    <glyph glyph-name="ocircumflex" unicode="&#xf4;" horiz-adv-x="634" 
d="M147 618l188 177h143l113 -177h-127l-74 91l-114 -91h-129zM267 -11c-184 0 -258 88 -258 222c0 32 4 65 11 101c41 190 145 264 310 264c185 0 259 -87 259 -220c0 -31 -5 -65 -12 -102c-40 -190 -143 -265 -310 -265zM275 109c97 0 142 51 164 156c6 25 9 50 9 71
c0 67 -32 113 -126 113c-98 0 -143 -53 -165 -159c-6 -24 -9 -48 -9 -71c0 -66 33 -110 127 -110z" />
    <glyph glyph-name="odieresis" unicode="&#xf6;" horiz-adv-x="634" 
d="M200 618l27 129h124l-27 -129h-124zM415 618l27 129h124l-27 -129h-124zM267 -11c-184 0 -258 88 -258 222c0 32 4 65 11 101c41 190 145 264 310 264c185 0 259 -87 259 -220c0 -31 -5 -65 -12 -102c-40 -190 -143 -265 -310 -265zM275 109c97 0 142 51 164 156
c6 25 9 50 9 71c0 67 -32 113 -126 113c-98 0 -143 -53 -165 -159c-6 -24 -9 -48 -9 -71c0 -66 33 -110 127 -110z" />
    <glyph glyph-name="otilde" unicode="&#xf5;" horiz-adv-x="634" 
d="M267 -11c-184 0 -258 88 -258 222c0 32 4 65 11 101c41 190 145 264 310 264c185 0 259 -87 259 -220c0 -31 -5 -65 -12 -102c-40 -190 -143 -265 -310 -265zM275 109c97 0 142 51 164 156c6 25 9 50 9 71c0 67 -32 113 -126 113c-98 0 -143 -53 -165 -159
c-6 -24 -9 -48 -9 -71c0 -66 33 -110 127 -110zM466 619c-75 0 -115 53 -165 53c-28 0 -54 -21 -78 -48l-68 67c47 57 98 89 151 89c75 0 115 -53 165 -53c26 0 50 19 76 49l69 -65c-51 -61 -100 -92 -150 -92z" />
    <glyph glyph-name="uacute" unicode="&#xfa;" 
d="M266 618l181 177h170l-224 -177h-127zM263 -11c-234 0 -260 105 -221 288l61 286h137l-63 -297c-19 -87 -29 -154 98 -154c96 0 109 50 127 133l68 318h134l-69 -324c-39 -185 -92 -250 -272 -250z" />
    <glyph glyph-name="ugrave" unicode="&#xf9;" 
d="M263 -11c-234 0 -260 105 -221 288l61 286h137l-63 -297c-19 -87 -29 -154 98 -154c96 0 109 50 127 133l68 318h134l-69 -324c-39 -185 -92 -250 -272 -250zM342 618l-148 177h159l106 -177h-117z" />
    <glyph glyph-name="ucircumflex" unicode="&#xfb;" 
d="M143 618l188 177h143l113 -177h-127l-74 91l-114 -91h-129zM263 -11c-234 0 -260 105 -221 288l61 286h137l-63 -297c-19 -87 -29 -154 98 -154c96 0 109 50 127 133l68 318h134l-69 -324c-39 -185 -92 -250 -272 -250z" />
    <glyph glyph-name="udieresis" unicode="&#xfc;" 
d="M196 618l27 129h124l-27 -129h-124zM411 618l27 129h124l-27 -129h-124zM263 -11c-234 0 -260 105 -221 288l61 286h137l-63 -297c-19 -87 -29 -154 98 -154c96 0 109 50 127 133l68 318h134l-69 -324c-39 -185 -92 -250 -272 -250z" />
    <glyph glyph-name="dagger" unicode="&#x2020;" horiz-adv-x="584" 
d="M111 -166l125 588h-174l26 125h174l49 229h135l-49 -229h175l-26 -125h-175l-125 -588h-135z" />
    <glyph glyph-name="degree" unicode="&#xb0;" horiz-adv-x="562" 
d="M283 270c-152 0 -211 89 -211 194c0 163 102 289 273 289c148 0 207 -92 207 -197c0 -164 -106 -286 -269 -286zM292 372c97 0 147 75 147 171c0 57 -29 101 -111 101c-95 0 -144 -78 -144 -173c0 -56 29 -99 108 -99z" />
    <glyph glyph-name="cent" unicode="&#xa2;" horiz-adv-x="562" 
d="M147 -94l20 96c-118 25 -158 104 -158 203c0 36 4 71 11 107c30 150 105 247 268 260l14 63h130l-15 -69c69 -15 109 -47 138 -85l-114 -90c-19 26 -45 57 -124 57c-89 0 -138 -47 -160 -158c-5 -23 -8 -48 -8 -71c0 -66 30 -110 122 -110c44 0 76 5 125 43l74 -88
c-56 -46 -113 -65 -174 -70l-18 -88h-131z" />
    <glyph glyph-name="sterling" unicode="&#xa3;" horiz-adv-x="637" 
d="M373 -8c-88 0 -151 22 -200 51c-47 -32 -114 -46 -213 -43l22 114c133 0 148 31 160 90c6 30 5 74 2 122h-119l22 109h91v36c0 175 78 283 253 283c111 0 182 -27 233 -55l-75 -112c-38 23 -101 42 -164 42c-91 0 -115 -69 -115 -172v-22h183l-22 -109h-157
c1 -43 -1 -85 -8 -120c-5 -25 -12 -48 -20 -68c34 -16 75 -28 123 -28c61 0 72 13 87 93l5 27h119l-9 -46c-29 -148 -80 -192 -198 -192z" />
    <glyph glyph-name="section" unicode="&#xa7;" horiz-adv-x="591" 
d="M102 -6c-42 0 -75 1 -90 2l21 109h55c76 0 89 26 101 83l6 30c-98 19 -139 67 -139 134c0 129 88 171 199 178l5 24c23 110 67 192 223 192c42 0 75 -1 90 -2l-23 -114h-54c-76 0 -89 -28 -100 -78l-6 -30c101 -19 145 -70 145 -138c0 -133 -93 -170 -206 -175l-4 -21
c-23 -111 -67 -194 -223 -194zM306 293c67 0 116 13 116 80c0 40 -38 64 -136 64c-69 0 -118 -10 -118 -79c0 -39 36 -65 138 -65z" />
    <glyph glyph-name="bullet" unicode="&#x2022;" horiz-adv-x="377" 
d="M56 198l44 213h194l-44 -213h-194z" />
    <glyph glyph-name="paragraph" unicode="&#xb6;" horiz-adv-x="657" 
d="M154 0l56 265c-110 28 -146 93 -146 176c0 194 88 300 308 300h283l-158 -741h-129l53 251h-72h-13l-53 -251h-129zM350 362h94l56 258h-146c-93 0 -149 -46 -149 -162c0 -63 41 -96 145 -96z" />
    <glyph glyph-name="germandbls" unicode="&#xdf;" horiz-adv-x="661" 
d="M-48 -165l151 706c29 136 98 242 277 242c172 0 237 -67 237 -166c0 -113 -48 -190 -128 -214c75 -21 114 -67 114 -151c0 -181 -94 -252 -291 -252h-106l25 119h73c120 0 167 42 167 128c0 57 -45 85 -173 85l24 110c101 -1 157 30 157 128c0 45 -29 78 -111 78
c-77 0 -116 -41 -135 -129l-145 -684h-136z" />
    <glyph glyph-name="registered" unicode="&#xae;" horiz-adv-x="815" 
d="M409 -12c-248 0 -371 165 -371 383s123 383 371 383s371 -165 371 -383s-123 -383 -371 -383zM409 41c224 0 317 143 317 330s-93 331 -317 331c-226 0 -317 -144 -317 -331s91 -330 317 -330zM521 138l-94 167h-116v-167h-84v463h215c142 0 173 -57 173 -146
c0 -68 -20 -123 -102 -143l99 -174h-91zM311 380h129c64 0 88 16 88 72c0 57 -24 73 -89 73h-128v-145z" />
    <glyph glyph-name="copyright" unicode="&#xa9;" horiz-adv-x="815" 
d="M416 130c-165 0 -242 87 -242 246c0 170 99 246 248 246c79 0 137 -23 181 -67l-62 -64c-30 29 -70 45 -119 45c-103 0 -156 -55 -156 -161c0 -104 48 -162 156 -162c62 0 96 21 125 48l59 -60c-36 -38 -89 -71 -190 -71zM410 -12c-249 0 -372 165 -372 383
s123 383 372 383c247 0 371 -165 371 -383s-124 -383 -371 -383zM410 41c224 0 316 143 316 330s-92 331 -316 331c-226 0 -317 -144 -317 -331s91 -330 317 -330z" />
    <glyph glyph-name="trademark" unicode="&#x2122;" horiz-adv-x="1106" 
d="M479 283l98 458h116l60 -324l199 324h117l-97 -458h-101l61 284l-174 -284h-68l-51 284l-63 -284h-97zM185 283l78 365h-150l19 93h404l-19 -93h-151l-78 -365h-103z" />
    <glyph glyph-name="acute" unicode="&#xb4;" horiz-adv-x="590" 
d="M249 618l181 177h170l-224 -177h-127z" />
    <glyph glyph-name="dieresis" unicode="&#xa8;" horiz-adv-x="590" 
d="M179 618l27 129h124l-27 -129h-124zM394 618l27 129h124l-27 -129h-124z" />
    <glyph glyph-name="notequal" unicode="&#x2260;" horiz-adv-x="716" 
d="M105 66l72 106h-116l25 121h174l81 119h-230l26 121h280l73 107h113l-73 -107h118l-25 -121h-175l-82 -119h231l-24 -121h-283l-71 -106h-114z" />
    <glyph glyph-name="AE" unicode="&#xc6;" horiz-adv-x="1109" 
d="M-76 0l610 741h596l-27 -132h-377l-36 -166h367l-27 -127h-367l-41 -189h381l-27 -127h-517l29 136h-295l-112 -136h-157zM289 255h225l76 361z" />
    <glyph glyph-name="Oslash" unicode="&#xd8;" horiz-adv-x="836" 
d="M383 -12c-71 0 -132 10 -183 30l-46 -59h-136l92 114c-54 51 -83 123 -83 217c-1 37 4 77 13 122c58 274 234 341 415 341c66 0 124 -9 173 -27l45 57h135l-87 -110c58 -50 88 -123 88 -219c0 -37 -4 -77 -13 -120c-60 -276 -235 -346 -413 -346zM384 111
c150 0 238 72 273 234c7 32 11 63 11 92c0 51 -13 94 -41 126l-346 -437c28 -10 62 -15 103 -15zM166 301c0 -48 11 -89 35 -121l343 434c-27 8 -59 12 -96 12c-149 0 -237 -73 -271 -233c-7 -31 -11 -62 -11 -92z" />
    <glyph glyph-name="infinity" unicode="&#x221e;" horiz-adv-x="887" 
d="M246 170c-128 0 -194 65 -194 174c0 110 68 176 194 176c80 0 140 -48 193 -102c52 54 112 102 189 102c109 0 193 -48 193 -176c0 -125 -86 -174 -193 -174c-81 0 -141 47 -193 101c-53 -54 -112 -101 -189 -101zM249 272c42 0 80 31 120 72c-39 41 -77 73 -120 73
c-58 0 -89 -25 -89 -73c0 -46 30 -72 89 -72zM626 417c-43 0 -81 -32 -120 -72c39 -41 77 -73 120 -73c49 0 87 17 87 72c0 57 -37 73 -87 73z" />
    <glyph glyph-name="plusminus" unicode="&#xb1;" horiz-adv-x="716" 
d="M20 9l26 125h195l33 156h-195l27 126h194l41 192h135l-40 -192h193l-26 -126h-194l-33 -156h193l-26 -125h-523z" />
    <glyph glyph-name="lessequal" unicode="&#x2264;" horiz-adv-x="716" 
d="M33 9l24 118h389l-348 187l19 88l504 220l-26 -125l-347 -143l286 -142l-25 -119l-18 -84h-458z" />
    <glyph glyph-name="greaterequal" unicode="&#x2265;" horiz-adv-x="716" 
d="M72 9l25 118h1l17 85l347 143l-286 143l26 124l412 -220l-19 -88l-427 -187h387l-25 -118h-458z" />
    <glyph glyph-name="yen" unicode="&#xa5;" horiz-adv-x="649" 
d="M43 231l19 102h183l-155 408h144l103 -297l233 297h146l-329 -408h179l-20 -102h-185l-13 -62h184l-20 -102h-186l-14 -67h-135l14 67h-183l20 102h185l13 62h-183z" />
    <glyph glyph-name="mu" unicode="&#xb5;" horiz-adv-x="632" 
d="M210 -11c-46 0 -77 7 -99 21l-38 -175h-126l156 728h136l-67 -315c-16 -76 -28 -136 94 -136c94 0 118 55 134 126l69 325h136l-118 -557l-106 -11v53c-35 -34 -86 -59 -171 -59z" />
    <glyph glyph-name="partialdiff" unicode="&#x2202;" horiz-adv-x="635" 
d="M275 -11c-195 0 -267 91 -267 221c0 35 4 69 11 102c35 152 115 236 269 236c93 0 137 -14 167 -48c1 86 -34 157 -100 249l140 46c61 -76 105 -200 105 -349c0 -69 -8 -138 -24 -206c-48 -190 -140 -251 -301 -251zM275 109c97 0 139 45 162 143c5 24 8 46 8 66
c0 64 -32 107 -125 107c-99 0 -141 -47 -163 -144c-6 -24 -9 -47 -9 -68c0 -62 33 -104 127 -104z" />
    <glyph glyph-name="summation" unicode="&#x2211;" horiz-adv-x="646" 
d="M-78 -165l22 109l306 352l-151 328l26 117h545l-28 -132h-375l151 -322l-282 -326h385l-26 -126h-573z" />
    <glyph glyph-name="product" unicode="&#x220f;" horiz-adv-x="762" 
d="M-36 -165l192 906h606l-192 -906h-142l164 776h-323l-165 -776h-140z" />
    <glyph glyph-name="pi" unicode="&#x3c0;" horiz-adv-x="640" 
d="M-14 0l121 563h504l-119 -563h-136l94 446h-232l-95 -446h-137z" />
    <glyph glyph-name="integral" unicode="&#x222b;" horiz-adv-x="429" 
d="M-120 -167l24 113h53c64 0 88 28 99 71l123 581c29 138 81 193 244 193c31 0 55 0 70 -1l-24 -112h-53c-63 0 -87 -29 -98 -73l-123 -579c-29 -138 -81 -195 -244 -195c-32 0 -55 1 -71 2z" />
    <glyph glyph-name="ordfeminine" unicode="&#xaa;" horiz-adv-x="590" 
d="M224 278c-123 0 -159 52 -159 119c0 156 113 183 282 183h59c3 11 4 22 4 32c0 28 -19 41 -94 41c-37 0 -89 -13 -120 -28l-40 86c36 23 104 42 181 42c187 0 200 -66 172 -196l-29 -132c-7 -35 -6 -44 33 -44l-20 -94c-7 -2 -24 -2 -47 -2c-26 0 -47 5 -59 19
c-7 8 -12 19 -13 34c-32 -38 -87 -60 -150 -60zM51 124l21 99h364l-21 -99h-364zM261 372c62 0 103 23 122 107l5 21h-58c-107 0 -153 -10 -153 -84c1 -28 19 -44 84 -44z" />
    <glyph glyph-name="ordmasculine" unicode="&#xba;" horiz-adv-x="586" 
d="M307 279c-154 0 -217 71 -217 182c1 177 98 292 248 292c156 0 219 -71 219 -182c0 -179 -95 -292 -250 -292zM306 378c87 0 135 69 135 177c0 57 -27 93 -102 93c-84 0 -134 -72 -134 -179c0 -56 28 -91 101 -91zM46 122l21 100h389l-21 -100h-389z" />
    <glyph glyph-name="Omega" unicode="&#x2126;" horiz-adv-x="864" 
d="M478 753c226 0 354 -111 354 -282c0 -173 -111 -287 -273 -319l-7 -32h223l-26 -120h-325l44 201c145 28 213 113 213 242c0 115 -79 177 -215 177c-175 0 -275 -112 -275 -253c0 -101 45 -147 147 -166l-44 -201h-325l25 120h223l7 32c-112 25 -175 88 -175 219
c0 188 134 382 429 382z" />
    <glyph glyph-name="ae" unicode="&#xe6;" horiz-adv-x="955" 
d="M621 -11c-114 0 -174 33 -205 84c-41 -50 -107 -83 -228 -83c-145 0 -203 56 -203 159c0 175 141 216 348 216h72c3 13 5 27 5 36c0 34 -22 52 -116 52c-45 0 -111 -15 -147 -34l-51 106c46 28 130 51 224 51c104 0 161 -17 189 -51c43 33 101 51 180 51
c178 0 223 -86 223 -174c0 -50 -11 -116 -23 -174h-387v-12c0 -65 32 -112 135 -112c64 0 123 15 164 41l54 -98c-72 -48 -152 -58 -234 -58zM227 104c96 0 129 34 151 134l5 25h-70c-132 0 -191 -9 -191 -101c0 -39 28 -58 105 -58zM674 458c-86 0 -128 -46 -152 -124h258
c3 16 5 28 5 45c0 46 -23 79 -111 79z" />
    <glyph glyph-name="oslash" unicode="&#xf8;" horiz-adv-x="634" 
d="M267 -11c-55 0 -100 8 -136 22l-45 -54h-116l87 104c-33 38 -48 89 -48 150c0 32 4 65 11 101c41 190 145 264 310 264c55 0 100 -8 136 -22l45 54h116l-87 -104c34 -38 49 -88 49 -148c0 -31 -5 -65 -12 -102c-40 -190 -143 -265 -310 -265zM274 101
c102 0 148 54 172 163c6 27 9 52 9 75c0 22 -4 41 -11 57l-237 -285c18 -7 40 -10 67 -10zM141 216c0 -19 2 -37 8 -52l235 284c-17 5 -37 8 -60 8c-104 0 -150 -55 -173 -165c-6 -26 -10 -51 -10 -75z" />
    <glyph glyph-name="questiondown" unicode="&#xbf;" horiz-adv-x="685" 
d="M288 -11c-189 0 -266 60 -266 166c0 130 51 184 183 229c100 34 112 53 128 149h133c-22 -149 -47 -195 -175 -236c-97 -31 -124 -44 -124 -109c0 -41 28 -73 146 -73c56 0 124 11 190 34l45 -115c-80 -34 -194 -45 -260 -45zM331 598l31 145h162l-30 -145h-163z" />
    <glyph glyph-name="exclamdown" unicode="&#xa1;" horiz-adv-x="391" 
d="M42 0l124 515h122l-96 -515h-150zM161 580l34 161h161l-34 -161h-161z" />
    <glyph glyph-name="logicalnot" unicode="&#xac;" horiz-adv-x="716" 
d="M629 416l-67 -319h-136l41 193h-388l27 126h523z" />
    <glyph glyph-name="radical" unicode="&#x221a;" horiz-adv-x="684" 
d="M134 -6l-80 444h141l46 -275l345 578h138l-448 -747h-142z" />
    <glyph glyph-name="florin" unicode="&#x192;" horiz-adv-x="594" 
d="M91 339l27 121h118l25 114c20 98 51 167 218 167h82l-26 -125h-47c-75 0 -89 -33 -98 -83l-16 -73h150l-26 -121h-150l-108 -505h-137l108 505h-120z" />
    <glyph glyph-name="approxequal" unicode="&#x2248;" horiz-adv-x="716" 
d="M131 151l-69 67c50 60 110 95 166 95c85 0 140 -58 195 -58c29 0 64 27 93 57l67 -67c-52 -60 -110 -98 -165 -98c-81 0 -133 57 -195 57c-31 0 -65 -23 -92 -53zM182 393l-68 67c51 59 111 95 166 95c86 0 140 -57 195 -57c30 0 65 25 92 55l68 -67
c-51 -59 -111 -97 -164 -97c-82 0 -134 58 -195 58c-32 0 -66 -24 -94 -54z" />
    <glyph glyph-name="Delta" unicode="&#x2206;" horiz-adv-x="748" 
d="M-61 0l444 746h138l124 -746h-706zM158 124h327l-70 440z" />
    <glyph glyph-name="guillemotleft" unicode="&#xab;" horiz-adv-x="745" 
d="M172 0l-91 281l210 282h120l-201 -282l81 -281h-119zM420 0l-91 281l210 282h121l-201 -282l81 -281h-120z" />
    <glyph glyph-name="guillemotright" unicode="&#xbb;" horiz-adv-x="745" 
d="M49 0l201 283l-81 280h119l91 -281l-210 -282h-120zM296 0l201 283l-80 280h119l92 -281l-211 -282h-121z" />
    <glyph glyph-name="ellipsis" unicode="&#x2026;" horiz-adv-x="803" 
d="M-20 0l35 165h161l-34 -165h-162zM242 0l35 165h161l-34 -165h-162zM504 0l35 165h161l-34 -165h-162z" />
    <glyph glyph-name="Agrave" unicode="&#xc0;" horiz-adv-x="748" 
d="M-62 0l444 746h140l125 -746h-142l-21 132h-318l-76 -132h-152zM236 256h229l-49 308zM437 782l-148 177h159l106 -177h-117z" />
    <glyph glyph-name="Atilde" unicode="&#xc3;" horiz-adv-x="748" 
d="M-62 0l444 746h140l125 -746h-142l-21 132h-318l-76 -132h-152zM236 256h229l-49 308zM557 783c-75 0 -115 53 -165 53c-28 0 -54 -21 -78 -48l-68 67c47 57 98 89 151 89c75 0 115 -53 165 -53c26 0 50 19 76 49l69 -65c-51 -61 -100 -92 -150 -92z" />
    <glyph glyph-name="Otilde" unicode="&#xd5;" horiz-adv-x="836" 
d="M383 -12c-223 0 -356 104 -356 302c0 37 4 77 13 122c58 274 235 341 415 341c221 0 354 -102 354 -299c0 -37 -4 -77 -13 -120c-60 -276 -235 -346 -413 -346zM385 117c146 0 232 71 266 228c7 32 11 61 11 90c0 110 -61 185 -214 185c-146 0 -232 -72 -265 -227
c-7 -31 -10 -61 -10 -90c0 -110 60 -186 212 -186zM601 783c-75 0 -115 53 -165 53c-28 0 -54 -21 -78 -48l-68 67c47 57 98 89 151 89c75 0 115 -53 165 -53c26 0 50 19 76 49l69 -65c-51 -61 -100 -92 -150 -92z" />
    <glyph glyph-name="OE" unicode="&#x152;" horiz-adv-x="1238" 
d="M383 -12c-227 0 -356 104 -356 302c-1 37 4 77 13 122c58 274 235 341 415 341c133 0 225 -35 278 -105l20 93h505l-28 -132h-376l-36 -166h367l-27 -127h-367l-41 -189h381l-27 -127h-509l13 63c-61 -53 -135 -75 -225 -75zM385 117c146 0 232 71 266 228
c7 32 11 61 11 90c0 110 -61 185 -214 185c-146 0 -232 -72 -265 -227c-7 -31 -10 -61 -10 -90c0 -110 60 -186 212 -186z" />
    <glyph glyph-name="oe" unicode="&#x153;" horiz-adv-x="1018" 
d="M683 -11c-110 0 -170 31 -201 80c-50 -56 -120 -80 -215 -80c-184 0 -258 88 -258 222c0 32 4 65 11 101c41 190 145 264 310 264c109 0 174 -30 210 -82c46 52 112 82 212 82c178 0 223 -84 223 -174c0 -50 -11 -116 -24 -174h-386v-12c0 -65 31 -112 134 -112
c64 0 123 15 165 41l54 -98c-72 -48 -152 -58 -235 -58zM275 109c97 0 142 51 164 156c6 25 9 50 9 71c0 67 -32 113 -126 113c-98 0 -143 -53 -165 -159c-6 -24 -9 -48 -9 -71c0 -66 33 -110 127 -110zM736 458c-85 0 -128 -46 -152 -124h258c3 16 5 28 5 45
c0 46 -22 79 -111 79z" />
    <glyph glyph-name="endash" unicode="&#x2013;" horiz-adv-x="716" 
d="M19 261l27 125h631l-26 -125h-632z" />
    <glyph glyph-name="emdash" unicode="&#x2014;" horiz-adv-x="932" 
d="M19 261l27 125h848l-26 -125h-849z" />
    <glyph glyph-name="quotedblleft" unicode="&#x201c;" horiz-adv-x="503" 
d="M72 425l24 117c24 112 43 151 159 199l25 -67c-67 -30 -82 -44 -91 -87h74l-33 -162h-158zM300 425l25 117c23 112 42 151 158 199l25 -67c-68 -30 -83 -44 -93 -87h76l-34 -162h-157z" />
    <glyph glyph-name="quotedblright" unicode="&#x201d;" horiz-adv-x="503" 
d="M113 425l-25 67c68 31 83 44 92 88h-76l35 161h158l-25 -116c-24 -113 -42 -152 -159 -200zM341 425l-26 67c67 31 83 44 92 88h-75l34 161h157l-24 -116c-23 -113 -42 -152 -158 -200z" />
    <glyph glyph-name="quoteleft" unicode="&#x2018;" horiz-adv-x="280" 
d="M71 420l25 119c23 116 43 155 162 205l27 -70c-71 -31 -86 -45 -95 -89h77l-35 -165h-161z" />
    <glyph glyph-name="quoteright" unicode="&#x2019;" horiz-adv-x="280" 
d="M113 417l-27 70c70 30 85 44 94 88h-77l36 166h161l-25 -119c-24 -117 -43 -156 -162 -205z" />
    <glyph glyph-name="divide" unicode="&#xf7;" horiz-adv-x="716" 
d="M227 86l27 125h142l-27 -125h-142zM79 290l27 126h523l-26 -126h-524zM314 494l26 126h142l-27 -126h-141z" />
    <glyph glyph-name="lozenge" unicode="&#x25ca;" horiz-adv-x="638" 
d="M253 0l-226 371l226 370h133l226 -370l-227 -371h-132zM320 108l154 260l-156 265l-154 -261z" />
    <glyph glyph-name="ydieresis" unicode="&#xff;" horiz-adv-x="551" 
d="M35 -170c-29 0 -57 1 -72 2l21 106h43c60 0 67 9 87 46l19 33l-88 546h144l50 -369l205 369h144l-353 -605c-57 -100 -94 -128 -200 -128zM376 618l27 129h124l-27 -129h-124zM161 618l27 129h124l-27 -129h-124z" />
    <glyph glyph-name="Ydieresis" unicode="&#x178;" horiz-adv-x="725" 
d="M211 0l59 274l-182 467h149l129 -333l270 333h157l-382 -470l-57 -271h-143zM280 782l27 129h124l-27 -129h-124zM495 782l27 129h124l-27 -129h-124z" />
    <glyph glyph-name="fraction" unicode="&#x2044;" horiz-adv-x="537" 
d="M-78 0l573 741h121l-573 -741h-121z" />
    <glyph glyph-name="Euro" unicode="&#x20ac;" horiz-adv-x="684" 
d="M39 400l21 101h107c52 149 156 252 310 252c103 0 175 -24 222 -56l-81 -109c-32 21 -72 40 -143 40c-84 0 -137 -53 -170 -127h219l-19 -101h-231c-4 -21 -8 -42 -10 -63h226l-21 -101h-209c4 -79 40 -128 134 -128c30 0 76 4 120 29l59 -103c-59 -35 -132 -46 -195 -46
c-179 0 -249 100 -251 248h-123l21 101h106c2 21 5 42 9 63h-101z" />
    <glyph glyph-name="guilsinglleft" unicode="&#x2039;" horiz-adv-x="470" 
d="M157 0l-91 281l211 282h123l-201 -282l80 -281h-122z" />
    <glyph glyph-name="guilsinglright" unicode="&#x203a;" horiz-adv-x="470" 
d="M34 0l200 283l-80 280h122l92 -281l-211 -282h-123z" />
    <glyph glyph-name="daggerdbl" unicode="&#x2021;" horiz-adv-x="584" 
d="M111 -166l51 242h-174l26 126h174l48 220h-174l26 125h174l49 229h135l-49 -229h175l-26 -125h-175l-48 -220h175l-26 -126h-175l-51 -242h-135z" />
    <glyph glyph-name="periodcentered" unicode="&#xb7;" horiz-adv-x="280" 
d="M39 274l35 169h161l-35 -169h-161z" />
    <glyph glyph-name="quotesinglbase" unicode="&#x201a;" horiz-adv-x="280" 
d="M-10 -150l-24 69c69 30 83 45 93 90h-77l36 165h161l-26 -120c-22 -106 -42 -155 -163 -204z" />
    <glyph glyph-name="quotedblbase" unicode="&#x201e;" horiz-adv-x="503" 
d="M-10 -146l-24 67c68 29 83 43 92 88h-76l34 161h158l-24 -116c-22 -104 -42 -153 -160 -200zM219 -146l-26 67c67 29 82 43 92 88h-75l33 161h158l-24 -116c-22 -104 -41 -153 -158 -200z" />
    <glyph glyph-name="perthousand" unicode="&#x2030;" horiz-adv-x="1661" 
d="M256 268c-136 0 -200 73 -200 183c0 191 117 302 254 302c135 0 198 -77 198 -188c0 -186 -113 -297 -252 -297zM265 373c77 0 120 86 120 187c0 50 -21 85 -83 85c-75 0 -122 -79 -122 -188c0 -50 22 -84 85 -84zM866 -11c-138 0 -200 73 -200 184
c0 190 115 302 254 302c135 0 198 -77 198 -188c0 -186 -114 -298 -252 -298zM875 94c77 0 120 88 120 187c0 51 -22 86 -83 86c-75 0 -122 -79 -122 -188c0 -51 22 -85 85 -85zM1354 -11c-136 0 -199 73 -199 184c0 190 116 302 253 302c135 0 199 -77 199 -188
c0 -186 -114 -298 -253 -298zM1364 94c76 0 119 88 119 187c0 51 -21 86 -83 86c-75 0 -121 -79 -121 -188c0 -51 21 -85 85 -85zM244 0l565 741h127l-565 -741h-127z" />
    <glyph glyph-name="Acircumflex" unicode="&#xc2;" horiz-adv-x="748" 
d="M-62 0l444 746h140l125 -746h-142l-21 132h-318l-76 -132h-152zM236 256h229l-49 308zM238 782l188 177h143l113 -177h-127l-74 91l-114 -91h-129z" />
    <glyph glyph-name="Ecircumflex" unicode="&#xca;" horiz-adv-x="662" 
d="M196 782l188 177h143l113 -177h-127l-74 91l-114 -91h-129zM-1 0l158 741h527l-28 -132h-384l-37 -165h375l-27 -129h-374l-41 -188h388l-26 -127h-531z" />
    <glyph glyph-name="Aacute" unicode="&#xc1;" horiz-adv-x="748" 
d="M-62 0l444 746h140l125 -746h-142l-21 132h-318l-76 -132h-152zM236 256h229l-49 308zM361 782l181 177h170l-224 -177h-127z" />
    <glyph glyph-name="Edieresis" unicode="&#xcb;" horiz-adv-x="662" 
d="M249 782l27 129h124l-27 -129h-124zM464 782l27 129h124l-27 -129h-124zM-1 0l158 741h527l-28 -132h-384l-37 -165h375l-27 -129h-374l-41 -188h388l-26 -127h-531z" />
    <glyph glyph-name="Egrave" unicode="&#xc8;" horiz-adv-x="662" 
d="M-1 0l158 741h527l-28 -132h-384l-37 -165h375l-27 -129h-374l-41 -188h388l-26 -127h-531zM395 782l-148 177h159l106 -177h-117z" />
    <glyph glyph-name="Iacute" unicode="&#xcd;" horiz-adv-x="317" 
d="M181 782l148 178h167l-189 -178h-126zM9 0l158 741h142l-158 -741h-142z" />
    <glyph glyph-name="Icircumflex" unicode="&#xce;" horiz-adv-x="317" 
d="M9 0l158 741h142l-158 -741h-142zM25 782l188 177h143l113 -177h-127l-74 91l-114 -91h-129z" />
    <glyph glyph-name="Idieresis" unicode="&#xcf;" horiz-adv-x="317" 
d="M9 0l158 741h142l-158 -741h-142zM78 782l27 129h124l-27 -129h-124zM293 782l27 129h124l-27 -129h-124z" />
    <glyph glyph-name="Igrave" unicode="&#xcc;" horiz-adv-x="317" 
d="M189 782l-114 178h159l71 -178h-116zM9 0l158 741h142l-158 -741h-142z" />
    <glyph glyph-name="Oacute" unicode="&#xd3;" horiz-adv-x="836" 
d="M405 782l181 177h170l-224 -177h-127zM383 -12c-223 0 -356 104 -356 302c0 37 4 77 13 122c58 274 235 341 415 341c221 0 354 -102 354 -299c0 -37 -4 -77 -13 -120c-60 -276 -235 -346 -413 -346zM385 117c146 0 232 71 266 228c7 32 11 61 11 90
c0 110 -61 185 -214 185c-146 0 -232 -72 -265 -227c-7 -31 -10 -61 -10 -90c0 -110 60 -186 212 -186z" />
    <glyph glyph-name="Ocircumflex" unicode="&#xd4;" horiz-adv-x="836" 
d="M282 782l188 177h143l113 -177h-127l-74 91l-114 -91h-129zM383 -12c-223 0 -356 104 -356 302c0 37 4 77 13 122c58 274 235 341 415 341c221 0 354 -102 354 -299c0 -37 -4 -77 -13 -120c-60 -276 -235 -346 -413 -346zM385 117c146 0 232 71 266 228c7 32 11 61 11 90
c0 110 -61 185 -214 185c-146 0 -232 -72 -265 -227c-7 -31 -10 -61 -10 -90c0 -110 60 -186 212 -186z" />
    <glyph glyph-name="apple" unicode="&#xf8ff;" horiz-adv-x="832" 
d="M172 654l-7 8c67 61 155 97 251 97s185 -37 252 -97l-7 -8c-65 59 -151 95 -245 95s-179 -36 -244 -95zM416 -17c-96 0 -185 37 -252 97l7 8c65 -59 151 -95 245 -95s179 36 244 94c0 1 7 -7 7 -7c-67 -61 -155 -97 -251 -97zM706 120c0 0 -3 3 -8 7c55 66 88 151 88 244
s-33 178 -88 244l8 7c56 -67 90 -155 90 -251c0 -95 -34 -183 -90 -251zM126 120c-56 67 -90 155 -90 251c0 95 34 183 90 250c0 0 3 -2 7 -6c-54 -66 -87 -151 -87 -244s33 -178 88 -244c-5 -4 -8 -7 -8 -7zM416 60c-78 0 -148 29 -201 77c0 0 7 8 7 7
c52 -46 120 -74 194 -74s142 28 193 74l7 -8c-53 -47 -123 -76 -200 -76zM610 597c-51 47 -119 75 -194 75c-74 0 -142 -28 -194 -74l-7 7c54 48 124 77 201 77s147 -29 201 -77zM183 170c-45 55 -72 124 -72 201c0 76 27 146 71 200l8 -7c-43 -52 -69 -120 -69 -193
c0 -74 26 -142 69 -194zM649 171l-7 6c43 53 69 120 69 194s-26 141 -70 193l8 7c45 -54 72 -124 72 -200s-27 -146 -72 -200zM416 121c-62 0 -118 23 -161 61l7 8c41 -37 95 -59 154 -59s113 22 153 59l7 -8c-42 -38 -98 -61 -160 -61zM604 211c0 0 -3 2 -8 7
c35 42 55 95 55 153s-20 112 -55 153l8 7c36 -43 57 -99 57 -160s-21 -117 -57 -160zM570 552c-41 37 -95 59 -154 59s-112 -22 -153 -58l-7 7c43 38 99 61 160 61c62 0 118 -23 161 -61zM228 211c-35 43 -57 99 -57 160s21 116 56 160l8 -7c-33 -41 -54 -95 -54 -153
s20 -112 54 -153c-2 -3 -5 -5 -7 -7zM295 516l-7 8c34 30 79 48 128 48s94 -18 128 -49c1 0 -6 -7 -6 -7c-33 29 -76 46 -122 46s-89 -17 -121 -46zM568 243l-8 7c27 33 43 75 43 121s-16 88 -43 121l8 7c28 -35 45 -79 45 -128s-17 -93 -45 -128zM264 243
c-28 35 -45 79 -45 128c0 48 17 93 45 128l8 -7c-27 -33 -43 -75 -43 -121s16 -88 43 -121zM416 170c-49 0 -94 19 -129 49l7 7c33 -29 75 -46 122 -46c46 0 89 17 121 46l7 -8c-34 -30 -79 -48 -128 -48zM540 269l-8 7c20 26 33 59 33 95s-13 69 -34 95l8 7
c23 -28 36 -63 36 -102s-13 -74 -35 -102zM416 209c-39 0 -75 15 -103 38l7 8c26 -22 60 -36 96 -36s70 14 96 36l6 -8c-27 -23 -63 -38 -102 -38zM292 269c-22 28 -35 64 -35 102c0 39 13 74 36 102l7 -7c-20 -26 -33 -59 -33 -95s13 -69 33 -95zM320 487l-7 8
c28 24 64 38 103 38s75 -15 102 -39l-6 -7c-26 23 -59 36 -96 36c-36 0 -70 -14 -96 -36zM416 240c-32 0 -61 11 -83 30l7 8c21 -17 48 -28 76 -28c29 0 55 11 75 28l7 -7c-22 -19 -50 -31 -82 -31zM316 289c-18 23 -28 51 -28 82s10 59 28 81c2 -2 5 -4 7 -7
c-15 -20 -25 -46 -25 -74s10 -54 26 -75zM516 290l-7 7c15 20 25 46 25 74s-10 54 -26 75l8 7c18 -23 28 -51 28 -82s-10 -59 -28 -81zM341 464l-7 7c22 19 51 31 82 31s60 -11 82 -30l-7 -8c-20 17 -46 28 -75 28c-28 0 -54 -10 -75 -28zM358 445c-4 3 -7 7 -8 8
c18 15 41 24 66 24s48 -9 66 -24l-8 -8c-16 14 -36 22 -58 22s-42 -8 -58 -22zM416 265c-25 0 -48 9 -66 24l7 8c16 -14 37 -22 59 -22s42 8 58 22l7 -8c-18 -15 -40 -24 -65 -24zM334 306c-13 18 -21 40 -21 65c0 24 8 47 21 65l8 -7c-12 -16 -19 -36 -19 -58
c0 -21 7 -41 19 -57zM498 306l-8 7c12 16 19 36 19 58s-7 42 -19 58l7 7c14 -18 22 -41 22 -65s-8 -46 -21 -65zM416 285c-20 0 -38 7 -53 19l7 8c13 -10 29 -17 46 -17s32 6 45 17l7 -8c-14 -12 -32 -19 -52 -19zM371 430l-7 8c14 12 33 19 52 19c20 0 38 -7 52 -19
c-4 -4 -7 -8 -7 -8c-12 11 -28 17 -45 17s-33 -6 -45 -17zM349 320c-10 14 -16 32 -16 51s6 37 16 51l8 -7c-9 -13 -14 -28 -14 -44s5 -31 14 -44zM482 319c-2 3 -4 5 -7 7c9 13 14 29 14 45c0 17 -5 32 -14 44c0 0 8 7 7 7c11 -14 17 -32 17 -51s-6 -37 -17 -52zM468 333
l-8 7c6 9 10 20 10 31s-4 22 -10 31l8 7c8 -11 12 -24 12 -38s-4 -27 -12 -38zM416 305c-15 0 -28 5 -40 14l7 7c10 -7 21 -12 33 -12s23 5 32 12l7 -7c-11 -9 -25 -14 -39 -14zM364 333c-8 11 -12 24 -12 38s4 27 12 38c2 -3 5 -5 7 -7c-5 -9 -9 -20 -9 -31s4 -22 9 -31z
M384 416l-7 7c11 9 24 14 39 14c14 0 27 -5 38 -14l-6 -7c-9 8 -20 12 -32 12s-23 -5 -32 -12zM416 324c-10 0 -19 3 -27 9c2 1 6 6 6 6c6 -4 13 -7 21 -7s15 2 21 7c0 0 2 -2 5 -6c-7 -6 -16 -9 -26 -9zM395 403l-5 6c7 6 16 9 26 9s19 -3 26 -9c-3 -3 -5 -6 -5 -6
c-6 4 -13 7 -21 7s-15 -2 -21 -7zM378 346c-4 7 -7 16 -7 25s3 18 7 25c4 -3 6 -5 6 -5c-3 -6 -5 -13 -5 -20s2 -14 5 -20c0 0 -2 -2 -6 -5zM454 346c-4 3 -6 5 -6 5c3 6 5 13 5 20s-2 14 -5 20l6 5c4 -7 7 -16 7 -25s-3 -18 -7 -25z" />
    <glyph glyph-name="Ograve" unicode="&#xd2;" horiz-adv-x="836" 
d="M383 -12c-223 0 -356 104 -356 302c0 37 4 77 13 122c58 274 235 341 415 341c221 0 354 -102 354 -299c0 -37 -4 -77 -13 -120c-60 -276 -235 -346 -413 -346zM385 117c146 0 232 71 266 228c7 32 11 61 11 90c0 110 -61 185 -214 185c-146 0 -232 -72 -265 -227
c-7 -31 -10 -61 -10 -90c0 -110 60 -186 212 -186zM481 782l-148 177h159l106 -177h-117z" />
    <glyph glyph-name="Uacute" unicode="&#xda;" horiz-adv-x="788" 
d="M381 782l181 177h170l-224 -177h-127zM348 -14c-243 0 -302 105 -302 219c0 32 5 67 12 99l94 437h142l-91 -430c-6 -29 -11 -55 -11 -79c0 -71 40 -116 171 -116c127 0 171 54 195 171l97 454h139l-104 -482c-31 -142 -93 -273 -342 -273z" />
    <glyph glyph-name="Ucircumflex" unicode="&#xdb;" horiz-adv-x="788" 
d="M258 782l188 177h143l113 -177h-127l-74 91l-114 -91h-129zM348 -14c-243 0 -302 105 -302 219c0 32 5 67 12 99l94 437h142l-91 -430c-6 -29 -11 -55 -11 -79c0 -71 40 -116 171 -116c127 0 171 54 195 171l97 454h139l-104 -482c-31 -142 -93 -273 -342 -273z" />
    <glyph glyph-name="Ugrave" unicode="&#xd9;" horiz-adv-x="788" 
d="M348 -14c-243 0 -302 105 -302 219c0 32 5 67 12 99l94 437h142l-91 -430c-6 -29 -11 -55 -11 -79c0 -71 40 -116 171 -116c127 0 171 54 195 171l97 454h139l-104 -482c-31 -142 -93 -273 -342 -273zM457 782l-148 177h159l106 -177h-117z" />
    <glyph glyph-name="dotlessi" unicode="&#x131;" horiz-adv-x="279" 
d="M-8 0l121 563h135l-119 -563h-137z" />
    <glyph glyph-name="circumflex" unicode="&#x2c6;" horiz-adv-x="590" 
d="M126 618l188 177h143l113 -177h-127l-74 91l-114 -91h-129z" />
    <glyph glyph-name="tilde" unicode="&#x2dc;" horiz-adv-x="590" 
d="M445 619c-75 0 -115 53 -165 53c-28 0 -54 -21 -78 -48l-68 67c47 57 98 89 151 89c75 0 115 -53 165 -53c26 0 50 19 76 49l69 -65c-51 -61 -100 -92 -150 -92z" />
    <glyph glyph-name="macron" unicode="&#xaf;" horiz-adv-x="590" 
d="M149 618l24 112h397l-23 -112h-398z" />
    <glyph glyph-name="breve" unicode="&#x2d8;" horiz-adv-x="590" 
d="M365 608c-159 0 -186 84 -184 194l103 12c0 -66 12 -97 88 -97c70 0 99 31 122 97l97 -18c-33 -109 -101 -188 -226 -188z" />
    <glyph glyph-name="dotaccent" unicode="&#x2d9;" horiz-adv-x="590" 
d="M279 618l27 132h139l-28 -132h-138z" />
    <glyph glyph-name="ring" unicode="&#x2da;" horiz-adv-x="590" 
d="M362 608c-91 0 -129 51 -129 113c0 102 62 169 154 169c90 0 129 -55 129 -118c0 -103 -65 -164 -154 -164zM366 678c47 0 78 32 78 86c0 30 -16 56 -61 56c-47 0 -78 -37 -78 -90c0 -29 18 -52 61 -52z" />
    <glyph glyph-name="cedilla" unicode="&#xb8;" horiz-adv-x="590" 
d="M195 -244c-72 0 -121 21 -151 41l48 67c26 -18 57 -33 101 -33c40 0 61 12 61 47c0 32 -43 36 -83 33l-23 19l32 77h78l-20 -50c52 -2 108 -14 108 -77c0 -103 -77 -124 -151 -124z" />
    <glyph glyph-name="hungarumlaut" unicode="&#x2dd;" horiz-adv-x="590" 
d="M127 618l164 177h158l-205 -177h-117zM386 618l165 177h157l-205 -177h-117z" />
    <glyph glyph-name="ogonek" unicode="&#x2db;" horiz-adv-x="590" 
d="M203 -234c-112 0 -143 35 -143 83c0 84 85 135 137 158h90c-67 -39 -122 -82 -122 -125c0 -23 15 -34 61 -34c26 0 53 7 80 18l30 -73c-32 -16 -83 -27 -133 -27z" />
    <glyph glyph-name="caron" unicode="&#x2c7;" horiz-adv-x="590" 
d="M276 618l-112 177h126l75 -90l113 90h130l-188 -177h-144z" />
    <glyph glyph-name="a.alt" horiz-adv-x="647" 
d="M216 -9c-158 0 -209 88 -209 204c0 36 6 76 15 117c35 161 102 264 271 264c117 0 167 -19 195 -66l40 57l94 -8l-118 -553l-107 -11l3 49c-39 -36 -90 -53 -184 -53zM268 111c91 0 132 34 158 155c7 28 9 54 9 77c0 71 -32 107 -124 107c-94 0 -129 -56 -151 -157
c-6 -27 -9 -54 -9 -77c0 -62 26 -105 117 -105z" />
    <glyph glyph-name="g.alt" horiz-adv-x="653" 
d="M242 -179c-139 0 -223 25 -278 50l66 113c46 -24 118 -44 212 -44c99 0 118 17 139 103l2 6c-40 -32 -88 -48 -170 -48c-140 0 -206 66 -206 200c0 36 8 80 15 113c39 168 104 262 271 262c128 0 173 -22 201 -66l40 57l94 -8l-104 -489c-37 -170 -71 -249 -282 -249z
M268 118c92 0 138 35 164 153c7 27 9 54 9 76c0 71 -37 103 -129 103s-129 -51 -152 -152c-6 -27 -9 -49 -9 -76c0 -63 29 -104 117 -104z" />
    <glyph glyph-name="l.alt" horiz-adv-x="279" 
d="M-8 0l165 776h137l-165 -776h-137z" />
    <glyph glyph-name="u.alt" horiz-adv-x="632" 
d="M210 -11c-209 0 -205 110 -176 250l69 324h137l-67 -315c-16 -76 -29 -136 93 -136c94 0 119 55 134 126l69 325h136l-118 -557l-106 -11v48c-35 -31 -85 -54 -171 -54z" />
    <glyph glyph-name="aacute.alt" horiz-adv-x="647" 
d="M276 618l181 177h170l-224 -177h-127zM216 -9c-158 0 -209 88 -209 204c0 36 6 76 15 117c35 161 102 264 271 264c117 0 167 -19 195 -66l40 57l94 -8l-118 -553l-107 -11l3 49c-39 -36 -90 -53 -184 -53zM268 111c91 0 132 34 158 155c7 28 9 54 9 77
c0 71 -32 107 -124 107c-94 0 -129 -56 -151 -157c-6 -27 -9 -54 -9 -77c0 -62 26 -105 117 -105z" />
    <glyph glyph-name="abreve.alt" horiz-adv-x="647" 
d="M216 -9c-158 0 -209 88 -209 204c0 36 6 76 15 117c35 161 102 264 271 264c117 0 167 -19 195 -66l40 57l94 -8l-118 -553l-107 -11l3 49c-39 -36 -90 -53 -184 -53zM268 111c91 0 132 34 158 155c7 28 9 54 9 77c0 71 -32 107 -124 107c-94 0 -129 -56 -151 -157
c-6 -27 -9 -54 -9 -77c0 -62 26 -105 117 -105zM392 608c-159 0 -186 84 -184 194l103 12c0 -66 12 -97 88 -97c70 0 99 31 122 97l97 -18c-33 -109 -101 -188 -226 -188z" />
    <glyph glyph-name="acircumflex.alt" horiz-adv-x="647" 
d="M153 618l188 177h143l113 -177h-127l-74 91l-114 -91h-129zM216 -9c-158 0 -209 88 -209 204c0 36 6 76 15 117c35 161 102 264 271 264c117 0 167 -19 195 -66l40 57l94 -8l-118 -553l-107 -11l3 49c-39 -36 -90 -53 -184 -53zM268 111c91 0 132 34 158 155
c7 28 9 54 9 77c0 71 -32 107 -124 107c-94 0 -129 -56 -151 -157c-6 -27 -9 -54 -9 -77c0 -62 26 -105 117 -105z" />
    <glyph glyph-name="adieresis.alt" horiz-adv-x="647" 
d="M206 618l27 129h124l-27 -129h-124zM421 618l27 129h124l-27 -129h-124zM216 -9c-158 0 -209 88 -209 204c0 36 6 76 15 117c35 161 102 264 271 264c117 0 167 -19 195 -66l40 57l94 -8l-118 -553l-107 -11l3 49c-39 -36 -90 -53 -184 -53zM268 111c91 0 132 34 158 155
c7 28 9 54 9 77c0 71 -32 107 -124 107c-94 0 -129 -56 -151 -157c-6 -27 -9 -54 -9 -77c0 -62 26 -105 117 -105z" />
    <glyph glyph-name="agrave.alt" horiz-adv-x="647" 
d="M216 -9c-158 0 -209 88 -209 204c0 36 6 76 15 117c35 161 102 264 271 264c117 0 167 -19 195 -66l40 57l94 -8l-118 -553l-107 -11l3 49c-39 -36 -90 -53 -184 -53zM268 111c91 0 132 34 158 155c7 28 9 54 9 77c0 71 -32 107 -124 107c-94 0 -129 -56 -151 -157
c-6 -27 -9 -54 -9 -77c0 -62 26 -105 117 -105zM352 618l-148 177h159l106 -177h-117z" />
    <glyph glyph-name="amacron.alt" horiz-adv-x="647" 
d="M216 -9c-158 0 -209 88 -209 204c0 36 6 76 15 117c35 161 102 264 271 264c117 0 167 -19 195 -66l40 57l94 -8l-118 -553l-107 -11l3 49c-39 -36 -90 -53 -184 -53zM268 111c91 0 132 34 158 155c7 28 9 54 9 77c0 71 -32 107 -124 107c-94 0 -129 -56 -151 -157
c-6 -27 -9 -54 -9 -77c0 -62 26 -105 117 -105zM176 618l24 112h397l-23 -112h-398z" />
    <glyph glyph-name="aogonek.alt" horiz-adv-x="647" 
d="M216 -9c-158 0 -209 88 -209 204c0 36 6 76 15 117c35 161 102 264 271 264c117 0 167 -19 195 -66l40 57l94 -8l-118 -553c-63 -38 -113 -81 -113 -123c0 -23 14 -34 58 -34c27 0 44 5 67 15l30 -73c-30 -15 -71 -24 -117 -24c-109 0 -144 34 -144 90
c0 71 55 121 113 151l2 36c-39 -36 -90 -53 -184 -53zM268 111c91 0 132 34 158 155c7 28 9 54 9 77c0 71 -32 107 -124 107c-94 0 -129 -56 -151 -157c-6 -27 -9 -54 -9 -77c0 -62 26 -105 117 -105z" />
    <glyph glyph-name="aring.alt" horiz-adv-x="647" 
d="M389 608c-91 0 -129 51 -129 113c0 102 62 169 154 169c90 0 129 -55 129 -118c0 -103 -65 -164 -154 -164zM393 678c47 0 78 32 78 86c0 30 -16 56 -61 56c-47 0 -78 -37 -78 -90c0 -29 18 -52 61 -52zM216 -9c-158 0 -209 88 -209 204c0 36 6 76 15 117
c35 161 102 264 271 264c117 0 167 -19 195 -66l40 57l94 -8l-118 -553l-107 -11l3 49c-39 -36 -90 -53 -184 -53zM268 111c91 0 132 34 158 155c7 28 9 54 9 77c0 71 -32 107 -124 107c-94 0 -129 -56 -151 -157c-6 -27 -9 -54 -9 -77c0 -62 26 -105 117 -105z" />
    <glyph glyph-name="atilde.alt" horiz-adv-x="647" 
d="M216 -9c-158 0 -209 88 -209 204c0 36 6 76 15 117c35 161 102 264 271 264c117 0 167 -19 195 -66l40 57l94 -8l-118 -553l-107 -11l3 49c-39 -36 -90 -53 -184 -53zM268 111c91 0 132 34 158 155c7 28 9 54 9 77c0 71 -32 107 -124 107c-94 0 -129 -56 -151 -157
c-6 -27 -9 -54 -9 -77c0 -62 26 -105 117 -105zM472 619c-75 0 -115 53 -165 53c-28 0 -54 -21 -78 -48l-68 67c47 57 98 89 151 89c75 0 115 -53 165 -53c26 0 50 19 76 49l69 -65c-51 -61 -100 -92 -150 -92z" />
    <glyph glyph-name="gbreve.alt" horiz-adv-x="653" 
d="M242 -179c-139 0 -223 25 -278 50l66 113c46 -24 118 -44 212 -44c99 0 118 17 139 103l2 6c-40 -32 -88 -48 -170 -48c-140 0 -206 66 -206 200c0 36 8 80 15 113c39 168 104 262 271 262c128 0 173 -22 201 -66l40 57l94 -8l-104 -489c-37 -170 -71 -249 -282 -249z
M268 118c92 0 138 35 164 153c7 27 9 54 9 76c0 71 -37 103 -129 103s-129 -51 -152 -152c-6 -27 -9 -49 -9 -76c0 -63 29 -104 117 -104zM396 608c-159 0 -186 84 -184 194l103 12c0 -66 12 -97 88 -97c70 0 99 31 122 97l97 -18c-33 -109 -101 -188 -226 -188z" />
    <glyph glyph-name="gcommaaccent.alt" horiz-adv-x="653" 
d="M309 618l19 90c21 98 42 136 146 172l18 -61c-61 -27 -74 -37 -81 -71h67l-27 -130h-142zM242 -179c-139 0 -223 25 -278 50l66 113c46 -24 118 -44 212 -44c99 0 118 17 139 103l2 6c-40 -32 -88 -48 -170 -48c-140 0 -206 66 -206 200c0 36 8 80 15 113
c39 168 104 262 271 262c128 0 173 -22 201 -66l40 57l94 -8l-104 -489c-37 -170 -71 -249 -282 -249zM268 118c92 0 138 35 164 153c7 27 9 54 9 76c0 71 -37 103 -129 103s-129 -51 -152 -152c-6 -27 -9 -49 -9 -76c0 -63 29 -104 117 -104z" />
    <glyph glyph-name="lacute.alt" horiz-adv-x="279" 
d="M171 815l181 177h170l-224 -177h-127zM-8 0l165 776h137l-165 -776h-137z" />
    <glyph glyph-name="lcommaaccent.alt" horiz-adv-x="279" 
d="M-42 -312l-18 59c61 28 74 38 81 72h-67l29 142h142l-21 -102c-21 -99 -41 -134 -146 -171zM-8 0l165 776h137l-165 -776h-137z" />
    <glyph glyph-name="lslash.alt" horiz-adv-x="319" 
d="M-7 337l26 118l100 52l58 269h137l-40 -189l102 53l-26 -120l-102 -52l-99 -468h-137l82 389z" />
    <glyph glyph-name="lcaron.alt" horiz-adv-x="415" 
d="M333 502l-18 61c61 27 73 37 81 71h-60l29 142h135l-21 -102c-21 -98 -43 -129 -146 -172zM-8 0l165 776h137l-165 -776h-137z" />
    <glyph glyph-name="uacute.alt" horiz-adv-x="632" 
d="M268 618l181 177h170l-224 -177h-127zM210 -11c-209 0 -205 110 -176 250l69 324h137l-67 -315c-16 -76 -29 -136 93 -136c94 0 119 55 134 126l69 325h136l-118 -557l-106 -11v48c-35 -31 -85 -54 -171 -54z" />
    <glyph glyph-name="ucircumflex.alt" horiz-adv-x="632" 
d="M145 618l188 177h143l113 -177h-127l-74 91l-114 -91h-129zM210 -11c-209 0 -205 110 -176 250l69 324h137l-67 -315c-16 -76 -29 -136 93 -136c94 0 119 55 134 126l69 325h136l-118 -557l-106 -11v48c-35 -31 -85 -54 -171 -54z" />
    <glyph glyph-name="udieresis.alt" horiz-adv-x="632" 
d="M198 618l27 129h124l-27 -129h-124zM413 618l27 129h124l-27 -129h-124zM210 -11c-209 0 -205 110 -176 250l69 324h137l-67 -315c-16 -76 -29 -136 93 -136c94 0 119 55 134 126l69 325h136l-118 -557l-106 -11v48c-35 -31 -85 -54 -171 -54z" />
    <glyph glyph-name="ugrave.alt" horiz-adv-x="632" 
d="M344 618l-148 177h159l106 -177h-117zM210 -11c-209 0 -205 110 -176 250l69 324h137l-67 -315c-16 -76 -29 -136 93 -136c94 0 119 55 134 126l69 325h136l-118 -557l-106 -11v48c-35 -31 -85 -54 -171 -54z" />
    <glyph glyph-name="uhungarumlaut.alt" horiz-adv-x="632" 
d="M146 618l164 177h158l-205 -177h-117zM405 618l165 177h157l-205 -177h-117zM210 -11c-209 0 -205 110 -176 250l69 324h137l-67 -315c-16 -76 -29 -136 93 -136c94 0 119 55 134 126l69 325h136l-118 -557l-106 -11v48c-35 -31 -85 -54 -171 -54z" />
    <glyph glyph-name="umacron.alt" horiz-adv-x="632" 
d="M168 618l24 112h397l-23 -112h-398zM210 -11c-209 0 -205 110 -176 250l69 324h137l-67 -315c-16 -76 -29 -136 93 -136c94 0 119 55 134 126l69 325h136l-118 -557l-106 -11v48c-35 -31 -85 -54 -171 -54z" />
    <glyph glyph-name="uogonek.alt" horiz-adv-x="632" 
d="M210 -11c-209 0 -205 110 -176 250l69 324h137l-67 -315c-16 -76 -29 -136 93 -136c94 0 119 55 134 126l69 325h136l-118 -557c-62 -38 -113 -81 -113 -123c0 -23 15 -34 59 -34c26 0 44 5 67 15l30 -73c-30 -15 -71 -24 -117 -24c-109 0 -144 34 -144 90
c0 71 55 120 112 151v35c-35 -31 -85 -54 -171 -54z" />
    <glyph glyph-name="uring.alt" horiz-adv-x="632" 
d="M381 608c-91 0 -129 51 -129 113c0 102 62 169 154 169c90 0 129 -55 129 -118c0 -103 -65 -164 -154 -164zM385 678c47 0 78 32 78 86c0 30 -16 56 -61 56c-47 0 -78 -37 -78 -90c0 -29 18 -52 61 -52zM210 -11c-209 0 -205 110 -176 250l69 324h137l-67 -315
c-16 -76 -29 -136 93 -136c94 0 119 55 134 126l69 325h136l-118 -557l-106 -11v48c-35 -31 -85 -54 -171 -54z" />
    <glyph glyph-name="fl.alt" horiz-adv-x="674" 
d="M42 443l26 120h106l11 52c26 123 81 177 231 177c26 0 51 -1 62 -2l-23 -114h-36c-71 0 -90 -27 -100 -75l-8 -38h119l-24 -120h-121l-129 -608h-137l129 608h-106zM388 0l165 776h137l-166 -776h-136z" />
    <glyph glyph-name="f_f_l.alt" horiz-adv-x="1008" 
d="M352 -165l129 608h-196l-129 -608h-137l129 608h-106l26 120h106l11 52c26 123 81 177 231 177c40 0 47 -1 62 -2l-23 -114h-36c-71 0 -90 -27 -100 -75l-8 -38h196l11 52c27 123 82 177 232 177c22 0 47 -1 62 -2l-25 -114h-35c-70 0 -90 -27 -101 -75l-8 -38h121
l-26 -120h-121l-128 -608h-137zM721 0l165 776h136l-165 -776h-136z" />
    <glyph glyph-name="commaaccent" unicode="&#xf6c3;" horiz-adv-x="280" 
d="M-42 -312l-18 59c61 28 74 38 81 72h-67l29 142h142l-21 -102c-21 -99 -41 -134 -146 -171z" />
    <glyph glyph-name="commaaccent.2" horiz-adv-x="280" 
d="M123 618l19 90c21 98 42 136 146 172l18 -61c-61 -27 -74 -37 -81 -71h67l-27 -130h-142z" />
    <glyph glyph-name="Abreve" unicode="&#x102;" horiz-adv-x="748" 
d="M-62 0l444 746h140l125 -746h-142l-21 132h-318l-76 -132h-152zM236 256h229l-49 308zM477 772c-159 0 -186 84 -184 194l103 12c0 -66 12 -97 88 -97c70 0 99 31 122 97l97 -18c-33 -109 -101 -188 -226 -188z" />
    <glyph glyph-name="Amacron" unicode="&#x100;" horiz-adv-x="748" 
d="M-62 0l444 746h140l125 -746h-142l-21 132h-318l-76 -132h-152zM236 256h229l-49 308zM261 782l24 112h397l-23 -112h-398z" />
    <glyph glyph-name="Aogonek" unicode="&#x104;" horiz-adv-x="748" 
d="M-62 0l444 746h140l125 -746h-51c-60 -37 -107 -77 -107 -117c0 -23 15 -34 61 -34c27 0 48 6 71 16l30 -73c-32 -16 -77 -25 -123 -25c-112 0 -144 34 -144 87c0 75 61 128 119 158l-19 120h-318l-76 -132h-152zM236 256h229l-49 308z" />
    <glyph glyph-name="Cacute" unicode="&#x106;" horiz-adv-x="733" 
d="M353 782l181 177h170l-224 -177h-127zM363 -11c-238 0 -337 114 -337 290c0 40 4 83 14 129c57 269 222 345 406 345c171 0 251 -57 298 -113l-118 -95c-37 45 -95 75 -183 75c-135 0 -226 -67 -261 -230c-7 -33 -10 -64 -10 -92c0 -109 59 -179 204 -179
c79 0 133 23 182 62l84 -103c-70 -60 -152 -89 -279 -89z" />
    <glyph glyph-name="Ccaron" unicode="&#x10c;" horiz-adv-x="733" 
d="M380 782l-112 177h126l75 -90l113 90h130l-188 -177h-144zM363 -11c-238 0 -337 114 -337 290c0 40 4 83 14 129c57 269 222 345 406 345c171 0 251 -57 298 -113l-118 -95c-37 45 -95 75 -183 75c-135 0 -226 -67 -261 -230c-7 -33 -10 -64 -10 -92
c0 -109 59 -179 204 -179c79 0 133 23 182 62l84 -103c-70 -60 -152 -89 -279 -89z" />
    <glyph glyph-name="Dcaron" unicode="&#x10e;" horiz-adv-x="765" 
d="M395 782l-112 177h126l75 -90l113 90h130l-188 -177h-144zM-2 0l159 741h184c285 0 399 -78 399 -264c0 -44 -5 -92 -18 -148c-61 -287 -201 -329 -416 -329h-308zM168 128h141c167 0 231 40 270 219c9 41 14 77 14 109c0 105 -61 154 -240 154h-81z" />
    <glyph glyph-name="Dcroat" unicode="&#x110;" horiz-adv-x="765" 
d="M-11 319l25 115h77l66 307h184c285 0 399 -78 399 -264c0 -44 -5 -92 -18 -148c-61 -287 -201 -329 -416 -329h-308l68 319h-77zM168 128h141c167 0 231 40 270 219c9 41 14 77 14 109c0 105 -61 154 -253 154h-68l-38 -176h145l-25 -115h-145z" />
    <glyph glyph-name="Emacron" unicode="&#x112;" horiz-adv-x="662" 
d="M-1 0l158 741h527l-28 -132h-384l-37 -165h375l-27 -129h-374l-41 -188h388l-26 -127h-531zM219 782l24 112h397l-23 -112h-398z" />
    <glyph glyph-name="Edotaccent" unicode="&#x116;" horiz-adv-x="662" 
d="M-1 0l158 741h527l-28 -132h-384l-37 -165h375l-27 -129h-374l-41 -188h388l-26 -127h-531zM349 782l27 132h139l-28 -132h-138z" />
    <glyph glyph-name="Eogonek" unicode="&#x118;" horiz-adv-x="662" 
d="M-1 0l158 741h527l-28 -132h-384l-37 -165h375l-27 -129h-374l-41 -188h388l-26 -127h-90c-61 -37 -110 -77 -110 -118c0 -23 15 -34 61 -34c27 0 53 7 80 18l30 -73c-32 -16 -82 -27 -132 -27c-112 0 -144 35 -144 83c0 76 70 126 122 151h-348z" />
    <glyph glyph-name="Ecaron" unicode="&#x11a;" horiz-adv-x="662" 
d="M346 782l-112 177h126l75 -90l113 90h130l-188 -177h-144zM-1 0l158 741h527l-28 -132h-384l-37 -165h375l-27 -129h-374l-41 -188h388l-26 -127h-531z" />
    <glyph glyph-name="Gbreve" unicode="&#x11e;" horiz-adv-x="781" 
d="M370 -11c-242 0 -344 109 -344 289c0 50 6 91 14 130c48 240 192 345 405 345c164 0 262 -57 306 -115l-118 -96c-31 36 -78 78 -197 78c-141 0 -224 -78 -256 -230c-6 -29 -10 -63 -10 -93c0 -116 60 -185 209 -185c136 0 177 46 204 175l3 16h-205l25 123h347l-25 -121
c-49 -242 -132 -316 -358 -316zM493 772c-159 0 -186 84 -184 194l103 12c0 -66 12 -97 88 -97c70 0 99 31 122 97l97 -18c-33 -109 -101 -188 -226 -188z" />
    <glyph glyph-name="Gcommaaccent" unicode="&#x122;" horiz-adv-x="781" 
d="M207 -312l-18 59c61 28 74 38 81 72h-67l29 142h142l-21 -102c-21 -99 -41 -134 -146 -171zM370 -11c-242 0 -344 109 -344 289c0 50 6 91 14 130c48 240 192 345 405 345c164 0 262 -57 306 -115l-118 -96c-31 36 -78 78 -197 78c-141 0 -224 -78 -256 -230
c-6 -29 -10 -63 -10 -93c0 -116 60 -185 209 -185c136 0 177 46 204 175l3 16h-205l25 123h347l-25 -121c-49 -242 -132 -316 -358 -316z" />
    <glyph glyph-name="uni0130" horiz-adv-x="317" 
d="M9 0l158 741h142l-158 -741h-142zM177 782l27 132h139l-28 -132h-138z" />
    <glyph glyph-name="Imacron" unicode="&#x12a;" horiz-adv-x="317" 
d="M9 0l158 741h142l-158 -741h-142zM47 782l24 112h397l-23 -112h-398z" />
    <glyph glyph-name="Iogonek" unicode="&#x12e;" horiz-adv-x="317" 
d="M74 -234c-112 0 -144 35 -144 87c0 73 56 121 105 148h-26l158 740h142l-158 -741c-63 -38 -115 -76 -115 -118c0 -23 14 -34 58 -34c24 0 45 4 72 15l30 -72c-30 -15 -72 -25 -122 -25z" />
    <glyph glyph-name="Kcommaaccent" unicode="&#x136;" horiz-adv-x="726" 
d="M469 0l-142 350l-142 -135l-46 -215h-140l158 741h140l-71 -332l344 332h171l-302 -290l180 -451h-150zM180 -312l-18 59c61 28 74 38 81 72h-67l29 142h142l-21 -102c-21 -99 -41 -134 -146 -171z" />
    <glyph glyph-name="Lacute" unicode="&#x139;" horiz-adv-x="590" 
d="M174 782l181 177h170l-224 -177h-127zM-1 0l158 741h143l-132 -614h352l-26 -127h-495z" />
    <glyph glyph-name="Lcommaaccent" unicode="&#x13b;" horiz-adv-x="590" 
d="M112 -312l-18 59c61 28 74 38 81 72h-67l29 142h142l-21 -102c-21 -99 -41 -134 -146 -171zM-1 0l158 741h143l-132 -614h352l-26 -127h-495z" />
    <glyph glyph-name="Lcaron" unicode="&#x13d;" horiz-adv-x="590" 
d="M357 502l-18 61c61 27 73 37 81 71h-60l29 142h135l-21 -102c-21 -98 -43 -129 -146 -172zM-1 0l158 741h143l-132 -614h352l-26 -127h-495z" />
    <glyph glyph-name="Nacute" unicode="&#x143;" horiz-adv-x="791" 
d="M383 782l181 177h170l-224 -177h-127zM-1 0l158 741h154l237 -507l109 507h137l-158 -741h-131l-255 537l-115 -537h-136z" />
    <glyph glyph-name="Ncommaaccent" unicode="&#x145;" horiz-adv-x="791" 
d="M213 -312l-18 59c61 28 74 38 81 72h-67l29 142h142l-21 -102c-21 -99 -41 -134 -146 -171zM-1 0l158 741h154l237 -507l109 507h137l-158 -741h-131l-255 537l-115 -537h-136z" />
    <glyph glyph-name="Ncaron" unicode="&#x147;" horiz-adv-x="791" 
d="M410 782l-112 177h126l75 -90l113 90h130l-188 -177h-144zM-1 0l158 741h154l237 -507l109 507h137l-158 -741h-131l-255 537l-115 -537h-136z" />
    <glyph glyph-name="Omacron" unicode="&#x14c;" horiz-adv-x="836" 
d="M305 782l24 112h397l-23 -112h-398zM383 -12c-223 0 -356 104 -356 302c0 37 4 77 13 122c58 274 235 341 415 341c221 0 354 -102 354 -299c0 -37 -4 -77 -13 -120c-60 -276 -235 -346 -413 -346zM385 117c146 0 232 71 266 228c7 32 11 61 11 90
c0 110 -61 185 -214 185c-146 0 -232 -72 -265 -227c-7 -31 -10 -61 -10 -90c0 -110 60 -186 212 -186z" />
    <glyph glyph-name="Ohungarumlaut" unicode="&#x150;" horiz-adv-x="836" 
d="M283 782l164 177h158l-205 -177h-117zM542 782l165 177h157l-205 -177h-117zM383 -12c-223 0 -356 104 -356 302c0 37 4 77 13 122c58 274 235 341 415 341c221 0 354 -102 354 -299c0 -37 -4 -77 -13 -120c-60 -276 -235 -346 -413 -346zM385 117c146 0 232 71 266 228
c7 32 11 61 11 90c0 110 -61 185 -214 185c-146 0 -232 -72 -265 -227c-7 -31 -10 -61 -10 -90c0 -110 60 -186 212 -186z" />
    <glyph glyph-name="Racute" unicode="&#x154;" horiz-adv-x="739" 
d="M452 0l-91 258h-167l-56 -258h-140l159 741h278c225 0 289 -84 289 -185c0 -148 -60 -265 -220 -292l93 -264h-145zM220 384h205c98 0 151 42 151 142c0 63 -50 89 -153 89h-153zM357 782l181 177h170l-224 -177h-127z" />
    <glyph glyph-name="Rcommaaccent" unicode="&#x156;" horiz-adv-x="739" 
d="M452 0l-91 258h-167l-56 -258h-140l159 741h278c225 0 289 -84 289 -185c0 -148 -60 -265 -220 -292l93 -264h-145zM220 384h205c98 0 151 42 151 142c0 63 -50 89 -153 89h-153zM187 -312l-18 59c61 28 74 38 81 72h-67l29 142h142l-21 -102c-21 -99 -41 -134 -146 -171
z" />
    <glyph glyph-name="Rcaron" unicode="&#x158;" horiz-adv-x="739" 
d="M452 0l-91 258h-167l-56 -258h-140l159 741h278c225 0 289 -84 289 -185c0 -148 -60 -265 -220 -292l93 -264h-145zM220 384h205c98 0 151 42 151 142c0 63 -50 89 -153 89h-153zM384 782l-112 177h126l75 -90l113 90h130l-188 -177h-144z" />
    <glyph glyph-name="Sacute" unicode="&#x15a;" horiz-adv-x="712" 
d="M343 782l181 177h170l-224 -177h-127zM324 -11c-170 0 -283 49 -361 108l92 102c69 -54 160 -88 276 -88c96 0 161 20 161 97c0 67 -53 76 -168 108c-131 37 -230 69 -230 204c0 180 135 233 288 233c172 0 262 -48 311 -86l-93 -108c-42 33 -116 67 -223 67
c-85 0 -138 -21 -138 -93c0 -57 59 -74 149 -96c138 -35 250 -69 250 -200c0 -180 -127 -248 -314 -248z" />
    <glyph glyph-name="Scedilla" unicode="&#x15e;" horiz-adv-x="712" 
d="M255 -244c-72 0 -121 21 -151 41l48 67c26 -18 57 -33 101 -33c40 0 61 12 61 47c0 32 -43 36 -83 33l-23 19l26 64c-121 14 -208 55 -271 103l92 102c69 -54 160 -88 276 -88c96 0 161 20 161 97c0 67 -53 76 -168 108c-131 37 -230 69 -230 204c0 180 135 233 288 233
c172 0 262 -48 311 -86l-93 -108c-42 33 -116 67 -223 67c-85 0 -138 -21 -138 -93c0 -57 59 -74 149 -96c138 -35 250 -69 250 -200c0 -180 -127 -248 -314 -248h-13l-13 -32c52 -2 108 -14 108 -77c0 -103 -77 -124 -151 -124z" />
    <glyph glyph-name="Scommaaccent" unicode="&#x218;" horiz-adv-x="712" 
d="M173 -312l-18 59c61 28 74 38 81 72h-67l29 142h142l-21 -102c-21 -99 -41 -134 -146 -171zM324 -11c-170 0 -283 49 -361 108l92 102c69 -54 160 -88 276 -88c96 0 161 20 161 97c0 67 -53 76 -168 108c-131 37 -230 69 -230 204c0 180 135 233 288 233
c172 0 262 -48 311 -86l-93 -108c-42 33 -116 67 -223 67c-85 0 -138 -21 -138 -93c0 -57 59 -74 149 -96c138 -35 250 -69 250 -200c0 -180 -127 -248 -314 -248z" />
    <glyph glyph-name="Tcommaaccent" unicode="&#x162;" horiz-adv-x="682" 
d="M158 -312l-18 59c61 28 74 38 81 72h-67l29 142h142l-21 -102c-21 -99 -41 -134 -146 -171zM192 0l130 609h-253l28 132h647l-28 -132h-252l-130 -609h-142z" />
    <glyph glyph-name="Tcaron" unicode="&#x164;" horiz-adv-x="682" 
d="M355 782l-112 177h126l75 -90l113 90h130l-188 -177h-144zM192 0l130 609h-253l28 132h647l-28 -132h-252l-130 -609h-142z" />
    <glyph glyph-name="Umacron" unicode="&#x16a;" horiz-adv-x="788" 
d="M348 -14c-243 0 -302 105 -302 219c0 32 5 67 12 99l94 437h142l-91 -430c-6 -29 -11 -55 -11 -79c0 -71 40 -116 171 -116c127 0 171 54 195 171l97 454h139l-104 -482c-31 -142 -93 -273 -342 -273zM281 782l24 112h397l-23 -112h-398z" />
    <glyph glyph-name="Uring" unicode="&#x16e;" horiz-adv-x="788" 
d="M494 772c-91 0 -129 51 -129 113c0 102 62 169 154 169c90 0 129 -55 129 -118c0 -103 -65 -164 -154 -164zM498 842c47 0 78 32 78 86c0 30 -16 56 -61 56c-47 0 -78 -37 -78 -90c0 -29 18 -52 61 -52zM348 -14c-243 0 -302 105 -302 219c0 32 5 67 12 99l94 437h142
l-91 -430c-6 -29 -11 -55 -11 -79c0 -71 40 -116 171 -116c127 0 171 54 195 171l97 454h139l-104 -482c-31 -142 -93 -273 -342 -273z" />
    <glyph glyph-name="Uhungarumlaut" unicode="&#x170;" horiz-adv-x="788" 
d="M348 -14c-243 0 -302 105 -302 219c0 32 5 67 12 99l94 437h142l-91 -430c-6 -29 -11 -55 -11 -79c0 -71 40 -116 171 -116c127 0 171 54 195 171l97 454h139l-104 -482c-31 -142 -93 -273 -342 -273zM259 782l164 177h158l-205 -177h-117zM518 782l165 177h157
l-205 -177h-117z" />
    <glyph glyph-name="Uogonek" unicode="&#x172;" horiz-adv-x="788" 
d="M413 -235c-112 0 -145 34 -145 83c0 68 55 113 104 140c-6 -2 -18 -2 -25 -2c-242 0 -301 103 -301 217c0 33 5 68 12 101l94 437h142l-91 -431c-7 -30 -11 -57 -11 -81c0 -72 39 -116 170 -116s172 55 196 173l97 455h139l-104 -482c-23 -110 -60 -199 -186 -255
c-80 -35 -135 -81 -135 -126c0 -21 14 -36 67 -36c27 0 54 6 81 17l28 -66c-31 -17 -83 -28 -132 -28z" />
    <glyph glyph-name="Zacute" unicode="&#x179;" horiz-adv-x="665" 
d="M320 782l181 177h170l-224 -177h-127zM-44 0l24 109l502 500h-378l27 132h565l-24 -119l-497 -495h400l-26 -127h-593z" />
    <glyph glyph-name="Zdotaccent" unicode="&#x17b;" horiz-adv-x="665" 
d="M-44 0l24 109l502 500h-378l27 132h565l-24 -119l-497 -495h400l-26 -127h-593zM350 782l27 132h139l-28 -132h-138z" />
    <glyph glyph-name="abreve" unicode="&#x103;" 
d="M189 -10c-160 0 -204 64 -204 159c0 173 133 216 348 216h73c2 13 4 25 4 36c0 35 -23 52 -116 52c-45 0 -111 -15 -147 -34l-51 106c46 28 130 51 224 51c230 0 243 -84 210 -242l-35 -162c-9 -44 -11 -57 40 -56l-25 -114c-8 -3 -28 -4 -58 -4c-49 0 -72 11 -80 53
c-35 -39 -97 -61 -183 -61zM383 608c-159 0 -186 84 -184 194l103 12c0 -66 12 -97 88 -97c70 0 99 31 122 97l97 -18c-33 -109 -101 -188 -226 -188zM227 104c93 0 129 31 151 134l5 25h-70c-135 0 -191 -14 -191 -99c0 -37 22 -60 105 -60z" />
    <glyph glyph-name="amacron" unicode="&#x101;" 
d="M189 -10c-160 0 -204 64 -204 159c0 173 133 216 348 216h73c2 13 4 25 4 36c0 35 -23 52 -116 52c-45 0 -111 -15 -147 -34l-51 106c46 28 130 51 224 51c230 0 243 -84 210 -242l-35 -162c-9 -44 -11 -57 40 -56l-25 -114c-8 -3 -28 -4 -58 -4c-49 0 -72 11 -80 53
c-35 -39 -97 -61 -183 -61zM167 618l24 112h397l-23 -112h-398zM227 104c93 0 129 31 151 134l5 25h-70c-135 0 -191 -14 -191 -99c0 -37 22 -60 105 -60z" />
    <glyph glyph-name="aogonek" unicode="&#x105;" 
d="M189 -10c-160 0 -204 64 -204 159c0 173 133 216 348 216h72c3 14 5 25 5 36c0 35 -23 52 -116 52c-45 0 -111 -15 -147 -34l-51 106c46 28 130 51 224 51c230 0 243 -84 210 -242l-35 -162c-9 -44 -11 -57 40 -56l-25 -114c-62 -38 -116 -77 -116 -119
c0 -23 15 -34 59 -34c27 0 47 5 70 15l31 -73c-31 -15 -75 -24 -121 -24c-109 0 -144 34 -144 90c0 72 61 123 115 149c-8 3 -14 6 -18 11c-7 8 -12 20 -14 34c-35 -39 -97 -61 -183 -61zM227 104c93 0 129 31 151 134l5 25h-70c-135 0 -191 -14 -191 -99
c0 -37 22 -60 105 -60z" />
    <glyph glyph-name="cacute" unicode="&#x107;" horiz-adv-x="561" 
d="M235 618l181 177h170l-224 -177h-127zM260 -10c-191 0 -251 94 -251 215c0 36 4 71 11 107c33 162 117 264 309 264c126 0 186 -43 226 -95l-114 -90c-19 26 -45 57 -124 57c-89 0 -138 -47 -160 -158c-5 -23 -8 -48 -8 -71c0 -66 30 -110 122 -110c44 0 78 7 125 43
l74 -88c-67 -55 -134 -74 -210 -74z" />
    <glyph glyph-name="ccaron" unicode="&#x10d;" horiz-adv-x="561" 
d="M262 618l-112 177h126l75 -90l113 90h130l-188 -177h-144zM260 -10c-191 0 -251 94 -251 215c0 36 4 71 11 107c33 162 117 264 309 264c126 0 186 -43 226 -95l-114 -90c-19 26 -45 57 -124 57c-89 0 -138 -47 -160 -158c-5 -23 -8 -48 -8 -71c0 -66 30 -110 122 -110
c44 0 78 7 125 43l74 -88c-67 -55 -134 -74 -210 -74z" />
    <glyph glyph-name="dcaron" unicode="&#x10f;" horiz-adv-x="795" 
d="M714 502l-19 61c61 27 74 37 81 71h-60l30 142h134l-21 -102c-21 -98 -43 -129 -145 -172zM216 -9c-158 0 -209 88 -209 204c0 36 6 76 15 117c35 161 102 264 271 264c117 0 165 -26 186 -64l58 264h137l-164 -770l-106 -11l2 49c-39 -36 -96 -53 -190 -53zM268 111
c92 0 138 34 164 155c7 28 9 54 9 77c0 71 -35 107 -129 107c-95 0 -130 -56 -152 -157c-6 -27 -9 -54 -9 -77c0 -62 26 -105 117 -105z" />
    <glyph glyph-name="dcroat" unicode="&#x111;" horiz-adv-x="653" 
d="M389 608l22 111h113l13 57h137l-12 -57h79l-23 -111h-80l-128 -602l-106 -11l2 49c-39 -36 -96 -53 -190 -53c-158 0 -209 88 -209 204c0 36 6 76 15 117c35 161 102 264 271 264c117 0 165 -26 186 -64l21 96h-111zM268 111c92 0 138 34 164 155c7 28 9 54 9 77
c0 71 -35 107 -129 107c-95 0 -130 -56 -152 -157c-6 -27 -9 -54 -9 -77c0 -62 26 -105 117 -105z" />
    <glyph glyph-name="emacron" unicode="&#x113;" horiz-adv-x="593" 
d="M257 -11c-192 0 -249 96 -249 214c0 37 5 73 12 109c33 164 121 264 306 264c178 0 223 -84 223 -174c0 -50 -11 -116 -24 -174h-386v-12c0 -65 31 -112 134 -112c64 0 123 15 165 41l54 -98c-72 -48 -152 -58 -235 -58zM150 618l24 112h397l-23 -112h-398zM310 458
c-85 0 -127 -45 -151 -123h257c3 15 5 27 5 44c0 46 -22 79 -111 79z" />
    <glyph glyph-name="edotaccent" unicode="&#x117;" horiz-adv-x="593" 
d="M257 -11c-192 0 -249 96 -249 214c0 37 5 73 12 109c33 164 121 264 306 264c178 0 223 -84 223 -174c0 -50 -11 -116 -24 -174h-386v-12c0 -65 31 -112 134 -112c64 0 123 15 165 41l54 -98c-72 -48 -152 -58 -235 -58zM310 458c-85 0 -127 -45 -151 -123h257
c3 15 5 27 5 44c0 46 -22 79 -111 79zM280 618l27 132h139l-28 -132h-138z" />
    <glyph glyph-name="eogonek" unicode="&#x119;" horiz-adv-x="593" 
d="M257 -11c-192 0 -249 96 -249 214c0 37 5 73 12 109c33 164 121 264 306 264c178 0 223 -84 223 -174c0 -50 -11 -116 -24 -174h-386v-12c0 -65 31 -112 134 -112c64 0 123 15 165 41l54 -98c-36 -24 -73 -38 -112 -47c-62 -37 -110 -77 -110 -118c0 -23 15 -34 61 -34
c26 0 53 7 80 18l30 -73c-32 -16 -83 -27 -133 -27c-112 0 -143 35 -143 83c0 67 52 112 100 140h-8zM310 458c-85 0 -127 -45 -151 -123h257c3 15 5 27 5 44c0 46 -22 79 -111 79z" />
    <glyph glyph-name="ecaron" unicode="&#x11b;" horiz-adv-x="593" 
d="M257 -11c-192 0 -249 96 -249 214c0 37 5 73 12 109c33 164 121 264 306 264c178 0 223 -84 223 -174c0 -50 -11 -116 -24 -174h-386v-12c0 -65 31 -112 134 -112c64 0 123 15 165 41l54 -98c-72 -48 -152 -58 -235 -58zM277 618l-112 177h126l75 -90l113 90h130
l-188 -177h-144zM310 458c-85 0 -127 -45 -151 -123h257c3 15 5 27 5 44c0 46 -22 79 -111 79z" />
    <glyph glyph-name="gbreve" unicode="&#x11f;" horiz-adv-x="625" 
d="M294 206c-42 0 -78 3 -109 10c-5 -9 -8 -19 -8 -31c0 -20 8 -32 51 -32c218 -4 291 -36 291 -141c0 -157 -105 -192 -309 -191c-201 0 -283 39 -283 138c0 94 67 138 149 150c-16 17 -22 41 -22 66c0 34 17 62 40 84c-31 26 -44 62 -44 105c0 151 85 212 263 212
c16 0 34 -1 52 -2l248 45l-18 -110h-87c25 -25 42 -65 42 -108c0 -135 -84 -195 -256 -195zM381 608c-159 0 -186 84 -184 194l103 12c0 -66 12 -97 88 -97c70 0 99 31 122 97l97 -18c-33 -109 -101 -188 -226 -188zM233 -81c102 -1 142 14 142 75c0 44 -48 57 -177 57
c-98 0 -124 -23 -124 -71c0 -37 39 -61 159 -61zM295 304c79 0 119 31 119 97c0 41 -29 65 -111 65c-79 0 -118 -29 -118 -98c0 -38 25 -64 110 -64z" />
    <glyph glyph-name="gcommaaccent" unicode="&#x123;" horiz-adv-x="625" 
d="M294 206c-42 0 -78 3 -109 10c-5 -9 -8 -19 -8 -31c0 -20 8 -32 51 -32c218 -4 291 -36 291 -141c0 -157 -105 -192 -309 -191c-201 0 -283 39 -283 138c0 94 67 138 149 150c-16 17 -22 41 -22 66c0 34 17 62 40 84c-31 26 -44 62 -44 105c0 151 85 212 263 212
c16 0 34 -1 52 -2l248 45l-18 -110h-87c25 -25 42 -65 42 -108c0 -135 -84 -195 -256 -195zM233 -81c102 -1 142 14 142 75c0 44 -48 57 -177 57c-98 0 -124 -23 -124 -71c0 -37 39 -61 159 -61zM295 304c79 0 119 31 119 97c0 41 -29 65 -111 65c-79 0 -118 -29 -118 -98
c0 -38 25 -64 110 -64zM279 618l19 90c21 98 42 136 146 172l18 -61c-61 -27 -74 -37 -81 -71h67l-27 -130h-142z" />
    <glyph glyph-name="imacron" unicode="&#x12b;" horiz-adv-x="279" 
d="M-8 0l121 563h135l-119 -563h-137zM-5 618l24 112h397l-23 -112h-398z" />
    <glyph glyph-name="iogonek" unicode="&#x12f;" horiz-adv-x="279" 
d="M52 -234c-112 0 -144 35 -144 87c0 74 58 123 107 149h-23l121 561h135l-119 -563c-62 -37 -115 -76 -115 -118c0 -23 15 -34 58 -34c24 0 45 4 72 15l30 -72c-30 -15 -71 -25 -122 -25zM124 620l29 135h137l-28 -135h-138z" />
    <glyph glyph-name="kcommaaccent" unicode="&#x137;" horiz-adv-x="569" 
d="M-13 0l166 776h135l-95 -447l237 234h152l-233 -229l132 -334h-142l-95 231l-91 -90l-30 -141h-136zM101 -312l-18 59c61 28 74 38 81 72h-67l29 142h142l-21 -102c-21 -99 -41 -134 -146 -171z" />
    <glyph glyph-name="lacute" unicode="&#x13a;" horiz-adv-x="329" 
d="M141 -2c-109 0 -137 55 -110 183l126 595h137l-127 -597c-10 -47 -6 -62 44 -62h20l-24 -115c-11 -2 -39 -4 -66 -4zM173 816l181 177h170l-224 -177h-127z" />
    <glyph glyph-name="lcommaaccent" unicode="&#x13c;" horiz-adv-x="329" 
d="M141 -2c-109 0 -137 55 -110 183l126 595h137l-127 -597c-10 -47 -6 -62 44 -62h20l-24 -115c-11 -2 -39 -4 -66 -4zM-18 -312l-18 59c61 28 74 38 81 72h-67l29 142h142l-21 -102c-21 -99 -41 -134 -146 -171z" />
    <glyph glyph-name="lcaron" unicode="&#x13e;" horiz-adv-x="418" 
d="M141 -2c-109 0 -137 55 -110 183l126 595h137l-127 -597c-10 -47 -6 -62 44 -62h20l-24 -115c-11 -2 -39 -4 -66 -4zM336 502l-18 61c61 27 73 37 81 71h-60l29 142h135l-21 -102c-22 -98 -43 -129 -146 -172z" />
    <glyph glyph-name="nacute" unicode="&#x144;" horiz-adv-x="633" 
d="M269 618l181 177h170l-224 -177h-127zM-27 0l118 555l109 8l-1 -42c35 30 88 55 173 55c209 0 205 -113 176 -253l-69 -323h-136l65 308c16 76 29 136 -93 136c-95 0 -122 -54 -137 -125l-67 -319h-138z" />
    <glyph glyph-name="ncommaaccent" unicode="&#x146;" horiz-adv-x="633" 
d="M134 -312l-18 59c61 28 74 38 81 72h-67l29 142h142l-21 -102c-21 -99 -41 -134 -146 -171zM-14 0l118 555l109 8l-1 -42c35 30 88 55 173 55c209 0 205 -113 176 -253l-69 -323h-136l65 308c16 76 29 136 -93 136c-95 0 -122 -54 -137 -125l-67 -319h-138z" />
    <glyph glyph-name="ncaron" unicode="&#x148;" horiz-adv-x="633" 
d="M296 618l-112 177h126l75 -90l113 90h130l-188 -177h-144zM-14 0l118 555l109 8l-1 -42c35 30 88 55 173 55c209 0 205 -113 176 -253l-69 -323h-136l65 308c16 76 29 136 -93 136c-95 0 -122 -54 -137 -125l-67 -319h-138z" />
    <glyph glyph-name="omacron" unicode="&#x14d;" horiz-adv-x="634" 
d="M170 618l24 112h397l-23 -112h-398zM267 -11c-184 0 -258 88 -258 222c0 32 4 65 11 101c41 190 145 264 310 264c185 0 259 -87 259 -220c0 -31 -5 -65 -12 -102c-40 -190 -143 -265 -310 -265zM275 109c97 0 142 51 164 156c6 25 9 50 9 71c0 67 -32 113 -126 113
c-98 0 -143 -53 -165 -159c-6 -24 -9 -48 -9 -71c0 -66 33 -110 127 -110z" />
    <glyph glyph-name="ohungarumlaut" unicode="&#x151;" horiz-adv-x="634" 
d="M148 618l164 177h158l-205 -177h-117zM407 618l165 177h157l-205 -177h-117zM267 -11c-184 0 -258 88 -258 222c0 32 4 65 11 101c41 190 145 264 310 264c185 0 259 -87 259 -220c0 -31 -5 -65 -12 -102c-40 -190 -143 -265 -310 -265zM275 109c97 0 142 51 164 156
c6 25 9 50 9 71c0 67 -32 113 -126 113c-98 0 -143 -53 -165 -159c-6 -24 -9 -48 -9 -71c0 -66 33 -110 127 -110z" />
    <glyph glyph-name="racute" unicode="&#x155;" horiz-adv-x="373" 
d="M145 618l181 177h170l-224 -177h-127zM-13 0l118 555l109 8l-2 -55c29 39 93 62 181 62l-28 -133c-125 -1 -159 -52 -179 -144l-62 -293h-137z" />
    <glyph glyph-name="rcommaaccent" unicode="&#x157;" horiz-adv-x="373" 
d="M-48 -312l-18 59c61 28 74 38 81 72h-67l29 142h142l-21 -102c-21 -99 -41 -134 -146 -171zM-13 0l118 555l109 8l-2 -55c29 39 93 62 181 62l-28 -133c-125 -1 -159 -52 -179 -144l-62 -293h-137z" />
    <glyph glyph-name="rcaron" unicode="&#x159;" horiz-adv-x="366" 
d="M165 618l-112 177h126l75 -90l113 90h130l-188 -177h-144zM-13 0l118 555l109 8l-2 -55c29 39 93 62 181 62l-28 -133c-125 -1 -159 -52 -179 -144l-62 -293h-137z" />
    <glyph glyph-name="sacute" unicode="&#x15b;" horiz-adv-x="541" 
d="M225 618l181 177h170l-224 -177h-127zM227 -10c-111 0 -207 36 -269 89l86 95c50 -39 127 -69 196 -69c57 0 94 7 94 60c0 39 -53 51 -111 66c-78 20 -173 47 -173 151c0 142 98 194 241 194c106 0 185 -31 234 -65l-86 -105c-35 22 -84 48 -161 48
c-60 0 -87 -13 -87 -54c0 -36 44 -48 106 -64c86 -24 175 -50 175 -155c0 -146 -102 -191 -245 -191z" />
    <glyph glyph-name="scedilla" unicode="&#x15f;" horiz-adv-x="541" 
d="M171 -244c-72 0 -121 21 -151 41l48 67c26 -18 57 -33 101 -33c40 0 61 12 61 47c0 32 -43 36 -83 33l-23 19l27 66c-78 12 -146 42 -193 83l86 95c50 -39 127 -69 196 -69c57 0 94 7 94 60c0 39 -53 51 -111 66c-78 20 -173 47 -173 151c0 142 98 194 241 194
c106 0 185 -31 234 -65l-86 -105c-35 22 -84 48 -161 48c-60 0 -87 -13 -87 -54c0 -36 44 -48 106 -64c86 -24 175 -50 175 -155c0 -146 -102 -191 -245 -191l-13 -33c52 -2 108 -14 108 -77c0 -103 -77 -124 -151 -124z" />
    <glyph glyph-name="scommaaccent" unicode="&#x219;" horiz-adv-x="541" 
d="M87 -312l-18 59c61 28 74 38 81 72h-67l29 142h142l-21 -102c-21 -99 -41 -134 -146 -171zM227 -10c-111 0 -207 36 -269 89l86 95c50 -39 127 -69 196 -69c57 0 94 7 94 60c0 39 -53 51 -111 66c-78 20 -173 47 -173 151c0 142 98 194 241 194c106 0 185 -31 234 -65
l-86 -105c-35 22 -84 48 -161 48c-60 0 -87 -13 -87 -54c0 -36 44 -48 106 -64c86 -24 175 -50 175 -155c0 -146 -102 -191 -245 -191z" />
    <glyph glyph-name="tcommaaccent" unicode="&#x163;" horiz-adv-x="434" 
d="M42 443l26 120h101l54 144l111 22l-36 -166h131l-24 -120h-133l-54 -254c-10 -46 -8 -72 61 -72h55l-24 -117c-19 -2 -58 -2 -81 -2c-153 0 -172 68 -148 187l56 258h-95zM24 -312l-18 59c61 28 74 38 81 72h-67l29 142h142l-21 -102c-21 -99 -41 -134 -146 -171z" />
    <glyph glyph-name="tcaron" unicode="&#x165;" horiz-adv-x="434" 
d="M42 443l26 120h101l54 144l111 22l-36 -166h131l-24 -120h-133l-54 -254c-10 -46 -8 -72 61 -72h55l-24 -117c-19 -2 -58 -2 -81 -2c-153 0 -172 68 -148 187l56 258h-95zM404 638l-17 57c58 27 70 36 77 70h-57l28 136h129l-20 -98c-21 -95 -42 -124 -140 -165z" />
    <glyph glyph-name="umacron" unicode="&#x16b;" 
d="M263 -11c-234 0 -260 105 -221 288l61 286h137l-63 -297c-19 -87 -29 -154 98 -154c96 0 109 50 127 133l68 318h134l-69 -324c-39 -185 -92 -250 -272 -250zM166 618l24 112h397l-23 -112h-398z" />
    <glyph glyph-name="uring" unicode="&#x16f;" 
d="M379 608c-91 0 -129 51 -129 113c0 102 62 169 154 169c90 0 129 -55 129 -118c0 -103 -65 -164 -154 -164zM383 678c47 0 78 32 78 86c0 30 -16 56 -61 56c-47 0 -78 -37 -78 -90c0 -29 18 -52 61 -52zM263 -11c-234 0 -260 105 -221 288l61 286h137l-63 -297
c-19 -87 -29 -154 98 -154c96 0 109 50 127 133l68 318h134l-69 -324c-39 -185 -92 -250 -272 -250z" />
    <glyph glyph-name="uhungarumlaut" unicode="&#x171;" 
d="M263 -11c-234 0 -260 105 -221 288l61 286h137l-63 -297c-19 -87 -29 -154 98 -154c96 0 109 50 127 133l68 318h134l-69 -324c-39 -185 -92 -250 -272 -250zM144 618l164 177h158l-205 -177h-117zM403 618l165 177h157l-205 -177h-117z" />
    <glyph glyph-name="uogonek" unicode="&#x173;" 
d="M315 -235c-112 0 -144 34 -144 83c0 70 58 115 107 141h-16c-235 0 -259 105 -220 287l61 287h137l-63 -298c-19 -88 -29 -155 97 -155c97 0 110 50 128 134l68 319h134l-69 -326c-28 -129 -58 -190 -132 -230c-77 -40 -132 -84 -132 -129c0 -21 14 -36 67 -36
c28 0 54 6 81 17l28 -66c-31 -17 -82 -28 -132 -28z" />
    <glyph glyph-name="zacute" unicode="&#x17a;" horiz-adv-x="511" 
d="M211 618l181 177h170l-224 -177h-127zM-56 0l20 95l348 348h-256l25 120h439l-20 -96l-349 -354h285l-24 -113h-468z" />
    <glyph glyph-name="zdotaccent" unicode="&#x17c;" horiz-adv-x="511" 
d="M-56 0l20 95l348 348h-256l25 120h439l-20 -96l-349 -354h285l-24 -113h-468zM241 618l27 132h139l-28 -132h-138z" />
    <glyph glyph-name="space.lftab" horiz-adv-x="375" 
 />
    <glyph glyph-name="comma.lftab" horiz-adv-x="375" 
d="M35 -147l-19 67c69 28 82 41 90 80h-76l35 162h161l-29 -136c-23 -110 -54 -135 -162 -173z" />
    <glyph glyph-name="period.lftab" horiz-adv-x="375" 
d="M30 0l35 162h161l-34 -162h-162z" />
    <glyph glyph-name="minus.lftab" horiz-adv-x="750" 
d="M96 290l27 126h523l-26 -126h-524z" />
    <glyph glyph-name="multiply.lftab" horiz-adv-x="750" 
d="M168 115l-64 86l184 151l-120 152l102 85l120 -151l183 151l64 -86l-183 -151l119 -151l-101 -86l-119 152z" />
    <glyph glyph-name="quotedbl.lftab" horiz-adv-x="750" 
d="M205 411l62 330h142l-79 -330h-125zM440 411l61 330h143l-80 -330h-124z" />
    <glyph glyph-name="numbersign.lftab" horiz-adv-x="750" 
d="M109 0l39 188h-130l25 121h131l22 103h-131l26 123h130l43 206h131l-43 -206h113l44 206h131l-44 -206h137l-25 -123h-136l-22 -103h136l-26 -121h-135l-41 -188h-131l41 188h-114l-40 -188h-131zM293 302h134l25 118h-134z" />
    <glyph glyph-name="dollar.lftab" horiz-adv-x="750" 
d="M216 -94l21 100c-93 13 -163 45 -213 89l78 96c63 -49 130 -80 244 -80c97 0 144 37 144 115c0 56 -45 72 -138 97c-106 27 -204 64 -204 188c0 158 108 223 244 230l15 70h127l-16 -76c79 -11 131 -36 162 -61l-80 -102c-38 28 -106 54 -192 54c-90 0 -125 -37 -125 -99
c0 -59 52 -72 143 -98c103 -29 198 -62 198 -187c0 -153 -105 -235 -263 -242l-20 -94h-125z" />
    <glyph glyph-name="percent.lftab" horiz-adv-x="1160" 
d="M254 265c-153 0 -207 77 -181 228c25 170 106 257 229 257c154 0 210 -82 185 -232c-26 -181 -115 -253 -233 -253zM258 363c62 0 99 52 110 163c12 80 -4 119 -69 119c-67 0 -98 -63 -110 -165c-10 -80 6 -117 69 -117zM855 -10c-153 0 -207 80 -180 230
c24 170 105 257 229 257c154 0 209 -82 184 -233c-26 -180 -114 -254 -233 -254zM859 89c62 0 99 53 110 163c12 81 -4 119 -69 119c-67 0 -98 -63 -109 -164c-11 -80 5 -118 68 -118zM261 0l525 741h123l-524 -741h-124z" />
    <glyph glyph-name="quotesingle.lftab" horiz-adv-x="750" 
d="M321 411l62 331h142l-79 -331h-125z" />
    <glyph glyph-name="plus.lftab" horiz-adv-x="750" 
d="M250 97l41 193h-195l27 126h194l41 192h135l-40 -192h193l-26 -126h-194l-40 -193h-136z" />
    <glyph glyph-name="zero.lftab" horiz-adv-x="750" 
d="M328 -11c-197 0 -276 93 -276 254c0 47 6 100 19 159c51 244 161 351 355 351c193 0 272 -99 272 -260c0 -48 -7 -100 -19 -156c-52 -243 -163 -348 -351 -348zM338 111c115 0 166 81 200 243c11 47 17 91 17 130c0 88 -35 142 -141 142c-118 0 -167 -78 -202 -240
c-11 -50 -17 -96 -17 -135c0 -89 35 -140 143 -140z" />
    <glyph glyph-name="one.lftab" horiz-adv-x="750" 
d="M88 0l23 114h175l107 504h-173l26 123h308l-134 -627h163l-24 -114h-471z" />
    <glyph glyph-name="two.lftab" horiz-adv-x="750" 
d="M25 0l23 110l287 218c148 113 185 138 185 224c0 46 -30 79 -131 79c-51 0 -127 -13 -177 -34l-43 111c67 28 149 45 237 45c179 0 254 -63 254 -173c0 -148 -59 -194 -219 -315l-197 -149h324l-23 -116h-520z" />
    <glyph glyph-name="three.lftab" horiz-adv-x="750" 
d="M326 -12c-148 0 -238 36 -314 90l83 101c67 -46 138 -74 233 -74c86 0 144 36 144 143c0 61 -33 90 -135 90h-112l24 118h140c84 0 129 21 129 108c0 46 -32 70 -128 70c-46 0 -127 -11 -183 -38l-53 106c78 42 191 51 260 51c166 0 246 -55 246 -157
c0 -126 -50 -179 -123 -199c46 -20 71 -71 71 -146c0 -193 -115 -263 -282 -263z" />
    <glyph glyph-name="four.lftab" horiz-adv-x="750" 
d="M34 160l22 105l429 476h154l-424 -468h203l75 218h96l-46 -218h118l-23 -113h-119l-34 -160h-126l34 160h-359z" />
    <glyph glyph-name="five.lftab" horiz-adv-x="750" 
d="M335 -11c-140 0 -243 44 -299 89l82 101c62 -47 140 -74 231 -74c79 0 152 33 152 161c0 85 -56 112 -144 112c-40 0 -81 -10 -123 -29l-107 35l96 357h461l-25 -119h-337l-43 -152c40 17 83 23 131 23c133 0 233 -37 233 -208c0 -239 -135 -296 -308 -296z" />
    <glyph glyph-name="six.lftab" horiz-adv-x="750" 
d="M349 -11c-201 0 -287 93 -287 245c0 35 5 74 14 117c65 304 181 390 472 390h106l-25 -119h-87c-225 0 -272 -75 -303 -172c34 34 104 54 192 54c169 0 229 -79 229 -190c0 -201 -107 -325 -311 -325zM353 104c128 0 169 75 169 182c0 62 -35 104 -148 104
c-93 0 -174 -31 -174 -166c0 -78 50 -120 153 -120z" />
    <glyph glyph-name="seven.lftab" horiz-adv-x="750" 
d="M130 0l400 622h-365l25 119h519l-22 -102l-406 -639h-151z" />
    <glyph glyph-name="eight.lftab" horiz-adv-x="750" 
d="M327 -16c-217 0 -291 89 -291 192c0 122 56 198 168 230c-54 26 -68 79 -68 131c0 128 81 216 276 216c223 0 284 -75 284 -169s-36 -168 -127 -188c65 -28 79 -81 79 -149c0 -162 -106 -263 -321 -263zM342 98c99 0 167 41 167 145c0 61 -44 100 -161 100
c-103 0 -170 -42 -170 -148c0 -60 42 -97 164 -97zM410 450c98 0 147 29 147 112c0 48 -33 79 -143 79c-99 0 -146 -30 -146 -111c0 -48 34 -80 142 -80z" />
    <glyph glyph-name="nine.lftab" horiz-adv-x="750" 
d="M96 0l24 116h87c225 0 273 75 305 175c-33 -35 -104 -54 -193 -54c-169 0 -230 81 -230 191c0 201 109 325 312 325c201 0 286 -92 286 -245c0 -36 -4 -75 -13 -116c-65 -306 -182 -392 -472 -392h-106zM375 346c93 0 175 32 175 166c0 78 -50 121 -153 121
c-128 0 -169 -75 -169 -182c0 -63 34 -105 147 -105z" />
    <glyph glyph-name="less.lftab" horiz-adv-x="750" 
d="M521 69l-408 229l19 97l506 227l-26 -129l-346 -149l282 -147z" />
    <glyph glyph-name="equal.lftab" horiz-adv-x="750" 
d="M78 172l25 125h512l-25 -125h-512zM128 409l26 124h511l-26 -124h-511z" />
    <glyph glyph-name="greater.lftab" horiz-adv-x="750" 
d="M102 70l26 129l347 148l-282 148l26 127l410 -228l-20 -97z" />
    <glyph glyph-name="degree.lftab" horiz-adv-x="750" 
d="M377 270c-152 0 -211 89 -211 194c0 163 102 289 273 289c148 0 207 -92 207 -197c0 -164 -106 -286 -269 -286zM386 372c97 0 147 75 147 171c0 57 -29 101 -111 101c-95 0 -144 -78 -144 -173c0 -56 29 -99 108 -99z" />
    <glyph glyph-name="cent.lftab" horiz-adv-x="750" 
d="M241 -94l20 96c-118 25 -158 104 -158 203c0 36 4 71 11 107c30 150 105 247 268 260l14 63h130l-15 -69c69 -15 109 -47 138 -85l-114 -90c-19 26 -45 57 -124 57c-89 0 -138 -47 -160 -158c-5 -23 -8 -48 -8 -71c0 -66 30 -110 122 -110c44 0 76 5 125 43l74 -88
c-56 -46 -113 -65 -174 -70l-18 -88h-131z" />
    <glyph glyph-name="sterling.lftab" horiz-adv-x="750" 
d="M430 -8c-88 0 -151 22 -200 51c-47 -32 -115 -46 -213 -43l22 114c133 0 148 31 159 90c6 30 5 74 3 122h-120l23 109h90v36c0 175 78 283 254 283c110 0 181 -27 233 -55l-76 -112c-37 23 -100 42 -164 42c-91 0 -114 -69 -114 -172v-22h182l-21 -109h-157
c0 -43 -1 -85 -8 -120c-6 -25 -12 -48 -20 -68c33 -16 74 -28 122 -28c62 0 72 13 87 93l5 27h119l-9 -46c-29 -148 -80 -192 -197 -192z" />
    <glyph glyph-name="yen.lftab" horiz-adv-x="750" 
d="M93 231l19 102h183l-155 408h144l104 -297l232 297h147l-330 -408h180l-21 -102h-185l-13 -62h184l-20 -102h-185l-14 -67h-135l14 67h-183l20 102h184l13 62h-183z" />
    <glyph glyph-name="ordfeminine.lftab" horiz-adv-x="750" 
d="M303 278c-122 0 -158 52 -158 119c0 156 112 183 282 183h59c2 11 3 22 3 32c0 28 -18 41 -93 41c-37 0 -89 -13 -120 -28l-41 86c36 23 104 42 182 42c186 0 200 -66 172 -196l-29 -132c-8 -35 -6 -44 32 -44l-19 -94c-8 -2 -24 -2 -47 -2c-27 0 -48 5 -60 19
c-7 8 -11 19 -12 34c-33 -38 -88 -60 -151 -60zM131 124l20 99h364l-20 -99h-364zM340 372c63 0 104 23 123 107l5 21h-59c-106 0 -152 -10 -152 -84c0 -28 19 -44 83 -44z" />
    <glyph glyph-name="ordmasculine.lftab" horiz-adv-x="750" 
d="M389 279c-154 0 -217 71 -217 182c1 177 98 292 247 292c157 0 220 -71 220 -182c0 -179 -95 -292 -250 -292zM388 378c87 0 135 69 135 177c0 57 -28 93 -103 93c-83 0 -133 -72 -133 -179c0 -56 28 -91 101 -91zM128 122l21 100h389l-21 -100h-389z" />
    <glyph glyph-name="florin.lftab" horiz-adv-x="750" 
d="M169 339l26 121h118l25 114c20 98 52 167 219 167h81l-26 -125h-47c-75 0 -88 -33 -98 -83l-16 -73h150l-25 -121h-151l-108 -505h-136l107 505h-119z" />
    <glyph glyph-name="divide.lftab" horiz-adv-x="750" 
d="M244 86l27 125h142l-27 -125h-142zM96 290l27 126h523l-26 -126h-524zM331 494l26 126h142l-27 -126h-141z" />
    <glyph glyph-name="fraction.lftab" horiz-adv-x="750" 
d="M29 0l573 741h121l-573 -741h-121z" />
    <glyph glyph-name="Euro.lftab" horiz-adv-x="750" 
d="M72 400l21 101h107c52 149 156 252 310 252c103 0 175 -24 222 -56l-81 -109c-32 21 -72 40 -143 40c-84 0 -137 -53 -170 -127h219l-19 -101h-231c-4 -21 -8 -42 -10 -63h226l-21 -101h-209c4 -79 40 -128 134 -128c30 0 76 4 120 29l59 -103c-59 -35 -132 -46 -195 -46
c-179 0 -249 100 -251 248h-123l21 101h106c2 21 5 42 9 63h-101z" />
    <glyph glyph-name="perthousand.lftab" horiz-adv-x="1640" 
d="M267 265c-153 0 -206 77 -181 228c25 170 107 257 230 257c154 0 209 -82 184 -232c-26 -181 -115 -253 -233 -253zM271 363c63 0 100 52 111 163c12 80 -5 119 -70 119c-67 0 -98 -63 -110 -165c-11 -80 6 -117 69 -117zM869 -10c-154 0 -207 80 -182 230
c25 170 107 257 231 257c153 0 208 -82 184 -233c-26 -180 -115 -254 -233 -254zM872 89c63 0 100 53 111 163c12 81 -5 119 -70 119c-67 0 -98 -63 -109 -164c-11 -80 5 -118 68 -118zM1321 -10c-152 0 -206 80 -180 230c25 170 106 257 229 257c154 0 210 -82 184 -233
c-25 -180 -114 -254 -233 -254zM1326 89c62 0 99 53 110 163c12 81 -4 119 -69 119c-67 0 -98 -63 -110 -164c-11 -80 5 -118 69 -118zM275 0l524 741h123l-524 -741h-123z" />
    <glyph glyph-name="zero.superior" horiz-adv-x="561" 
d="M276 255c-133 0 -187 63 -187 168c0 30 4 64 12 99c33 159 107 227 238 227c133 0 188 -66 188 -171c0 -30 -5 -63 -13 -98c-33 -160 -107 -225 -238 -225zM282 345c72 0 99 43 121 146c7 30 11 57 11 82c0 54 -21 82 -83 82c-71 0 -97 -43 -119 -145
c-6 -30 -10 -57 -10 -81c0 -55 19 -84 80 -84z" />
    <glyph glyph-name="one.superior" horiz-adv-x="368" 
d="M123 262l82 385h-85l20 94h196l-102 -479h-111z" />
    <glyph glyph-name="two.superior" horiz-adv-x="499" 
d="M46 262l16 76l183 138c100 76 117 89 117 139c0 28 -24 40 -78 40c-32 0 -82 -7 -115 -21l-32 84c45 19 98 30 156 30c123 0 180 -38 180 -113c0 -95 -33 -125 -141 -205l-107 -81h191l-18 -87h-352z" />
    <glyph glyph-name="three.superior" horiz-adv-x="499" 
d="M251 254c-95 0 -162 23 -212 59l60 76c43 -29 89 -49 149 -49c53 0 85 25 85 83c0 34 -19 50 -83 50h-76l19 90h93c51 0 76 10 76 57c0 27 -22 40 -76 40c-30 0 -83 -7 -119 -25l-38 80c52 29 133 34 178 34c109 0 168 -37 168 -103c0 -80 -34 -112 -82 -128
c32 -15 48 -45 48 -94c0 -126 -81 -170 -190 -170z" />
    <glyph glyph-name="four.superior" horiz-adv-x="531" 
d="M49 355l16 78l277 308h117l-273 -302h116l44 120h81l-26 -120h75l-17 -84h-76l-19 -93h-101l20 93h-234z" />
    <glyph glyph-name="five.superior" horiz-adv-x="502" 
d="M254 255c-103 0 -172 29 -208 56l59 78c42 -31 94 -48 149 -48c48 0 97 11 97 92c0 53 -34 67 -91 67c-25 0 -53 -5 -79 -16l-76 24l63 233h320l-19 -90h-225l-22 -78c25 9 54 13 78 13c90 0 163 -25 163 -140c0 -162 -103 -191 -209 -191z" />
    <glyph glyph-name="six.superior" horiz-adv-x="535" 
d="M277 255c-131 0 -194 61 -194 163c0 22 2 48 7 75c42 197 123 248 305 248h87l-18 -89h-75c-132 0 -153 -41 -175 -96c27 24 67 32 118 32c112 0 158 -46 158 -121c0 -128 -78 -212 -213 -212zM280 339c74 0 99 48 99 111c0 36 -20 56 -86 56c-63 0 -102 -23 -102 -95
c0 -46 30 -72 89 -72z" />
    <glyph glyph-name="seven.superior" horiz-adv-x="448" 
d="M82 262l250 388h-231l19 91h355l-14 -69l-261 -410h-118z" />
    <glyph glyph-name="eight.superior" horiz-adv-x="553" 
d="M273 251c-146 0 -201 57 -201 125c0 77 36 124 109 148c-36 18 -45 50 -45 84c0 84 59 141 188 141c151 0 198 -50 198 -113c0 -59 -24 -106 -85 -120c43 -19 54 -52 54 -95c0 -106 -75 -170 -218 -170zM282 333c60 0 99 23 99 84c0 36 -25 59 -99 59
c-59 0 -98 -24 -98 -85c0 -35 26 -58 98 -58zM329 556c55 0 83 17 83 65c0 27 -19 48 -88 48c-56 0 -83 -19 -83 -67c0 -26 20 -46 88 -46z" />
    <glyph glyph-name="nine.superior" horiz-adv-x="535" 
d="M113 262l18 88h68c134 0 154 38 176 94c-25 -23 -67 -32 -118 -32c-108 0 -158 49 -158 119c0 133 78 218 213 218c131 0 195 -61 195 -163c0 -23 -3 -48 -9 -76c-42 -197 -121 -248 -303 -248h-82zM297 491c62 0 101 23 101 96c0 46 -30 70 -88 70
c-75 0 -101 -47 -101 -109c0 -36 21 -57 88 -57z" />
    <glyph glyph-name="zero.inferior" horiz-adv-x="561" 
d="M222 -6c-132 0 -187 64 -187 169c0 30 4 64 12 99c34 159 107 227 239 227c133 0 187 -66 187 -171c0 -30 -4 -63 -12 -98c-34 -160 -108 -226 -239 -226zM229 85c72 0 99 43 120 146c7 30 11 57 11 82c0 54 -20 82 -83 82c-71 0 -97 -43 -119 -145
c-6 -30 -10 -57 -10 -81c0 -55 20 -84 81 -84z" />
    <glyph glyph-name="one.inferior" horiz-adv-x="368" 
d="M70 2l81 385h-84l19 94h197l-102 -479h-111z" />
    <glyph glyph-name="two.inferior" horiz-adv-x="499" 
d="M-8 2l17 76l183 138c99 76 117 89 117 139c0 28 -25 40 -79 40c-31 0 -81 -7 -115 -21l-31 84c44 19 98 30 156 30c123 0 180 -38 180 -113c0 -95 -33 -125 -141 -205l-107 -81h190l-17 -87h-353z" />
    <glyph glyph-name="three.inferior" horiz-adv-x="499" 
d="M197 -7c-95 0 -162 24 -212 60l60 76c43 -29 90 -49 150 -49c52 0 85 25 85 83c0 34 -20 50 -84 50h-76l20 90h93c50 0 75 10 75 57c0 27 -22 40 -75 40c-31 0 -84 -7 -119 -25l-38 80c51 29 132 34 178 34c108 0 167 -37 167 -103c0 -80 -33 -112 -82 -128
c33 -15 49 -45 49 -94c0 -126 -82 -171 -191 -171z" />
    <glyph glyph-name="four.inferior" horiz-adv-x="531" 
d="M-5 95l16 78l277 308h118l-274 -302h116l44 120h82l-26 -120h75l-18 -84h-75l-19 -93h-101l19 93h-234z" />
    <glyph glyph-name="five.inferior" horiz-adv-x="502" 
d="M200 -6c-102 0 -171 30 -208 57l60 78c42 -31 93 -48 148 -48c49 0 98 11 98 92c0 53 -34 67 -92 67c-25 0 -52 -5 -79 -16l-75 24l62 233h320l-18 -90h-225l-22 -78c25 9 53 13 77 13c90 0 164 -25 164 -140c0 -162 -103 -192 -210 -192z" />
    <glyph glyph-name="six.inferior" horiz-adv-x="535" 
d="M224 -6c-131 0 -195 62 -195 164c0 22 2 48 8 75c41 197 122 248 304 248h88l-19 -89h-75c-131 0 -152 -41 -175 -96c27 24 68 32 118 32c112 0 158 -46 158 -121c0 -128 -78 -213 -212 -213zM226 79c74 0 100 48 100 111c0 36 -20 56 -87 56c-62 0 -101 -23 -101 -95
c0 -46 30 -72 88 -72z" />
    <glyph glyph-name="seven.inferior" horiz-adv-x="448" 
d="M28 2l250 388h-231l20 91h355l-14 -69l-261 -410h-119z" />
    <glyph glyph-name="eight.inferior" horiz-adv-x="553" 
d="M219 -9c-145 0 -201 57 -201 125c0 77 37 124 109 148c-36 18 -45 50 -45 84c0 84 59 141 188 141c151 0 199 -50 199 -113c0 -59 -25 -106 -85 -120c42 -19 54 -52 54 -95c0 -106 -75 -170 -219 -170zM229 73c60 0 99 23 99 84c0 36 -26 59 -100 59
c-59 0 -98 -24 -98 -85c0 -35 26 -58 99 -58zM275 296c56 0 83 17 83 65c0 27 -19 48 -88 48c-55 0 -82 -19 -82 -67c0 -26 19 -46 87 -46z" />
    <glyph glyph-name="nine.inferior" horiz-adv-x="535" 
d="M60 2l18 88h68c134 0 153 38 175 94c-24 -23 -66 -32 -118 -32c-107 0 -158 49 -158 119c0 133 78 218 213 218c131 0 195 -61 195 -163c0 -23 -2 -48 -8 -76c-43 -197 -122 -248 -304 -248h-81zM243 231c63 0 101 23 101 96c0 46 -29 70 -88 70
c-74 0 -100 -47 -100 -109c0 -36 20 -57 87 -57z" />
    <glyph glyph-name="zero.numerator" horiz-adv-x="501" 
d="M246 255c-133 0 -187 63 -187 168c0 30 4 64 12 99c33 159 107 227 238 227c133 0 188 -66 188 -171c0 -30 -5 -63 -13 -98c-33 -160 -107 -225 -238 -225zM252 345c72 0 99 43 121 146c7 30 11 57 11 82c0 54 -21 82 -83 82c-71 0 -97 -43 -119 -145
c-6 -30 -10 -57 -10 -81c0 -55 19 -84 80 -84z" />
    <glyph glyph-name="one.numerator" horiz-adv-x="308" 
d="M93 262l82 385h-85l20 94h196l-102 -479h-111z" />
    <glyph glyph-name="two.numerator" horiz-adv-x="439" 
d="M16 262l16 76l183 138c100 76 117 89 117 139c0 28 -24 40 -78 40c-32 0 -82 -7 -115 -21l-32 84c45 19 98 30 156 30c123 0 180 -38 180 -113c0 -95 -33 -125 -141 -205l-107 -81h191l-18 -87h-352z" />
    <glyph glyph-name="three.numerator" horiz-adv-x="439" 
d="M221 254c-95 0 -162 23 -212 59l60 76c43 -29 89 -49 149 -49c53 0 85 25 85 83c0 34 -19 50 -83 50h-76l19 90h93c51 0 76 10 76 57c0 27 -22 40 -76 40c-30 0 -83 -7 -119 -25l-38 80c52 29 133 34 178 34c109 0 168 -37 168 -103c0 -80 -34 -112 -82 -128
c32 -15 48 -45 48 -94c0 -126 -81 -170 -190 -170z" />
    <glyph glyph-name="four.numerator" horiz-adv-x="471" 
d="M19 355l16 78l277 308h117l-273 -302h116l44 120h81l-26 -120h75l-17 -84h-76l-19 -93h-101l20 93h-234z" />
    <glyph glyph-name="five.numerator" horiz-adv-x="442" 
d="M224 255c-103 0 -172 29 -208 56l59 78c42 -31 94 -48 149 -48c48 0 97 11 97 92c0 53 -34 67 -91 67c-25 0 -53 -5 -79 -16l-76 24l63 233h320l-19 -90h-225l-22 -78c25 9 54 13 78 13c90 0 163 -25 163 -140c0 -162 -103 -191 -209 -191z" />
    <glyph glyph-name="six.numerator" horiz-adv-x="475" 
d="M247 255c-131 0 -194 61 -194 163c0 22 2 48 7 75c42 197 123 248 305 248h87l-18 -89h-75c-132 0 -153 -41 -175 -96c27 24 67 32 118 32c112 0 158 -46 158 -121c0 -128 -78 -212 -213 -212zM250 339c74 0 99 48 99 111c0 36 -20 56 -86 56c-63 0 -102 -23 -102 -95
c0 -46 30 -72 89 -72z" />
    <glyph glyph-name="seven.numerator" horiz-adv-x="388" 
d="M52 262l250 388h-231l19 91h355l-14 -69l-261 -410h-118z" />
    <glyph glyph-name="eight.numerator" horiz-adv-x="493" 
d="M243 251c-146 0 -201 57 -201 125c0 77 36 124 109 148c-36 18 -45 50 -45 84c0 84 59 141 188 141c151 0 198 -50 198 -113c0 -59 -24 -106 -85 -120c43 -19 54 -52 54 -95c0 -106 -75 -170 -218 -170zM252 333c60 0 99 23 99 84c0 36 -25 59 -99 59
c-59 0 -98 -24 -98 -85c0 -35 26 -58 98 -58zM299 556c55 0 83 17 83 65c0 27 -19 48 -88 48c-56 0 -83 -19 -83 -67c0 -26 20 -46 88 -46z" />
    <glyph glyph-name="nine.numerator" horiz-adv-x="475" 
d="M83 262l18 88h68c134 0 154 38 176 94c-25 -23 -67 -32 -118 -32c-108 0 -158 49 -158 119c0 133 78 218 213 218c131 0 195 -61 195 -163c0 -23 -3 -48 -9 -76c-42 -197 -121 -248 -303 -248h-82zM267 491c62 0 101 23 101 96c0 46 -30 70 -88 70
c-75 0 -101 -47 -101 -109c0 -36 21 -57 88 -57z" />
    <glyph glyph-name="zero.denominator" horiz-adv-x="501" 
d="M192 -6c-132 0 -187 64 -187 169c0 30 4 64 12 99c34 159 107 227 239 227c133 0 187 -66 187 -171c0 -30 -4 -63 -12 -98c-34 -160 -108 -226 -239 -226zM199 85c72 0 99 43 120 146c7 30 11 57 11 82c0 54 -20 82 -83 82c-71 0 -97 -43 -119 -145
c-6 -30 -10 -57 -10 -81c0 -55 20 -84 81 -84z" />
    <glyph glyph-name="one.denominator" horiz-adv-x="308" 
d="M40 2l81 385h-84l19 94h197l-102 -479h-111z" />
    <glyph glyph-name="two.denominator" horiz-adv-x="439" 
d="M-38 2l16 76l184 138c99 76 117 89 117 139c0 28 -25 40 -79 40c-31 0 -81 -7 -115 -21l-31 84c44 19 98 30 156 30c123 0 180 -38 180 -113c0 -95 -33 -125 -141 -205l-107 -81h190l-17 -87h-353z" />
    <glyph glyph-name="three.denominator" horiz-adv-x="439" 
d="M167 -7c-95 0 -162 24 -212 60l60 76c43 -29 90 -49 150 -49c52 0 85 25 85 83c0 34 -20 50 -84 50h-76l20 90h93c50 0 75 10 75 57c0 27 -22 40 -75 40c-31 0 -84 -7 -119 -25l-38 80c51 29 132 34 178 34c108 0 167 -37 167 -103c0 -80 -33 -112 -82 -128
c33 -15 49 -45 49 -94c0 -126 -82 -171 -191 -171z" />
    <glyph glyph-name="four.denominator" horiz-adv-x="471" 
d="M-35 95l16 78l277 308h118l-274 -302h116l44 120h82l-26 -120h75l-18 -84h-75l-19 -93h-101l19 93h-234z" />
    <glyph glyph-name="five.denominator" horiz-adv-x="442" 
d="M170 -6c-102 0 -172 30 -208 57l60 78c42 -31 93 -48 148 -48c49 0 98 11 98 92c0 53 -34 67 -92 67c-25 0 -52 -5 -79 -16l-75 24l62 233h320l-18 -90h-225l-22 -78c25 9 53 13 77 13c90 0 164 -25 164 -140c0 -162 -103 -192 -210 -192z" />
    <glyph glyph-name="six.denominator" horiz-adv-x="475" 
d="M194 -6c-131 0 -195 62 -195 164c0 22 2 48 8 75c41 197 122 248 304 248h88l-19 -89h-75c-131 0 -152 -41 -175 -96c27 24 68 32 118 32c112 0 158 -46 158 -121c0 -128 -78 -213 -212 -213zM196 79c74 0 100 48 100 111c0 36 -20 56 -87 56c-62 0 -101 -23 -101 -95
c0 -46 30 -72 88 -72z" />
    <glyph glyph-name="seven.denominator" horiz-adv-x="388" 
d="M-2 2l250 388h-231l20 91h355l-14 -69l-261 -410h-119z" />
    <glyph glyph-name="eight.denominator" horiz-adv-x="493" 
d="M189 -9c-145 0 -201 57 -201 125c0 77 37 124 109 148c-36 18 -45 50 -45 84c0 84 59 141 188 141c151 0 199 -50 199 -113c0 -59 -25 -106 -85 -120c42 -19 54 -52 54 -95c0 -106 -75 -170 -219 -170zM199 73c60 0 99 23 99 84c0 36 -26 59 -100 59
c-59 0 -98 -24 -98 -85c0 -35 26 -58 99 -58zM245 296c56 0 83 17 83 65c0 27 -19 48 -88 48c-55 0 -82 -19 -82 -67c0 -26 19 -46 87 -46z" />
    <glyph glyph-name="nine.denominator" horiz-adv-x="475" 
d="M30 2l18 88h68c134 0 153 38 175 94c-24 -23 -66 -32 -118 -32c-107 0 -158 49 -158 119c0 133 78 218 213 218c131 0 195 -61 195 -163c0 -23 -2 -48 -8 -76c-43 -197 -122 -248 -304 -248h-81zM213 231c63 0 101 23 101 96c0 46 -29 70 -88 70
c-74 0 -100 -47 -100 -109c0 -36 20 -57 87 -57z" />
    <glyph glyph-name="uni00A0" unicode="&#xa0;" horiz-adv-x="220" 
 />
    <glyph glyph-name="registered.superior" horiz-adv-x="663" 
d="M353 188c-181 0 -276 121 -276 283c0 161 95 284 276 284c179 0 274 -123 274 -284c0 -162 -95 -283 -274 -283zM353 230c161 0 231 106 231 241c0 136 -70 242 -231 242c-162 0 -232 -106 -232 -242c0 -135 70 -241 232 -241zM421 308l-65 115h-68v-115h-70v332h153
c101 0 129 -41 129 -106c0 -49 -18 -89 -74 -104l70 -122h-75zM288 479h78c44 0 62 12 62 52c0 41 -17 51 -62 51h-78v-103z" />
    <glyph glyph-name="AEacute" unicode="&#x1fc;" horiz-adv-x="1109" 
d="M534 782l181 177h170l-224 -177h-127zM-76 0l610 741h596l-27 -132h-377l-36 -166h367l-27 -127h-367l-41 -189h381l-27 -127h-517l29 136h-295l-112 -136h-157zM289 255h225l76 361z" />
    <glyph glyph-name="Aringacute" unicode="&#x1fa;" horiz-adv-x="748" 
d="M370 981l139 138h166l-177 -138h-128zM-62 0l418 703c-27 20 -39 52 -39 87c0 102 62 169 154 169c90 0 129 -54 129 -118c0 -66 -28 -115 -70 -141l117 -700h-142l-21 132h-318l-76 -132h-152zM236 256h229l-49 308zM450 748c47 0 78 32 78 85c0 30 -16 56 -61 56
c-47 0 -78 -37 -78 -89c0 -29 18 -52 61 -52z" />
    <glyph glyph-name="Ccircumflex" unicode="&#x108;" horiz-adv-x="733" 
d="M232 782l188 177h143l113 -177h-127l-74 91l-114 -91h-129zM363 -11c-238 0 -337 114 -337 290c0 40 4 83 14 129c57 269 222 345 406 345c171 0 251 -57 298 -113l-118 -95c-37 45 -95 75 -183 75c-135 0 -226 -67 -261 -230c-7 -33 -10 -64 -10 -92
c0 -109 59 -179 204 -179c79 0 133 23 182 62l84 -103c-70 -60 -152 -89 -279 -89z" />
    <glyph glyph-name="Cdotaccent" unicode="&#x10a;" horiz-adv-x="733" 
d="M363 -11c-238 0 -337 114 -337 290c0 40 4 83 14 129c57 269 222 345 406 345c171 0 251 -57 298 -113l-118 -95c-37 45 -95 75 -183 75c-135 0 -226 -67 -261 -230c-7 -33 -10 -64 -10 -92c0 -109 59 -179 204 -179c79 0 133 23 182 62l84 -103
c-70 -60 -152 -89 -279 -89zM382 782l27 132h139l-28 -132h-138z" />
    <glyph glyph-name="Ebreve" unicode="&#x114;" horiz-adv-x="662" 
d="M-1 0l158 741h527l-28 -132h-384l-37 -165h375l-27 -129h-374l-41 -188h388l-26 -127h-531zM438 772c-159 0 -186 84 -184 194l103 12c0 -66 12 -97 88 -97c70 0 99 31 122 97l97 -18c-33 -109 -101 -188 -226 -188z" />
    <glyph glyph-name="Eng" unicode="&#x14a;" horiz-adv-x="791" 
d="M-1 0l158 741h154l238 -513l109 513h136l-153 -719c-38 -178 -142 -210 -254 -210c-75 0 -91 0 -114 2l26 123h71c72 0 108 23 126 82l-246 523l-114 -542h-137z" />
    <glyph glyph-name="Gcircumflex" unicode="&#x11c;" horiz-adv-x="781" 
d="M236 782l188 177h143l113 -177h-127l-74 91l-114 -91h-129zM370 -11c-242 0 -344 109 -344 289c0 50 6 91 14 130c48 240 192 345 405 345c164 0 262 -57 306 -115l-118 -96c-31 36 -78 78 -197 78c-141 0 -224 -78 -256 -230c-6 -29 -10 -63 -10 -93
c0 -116 60 -185 209 -185c136 0 177 46 204 175l3 16h-205l25 123h347l-25 -121c-49 -242 -132 -316 -358 -316z" />
    <glyph glyph-name="Gdotaccent" unicode="&#x120;" horiz-adv-x="781" 
d="M370 -11c-242 0 -344 109 -344 289c0 50 6 91 14 130c48 240 192 345 405 345c164 0 262 -57 306 -115l-118 -96c-31 36 -78 78 -197 78c-141 0 -224 -78 -256 -230c-6 -29 -10 -63 -10 -93c0 -116 60 -185 209 -185c136 0 177 46 204 175l3 16h-205l25 123h347l-25 -121
c-49 -242 -132 -316 -358 -316zM388 782l27 132h139l-28 -132h-138z" />
    <glyph glyph-name="Hbar" unicode="&#x126;" horiz-adv-x="792" 
d="M54 538l23 109h60l20 94h143l-21 -94h352l21 94h142l-20 -94h56l-22 -109h-58l-114 -538h-142l67 314h-352l-67 -314h-143l114 538h-59zM237 450h352l19 88h-352z" />
    <glyph glyph-name="Hcircumflex" unicode="&#x124;" horiz-adv-x="792" 
d="M254 782l188 177h143l113 -177h-127l-74 91l-114 -91h-129zM-1 0l158 741h143l-63 -291h352l63 291h142l-158 -741h-142l67 314h-352l-67 -314h-143z" />
    <glyph glyph-name="Ibreve" unicode="&#x12c;" horiz-adv-x="317" 
d="M9 0l158 741h142l-158 -741h-142zM255 772c-159 0 -186 84 -184 194l103 12c0 -66 12 -97 88 -97c70 0 99 31 122 97l97 -18c-33 -109 -101 -188 -226 -188z" />
    <glyph glyph-name="Itilde" unicode="&#x128;" horiz-adv-x="317" 
d="M9 0l158 741h142l-158 -741h-142zM335 783c-75 0 -115 53 -165 53c-28 0 -54 -21 -78 -48l-68 67c47 57 98 89 151 89c75 0 115 -53 165 -53c26 0 50 19 76 49l69 -65c-51 -61 -100 -92 -150 -92z" />
    <glyph glyph-name="Idotaccent" unicode="&#x130;" horiz-adv-x="317" 
d="M9 0l158 741h142l-158 -741h-142zM177 782l27 132h139l-28 -132h-138z" />
    <glyph glyph-name="IJ" unicode="&#x132;" horiz-adv-x="738" 
d="M9 0l158 741h142l-158 -741h-142zM263 0l26 127h72c82 0 116 28 133 103l109 511h142l-113 -532c-38 -179 -142 -211 -254 -211c-93 0 -83 0 -115 2z" />
    <glyph glyph-name="Jcircumflex" unicode="&#x134;" horiz-adv-x="421" 
d="M138 782l188 177h143l113 -177h-127l-74 91l-114 -91h-129zM-54 0l26 127h72c82 0 116 28 133 103l109 511h142l-113 -532c-38 -179 -142 -211 -254 -211c-93 0 -83 0 -115 2z" />
    <glyph glyph-name="Ldot" unicode="&#x13f;" horiz-adv-x="673" 
d="M-1 0l158 741h143l-132 -614h352l-26 -127h-495zM390 298l35 169h161l-35 -169h-161z" />
    <glyph glyph-name="Obreve" unicode="&#x14e;" horiz-adv-x="836" 
d="M383 -12c-223 0 -356 104 -356 302c0 37 4 77 13 122c58 274 235 341 415 341c221 0 354 -102 354 -299c0 -37 -4 -77 -13 -120c-60 -276 -235 -346 -413 -346zM385 117c146 0 232 71 266 228c7 32 11 61 11 90c0 110 -61 185 -214 185c-146 0 -232 -72 -265 -227
c-7 -31 -10 -61 -10 -90c0 -110 60 -186 212 -186zM501 779c-159 0 -186 84 -184 194l103 12c0 -66 12 -97 88 -97c70 0 99 31 122 97l97 -18c-33 -109 -101 -188 -226 -188z" />
    <glyph glyph-name="Oslashacute" unicode="&#x1fe;" horiz-adv-x="836" 
d="M383 -12c-71 0 -132 10 -183 30l-46 -59h-136l92 114c-54 51 -83 123 -83 217c-1 37 4 77 13 122c58 274 234 341 415 341c66 0 124 -9 173 -27l45 57h135l-87 -110c58 -50 88 -123 88 -219c0 -37 -4 -77 -13 -120c-60 -276 -235 -346 -413 -346zM384 111
c150 0 238 72 273 234c7 32 11 63 11 92c0 51 -13 94 -41 126l-346 -437c28 -10 62 -15 103 -15zM166 301c0 -48 11 -89 35 -121l343 434c-27 8 -59 12 -96 12c-149 0 -237 -73 -271 -233c-7 -31 -11 -62 -11 -92zM405 782l181 177h170l-224 -177h-127z" />
    <glyph glyph-name="Scircumflex" unicode="&#x15c;" horiz-adv-x="712" 
d="M185 782l188 177h143l113 -177h-127l-74 91l-114 -91h-129zM324 -11c-170 0 -283 49 -361 108l92 102c69 -54 160 -88 276 -88c96 0 161 20 161 97c0 67 -53 76 -168 108c-131 37 -230 69 -230 204c0 180 135 233 288 233c172 0 262 -48 311 -86l-93 -108
c-42 33 -116 67 -223 67c-85 0 -138 -21 -138 -93c0 -57 59 -74 149 -96c138 -35 250 -69 250 -200c0 -180 -127 -248 -314 -248z" />
    <glyph glyph-name="Tbar" unicode="&#x166;" horiz-adv-x="682" 
d="M115 275l25 115h135l47 219h-253l28 132h647l-28 -132h-252l-47 -219h139l-23 -115h-141l-58 -275h-142l58 275h-135z" />
    <glyph glyph-name="Ubreve" unicode="&#x16c;" horiz-adv-x="788" 
d="M348 -14c-243 0 -302 105 -302 219c0 32 5 67 12 99l94 437h142l-91 -430c-6 -29 -11 -55 -11 -79c0 -71 40 -116 171 -116c127 0 171 54 195 171l97 454h139l-104 -482c-31 -142 -93 -273 -342 -273zM493 772c-159 0 -186 84 -184 194l103 12c0 -66 12 -97 88 -97
c70 0 99 31 122 97l97 -18c-33 -109 -101 -188 -226 -188z" />
    <glyph glyph-name="Utilde" unicode="&#x168;" horiz-adv-x="788" 
d="M348 -14c-243 0 -302 105 -302 219c0 32 5 67 12 99l94 437h142l-91 -430c-6 -29 -11 -55 -11 -79c0 -71 40 -116 171 -116c127 0 171 54 195 171l97 454h139l-104 -482c-31 -142 -93 -273 -342 -273zM565 783c-75 0 -115 53 -165 53c-28 0 -54 -21 -78 -48l-68 67
c47 57 98 89 151 89c75 0 115 -53 165 -53c26 0 50 19 76 49l69 -65c-51 -61 -100 -92 -150 -92z" />
    <glyph glyph-name="Wacute" unicode="&#x1e82;" horiz-adv-x="1063" 
d="M508 782l181 177h170l-224 -177h-127zM165 -5l-60 746h147l34 -490l257 490h137l48 -490l244 490h145l-377 -746h-125l-51 528l-275 -528h-124z" />
    <glyph glyph-name="Wcircumflex" unicode="&#x174;" horiz-adv-x="1063" 
d="M396 782l188 177h143l113 -177h-127l-74 91l-114 -91h-129zM165 -5l-60 746h147l34 -490l257 490h137l48 -490l244 490h145l-377 -746h-125l-51 528l-275 -528h-124z" />
    <glyph glyph-name="Wdieresis" unicode="&#x1e84;" horiz-adv-x="1063" 
d="M449 782l27 129h124l-27 -129h-124zM664 782l27 129h124l-27 -129h-124zM165 -5l-60 746h147l34 -490l257 490h137l48 -490l244 490h145l-377 -746h-125l-51 528l-275 -528h-124z" />
    <glyph glyph-name="Wgrave" unicode="&#x1e80;" horiz-adv-x="1063" 
d="M165 -5l-60 746h147l34 -490l257 490h137l48 -490l244 490h145l-377 -746h-125l-51 528l-275 -528h-124zM598 782l-148 177h159l106 -177h-117z" />
    <glyph glyph-name="Ycircumflex" unicode="&#x176;" horiz-adv-x="725" 
d="M211 0l59 274l-182 467h149l129 -333l270 333h157l-382 -470l-57 -271h-143zM216 782l188 177h143l113 -177h-127l-74 91l-114 -91h-129z" />
    <glyph glyph-name="Ygrave" unicode="&#x1ef2;" horiz-adv-x="725" 
d="M211 0l59 274l-182 467h149l129 -333l270 333h157l-382 -470l-57 -271h-143zM411 782l-148 177h159l106 -177h-117z" />
    <glyph glyph-name="aeacute" unicode="&#x1fd;" horiz-adv-x="955" 
d="M621 -11c-114 0 -174 33 -205 84c-41 -50 -107 -83 -228 -83c-145 0 -203 56 -203 159c0 175 141 216 348 216h72c3 13 5 27 5 36c0 34 -22 52 -116 52c-45 0 -111 -15 -147 -34l-51 106c46 28 130 51 224 51c104 0 161 -17 189 -51c43 33 101 51 180 51
c178 0 223 -86 223 -174c0 -50 -11 -116 -23 -174h-387v-12c0 -65 32 -112 135 -112c64 0 123 15 164 41l54 -98c-72 -48 -152 -58 -234 -58zM227 104c96 0 129 34 151 134l5 25h-70c-132 0 -191 -9 -191 -101c0 -39 28 -58 105 -58zM674 458c-86 0 -128 -46 -152 -124h258
c3 16 5 28 5 45c0 46 -23 79 -111 79zM401 618l181 177h170l-224 -177h-127z" />
    <glyph glyph-name="aringacute" unicode="&#x1fb;" 
d="M189 -10c-160 0 -204 64 -204 159c0 173 133 216 348 216h73c2 13 4 25 4 36c0 35 -23 52 -116 52c-45 0 -111 -15 -147 -34l-51 106c46 28 130 51 224 51c230 0 243 -84 210 -242l-35 -162c-9 -44 -11 -57 40 -56l-25 -114c-8 -3 -28 -4 -58 -4c-49 0 -72 11 -80 53
c-35 -39 -97 -61 -183 -61zM387 608c-91 0 -129 51 -129 113c0 102 62 169 154 169c90 0 129 -55 129 -118c0 -103 -65 -164 -154 -164zM227 104c93 0 129 31 151 134l5 25h-70c-135 0 -191 -14 -191 -99c0 -37 22 -60 105 -60zM334 924l139 138h165l-176 -138h-128z
M391 678c47 0 78 32 78 86c0 30 -16 56 -61 56c-47 0 -78 -37 -78 -90c0 -29 18 -52 61 -52z" />
    <glyph glyph-name="ccircumflex" unicode="&#x109;" horiz-adv-x="561" 
d="M118 618l188 177h143l113 -177h-127l-74 91l-114 -91h-129zM260 -10c-191 0 -251 94 -251 215c0 36 4 71 11 107c33 162 117 264 309 264c126 0 186 -43 226 -95l-114 -90c-19 26 -45 57 -124 57c-89 0 -138 -47 -160 -158c-5 -23 -8 -48 -8 -71c0 -66 30 -110 122 -110
c44 0 78 7 125 43l74 -88c-67 -55 -134 -74 -210 -74z" />
    <glyph glyph-name="cdotaccent" unicode="&#x10b;" horiz-adv-x="561" 
d="M260 -10c-191 0 -251 94 -251 215c0 36 4 71 11 107c33 162 117 264 309 264c126 0 186 -43 226 -95l-114 -90c-19 26 -45 57 -124 57c-89 0 -138 -47 -160 -158c-5 -23 -8 -48 -8 -71c0 -66 30 -110 122 -110c44 0 78 7 125 43l74 -88c-67 -55 -134 -74 -210 -74z
M267 618l27 132h139l-28 -132h-138z" />
    <glyph glyph-name="ebreve" unicode="&#x115;" horiz-adv-x="593" 
d="M257 -11c-192 0 -249 96 -249 214c0 37 5 73 12 109c33 164 121 264 306 264c178 0 223 -84 223 -174c0 -50 -11 -116 -24 -174h-386v-12c0 -65 31 -112 134 -112c64 0 123 15 165 41l54 -98c-72 -48 -152 -58 -235 -58zM346 608c-159 0 -186 84 -184 194l103 12
c0 -66 12 -97 88 -97c70 0 99 31 122 97l97 -18c-33 -109 -101 -188 -226 -188zM310 458c-85 0 -127 -45 -151 -123h257c3 15 5 27 5 44c0 46 -22 79 -111 79z" />
    <glyph glyph-name="eng" unicode="&#x14b;" horiz-adv-x="633" 
d="M-14 0l118 555l109 8l-2 -57c36 38 89 70 174 70c209 0 206 -113 176 -253l-69 -325c-30 -143 -72 -167 -188 -167h-53l23 105h11c51 0 60 15 74 76l62 296c16 78 29 139 -93 139c-95 0 -122 -56 -137 -129l-67 -318h-138z" />
    <glyph glyph-name="gcircumflex" unicode="&#x11d;" horiz-adv-x="625" 
d="M294 206c-42 0 -78 3 -109 10c-5 -9 -8 -19 -8 -31c0 -20 8 -32 51 -32c218 -4 291 -36 291 -141c0 -157 -105 -192 -309 -191c-201 0 -283 39 -283 138c0 94 67 138 149 150c-16 17 -22 41 -22 66c0 34 17 62 40 84c-31 26 -44 62 -44 105c0 151 85 212 263 212
c16 0 34 -1 52 -2l248 45l-18 -110h-87c25 -25 42 -65 42 -108c0 -135 -84 -195 -256 -195zM120 639l188 177h143l113 -177h-127l-74 91l-114 -91h-129zM233 -81c102 -1 142 14 142 75c0 44 -48 57 -177 57c-98 0 -124 -23 -124 -71c0 -37 39 -61 159 -61zM295 304
c79 0 119 31 119 97c0 41 -29 65 -111 65c-79 0 -118 -29 -118 -98c0 -38 25 -64 110 -64z" />
    <glyph glyph-name="gdotaccent" unicode="&#x121;" horiz-adv-x="625" 
d="M294 206c-42 0 -78 3 -109 10c-5 -9 -8 -19 -8 -31c0 -20 8 -32 51 -32c218 -4 291 -36 291 -141c0 -157 -105 -192 -309 -191c-201 0 -283 39 -283 138c0 94 67 138 149 150c-16 17 -22 41 -22 66c0 34 17 62 40 84c-31 26 -44 62 -44 105c0 151 85 212 263 212
c16 0 34 -1 52 -2l248 45l-18 -110h-87c25 -25 42 -65 42 -108c0 -135 -84 -195 -256 -195zM233 -81c102 -1 142 14 142 75c0 44 -48 57 -177 57c-98 0 -124 -23 -124 -71c0 -37 39 -61 159 -61zM295 304c79 0 119 31 119 97c0 41 -29 65 -111 65c-79 0 -118 -29 -118 -98
c0 -38 25 -64 110 -64zM274 618l27 132h139l-28 -132h-138z" />
    <glyph glyph-name="hbar" unicode="&#x127;" horiz-adv-x="633" 
d="M-14 0l132 618h-72l19 91h72l15 67h136l-15 -67h121l-19 -91h-121l-19 -90c30 26 78 48 150 48c209 0 205 -113 176 -253l-69 -323h-136l65 308c16 76 29 136 -93 136c-95 0 -122 -54 -137 -125l-67 -319h-138z" />
    <glyph glyph-name="hcircumflex" unicode="&#x125;" horiz-adv-x="633" 
d="M-1 795l188 177h143l113 -177h-127l-74 91l-114 -91h-129zM-14 0l166 776h136l-53 -248c30 26 78 48 150 48c209 0 205 -113 176 -253l-69 -323h-136l65 308c16 76 29 136 -93 136c-95 0 -122 -54 -137 -125l-67 -319h-138z" />
    <glyph glyph-name="ibreve" unicode="&#x12d;" horiz-adv-x="279" 
d="M-8 0l121 563h135l-119 -563h-137zM206 608c-159 0 -186 84 -184 194l103 12c0 -66 12 -97 88 -97c70 0 99 31 122 97l97 -18c-33 -109 -101 -188 -226 -188z" />
    <glyph glyph-name="ij" unicode="&#x133;" horiz-adv-x="558" 
d="M-8 0l121 563h135l-119 -563h-137zM124 620l29 135h137l-28 -135h-138zM167 -169l23 107h11c51 0 60 15 73 76l118 549h135l-119 -564c-30 -144 -71 -168 -188 -168h-53zM403 620l29 135h137l-28 -135h-138z" />
    <glyph glyph-name="itilde" unicode="&#x129;" horiz-adv-x="279" 
d="M-8 0l121 563h135l-119 -563h-137zM281 619c-75 0 -115 53 -165 53c-28 0 -54 -21 -78 -48l-68 67c47 57 98 89 151 89c75 0 115 -53 165 -53c26 0 50 19 76 49l69 -65c-51 -61 -100 -92 -150 -92z" />
    <glyph glyph-name="jcircumflex" unicode="&#x135;" horiz-adv-x="279" 
d="M-112 -169l22 105h11c52 0 60 15 74 76l117 551h136l-120 -565c-29 -143 -71 -167 -188 -167h-52zM-34 618l188 177h143l113 -177h-127l-74 91l-114 -91h-129z" />
    <glyph glyph-name="kgreenlandic" unicode="&#x138;" horiz-adv-x="569" 
d="M-13 0l120 563h135l-50 -234l238 234h152l-233 -229l132 -334h-142l-95 231l-91 -90l-30 -141h-136z" />
    <glyph glyph-name="ldot" unicode="&#x140;" horiz-adv-x="577" 
d="M141 -2c-109 0 -137 55 -110 183l126 595h137l-127 -597c-10 -47 -6 -62 44 -62h20l-24 -115c-11 -2 -39 -4 -66 -4zM328 274l35 169h161l-35 -169h-161z" />
    <glyph glyph-name="napostrophe" unicode="&#x149;" horiz-adv-x="864" 
d="M81 417l-27 70c70 30 85 44 94 88h-77l36 166h161l-25 -119c-24 -117 -43 -156 -162 -205zM196 0l118 555l109 8l-1 -42c35 30 88 55 173 55c209 0 205 -113 176 -253l-69 -323h-136l65 308c16 76 29 136 -93 136c-95 0 -122 -54 -137 -125l-67 -319h-138z" />
    <glyph glyph-name="obreve" unicode="&#x14f;" horiz-adv-x="634" 
d="M267 -11c-184 0 -258 88 -258 222c0 32 4 65 11 101c41 190 145 264 310 264c185 0 259 -87 259 -220c0 -31 -5 -65 -12 -102c-40 -190 -143 -265 -310 -265zM275 109c97 0 142 51 164 156c6 25 9 50 9 71c0 67 -32 113 -126 113c-98 0 -143 -53 -165 -159
c-6 -24 -9 -48 -9 -71c0 -66 33 -110 127 -110zM370 608c-159 0 -186 84 -184 194l103 12c0 -66 12 -97 88 -97c70 0 99 31 122 97l97 -18c-33 -109 -101 -188 -226 -188z" />
    <glyph glyph-name="oslashacute" unicode="&#x1ff;" horiz-adv-x="634" 
d="M267 -11c-55 0 -100 8 -136 22l-45 -54h-116l87 104c-33 38 -48 89 -48 150c0 32 4 65 11 101c41 190 145 264 310 264c55 0 100 -8 136 -22l45 54h116l-87 -104c34 -38 49 -88 49 -148c0 -31 -5 -65 -12 -102c-40 -190 -143 -265 -310 -265zM274 101
c102 0 148 54 172 163c6 27 9 52 9 75c0 22 -4 41 -11 57l-237 -285c18 -7 40 -10 67 -10zM141 216c0 -19 2 -37 8 -52l235 284c-17 5 -37 8 -60 8c-104 0 -150 -55 -173 -165c-6 -26 -10 -51 -10 -75zM270 618l181 177h170l-224 -177h-127z" />
    <glyph glyph-name="scircumflex" unicode="&#x15d;" horiz-adv-x="541" 
d="M83 618l188 177h143l113 -177h-127l-74 91l-114 -91h-129zM227 -10c-111 0 -207 36 -269 89l86 95c50 -39 127 -69 196 -69c57 0 94 7 94 60c0 39 -53 51 -111 66c-78 20 -173 47 -173 151c0 142 98 194 241 194c106 0 185 -31 234 -65l-86 -105c-35 22 -84 48 -161 48
c-60 0 -87 -13 -87 -54c0 -36 44 -48 106 -64c86 -24 175 -50 175 -155c0 -146 -102 -191 -245 -191z" />
    <glyph glyph-name="tbar" unicode="&#x167;" horiz-adv-x="437" 
d="M42 443l26 120h101l54 144l111 22l-36 -166h131l-24 -120h-133l-20 -96h132l-23 -108h-133l-10 -50c-10 -46 -8 -72 61 -72h55l-24 -117c-19 -2 -58 -2 -81 -2c-153 0 -172 68 -148 187l11 54h-94l24 108h94l21 96h-95z" />
    <glyph glyph-name="ubreve" unicode="&#x16d;" 
d="M263 -11c-234 0 -260 105 -221 288l61 286h137l-63 -297c-19 -87 -29 -154 98 -154c96 0 109 50 127 133l68 318h134l-69 -324c-39 -185 -92 -250 -272 -250zM373 608c-159 0 -186 84 -184 194l103 12c0 -66 12 -97 88 -97c70 0 99 31 122 97l97 -18
c-33 -109 -101 -188 -226 -188z" />
    <glyph glyph-name="utilde" unicode="&#x169;" 
d="M263 -11c-234 0 -260 105 -221 288l61 286h137l-63 -297c-19 -87 -29 -154 98 -154c96 0 109 50 127 133l68 318h134l-69 -324c-39 -185 -92 -250 -272 -250zM446 619c-75 0 -115 53 -165 53c-28 0 -54 -21 -78 -48l-68 67c47 57 98 89 151 89c75 0 115 -53 165 -53
c26 0 50 19 76 49l69 -65c-51 -61 -100 -92 -150 -92z" />
    <glyph glyph-name="wacute" unicode="&#x1e83;" horiz-adv-x="889" 
d="M391 618l181 177h170l-224 -177h-127zM113 -6l-59 569h141l33 -353l188 353h140l42 -353l179 353h141l-300 -569h-128l-45 383l-204 -383h-128z" />
    <glyph glyph-name="wcircumflex" unicode="&#x175;" horiz-adv-x="889" 
d="M274 618l188 177h143l113 -177h-127l-74 91l-114 -91h-129zM113 -6l-59 569h141l33 -353l188 353h140l42 -353l179 353h141l-300 -569h-128l-45 383l-204 -383h-128z" />
    <glyph glyph-name="wdieresis" unicode="&#x1e85;" horiz-adv-x="889" 
d="M325 618l27 129h124l-27 -129h-124zM540 618l27 129h124l-27 -129h-124zM113 -6l-59 569h141l33 -353l188 353h140l42 -353l179 353h141l-300 -569h-128l-45 383l-204 -383h-128z" />
    <glyph glyph-name="wgrave" unicode="&#x1e81;" horiz-adv-x="889" 
d="M113 -6l-59 569h141l33 -353l188 353h140l42 -353l179 353h141l-300 -569h-128l-45 383l-204 -383h-128zM483 618l-148 177h159l106 -177h-117z" />
    <glyph glyph-name="ycircumflex" unicode="&#x177;" horiz-adv-x="551" 
d="M35 -170c-29 0 -57 1 -72 2l21 106h43c60 0 67 9 87 46l19 33l-88 546h144l50 -369l205 369h144l-353 -605c-57 -100 -94 -128 -200 -128zM102 618l188 177h143l113 -177h-127l-74 91l-114 -91h-129z" />
    <glyph glyph-name="ygrave" unicode="&#x1ef3;" horiz-adv-x="551" 
d="M35 -170c-29 0 -57 1 -72 2l21 106h43c60 0 67 9 87 46l19 33l-88 546h144l50 -369l205 369h144l-353 -605c-57 -100 -94 -128 -200 -128zM296 618l-148 177h159l106 -177h-117z" />
    <glyph glyph-name="afii10017" unicode="&#x410;" horiz-adv-x="748" 
d="M-62 0l444 746h140l125 -746h-142l-21 132h-318l-76 -132h-152zM236 256h229l-49 308z" />
    <glyph glyph-name="afii10018" unicode="&#x411;" horiz-adv-x="735" 
d="M-1 0l157 741h529l-27 -132h-394l-30 -145h164c202 0 278 -75 272 -192c-6 -166 -95 -272 -308 -272h-363zM160 122h201c93 0 155 29 160 127c5 76 -39 101 -143 101h-169z" />
    <glyph glyph-name="afii10019" unicode="&#x412;" horiz-adv-x="724" 
d="M-2 0l159 741h271c216 0 283 -58 283 -154c0 -122 -52 -189 -134 -206c58 -19 80 -70 80 -137c0 -192 -111 -244 -306 -244h-353zM164 122h217c84 0 132 31 132 117c0 50 -34 74 -129 74h-178zM232 440h205c92 0 123 40 123 109c0 42 -29 68 -138 68h-152z" />
    <glyph glyph-name="afii10020" unicode="&#x413;" horiz-adv-x="597" 
d="M-1 0l157 741h498l-27 -132h-356l-130 -609h-142z" />
    <glyph glyph-name="afii10021" unicode="&#x414;" horiz-adv-x="886" 
d="M-53 -166l62 293h22c50 0 63 14 73 62l117 552h631l-131 -614h79l-62 -293h-143l35 166h-506l-34 -166h-143zM213 124h364l105 487h-347l-92 -427c-6 -25 -10 -48 -30 -60z" />
    <glyph glyph-name="afii10022" unicode="&#x415;" horiz-adv-x="662" 
d="M-1 0l158 741h527l-28 -132h-384l-37 -165h375l-27 -129h-374l-41 -188h388l-26 -127h-531z" />
    <glyph glyph-name="afii10024" unicode="&#x416;" horiz-adv-x="1189" 
d="M455 0l71 335h-85l-317 -335h-170l402 421l-191 320h148l160 -277h80l59 277h136l-59 -277h71l277 277h169l-350 -344l215 -397h-154l-176 335h-79l-71 -335h-136z" />
    <glyph glyph-name="afii10025" unicode="&#x417;" horiz-adv-x="687" 
d="M282 -12c-132 0 -245 27 -321 78l81 108c66 -46 154 -66 247 -66c134 0 191 33 197 121c3 67 -15 97 -172 97h-170l27 126h167c119 0 187 20 192 97c4 65 -35 82 -149 82c-79 0 -171 -20 -229 -52l-52 106c83 44 202 68 306 68c166 0 280 -36 275 -178
c-4 -84 -49 -150 -146 -169c73 -17 100 -67 96 -154c-6 -185 -120 -264 -349 -264z" />
    <glyph glyph-name="afii10026" unicode="&#x418;" horiz-adv-x="796" 
d="M-1 0l158 741h137l-106 -497l460 497h153l-157 -741h-136l112 527l-488 -527h-133z" />
    <glyph glyph-name="afii10027" unicode="&#x419;" horiz-adv-x="796" 
d="M-1 0l158 741h137l-106 -497l460 497h153l-157 -741h-136l112 527l-488 -527h-133zM491 772c-159 0 -186 84 -184 194l103 12c0 -66 12 -97 88 -97c70 0 99 31 122 97l97 -18c-33 -109 -101 -188 -226 -188z" />
    <glyph glyph-name="afii10028" unicode="&#x41a;" horiz-adv-x="690" 
d="M463 0l-176 335h-77l-71 -335h-140l158 741h140l-59 -277h68l278 277h169l-351 -344l215 -397h-154z" />
    <glyph glyph-name="afii10029" unicode="&#x41b;" horiz-adv-x="807" 
d="M76 193l117 548h615l-157 -741h-144l130 611h-329l-96 -447c-27 -130 -89 -166 -191 -166c-25 0 -51 2 -60 4l26 125h12c53 0 66 13 77 66z" />
    <glyph glyph-name="afii10030" unicode="&#x41c;" horiz-adv-x="942" 
d="M-1 0l158 741h186l92 -524l317 524h192l-158 -741h-139l113 527l-323 -527h-102l-96 525l-112 -525h-128z" />
    <glyph glyph-name="afii10031" unicode="&#x41d;" horiz-adv-x="792" 
d="M-1 0l158 741h143l-63 -291h352l63 291h142l-158 -741h-142l67 314h-352l-67 -314h-143z" />
    <glyph glyph-name="afii10032" unicode="&#x41e;" horiz-adv-x="836" 
d="M383 -12c-223 0 -356 104 -356 302c0 37 4 77 13 122c58 274 235 341 415 341c221 0 354 -102 354 -299c0 -37 -4 -77 -13 -120c-60 -276 -235 -346 -413 -346zM385 117c146 0 232 71 266 228c7 32 11 61 11 90c0 110 -61 185 -214 185c-146 0 -232 -72 -265 -227
c-7 -31 -10 -61 -10 -90c0 -110 60 -186 212 -186z" />
    <glyph glyph-name="afii10033" unicode="&#x41f;" horiz-adv-x="788" 
d="M-1 0l157 741h633l-157 -741h-143l130 611h-350l-130 -611h-140z" />
    <glyph glyph-name="afii10034" unicode="&#x420;" horiz-adv-x="727" 
d="M-2 0l159 741h292c213 0 279 -82 279 -189c0 -179 -85 -313 -301 -313h-237l-52 -239h-140zM215 366h207c101 0 158 46 158 160c0 58 -42 89 -149 89h-161z" />
    <glyph glyph-name="afii10035" unicode="&#x421;" horiz-adv-x="733" 
d="M363 -11c-238 0 -337 114 -337 290c0 40 4 83 14 129c57 269 222 345 406 345c171 0 251 -57 298 -113l-118 -95c-37 45 -95 75 -183 75c-135 0 -226 -67 -261 -230c-7 -33 -10 -64 -10 -92c0 -109 59 -179 204 -179c79 0 133 23 182 62l84 -103
c-70 -60 -152 -89 -279 -89z" />
    <glyph glyph-name="afii10036" unicode="&#x422;" horiz-adv-x="682" 
d="M192 0l130 609h-253l28 132h647l-28 -132h-252l-130 -609h-142z" />
    <glyph glyph-name="afii10037" unicode="&#x423;" horiz-adv-x="699" 
d="M135 -2c-23 0 -63 1 -78 2l26 123h54c58 0 71 11 94 46l19 25l-161 547h140l116 -423l276 423h155l-417 -606c-71 -104 -104 -137 -224 -137z" />
    <glyph glyph-name="afii10038" unicode="&#x424;" horiz-adv-x="914" 
d="M309 0l11 52c-173 19 -292 94 -292 269c0 227 168 360 428 374l10 46h143l-11 -51c175 -21 294 -106 294 -278c0 -230 -172 -352 -430 -364l-10 -48h-143zM744 400c0 93 -54 144 -174 158l-81 -381c161 15 255 88 255 223zM174 338c0 -92 54 -144 173 -159l80 380
c-184 -18 -253 -112 -253 -221z" />
    <glyph glyph-name="afii10039" unicode="&#x425;" horiz-adv-x="743" 
d="M482 0l-131 283l-243 -283h-161l350 399l-158 342h148l113 -246l209 246h160l-316 -360l177 -381h-148z" />
    <glyph glyph-name="afii10040" unicode="&#x426;" horiz-adv-x="833" 
d="M541 -166l35 166h-568l158 741h142l-131 -617h350l131 617h141l-131 -614h78l-62 -293h-143z" />
    <glyph glyph-name="afii10041" unicode="&#x427;" horiz-adv-x="753" 
d="M455 0l58 278c-29 -35 -91 -72 -223 -72c-167 0 -228 68 -228 168c0 31 5 60 11 85l60 282h142l-55 -263c-4 -19 -8 -39 -8 -56c0 -53 32 -83 139 -83c149 0 190 64 206 148l54 254h143l-157 -741h-142z" />
    <glyph glyph-name="afii10042" unicode="&#x428;" horiz-adv-x="1186" 
d="M-1 0l157 741h142l-131 -617h302l132 617h143l-131 -617h302l131 617h141l-157 -741h-1031z" />
    <glyph glyph-name="afii10043" unicode="&#x429;" horiz-adv-x="1227" 
d="M935 -166l35 166h-966l158 741h142l-132 -617h303l131 617h144l-132 -617h303l131 617h141l-131 -614h78l-62 -293h-143z" />
    <glyph glyph-name="afii10044" unicode="&#x42a;" horiz-adv-x="772" 
d="M38 0l130 610h-78l27 131h217l-53 -248h170c198 0 271 -77 269 -199c-2 -177 -96 -294 -311 -294h-371zM203 122h205c95 0 161 32 163 147c2 72 -41 100 -141 100h-174z" />
    <glyph glyph-name="afii10045" unicode="&#x42b;" horiz-adv-x="980" 
d="M688 0l157 741h142l-157 -741h-142zM-1 0l157 741h139l-53 -248h170c198 0 271 -77 269 -199c-2 -179 -96 -294 -311 -294h-371zM164 122h205c95 0 161 32 163 147c2 72 -41 100 -141 100h-174z" />
    <glyph glyph-name="afii10046" unicode="&#x42c;" horiz-adv-x="733" 
d="M-1 0l157 741h139l-53 -248h170c198 0 271 -77 269 -199c-2 -179 -96 -294 -311 -294h-371zM164 122h205c95 0 161 32 163 147c2 72 -41 100 -141 100h-174z" />
    <glyph glyph-name="afii10047" unicode="&#x42d;" horiz-adv-x="733" 
d="M366 753c238 0 336 -114 336 -289c0 -40 -4 -83 -14 -129c-56 -269 -221 -346 -406 -346c-170 0 -251 57 -298 113l119 96c37 -45 95 -75 183 -75c121 0 206 53 247 182h-386l27 127h382v12c0 110 -58 179 -203 179c-79 0 -133 -23 -182 -62l-84 103c69 60 152 89 279 89
z" />
    <glyph glyph-name="afii10048" unicode="&#x42e;" horiz-adv-x="1140" 
d="M694 -12c-223 0 -356 105 -356 302v25h-130l-67 -315h-142l157 741h142l-62 -295h124c65 244 234 307 406 307c222 0 355 -102 355 -299c0 -37 -4 -77 -14 -120c-59 -275 -235 -346 -413 -346zM697 114c146 0 232 71 265 231c7 32 11 62 11 91c0 112 -60 187 -214 187
c-146 0 -231 -73 -264 -230c-7 -31 -11 -62 -11 -91c0 -112 60 -188 213 -188z" />
    <glyph glyph-name="afii10049" unicode="&#x42f;" horiz-adv-x="741" 
d="M-19 0l211 274c-92 29 -126 97 -122 196c6 156 94 271 320 271h360l-157 -741h-138l55 258h-177l-194 -258h-158zM584 615h-204c-95 0 -157 -29 -162 -127c-5 -83 34 -104 122 -104h194z" />
    <glyph glyph-name="afii10055" unicode="&#x406;" horiz-adv-x="317" 
d="M9 0l158 741h142l-158 -741h-142z" />
    <glyph glyph-name="afii10051" unicode="&#x402;" horiz-adv-x="837" 
d="M462 -169l23 105h10c51 0 60 15 73 76l50 232c16 78 29 139 -93 139c-94 0 -122 -56 -137 -129l-54 -254h-143l130 612h-252l28 129h647l-27 -129h-253l-34 -158c29 33 80 61 153 61c209 0 205 -113 175 -253l-56 -264c-30 -143 -72 -167 -188 -167h-52z" />
    <glyph glyph-name="afii10099" unicode="&#x452;" horiz-adv-x="633" 
d="M-14 0l128 603h-67l23 108h68l14 65h136l-14 -65h135l-23 -108h-135l-21 -96c30 29 79 53 152 53c209 0 205 -113 176 -253l-66 -308c-30 -144 -72 -168 -188 -168h-53l23 107h11c51 0 61 15 74 77l59 277c16 76 29 136 -93 136c-95 0 -122 -55 -137 -126l-64 -302h-138z
" />
    <glyph glyph-name="afii10052" unicode="&#x403;" horiz-adv-x="597" 
d="M276 782l181 177h170l-224 -177h-127zM-1 0l157 741h498l-27 -132h-356l-130 -609h-142z" />
    <glyph glyph-name="afii10100" unicode="&#x453;" horiz-adv-x="520" 
d="M222 618l181 177h170l-224 -177h-127zM-3 0l119 563h424l-24 -119h-288l-94 -444h-137z" />
    <glyph glyph-name="afii10103" unicode="&#x456;" horiz-adv-x="279" 
d="M-8 0l121 563h135l-119 -563h-137zM124 620l29 135h137l-28 -135h-138z" />
    <glyph glyph-name="afii10098" unicode="&#x491;" horiz-adv-x="513" 
d="M-13 0l118 563h297l35 166h129l-61 -286h-288l-93 -443h-137z" />
    <glyph glyph-name="afii10057" unicode="&#x408;" horiz-adv-x="421" 
d="M-54 0l26 127h72c82 0 116 28 133 103l109 511h142l-113 -532c-38 -179 -142 -211 -254 -211c-93 0 -83 0 -115 2z" />
    <glyph glyph-name="afii10053" unicode="&#x404;" horiz-adv-x="733" 
d="M363 -11c-238 0 -337 114 -337 290c0 40 4 83 14 129c57 269 222 345 406 345c171 0 251 -57 298 -113l-118 -95c-37 45 -95 75 -183 75c-120 0 -206 -54 -248 -180h387l-28 -127h-382v-15c0 -109 59 -179 204 -179c79 0 133 23 182 62l84 -103
c-70 -60 -152 -89 -279 -89z" />
    <glyph glyph-name="afii10101" unicode="&#x454;" horiz-adv-x="561" 
d="M259 -10c-194 0 -251 93 -251 214c0 36 5 72 12 107c33 163 114 265 308 265c128 0 187 -44 226 -96l-108 -77c-18 26 -46 58 -120 58c-85 0 -132 -37 -159 -128h272l-26 -106h-265c-1 -5 0 -10 0 -14c0 -67 27 -113 120 -113c44 0 78 7 127 45l70 -84
c-64 -51 -129 -71 -206 -71z" />
    <glyph glyph-name="afii10056" unicode="&#x407;" horiz-adv-x="317" 
d="M9 0l158 741h142l-158 -741h-142zM78 782l27 129h124l-27 -129h-124zM293 782l27 129h124l-27 -129h-124z" />
    <glyph glyph-name="afii10104" unicode="&#x457;" horiz-adv-x="279" 
d="M39 618l27 127h114l-27 -127h-114zM231 618l27 127h114l-27 -127h-114zM-8 0l121 563h135l-119 -563h-137z" />
    <glyph glyph-name="afii10058" unicode="&#x409;" horiz-adv-x="1219" 
d="M498 0l130 611h-320l-96 -447c-27 -130 -89 -166 -191 -166c-25 0 -51 2 -60 4l26 125h12c53 0 66 13 77 66l117 548h601l-53 -248h156c202 0 274 -80 268 -205c-6 -174 -96 -288 -309 -288h-358zM662 122h192c94 0 158 30 163 141c5 76 -37 106 -141 106h-160z" />
    <glyph glyph-name="afii10106" unicode="&#x459;" horiz-adv-x="1014" 
d="M402 0l93 446h-230l-61 -282c-28 -130 -84 -166 -185 -166c-25 0 -51 2 -60 4l24 115h11c54 0 69 14 80 66l80 380h501l-31 -148h109c140 0 222 -53 222 -172c0 -129 -62 -243 -257 -243h-296zM559 109h132c76 0 123 33 123 119c0 62 -47 79 -110 79h-102z" />
    <glyph glyph-name="afii10059" unicode="&#x40a;" horiz-adv-x="1213" 
d="M-2 0l159 741h142l-62 -291h344l61 291h140l-53 -248h163c202 0 274 -80 268 -205c-6 -174 -97 -288 -310 -288h-365l68 314h-344l-68 -314h-143zM651 122h197c94 0 158 30 164 141c4 76 -38 106 -141 106h-167z" />
    <glyph glyph-name="afii10107" unicode="&#x45a;" horiz-adv-x="954" 
d="M348 0l49 229h-224l-50 -229h-137l121 563h135l-44 -210h224l44 210h136l-32 -148h102c140 0 223 -53 223 -172c0 -129 -63 -243 -258 -243h-289zM506 109h124c77 0 122 33 122 119c0 62 -47 79 -108 79h-97z" />
    <glyph glyph-name="afii10105" unicode="&#x458;" horiz-adv-x="279" 
d="M-112 -169l23 107h11c51 0 60 15 73 76l118 549h135l-119 -564c-30 -144 -71 -168 -188 -168h-53zM124 620l29 135h137l-28 -135h-138z" />
    <glyph glyph-name="afii10054" unicode="&#x405;" horiz-adv-x="712" 
d="M324 -11c-170 0 -283 49 -361 108l92 102c69 -54 160 -88 276 -88c96 0 161 20 161 97c0 67 -53 76 -168 108c-131 37 -230 69 -230 204c0 180 135 233 288 233c172 0 262 -48 311 -86l-93 -108c-42 33 -116 67 -223 67c-85 0 -138 -21 -138 -93c0 -57 59 -74 149 -96
c138 -35 250 -69 250 -200c0 -180 -127 -248 -314 -248z" />
    <glyph glyph-name="afii10060" unicode="&#x40b;" horiz-adv-x="837" 
d="M191 0l130 612h-252l28 129h647l-27 -129h-253l-34 -158c29 33 80 61 153 61c209 0 205 -113 175 -253l-55 -262h-137l52 244c16 78 29 139 -93 139c-94 0 -122 -56 -137 -129l-54 -254h-143z" />
    <glyph glyph-name="afii10108" unicode="&#x45b;" horiz-adv-x="633" 
d="M47 603l23 108h68l14 65h136l-14 -65h135l-23 -108h-136l-20 -96c30 29 79 53 152 53c209 0 205 -113 176 -253l-66 -307h-136l62 292c16 76 29 136 -93 136c-95 0 -122 -55 -137 -126l-64 -302h-138l129 603h-68z" />
    <glyph glyph-name="afii10061" unicode="&#x40c;" horiz-adv-x="739" 
d="M463 0l-176 335h-77l-71 -335h-140l158 741h140l-59 -277h68l278 277h169l-351 -344l215 -397h-154zM359 782l181 177h170l-224 -177h-127z" />
    <glyph glyph-name="afii10109" unicode="&#x45c;" horiz-adv-x="587" 
d="M242 563l-43 -202h47l193 202h161l-254 -264l140 -299h-145l-112 248h-54l-53 -248h-136l121 563h135zM263 618l181 177h170l-224 -177h-127z" />
    <glyph glyph-name="afii10102" unicode="&#x455;" horiz-adv-x="541" 
d="M227 -10c-111 0 -207 36 -269 89l86 95c50 -39 127 -69 196 -69c57 0 94 7 94 60c0 39 -53 51 -111 66c-78 20 -173 47 -173 151c0 142 98 194 241 194c106 0 185 -31 234 -65l-86 -105c-35 22 -84 48 -161 48c-60 0 -87 -13 -87 -54c0 -36 44 -48 106 -64
c86 -24 175 -50 175 -155c0 -146 -102 -191 -245 -191z" />
    <glyph glyph-name="afii10062" unicode="&#x40e;" horiz-adv-x="706" 
d="M138 -2c-23 0 -63 1 -78 2l26 123h54c58 0 71 11 94 46l19 25l-161 547h140l116 -423l276 423h155l-417 -606c-71 -104 -104 -137 -224 -137zM440 772c-159 0 -186 84 -184 194l103 12c0 -66 12 -97 88 -97c70 0 99 31 122 97l97 -18c-33 -109 -101 -188 -226 -188z" />
    <glyph glyph-name="afii10110" unicode="&#x45e;" horiz-adv-x="551" 
d="M35 -170c-29 0 -57 1 -72 2l21 106h43c60 0 67 9 87 46l19 33l-88 546h144l50 -369l205 369h144l-353 -605c-57 -100 -94 -128 -200 -128zM357 608c-159 0 -186 84 -184 194l103 12c0 -66 12 -97 88 -97c70 0 99 31 122 97l97 -18c-33 -109 -101 -188 -226 -188z" />
    <glyph glyph-name="afii10145" unicode="&#x40f;" horiz-adv-x="788" 
d="M215 -166l35 166h-251l158 741h143l-132 -617h350l132 617h140l-158 -741h-239l-35 -166h-143z" />
    <glyph glyph-name="afii10193" unicode="&#x45f;" horiz-adv-x="640" 
d="M141 -166l35 166h-190l121 563h135l-95 -449h233l95 449h136l-120 -563h-187l-35 -166h-128z" />
    <glyph glyph-name="afii61352" unicode="&#x2116;" horiz-adv-x="1357" 
d="M1057 279c-154 0 -217 71 -217 182c1 177 98 292 248 292c156 0 219 -71 219 -182c0 -179 -95 -292 -250 -292zM1056 378c87 0 135 69 135 177c0 57 -27 93 -102 93c-84 0 -134 -72 -134 -179c0 -56 28 -91 101 -91zM796 122l21 100h389l-21 -100h-389zM-1 0l158 741h154
l237 -507l109 507h137l-158 -741h-131l-255 537l-115 -537h-136z" />
    <glyph glyph-name="afii10023" unicode="&#x401;" horiz-adv-x="662" 
d="M249 782l27 129h124l-27 -129h-124zM464 782l27 129h124l-27 -129h-124zM-1 0l158 741h527l-28 -132h-384l-37 -165h375l-27 -129h-374l-41 -188h388l-26 -127h-531z" />
    <glyph glyph-name="afii10071" unicode="&#x451;" horiz-adv-x="593" 
d="M257 -11c-192 0 -249 96 -249 214c0 37 5 73 12 109c33 164 121 264 306 264c178 0 223 -84 223 -174c0 -50 -11 -116 -24 -174h-386v-12c0 -65 31 -112 134 -112c64 0 123 15 165 41l54 -98c-72 -48 -152 -58 -235 -58zM310 458c-85 0 -127 -45 -151 -123h257
c3 15 5 27 5 44c0 46 -22 79 -111 79zM404 618l27 129h124l-27 -129h-124zM189 618l27 129h124l-27 -129h-124z" />
    <glyph glyph-name="afii10097" unicode="&#x44f;" horiz-adv-x="630" 
d="M-31 0l151 190c-57 23 -85 69 -85 140c0 154 101 233 256 233h309l-118 -563h-135l36 171h-138l-129 -171h-147zM263 285h144l35 164h-158c-62 0 -107 -27 -107 -100c0 -48 30 -64 86 -64z" />
    <glyph glyph-name="afii10065" unicode="&#x430;" 
d="M189 -10c-160 0 -204 64 -204 159c0 173 133 216 348 216h73c2 13 4 25 4 36c0 35 -23 52 -116 52c-45 0 -111 -15 -147 -34l-51 106c46 28 130 51 224 51c230 0 243 -84 210 -242l-35 -162c-9 -44 -11 -57 40 -56l-25 -114c-8 -3 -28 -4 -58 -4c-49 0 -72 11 -80 53
c-35 -39 -97 -61 -183 -61zM227 104c93 0 129 31 151 134l5 25h-70c-135 0 -191 -14 -191 -99c0 -37 22 -60 105 -60z" />
    <glyph glyph-name="afii10066" unicode="&#x431;" horiz-adv-x="636" 
d="M266 -11c-183 0 -257 86 -257 220c0 62 17 129 32 191c69 307 188 376 406 376h96l-25 -121h-88c-114 0 -200 -24 -236 -187c39 54 96 80 188 80c157 0 206 -96 206 -197c0 -23 -4 -56 -10 -90c-36 -187 -134 -272 -312 -272zM274 109c93 0 140 49 162 141
c5 23 8 47 8 71c0 65 -30 107 -123 107c-92 0 -137 -49 -162 -134c-8 -25 -11 -51 -11 -76c0 -67 33 -109 126 -109z" />
    <glyph glyph-name="afii10067" unicode="&#x432;" horiz-adv-x="609" 
d="M-14 0l119 563h249c143 0 214 -39 214 -127c0 -78 -39 -123 -104 -142c47 -13 68 -49 68 -98c0 -154 -104 -196 -274 -196h-272zM136 102h154c66 0 110 14 110 80c0 40 -27 54 -89 54h-146zM186 335h136c80 0 108 21 108 71c0 37 -25 52 -90 52h-127z" />
    <glyph glyph-name="afii10068" unicode="&#x433;" horiz-adv-x="505" 
d="M-14 0l119 563h424l-24 -119h-288l-94 -444h-137z" />
    <glyph glyph-name="afii10069" unicode="&#x434;" horiz-adv-x="682" 
d="M-101 -166l59 283h20c50 0 61 15 72 63l81 383h506l-94 -446h77l-60 -283h-129l35 166h-404l-35 -166h-128zM154 110h253l71 336h-235l-59 -276c-7 -30 -14 -47 -30 -60z" />
    <glyph glyph-name="afii10070" unicode="&#x435;" horiz-adv-x="593" 
d="M257 -11c-192 0 -249 96 -249 214c0 37 5 73 12 109c33 164 121 264 306 264c178 0 223 -84 223 -174c0 -50 -11 -116 -24 -174h-386v-12c0 -65 31 -112 134 -112c64 0 123 15 165 41l54 -98c-72 -48 -152 -58 -235 -58zM310 458c-85 0 -127 -45 -151 -123h257
c3 15 5 27 5 44c0 46 -22 79 -111 79z" />
    <glyph glyph-name="afii10072" unicode="&#x436;" horiz-adv-x="884" 
d="M552 563l-43 -202h55l192 202h160l-254 -264l141 -299h-146l-113 248h-59l-52 -248h-131l53 248h-56l-218 -248h-164l290 319l-139 244h148l109 -202h54l43 202h130z" />
    <glyph glyph-name="afii10073" unicode="&#x437;" horiz-adv-x="585" 
d="M220 -12c-108 0 -198 19 -256 59l76 98c51 -32 107 -48 187 -48c101 0 143 22 143 92c0 43 -24 53 -132 53h-118l23 106h117c109 0 142 15 142 74c0 37 -31 44 -99 44c-73 0 -138 -15 -181 -37l-46 93c66 35 168 54 255 54c145 0 214 -35 214 -119
c0 -70 -30 -128 -102 -148c47 -13 66 -46 66 -104c0 -175 -113 -217 -289 -217z" />
    <glyph glyph-name="afii10074" unicode="&#x438;" horiz-adv-x="645" 
d="M-14 0l119 563h131l-73 -344l319 344h134l-119 -563h-130l74 352l-331 -352h-124z" />
    <glyph glyph-name="afii10075" unicode="&#x439;" horiz-adv-x="645" 
d="M-14 0l119 563h131l-73 -344l319 344h134l-119 -563h-130l74 352l-331 -352h-124zM373 608c-159 0 -186 84 -184 194l103 12c0 -66 12 -97 88 -97c70 0 99 31 122 97l97 -18c-33 -109 -101 -188 -226 -188z" />
    <glyph glyph-name="afii10076" unicode="&#x43a;" horiz-adv-x="587" 
d="M242 563l-43 -202h47l193 202h161l-254 -264l140 -299h-145l-112 248h-54l-53 -248h-136l121 563h135z" />
    <glyph glyph-name="afii10077" unicode="&#x43b;" horiz-adv-x="690" 
d="M74 183l80 380h507l-119 -563h-137l94 446h-234l-61 -282c-28 -130 -84 -166 -185 -166c-25 0 -51 2 -60 4l24 115h11c54 0 69 14 80 66z" />
    <glyph glyph-name="afii10078" unicode="&#x43c;" horiz-adv-x="787" 
d="M-14 0l119 563h165l76 -379l237 379h177l-119 -563h-134l72 346l-214 -346h-111l-68 347l-73 -347h-127z" />
    <glyph glyph-name="afii10079" unicode="&#x43d;" horiz-adv-x="643" 
d="M-14 0l121 563h135l-45 -211h235l45 211h136l-119 -563h-136l49 231h-235l-49 -231h-137z" />
    <glyph glyph-name="afii10080" unicode="&#x43e;" horiz-adv-x="634" 
d="M267 -11c-184 0 -258 88 -258 222c0 32 4 65 11 101c41 190 145 264 310 264c185 0 259 -87 259 -220c0 -31 -5 -65 -12 -102c-40 -190 -143 -265 -310 -265zM275 109c97 0 142 51 164 156c6 25 9 50 9 71c0 67 -32 113 -126 113c-98 0 -143 -53 -165 -159
c-6 -24 -9 -48 -9 -71c0 -66 33 -110 127 -110z" />
    <glyph glyph-name="afii10081" unicode="&#x43f;" horiz-adv-x="640" 
d="M-14 0l121 563h504l-119 -563h-136l94 446h-232l-95 -446h-137z" />
    <glyph glyph-name="afii10082" unicode="&#x440;" horiz-adv-x="653" 
d="M-48 -165l153 720l108 8l-1 -45c39 38 94 58 189 58c158 0 209 -89 209 -204c0 -36 -5 -76 -14 -116c-35 -162 -104 -265 -272 -265c-122 0 -168 24 -188 62l-47 -218h-137zM304 110c96 0 130 56 153 157c6 28 10 53 10 77c0 62 -28 105 -118 105
c-92 0 -138 -34 -164 -155c-7 -28 -10 -54 -10 -77c0 -70 36 -107 129 -107z" />
    <glyph glyph-name="afii10083" unicode="&#x441;" horiz-adv-x="561" 
d="M260 -10c-191 0 -251 94 -251 215c0 36 4 71 11 107c33 162 117 264 309 264c126 0 186 -43 226 -95l-114 -90c-19 26 -45 57 -124 57c-89 0 -138 -47 -160 -158c-5 -23 -8 -48 -8 -71c0 -66 30 -110 122 -110c44 0 78 7 125 43l74 -88c-67 -55 -134 -74 -210 -74z" />
    <glyph glyph-name="afii10084" unicode="&#x442;" horiz-adv-x="558" 
d="M128 0l94 444h-190l25 119h516l-25 -119h-189l-94 -444h-137z" />
    <glyph glyph-name="afii10085" unicode="&#x443;" horiz-adv-x="551" 
d="M35 -170c-29 0 -57 1 -72 2l21 106h43c60 0 67 9 87 46l19 33l-88 546h144l50 -369l205 369h144l-353 -605c-57 -100 -94 -128 -200 -128z" />
    <glyph glyph-name="afii10086" unicode="&#x444;" horiz-adv-x="1042" 
d="M341 -165l36 173c3 11 9 42 9 42c-35 -39 -84 -59 -171 -59c-158 0 -208 88 -208 203c0 37 5 77 14 118c35 161 103 264 272 264c116 0 164 -28 185 -69l59 269h137l-46 -212c-2 -12 -11 -51 -11 -51c34 41 83 63 172 63c158 0 209 -89 209 -204c0 -36 -6 -76 -14 -117
c-36 -162 -103 -264 -272 -264c-123 0 -167 26 -188 67l-47 -223h-136zM692 110c95 0 130 56 153 156c6 28 10 55 10 79c0 61 -28 104 -118 104c-93 0 -138 -34 -164 -155c-7 -29 -10 -55 -10 -79c0 -68 36 -105 129 -105zM267 111c93 0 138 34 165 154c6 29 9 57 9 79
c2 70 -36 106 -129 106c-95 0 -129 -55 -153 -157c-5 -28 -8 -54 -8 -78c0 -61 27 -104 116 -104z" />
    <glyph glyph-name="afii10087" unicode="&#x445;" horiz-adv-x="565" 
d="M329 0l-88 193l-164 -193h-151l266 300l-119 263h142l76 -167l140 167h150l-242 -274l132 -289h-142z" />
    <glyph glyph-name="afii10088" unicode="&#x446;" horiz-adv-x="656" 
d="M405 -166l35 166h-454l121 563h136l-96 -449h233l95 449h136l-94 -446h75l-60 -283h-127z" />
    <glyph glyph-name="afii10089" unicode="&#x447;" horiz-adv-x="623" 
d="M340 0l41 197c-30 -35 -79 -68 -179 -68c-171 0 -191 95 -162 234l42 200h137l-36 -171c-16 -76 -17 -131 83 -131c108 0 141 58 157 140l34 162h137l-119 -563h-135z" />
    <glyph glyph-name="afii10090" unicode="&#x448;" horiz-adv-x="999" 
d="M-14 0l121 563h135l-96 -449h231l96 449h136l-96 -449h227l95 449h135l-119 -563h-865z" />
    <glyph glyph-name="afii10091" unicode="&#x449;" horiz-adv-x="1017" 
d="M766 -166l35 166h-815l121 563h136l-95 -449h230l96 449h136l-95 -449h227l95 449h135l-95 -446h78l-60 -283h-129z" />
    <glyph glyph-name="afii10092" unicode="&#x44a;" horiz-adv-x="635" 
d="M273 563l-32 -148h113c140 0 223 -53 223 -174c0 -127 -63 -241 -258 -241h-300l94 444h-78l25 119h213zM176 109h135c77 0 123 33 123 119c0 62 -47 79 -109 79h-106z" />
    <glyph glyph-name="afii10093" unicode="&#x44b;" horiz-adv-x="855" 
d="M-14 0l119 563h135l-31 -148h112c141 0 223 -53 223 -173c0 -128 -62 -242 -258 -242h-300zM144 109h135c76 0 123 33 123 119c0 62 -47 79 -109 79h-106zM570 0l119 563h137l-120 -563h-136z" />
    <glyph glyph-name="afii10094" unicode="&#x44c;" horiz-adv-x="603" 
d="M-14 0l119 563h135l-31 -148h112c141 0 223 -53 223 -173c0 -128 -62 -242 -258 -242h-300zM144 109h135c76 0 123 33 123 119c0 62 -47 79 -109 79h-106z" />
    <glyph glyph-name="afii10095" unicode="&#x44d;" horiz-adv-x="561" 
d="M265 576c194 0 251 -93 251 -214c0 -36 -5 -72 -12 -107c-33 -163 -114 -265 -308 -265c-128 0 -186 44 -227 96l109 77c19 -26 46 -58 121 -58c84 0 131 36 158 128h-272l26 107h265v13c0 67 -27 113 -120 113c-44 0 -78 -7 -127 -45l-70 84c64 51 129 71 206 71z" />
    <glyph glyph-name="afii10096" unicode="&#x44e;" horiz-adv-x="874" 
d="M507 -11c-184 0 -258 88 -258 222v21h-77l-49 -232h-137l120 563h136l-45 -213h72c47 161 147 226 301 226c185 0 259 -87 259 -220c0 -31 -5 -65 -12 -102c-40 -190 -143 -265 -310 -265zM515 109c97 0 142 51 164 156c6 25 9 50 9 71c0 67 -32 113 -126 113
c-98 0 -143 -53 -165 -159c-6 -24 -9 -48 -9 -71c0 -66 33 -110 127 -110z" />
    <glyph glyph-name="afii10050" unicode="&#x490;" horiz-adv-x="597" 
d="M-1 0l157 741h356l35 166h142l-62 -298h-356l-130 -609h-142z" />
    <glyph glyph-name="tonos" unicode="&#x384;" horiz-adv-x="590" 
d="M223 618l108 176h131l-137 -176h-102z" />
    <glyph glyph-name="dieresistonos" unicode="&#x385;" horiz-adv-x="590" 
d="M68 618l27 127h98l-28 -127h-97zM387 618l27 127h98l-27 -127h-98zM201 618l95 176h118l-128 -176h-85z" />
    <glyph glyph-name="Alphatonos" unicode="&#x386;" horiz-adv-x="806" 
d="M65 566l108 176h131l-137 -176h-102zM-5 0l444 746h140l125 -746h-142l-21 132h-318l-76 -132h-152zM293 256h229l-49 308z" />
    <glyph glyph-name="Epsilontonos" unicode="&#x388;" horiz-adv-x="866" 
d="M49 566l108 176h131l-137 -176h-102zM203 0l158 741h527l-28 -132h-384l-37 -165h375l-27 -129h-374l-41 -188h388l-26 -127h-531z" />
    <glyph glyph-name="Etatonos" unicode="&#x389;" horiz-adv-x="997" 
d="M49 566l108 176h131l-137 -176h-102zM203 0l158 741h143l-63 -291h352l63 291h142l-158 -741h-142l67 314h-352l-67 -314h-143z" />
    <glyph glyph-name="Iotatonos" unicode="&#x38a;" horiz-adv-x="519" 
d="M49 566l108 176h131l-137 -176h-102zM210 0l158 741h142l-158 -741h-142z" />
    <glyph glyph-name="Omicrontonos" unicode="&#x38c;" horiz-adv-x="1026" 
d="M49 566l108 176h131l-137 -176h-102zM567 -12c-223 0 -356 104 -356 302c0 37 4 77 13 122c58 274 235 341 415 341c221 0 354 -102 354 -299c0 -37 -4 -77 -13 -120c-60 -276 -235 -346 -413 -346zM569 117c146 0 232 71 266 228c7 32 11 61 11 90
c0 110 -61 185 -214 185c-146 0 -232 -72 -265 -227c-7 -31 -10 -61 -10 -90c0 -110 60 -186 212 -186z" />
    <glyph glyph-name="Upsilontonos" unicode="&#x38e;" horiz-adv-x="988" 
d="M49 566l108 176h131l-137 -176h-102zM473 0l59 274l-182 467h149l129 -333l270 333h157l-382 -470l-57 -271h-143z" />
    <glyph glyph-name="Omegatonos" unicode="&#x38f;" horiz-adv-x="1041" 
d="M654 753c226 0 354 -111 354 -282c0 -173 -111 -287 -273 -319l-7 -32h223l-26 -120h-325l44 201c145 28 213 113 213 242c0 115 -79 177 -215 177c-175 0 -275 -112 -275 -253c0 -101 45 -147 147 -166l-44 -201h-325l25 120h223l7 32c-112 25 -175 88 -175 219
c0 188 134 382 429 382zM49 566l108 176h131l-137 -176h-102z" />
    <glyph glyph-name="Alpha" unicode="&#x391;" horiz-adv-x="748" 
d="M-62 0l444 746h140l125 -746h-142l-21 132h-318l-76 -132h-152zM236 256h229l-49 308z" />
    <glyph glyph-name="Beta" unicode="&#x392;" horiz-adv-x="724" 
d="M-2 0l159 741h271c216 0 283 -58 283 -154c0 -122 -52 -189 -134 -206c58 -19 80 -70 80 -137c0 -192 -111 -244 -306 -244h-353zM164 122h217c84 0 132 31 132 117c0 50 -34 74 -129 74h-178zM232 440h205c92 0 123 40 123 109c0 42 -29 68 -138 68h-152z" />
    <glyph glyph-name="Gamma" unicode="&#x393;" horiz-adv-x="597" 
d="M-1 0l157 741h498l-27 -132h-356l-130 -609h-142z" />
    <glyph glyph-name="uni0394" unicode="&#x394;" horiz-adv-x="748" 
d="M-61 0l444 746h138l124 -746h-706zM158 124h327l-70 440z" />
    <glyph glyph-name="Epsilon" unicode="&#x395;" horiz-adv-x="662" 
d="M-1 0l158 741h527l-28 -132h-384l-37 -165h375l-27 -129h-374l-41 -188h388l-26 -127h-531z" />
    <glyph glyph-name="Zeta" unicode="&#x396;" horiz-adv-x="665" 
d="M-44 0l24 109l502 500h-378l27 132h565l-24 -119l-497 -495h400l-26 -127h-593z" />
    <glyph glyph-name="Eta" unicode="&#x397;" horiz-adv-x="792" 
d="M-1 0l158 741h143l-63 -291h352l63 291h142l-158 -741h-142l67 314h-352l-67 -314h-143z" />
    <glyph glyph-name="Theta" unicode="&#x398;" horiz-adv-x="836" 
d="M265 308l27 124h277l-27 -124h-277zM383 -12c-223 0 -356 104 -356 302c0 37 4 77 13 122c58 274 235 341 415 341c221 0 354 -102 354 -299c0 -37 -4 -77 -13 -120c-60 -276 -235 -346 -413 -346zM385 117c146 0 232 71 266 228c7 32 11 61 11 90
c0 110 -61 185 -214 185c-146 0 -232 -72 -265 -227c-7 -31 -10 -61 -10 -90c0 -110 60 -186 212 -186z" />
    <glyph glyph-name="Iota" unicode="&#x399;" horiz-adv-x="317" 
d="M9 0l158 741h142l-158 -741h-142z" />
    <glyph glyph-name="Kappa" unicode="&#x39a;" horiz-adv-x="726" 
d="M469 0l-142 350l-142 -135l-46 -215h-140l158 741h140l-71 -332l344 332h171l-302 -290l180 -451h-150z" />
    <glyph glyph-name="Lambda" unicode="&#x39b;" horiz-adv-x="748" 
d="M225 -5l-124 746h145l85 -556l323 556h154l-444 -746h-139z" />
    <glyph glyph-name="Mu" unicode="&#x39c;" horiz-adv-x="942" 
d="M-1 0l158 741h186l92 -524l317 524h192l-158 -741h-139l113 527l-323 -527h-102l-96 525l-112 -525h-128z" />
    <glyph glyph-name="Nu" unicode="&#x39d;" horiz-adv-x="791" 
d="M-1 0l158 741h154l237 -507l109 507h137l-158 -741h-131l-255 537l-115 -537h-136z" />
    <glyph glyph-name="Xi" unicode="&#x39e;" horiz-adv-x="668" 
d="M112 609l28 132h556l-28 -132h-556zM109 316l27 129h440l-27 -129h-440zM-23 0l27 127h567l-26 -127h-568z" />
    <glyph glyph-name="Omicron" unicode="&#x39f;" horiz-adv-x="836" 
d="M383 -12c-223 0 -356 104 -356 302c0 37 4 77 13 122c58 274 235 341 415 341c221 0 354 -102 354 -299c0 -37 -4 -77 -13 -120c-60 -276 -235 -346 -413 -346zM385 117c146 0 232 71 266 228c7 32 11 61 11 90c0 110 -61 185 -214 185c-146 0 -232 -72 -265 -227
c-7 -31 -10 -61 -10 -90c0 -110 60 -186 212 -186z" />
    <glyph glyph-name="Pi" unicode="&#x3a0;" horiz-adv-x="762" 
d="M-1 0l157 741h606l-157 -741h-142l129 611h-323l-130 -611h-140z" />
    <glyph glyph-name="Rho" unicode="&#x3a1;" horiz-adv-x="727" 
d="M-2 0l159 741h292c213 0 279 -82 279 -189c0 -179 -85 -313 -301 -313h-237l-52 -239h-140zM215 366h207c101 0 158 46 158 160c0 58 -42 89 -149 89h-161z" />
    <glyph glyph-name="Sigma" unicode="&#x3a3;" horiz-adv-x="662" 
d="M-34 0l23 107l285 264l-165 253l25 117h545l-28 -132h-367l159 -246l-250 -237h373l-27 -126h-573z" />
    <glyph glyph-name="Tau" unicode="&#x3a4;" horiz-adv-x="682" 
d="M192 0l130 609h-253l28 132h647l-28 -132h-252l-130 -609h-142z" />
    <glyph glyph-name="Upsilon" unicode="&#x3a5;" horiz-adv-x="725" 
d="M211 0l59 274l-182 467h149l129 -333l270 333h157l-382 -470l-57 -271h-143z" />
    <glyph glyph-name="Phi" unicode="&#x3a6;" horiz-adv-x="914" 
d="M309 0l11 52c-173 19 -292 94 -292 269c0 227 168 360 428 374l10 46h143l-11 -51c175 -21 294 -106 294 -278c0 -230 -172 -352 -430 -364l-10 -48h-143zM744 400c0 93 -54 144 -174 158l-81 -381c161 15 255 88 255 223zM174 338c0 -92 54 -144 173 -159l80 380
c-184 -18 -253 -112 -253 -221z" />
    <glyph glyph-name="Chi" unicode="&#x3a7;" horiz-adv-x="743" 
d="M482 0l-131 283l-243 -283h-161l350 399l-158 342h148l113 -246l209 246h160l-316 -360l177 -381h-148z" />
    <glyph glyph-name="Psi" unicode="&#x3a8;" horiz-adv-x="771" 
d="M241 0l53 253c-208 14 -240 98 -205 263l48 225h136l-47 -224c-15 -73 -26 -127 95 -140l77 364h143l-77 -363c123 14 137 69 153 140l47 223h134l-47 -223c-35 -164 -107 -249 -314 -265l-53 -253h-143z" />
    <glyph glyph-name="uni03A9" unicode="&#x3a9;" horiz-adv-x="864" 
d="M478 753c226 0 354 -111 354 -282c0 -173 -111 -287 -273 -319l-7 -32h223l-26 -120h-325l44 201c145 28 213 113 213 242c0 115 -79 177 -215 177c-175 0 -275 -112 -275 -253c0 -101 45 -147 147 -166l-44 -201h-325l25 120h223l7 32c-112 25 -175 88 -175 219
c0 188 134 382 429 382z" />
    <glyph glyph-name="Iotadieresis" unicode="&#x3aa;" horiz-adv-x="317" 
d="M9 0l158 741h142l-158 -741h-142zM78 782l27 129h124l-27 -129h-124zM293 782l27 129h124l-27 -129h-124z" />
    <glyph glyph-name="Upsilondieresis" unicode="&#x3ab;" horiz-adv-x="725" 
d="M211 0l59 274l-182 467h149l129 -333l270 333h157l-382 -470l-57 -271h-143zM265 782l27 129h124l-27 -129h-124zM480 782l27 129h124l-27 -129h-124z" />
    <glyph glyph-name="alphatonos" unicode="&#x3ac;" horiz-adv-x="661" 
d="M296 618l108 176h131l-137 -176h-102zM622 559l-84 -389c-10 -47 -9 -56 40 -56l-24 -112c-9 -3 -29 -4 -58 -4s-50 5 -68 19c-11 8 -19 22 -22 35c-37 -44 -96 -61 -190 -61c-159 0 -209 88 -209 204c0 36 5 76 14 117c35 161 103 264 272 264c117 0 167 -19 195 -66
l40 57zM267 111c91 0 133 34 159 155c6 28 9 54 9 77c0 71 -32 107 -124 107c-95 0 -129 -56 -152 -157c-5 -27 -8 -54 -8 -77c0 -62 26 -105 116 -105z" />
    <glyph glyph-name="epsilontonos" unicode="&#x3ad;" horiz-adv-x="519" 
d="M262 618l108 176h131l-137 -176h-102zM196 -13c-151 0 -206 47 -202 151c3 92 59 143 127 159c-40 15 -57 50 -54 103c3 118 100 177 232 177c104 0 166 -25 213 -66l-82 -89c-34 24 -67 37 -133 37c-69 0 -93 -25 -96 -60c-3 -36 11 -53 81 -53h77l-23 -104h-72
c-99 0 -126 -26 -129 -76c-4 -44 14 -63 83 -63c65 0 107 14 160 46l58 -88c-77 -53 -145 -74 -240 -74z" />
    <glyph glyph-name="etatonos" unicode="&#x3ae;" horiz-adv-x="633" 
d="M291 618l108 176h131l-137 -176h-102zM-14 0l118 555l109 8l-1 -42c35 30 88 55 173 55c209 0 205 -113 176 -253l-104 -489h-136l100 474c16 76 29 136 -93 136c-95 0 -122 -54 -137 -125l-67 -319h-138z" />
    <glyph glyph-name="iotatonos" unicode="&#x3af;" horiz-adv-x="279" 
d="M139 618l108 176h131l-137 -176h-102zM-8 0l121 563h135l-119 -563h-137z" />
    <glyph glyph-name="upsilontonos" unicode="&#x3cd;" 
d="M310 618l108 176h131l-137 -176h-102zM263 -11c-234 0 -260 105 -221 288l61 286h137l-63 -297c-19 -87 -29 -154 98 -154c96 0 109 50 127 133l68 318h134l-69 -324c-39 -185 -92 -250 -272 -250z" />
    <glyph glyph-name="alpha" unicode="&#x3b1;" horiz-adv-x="661" 
d="M622 559l-84 -389c-10 -47 -9 -56 40 -56l-24 -112c-9 -3 -29 -4 -58 -4s-50 5 -68 19c-11 8 -19 22 -22 35c-37 -44 -96 -61 -190 -61c-159 0 -209 88 -209 204c0 36 5 76 14 117c35 161 103 264 272 264c117 0 167 -19 195 -66l40 57zM267 111c91 0 133 34 159 155
c6 28 9 54 9 77c0 71 -32 107 -124 107c-95 0 -129 -56 -152 -157c-5 -27 -8 -54 -8 -77c0 -62 26 -105 116 -105z" />
    <glyph glyph-name="beta" unicode="&#x3b2;" horiz-adv-x="661" 
d="M-48 -165l151 706c29 136 98 242 277 242c172 0 237 -67 237 -166c0 -113 -48 -190 -128 -214c75 -21 114 -67 114 -151c0 -181 -94 -252 -291 -252h-106l25 119h73c120 0 167 42 167 128c0 57 -45 85 -173 85l24 110c101 -1 157 30 157 128c0 45 -29 78 -111 78
c-77 0 -116 -41 -135 -129l-145 -684h-136z" />
    <glyph glyph-name="gamma" unicode="&#x3b3;" horiz-adv-x="576" 
d="M102 -166l35 170l-91 559h141l56 -396l222 396h146l-329 -559l-35 -170h-145z" />
    <glyph glyph-name="delta" unicode="&#x3b4;" horiz-adv-x="640" 
d="M272 -11c-193 0 -264 88 -264 218c0 56 14 109 37 157c50 100 128 157 245 157c13 0 25 -1 35 -4l-166 166l20 93h429l-26 -120h-243l188 -187c36 -36 57 -86 57 -150c0 -38 -9 -94 -28 -143c-48 -123 -142 -187 -284 -187zM275 109c85 0 125 36 152 107
c9 24 16 56 16 83c0 64 -29 107 -124 107c-90 0 -131 -37 -157 -108c-10 -29 -14 -57 -14 -81c0 -64 32 -108 127 -108z" />
    <glyph glyph-name="epsilon" unicode="&#x3b5;" horiz-adv-x="519" 
d="M196 -13c-151 0 -206 47 -202 151c3 92 59 143 127 159c-40 15 -57 50 -54 103c3 118 100 177 232 177c104 0 166 -25 213 -66l-82 -89c-34 24 -67 37 -133 37c-69 0 -93 -25 -96 -60c-3 -36 11 -53 81 -53h77l-23 -104h-72c-99 0 -126 -26 -129 -76
c-4 -44 14 -63 83 -63c65 0 107 14 160 46l58 -88c-77 -53 -145 -74 -240 -74z" />
    <glyph glyph-name="zeta" unicode="&#x3b6;" horiz-adv-x="507" 
d="M259 111c104 -13 158 -39 158 -124c0 -108 -84 -145 -158 -145c-72 0 -121 22 -151 41l49 65c25 -17 56 -33 100 -33c40 0 61 17 61 40c0 26 -20 33 -79 37c-171 15 -223 90 -223 186c0 165 119 310 347 479h-249l24 119h440l-20 -93c-342 -239 -403 -375 -403 -475
c0 -56 29 -87 104 -97z" />
    <glyph glyph-name="eta" unicode="&#x3b7;" horiz-adv-x="633" 
d="M-14 0l118 555l109 8l-1 -42c35 30 88 55 173 55c209 0 205 -113 176 -253l-104 -489h-136l100 474c16 76 29 136 -93 136c-95 0 -122 -54 -137 -125l-67 -319h-138z" />
    <glyph glyph-name="theta" unicode="&#x3b8;" horiz-adv-x="728" 
d="M314 -11c-196 0 -276 93 -276 253c0 47 7 101 20 160c52 258 165 373 366 373c193 0 265 -104 265 -261c0 -61 -10 -120 -22 -176c-51 -243 -164 -349 -353 -349zM325 111c111 0 163 76 198 224h-335c-5 -31 -7 -60 -7 -85c0 -88 37 -139 144 -139zM411 648
c-109 0 -166 -70 -202 -213h333c3 22 5 44 5 66c0 91 -31 147 -136 147z" />
    <glyph glyph-name="iota" unicode="&#x3b9;" horiz-adv-x="279" 
d="M-8 0l121 563h135l-119 -563h-137z" />
    <glyph glyph-name="kappa" unicode="&#x3ba;" horiz-adv-x="582" 
d="M-15 0l120 563h135l-50 -234l238 234h152l-233 -229l132 -334h-142l-95 231l-91 -90l-30 -141h-136z" />
    <glyph glyph-name="lambda" unicode="&#x3bb;" horiz-adv-x="574" 
d="M212 777c124 0 171 -38 188 -137l101 -640h-141l-52 407l-231 -407h-146l336 563l-9 60c-7 34 -21 46 -81 46h-43l24 106c15 1 42 2 54 2z" />
    <glyph glyph-name="uni03BC" unicode="&#x3bc;" horiz-adv-x="632" 
d="M210 -11c-46 0 -77 7 -99 21l-38 -175h-126l156 728h136l-67 -315c-16 -76 -28 -136 94 -136c94 0 118 55 134 126l69 325h136l-118 -557l-106 -11v53c-35 -34 -86 -59 -171 -59z" />
    <glyph glyph-name="nu" unicode="&#x3bd;" horiz-adv-x="576" 
d="M139 -6l-93 569h141l56 -396l222 396h146l-334 -569h-138z" />
    <glyph glyph-name="xi" unicode="&#x3be;" horiz-adv-x="512" 
d="M259 -158c-72 0 -121 22 -151 41l49 65c25 -17 56 -33 100 -33c40 0 61 17 61 40c0 26 -20 33 -79 37c-175 14 -229 73 -229 175c0 142 98 220 215 240c-62 13 -90 45 -90 102c0 78 49 127 107 148h-128l25 119h452l-25 -119h-97c-131 0 -199 -34 -199 -121
c0 -50 31 -74 146 -77l-23 -111c-7 0 -34 0 -40 -1c-160 -6 -205 -67 -205 -151c0 -54 29 -76 111 -86c104 -14 158 -39 158 -123c0 -108 -84 -145 -158 -145z" />
    <glyph glyph-name="omicron" unicode="&#x3bf;" horiz-adv-x="634" 
d="M267 -11c-184 0 -258 88 -258 222c0 32 4 65 11 101c41 190 145 264 310 264c185 0 259 -87 259 -220c0 -31 -5 -65 -12 -102c-40 -190 -143 -265 -310 -265zM275 109c97 0 142 51 164 156c6 25 9 50 9 71c0 67 -32 113 -126 113c-98 0 -143 -53 -165 -159
c-6 -24 -9 -48 -9 -71c0 -66 33 -110 127 -110z" />
    <glyph glyph-name="rho" unicode="&#x3c1;" horiz-adv-x="653" 
d="M-48 -165l101 477c41 190 143 264 310 264c176 0 246 -92 246 -208c0 -36 -5 -72 -14 -112c-35 -162 -103 -265 -271 -265c-119 0 -167 26 -188 67l-47 -223h-137zM304 110c95 0 130 56 153 157c5 28 10 53 10 77c0 62 -28 105 -118 105c-93 0 -139 -37 -165 -155
c-6 -28 -9 -54 -9 -77c0 -70 35 -107 129 -107z" />
    <glyph glyph-name="sigma1" unicode="&#x3c2;" horiz-adv-x="552" 
d="M277 -158c-72 0 -121 22 -152 41l49 65c26 -17 56 -33 100 -33c40 0 62 17 62 40c0 26 -21 28 -80 32c-194 11 -247 99 -247 217c0 36 4 72 11 107c33 163 116 265 308 265c128 0 187 -43 226 -95l-113 -90c-19 26 -45 57 -125 57c-88 0 -137 -45 -159 -158
c-5 -23 -8 -48 -8 -72c0 -67 30 -106 119 -111c110 -8 166 -36 166 -120c0 -108 -83 -145 -157 -145z" />
    <glyph glyph-name="sigma" unicode="&#x3c3;" horiz-adv-x="634" 
d="M267 -11c-184 0 -258 88 -258 222c0 32 4 65 11 101c41 190 145 264 310 264c61 0 110 -10 148 -27h208l-21 -109h-88c8 -25 12 -54 12 -84c0 -31 -5 -65 -12 -102c-40 -190 -143 -265 -310 -265zM275 109c97 0 142 51 164 156c6 25 9 50 9 71c0 67 -32 113 -126 113
c-98 0 -143 -53 -165 -159c-6 -24 -9 -48 -9 -71c0 -66 33 -110 127 -110z" />
    <glyph glyph-name="tau" unicode="&#x3c4;" horiz-adv-x="558" 
d="M128 0l94 444h-190l25 119h516l-25 -119h-189l-94 -444h-137z" />
    <glyph glyph-name="upsilon" unicode="&#x3c5;" 
d="M263 -11c-234 0 -260 105 -221 288l61 286h137l-63 -297c-19 -87 -29 -154 98 -154c96 0 109 50 127 133l68 318h134l-69 -324c-39 -185 -92 -250 -272 -250z" />
    <glyph glyph-name="phi" unicode="&#x3c6;" horiz-adv-x="745" 
d="M186 -165l33 156c-148 14 -210 96 -210 219c0 41 6 81 15 120c25 104 73 171 140 207l62 -116c-31 -20 -52 -60 -66 -116c-7 -27 -12 -56 -12 -87c0 -61 27 -99 96 -108l99 466h108c175 -2 248 -89 248 -218c0 -71 -21 -140 -40 -181c-51 -139 -147 -188 -286 -188h-12
l-32 -154h-143zM558 338c0 63 -29 103 -100 110l-71 -339c71 1 108 30 136 88c19 33 35 88 35 141z" />
    <glyph glyph-name="chi" unicode="&#x3c7;" horiz-adv-x="565" 
d="M329 0l-88 193l-164 -193h-151l266 300l-119 263h142l76 -167l140 167h150l-242 -274l132 -289h-142z" />
    <glyph glyph-name="psi" unicode="&#x3c8;" horiz-adv-x="780" 
d="M389 -11h-8l-32 -154h-143l33 155c-215 7 -235 103 -197 277l64 296h136l-65 -304c-16 -80 -35 -143 88 -147l97 451h141l-96 -451c122 1 132 54 150 137l67 314h134l-68 -320c-39 -182 -83 -254 -301 -254z" />
    <glyph glyph-name="omega" unicode="&#x3c9;" horiz-adv-x="872" 
d="M532 492l-52 -248c-4 -22 -7 -43 -7 -59c0 -59 34 -75 82 -75c73 0 120 51 120 201c0 64 -10 128 -40 197l125 60c36 -84 52 -157 52 -242c0 -241 -113 -337 -251 -337c-117 0 -168 56 -169 141c-36 -95 -101 -141 -206 -141c-104 0 -180 48 -180 179
c0 117 49 255 181 403l103 -70c-126 -153 -144 -253 -144 -311c0 -59 27 -80 78 -80c55 0 98 27 121 134l52 248h135z" />
    <glyph glyph-name="iotadieresis" unicode="&#x3ca;" horiz-adv-x="279" 
d="M39 618l27 127h114l-27 -127h-114zM231 618l27 127h114l-27 -127h-114zM-8 0l121 563h135l-119 -563h-137z" />
    <glyph glyph-name="iotadieresistonos" unicode="&#x390;" horiz-adv-x="279" 
d="M-13 618l27 127h98l-28 -127h-97zM306 618l27 127h98l-27 -127h-98zM120 618l95 176h118l-128 -176h-85zM-8 0l121 563h135l-119 -563h-137z" />
    <glyph glyph-name="upsilondieresis" unicode="&#x3cb;" 
d="M191 618l27 129h124l-27 -129h-124zM406 618l27 129h124l-27 -129h-124zM263 -11c-234 0 -260 105 -221 288l61 286h137l-63 -297c-19 -87 -29 -154 98 -154c96 0 109 50 127 133l68 318h134l-69 -324c-39 -185 -92 -250 -272 -250z" />
    <glyph glyph-name="upsilondieresistonos" unicode="&#x3b0;" 
d="M157 618l27 127h98l-28 -127h-97zM476 618l27 127h98l-27 -127h-98zM290 618l95 176h118l-128 -176h-85zM263 -11c-234 0 -260 105 -221 288l61 286h137l-63 -297c-19 -87 -29 -154 98 -154c96 0 109 50 127 133l68 318h134l-69 -324c-39 -185 -92 -250 -272 -250z" />
    <glyph glyph-name="omegatonos" unicode="&#x3ce;" horiz-adv-x="872" 
d="M431 618l108 176h131l-137 -176h-102zM532 492l-52 -248c-4 -22 -7 -43 -7 -59c0 -59 34 -75 82 -75c73 0 120 51 120 201c0 64 -10 128 -40 197l125 60c36 -84 52 -157 52 -242c0 -241 -113 -337 -251 -337c-117 0 -168 56 -169 141c-36 -95 -101 -141 -206 -141
c-104 0 -180 48 -180 179c0 117 49 255 181 403l103 -70c-126 -153 -144 -253 -144 -311c0 -59 27 -80 78 -80c55 0 98 27 121 134l52 248h135z" />
    <glyph glyph-name="omicrontonos" unicode="&#x3cc;" horiz-adv-x="634" 
d="M278 618l108 176h131l-137 -176h-102zM267 -11c-184 0 -258 88 -258 222c0 32 4 65 11 101c41 190 145 264 310 264c185 0 259 -87 259 -220c0 -31 -5 -65 -12 -102c-40 -190 -143 -265 -310 -265zM275 109c97 0 142 51 164 156c6 25 9 50 9 71c0 67 -32 113 -126 113
c-98 0 -143 -53 -165 -159c-6 -24 -9 -48 -9 -71c0 -66 33 -110 127 -110z" />
    <glyph glyph-name="longs" unicode="&#x17f;" horiz-adv-x="429" 
d="M53 0l126 598c29 138 81 193 244 193c31 0 55 0 70 -1l-24 -112h-53c-68 0 -90 -31 -101 -79l-127 -599h-135z" />
    <glyph glyph-name="litre" unicode="&#x2113;" horiz-adv-x="531" 
d="M243 189c-3 -13 -5 -24 -5 -37c0 -30 15 -42 47 -42c42 0 67 23 85 40l38 -66c-33 -32 -96 -90 -193 -90c-77 0 -122 25 -122 105c0 19 3 44 9 71l11 51l-58 -41l-37 73l120 85l47 222c24 115 79 199 206 199c81 0 117 -48 117 -119c0 -116 -102 -206 -204 -282l-31 -22
c-15 -73 -29 -139 -30 -147zM417 631c0 21 -9 37 -28 37c-30 0 -51 -24 -68 -108c0 0 -10 -47 -23 -108c80 62 119 114 119 179z" />
    <glyph glyph-name="estimated" unicode="&#x212e;" horiz-adv-x="656" 
d="M592 289h-441c0 -97 0 -143 21 -178c29 -48 84 -78 158 -78c92 0 164 39 205 94h12l26 -31c-55 -68 -147 -108 -247 -108c-196 0 -298 128 -298 305c0 170 105 301 291 301c187 0 273 -159 273 -268v-37zM151 328h308c-5 153 2 227 -154 227c-138 0 -160 -56 -154 -227z
" />
    <glyph glyph-name="aringacute.alt" horiz-adv-x="650" 
d="M347 924l138 138h166l-176 -138h-128zM399 608c-91 0 -129 51 -129 113c0 102 62 169 154 169c90 0 129 -55 129 -118c0 -103 -65 -164 -154 -164zM403 678c47 0 78 32 78 86c0 30 -16 56 -61 56c-47 0 -78 -37 -78 -90c0 -29 18 -52 61 -52zM216 -9
c-158 0 -209 88 -209 204c0 36 6 76 15 117c35 161 102 264 271 264c117 0 167 -19 195 -66l40 57l94 -8l-118 -553l-107 -11l3 49c-39 -36 -90 -53 -184 -53zM268 111c91 0 132 34 158 155c7 28 9 54 9 77c0 71 -32 107 -124 107c-94 0 -129 -56 -151 -157
c-6 -27 -9 -54 -9 -77c0 -62 26 -105 117 -105z" />
    <glyph glyph-name="gcircumflex.alt" horiz-adv-x="653" 
d="M167 618l188 177h143l113 -177h-127l-74 91l-114 -91h-129zM242 -179c-139 0 -223 25 -278 50l66 113c46 -24 118 -44 212 -44c99 0 118 17 139 103l2 6c-40 -32 -88 -48 -170 -48c-140 0 -206 66 -206 200c0 36 8 80 15 113c39 168 104 262 271 262
c128 0 173 -22 201 -66l40 57l94 -8l-104 -489c-37 -170 -71 -249 -282 -249zM268 118c92 0 138 35 164 153c7 27 9 54 9 76c0 71 -37 103 -129 103s-129 -51 -152 -152c-6 -27 -9 -49 -9 -76c0 -63 29 -104 117 -104z" />
    <glyph glyph-name="gdotaccent.alt" horiz-adv-x="653" 
d="M242 -179c-139 0 -223 25 -278 50l66 113c46 -24 118 -44 212 -44c99 0 118 17 139 103l2 6c-40 -32 -88 -48 -170 -48c-140 0 -206 66 -206 200c0 36 8 80 15 113c39 168 104 262 271 262c128 0 173 -22 201 -66l40 57l94 -8l-104 -489c-37 -170 -71 -249 -282 -249z
M268 118c92 0 138 35 164 153c7 27 9 54 9 76c0 71 -37 103 -129 103s-129 -51 -152 -152c-6 -27 -9 -49 -9 -76c0 -63 29 -104 117 -104zM316 618l27 132h139l-28 -132h-138z" />
    <glyph glyph-name="ldot.alt" horiz-adv-x="577" 
d="M-8 0l165 776h137l-165 -776h-137zM326 274l35 169h161l-35 -169h-161z" />
    <glyph glyph-name="ubreve.alt" horiz-adv-x="632" 
d="M210 -11c-209 0 -205 110 -176 250l69 324h137l-67 -315c-16 -76 -29 -136 93 -136c94 0 119 55 134 126l69 325h136l-118 -557l-106 -11v48c-35 -31 -85 -54 -171 -54zM391 608c-159 0 -186 84 -184 194l103 12c0 -66 12 -97 88 -97c70 0 99 31 122 97l97 -18
c-33 -109 -101 -188 -226 -188z" />
    <glyph glyph-name="utilde.alt" horiz-adv-x="632" 
d="M210 -11c-209 0 -205 110 -176 250l69 324h137l-67 -315c-16 -76 -29 -136 93 -136c94 0 119 55 134 126l69 325h136l-118 -557l-106 -11v48c-35 -31 -85 -54 -171 -54zM475 619c-75 0 -115 53 -165 53c-28 0 -54 -21 -78 -48l-68 67c47 57 98 89 151 89
c75 0 115 -53 165 -53c26 0 50 19 76 49l69 -65c-51 -61 -100 -92 -150 -92z" />
    <glyph glyph-name="uni1EA0" unicode="&#x1ea0;" horiz-adv-x="748" 
d="M-62 0l444 746h140l125 -746h-142l-21 132h-318l-76 -132h-152zM236 256h229l-49 308zM189 -189l27 132h139l-28 -132h-138z" />
    <glyph glyph-name="uni1EA1" unicode="&#x1ea1;" 
d="M189 -10c-160 0 -204 64 -204 159c0 173 133 216 348 216h73c2 13 4 25 4 36c0 35 -23 52 -116 52c-45 0 -111 -15 -147 -34l-51 106c46 28 130 51 224 51c230 0 243 -84 210 -242l-35 -162c-9 -44 -11 -57 40 -56l-25 -114c-8 -3 -28 -4 -58 -4c-49 0 -72 11 -80 53
c-35 -39 -97 -61 -183 -61zM227 104c93 0 129 31 151 134l5 25h-70c-135 0 -191 -14 -191 -99c0 -37 22 -60 105 -60zM137 -189l27 132h139l-28 -132h-138z" />
    <glyph glyph-name="uni1EA2" unicode="&#x1ea2;" horiz-adv-x="748" 
d="M-62 0l444 746h140l125 -746h-142l-21 132h-318l-76 -132h-152zM236 256h229l-49 308zM498 773h-89c11 83 25 106 89 125c34 13 45 18 46 35c0 14 -7 22 -50 22c-30 -1 -62 -7 -98 -20l-29 78c43 20 102 26 139 26c94 0 135 -29 134 -90c-1 -62 -26 -90 -92 -111
c-37 -13 -43 -20 -50 -65z" />
    <glyph glyph-name="uni1EA3" unicode="&#x1ea3;" 
d="M189 -10c-160 0 -204 64 -204 159c0 173 133 216 348 216h73c2 13 4 25 4 36c0 35 -23 52 -116 52c-45 0 -111 -15 -147 -34l-51 106c46 28 130 51 224 51c230 0 243 -84 210 -242l-35 -162c-9 -44 -11 -57 40 -56l-25 -114c-8 -3 -28 -4 -58 -4c-49 0 -72 11 -80 53
c-35 -39 -97 -61 -183 -61zM380 611h-89c11 83 25 106 89 125c34 13 45 18 46 35c0 14 -7 22 -50 22c-30 -1 -62 -7 -98 -20l-29 78c43 20 102 26 139 26c94 0 135 -29 134 -90c-1 -62 -26 -90 -92 -111c-37 -13 -43 -20 -50 -65zM227 104c93 0 129 31 151 134l5 25h-70
c-135 0 -191 -14 -191 -99c0 -37 22 -60 105 -60z" />
    <glyph glyph-name="uni1EA4" unicode="&#x1ea4;" horiz-adv-x="748" 
d="M-62 0l444 746h140l125 -746h-142l-21 132h-318l-76 -132h-152zM236 256h229l-49 308zM237 782l189 176h142l113 -176h-127l-74 91l-114 -91h-129zM132 878l182 177h168l-223 -177h-127z" />
    <glyph glyph-name="uni1EA5" unicode="&#x1ea5;" 
d="M189 -10c-160 0 -204 64 -204 159c0 173 133 216 348 216h73c2 13 4 25 4 36c0 35 -23 52 -116 52c-45 0 -111 -15 -147 -34l-51 106c46 28 130 51 224 51c230 0 243 -84 210 -242l-35 -162c-9 -44 -11 -57 40 -56l-25 -114c-8 -3 -28 -4 -58 -4c-49 0 -72 11 -80 53
c-35 -39 -97 -61 -183 -61zM143 618l189 176h142l113 -176h-127l-74 91l-114 -91h-129zM227 104c93 0 129 31 151 134l5 25h-70c-135 0 -191 -14 -191 -99c0 -37 22 -60 105 -60zM38 714l182 177h168l-223 -177h-127z" />
    <glyph glyph-name="uni1EA6" unicode="&#x1ea6;" horiz-adv-x="748" 
d="M-62 0l444 746h140l125 -746h-142l-21 132h-318l-76 -132h-152zM236 256h229l-49 308zM237 782l188 176h143l113 -176h-127l-75 91l-113 -91h-129zM708 878l-147 177h159l106 -177h-118z" />
    <glyph glyph-name="uni1EA7" unicode="&#x1ea7;" 
d="M189 -10c-160 0 -204 64 -204 159c0 173 133 216 348 216h73c2 13 4 25 4 36c0 35 -23 52 -116 52c-45 0 -111 -15 -147 -34l-51 106c46 28 130 51 224 51c230 0 243 -84 210 -242l-35 -162c-9 -44 -11 -57 40 -56l-25 -114c-8 -3 -28 -4 -58 -4c-49 0 -72 11 -80 53
c-35 -39 -97 -61 -183 -61zM144 618l188 176h143l113 -176h-127l-75 91l-113 -91h-129zM227 104c93 0 129 31 151 134l5 25h-70c-135 0 -191 -14 -191 -99c0 -37 22 -60 105 -60zM615 714l-147 177h159l106 -177h-118z" />
    <glyph glyph-name="uni1EA8" unicode="&#x1ea8;" horiz-adv-x="748" 
d="M-62 0l444 746h140l125 -746h-142l-21 132h-318l-76 -132h-152zM236 256h229l-49 308zM237 782l189 176h143l113 -176h-127l-74 91l-114 -91h-130zM545 985h-90c11 83 25 106 89 126c35 14 45 19 46 35c1 14 -7 23 -49 23c-30 -1 -63 -7 -98 -21l-29 78
c43 19 102 26 139 26c94 0 135 -29 133 -90c-1 -62 -26 -90 -92 -112c-37 -12 -43 -19 -49 -65z" />
    <glyph glyph-name="uni1EA9" unicode="&#x1ea9;" 
d="M189 -10c-160 0 -204 64 -204 159c0 173 133 216 348 216h73c2 13 4 25 4 36c0 35 -23 52 -116 52c-45 0 -111 -15 -147 -34l-51 106c46 28 130 51 224 51c230 0 243 -84 210 -242l-35 -162c-9 -44 -11 -57 40 -56l-25 -114c-8 -3 -28 -4 -58 -4c-49 0 -72 11 -80 53
c-35 -39 -97 -61 -183 -61zM142 618l189 176h143l113 -176h-127l-74 91l-114 -91h-130zM450 821h-90c11 83 25 106 89 126c35 14 45 19 46 35c1 14 -7 23 -49 23c-30 -1 -63 -7 -98 -21l-29 78c43 19 102 26 139 26c94 0 135 -29 133 -90c-1 -62 -26 -90 -92 -112
c-37 -12 -43 -19 -49 -65zM227 104c93 0 129 31 151 134l5 25h-70c-135 0 -191 -14 -191 -99c0 -37 22 -60 105 -60z" />
    <glyph glyph-name="uni1EAA" unicode="&#x1eaa;" horiz-adv-x="748" 
d="M-62 0l444 746h140l125 -746h-142l-21 132h-318l-76 -132h-152zM236 256h229l-49 308zM237 782l188 176h143l113 -176h-127l-74 91l-114 -91h-129zM583 986c-74 0 -114 52 -164 52c-29 0 -54 -20 -79 -47l-68 65c48 56 99 88 151 88c75 0 116 -52 165 -52
c26 0 51 19 77 49l69 -65c-52 -60 -101 -90 -151 -90z" />
    <glyph glyph-name="uni1EAB" unicode="&#x1eab;" 
d="M189 -10c-160 0 -204 64 -204 159c0 173 133 216 348 216h73c2 13 4 25 4 36c0 35 -23 52 -116 52c-45 0 -111 -15 -147 -34l-51 106c46 28 130 51 224 51c230 0 243 -84 210 -242l-35 -162c-9 -44 -11 -57 40 -56l-25 -114c-8 -3 -28 -4 -58 -4c-49 0 -72 11 -80 53
c-35 -39 -97 -61 -183 -61zM489 822c-74 0 -114 52 -164 52c-29 0 -54 -20 -79 -47l-68 65c48 56 99 88 151 88c75 0 116 -52 165 -52c26 0 51 19 77 49l69 -65c-52 -60 -101 -90 -151 -90zM143 618l188 176h143l113 -176h-127l-74 91l-114 -91h-129zM227 104
c93 0 129 31 151 134l5 25h-70c-135 0 -191 -14 -191 -99c0 -37 22 -60 105 -60z" />
    <glyph glyph-name="uni1EAC" unicode="&#x1eac;" horiz-adv-x="748" 
d="M-62 0l444 746h140l125 -746h-142l-21 132h-318l-76 -132h-152zM236 256h229l-49 308zM238 782l188 177h143l113 -177h-127l-74 91l-114 -91h-129zM189 -189l27 132h139l-28 -132h-138z" />
    <glyph glyph-name="uni1EAD" unicode="&#x1ead;" 
d="M189 -10c-160 0 -204 64 -204 159c0 173 133 216 348 216h73c2 13 4 25 4 36c0 35 -23 52 -116 52c-45 0 -111 -15 -147 -34l-51 106c46 28 130 51 224 51c230 0 243 -84 210 -242l-35 -162c-9 -44 -11 -57 40 -56l-25 -114c-8 -3 -28 -4 -58 -4c-49 0 -72 11 -80 53
c-35 -39 -97 -61 -183 -61zM144 618l188 177h143l113 -177h-127l-74 91l-114 -91h-129zM227 104c93 0 129 31 151 134l5 25h-70c-135 0 -191 -14 -191 -99c0 -37 22 -60 105 -60zM137 -189l27 132h139l-28 -132h-138z" />
    <glyph glyph-name="uni1EAE" unicode="&#x1eae;" horiz-adv-x="748" 
d="M-62 0l444 746h140l125 -746h-142l-21 132h-318l-76 -132h-152zM236 256h229l-49 308zM438 1001l181 176h169l-223 -176h-127zM476 772c-159 0 -186 83 -185 191l103 12c1 -65 12 -97 89 -97c70 0 98 32 122 97l96 -18c-33 -107 -100 -185 -225 -185z" />
    <glyph glyph-name="uni1EAF" unicode="&#x1eaf;" 
d="M189 -10c-160 0 -204 64 -204 159c0 173 133 216 348 216h73c2 13 4 25 4 36c0 35 -23 52 -116 52c-45 0 -111 -15 -147 -34l-51 106c46 28 130 51 224 51c230 0 243 -84 210 -242l-35 -162c-9 -44 -11 -57 40 -56l-25 -114c-8 -3 -28 -4 -58 -4c-49 0 -72 11 -80 53
c-35 -39 -97 -61 -183 -61zM364 608c-159 0 -186 83 -185 191l103 12c1 -65 12 -97 89 -97c70 0 98 32 122 97l96 -18c-33 -107 -100 -185 -225 -185zM227 104c93 0 129 31 151 134l5 25h-70c-135 0 -191 -14 -191 -99c0 -37 22 -60 105 -60zM326 837l181 176h169l-223 -176
h-127z" />
    <glyph glyph-name="uni1EB0" unicode="&#x1eb0;" horiz-adv-x="748" 
d="M-62 0l444 746h140l125 -746h-142l-21 132h-318l-76 -132h-152zM236 256h229l-49 308zM453 1001l-149 176h160l105 -176h-116zM476 772c-159 0 -186 83 -185 191l103 12c1 -65 12 -97 89 -97c70 0 98 32 122 97l96 -18c-33 -107 -100 -185 -225 -185z" />
    <glyph glyph-name="uni1EB1" unicode="&#x1eb1;" 
d="M189 -10c-160 0 -204 64 -204 159c0 173 133 216 348 216h73c2 13 4 25 4 36c0 35 -23 52 -116 52c-45 0 -111 -15 -147 -34l-51 106c46 28 130 51 224 51c230 0 243 -84 210 -242l-35 -162c-9 -44 -11 -57 40 -56l-25 -114c-8 -3 -28 -4 -58 -4c-49 0 -72 11 -80 53
c-35 -39 -97 -61 -183 -61zM364 608c-159 0 -186 83 -185 191l103 12c1 -65 12 -97 89 -97c70 0 98 32 122 97l96 -18c-33 -107 -100 -185 -225 -185zM227 104c93 0 129 31 151 134l5 25h-70c-135 0 -191 -14 -191 -99c0 -37 22 -60 105 -60zM341 837l-149 176h160l105 -176
h-116z" />
    <glyph glyph-name="uni1EB2" unicode="&#x1eb2;" horiz-adv-x="748" 
d="M-62 0l444 746h140l125 -746h-142l-21 132h-318l-76 -132h-152zM236 256h229l-49 308zM477 772c-160 0 -187 83 -185 191l103 12c0 -65 12 -97 89 -97c70 0 97 32 122 97l96 -18c-33 -107 -100 -185 -225 -185zM544 975h-90c10 83 24 107 89 126c34 14 45 18 45 35
c2 14 -7 22 -49 22c-30 -1 -63 -7 -98 -20l-29 77c44 21 103 27 139 27c94 0 136 -30 134 -91c-1 -61 -26 -89 -92 -111c-37 -12 -44 -19 -49 -65z" />
    <glyph glyph-name="uni1EB3" unicode="&#x1eb3;" 
d="M189 -10c-160 0 -204 64 -204 159c0 173 133 216 348 216h73c2 13 4 25 4 36c0 35 -23 52 -116 52c-45 0 -111 -15 -147 -34l-51 106c46 28 130 51 224 51c230 0 243 -84 210 -242l-35 -162c-9 -44 -11 -57 40 -56l-25 -114c-8 -3 -28 -4 -58 -4c-49 0 -72 11 -80 53
c-35 -39 -97 -61 -183 -61zM364 608c-160 0 -187 83 -185 191l103 12c0 -65 12 -97 89 -97c70 0 97 32 122 97l96 -18c-33 -107 -100 -185 -225 -185zM431 811h-90c10 83 24 107 89 126c34 14 45 18 45 35c2 14 -7 22 -49 22c-30 -1 -63 -7 -98 -20l-29 77
c44 21 103 27 139 27c94 0 136 -30 134 -91c-1 -61 -26 -89 -92 -111c-37 -12 -44 -19 -49 -65zM227 104c93 0 129 31 151 134l5 25h-70c-135 0 -191 -14 -191 -99c0 -37 22 -60 105 -60z" />
    <glyph glyph-name="uni1EB4" unicode="&#x1eb4;" horiz-adv-x="748" 
d="M-62 0l444 746h140l125 -746h-142l-21 132h-318l-76 -132h-152zM236 256h229l-49 308zM585 1011c-74 0 -114 52 -164 52c-29 0 -54 -20 -79 -47l-68 66c48 55 99 87 151 87c75 0 116 -52 165 -52c26 0 51 19 77 50l69 -65c-52 -60 -101 -91 -151 -91zM477 772
c-160 0 -187 83 -185 191l102 12c1 -65 12 -97 90 -97c69 0 97 32 121 97l97 -18c-33 -107 -100 -185 -225 -185z" />
    <glyph glyph-name="uni1EB5" unicode="&#x1eb5;" 
d="M189 -10c-160 0 -204 64 -204 159c0 173 133 216 348 216h73c2 13 4 25 4 36c0 35 -23 52 -116 52c-45 0 -111 -15 -147 -34l-51 106c46 28 130 51 224 51c230 0 243 -84 210 -242l-35 -162c-9 -44 -11 -57 40 -56l-25 -114c-8 -3 -28 -4 -58 -4c-49 0 -72 11 -80 53
c-35 -39 -97 -61 -183 -61zM364 608c-160 0 -187 83 -185 191l102 12c1 -65 12 -97 90 -97c69 0 97 32 121 97l97 -18c-33 -107 -100 -185 -225 -185zM472 847c-74 0 -114 52 -164 52c-29 0 -54 -20 -79 -47l-68 66c48 55 99 87 151 87c75 0 116 -52 165 -52
c26 0 51 19 77 50l69 -65c-52 -60 -101 -91 -151 -91zM227 104c93 0 129 31 151 134l5 25h-70c-135 0 -191 -14 -191 -99c0 -37 22 -60 105 -60z" />
    <glyph glyph-name="uni1EB6" unicode="&#x1eb6;" horiz-adv-x="748" 
d="M-62 0l444 746h140l125 -746h-142l-21 132h-318l-76 -132h-152zM236 256h229l-49 308zM189 -189l27 132h139l-28 -132h-138zM477 772c-159 0 -186 84 -184 194l103 12c0 -66 12 -97 88 -97c70 0 99 31 122 97l97 -18c-33 -109 -101 -188 -226 -188z" />
    <glyph glyph-name="uni1EB7" unicode="&#x1eb7;" 
d="M189 -10c-160 0 -204 64 -204 159c0 173 133 216 348 216h73c2 13 4 25 4 36c0 35 -23 52 -116 52c-45 0 -111 -15 -147 -34l-51 106c46 28 130 51 224 51c230 0 243 -84 210 -242l-35 -162c-9 -44 -11 -57 40 -56l-25 -114c-8 -3 -28 -4 -58 -4c-49 0 -72 11 -80 53
c-35 -39 -97 -61 -183 -61zM365 608c-159 0 -186 84 -184 194l103 12c0 -66 12 -97 88 -97c70 0 99 31 122 97l97 -18c-33 -109 -101 -188 -226 -188zM227 104c93 0 129 31 151 134l5 25h-70c-135 0 -191 -14 -191 -99c0 -37 22 -60 105 -60zM137 -189l27 132h139l-28 -132
h-138z" />
    </font>
</defs>
</svg>
